<?xml version="1.0" encoding="UTF-8" standalone="no"?>
<!-- Created with Inkscape (http://www.inkscape.org/) -->

<svg
   xmlns:dc="http://purl.org/dc/elements/1.1/"
   xmlns:cc="http://creativecommons.org/ns#"
   xmlns:rdf="http://www.w3.org/1999/02/22-rdf-syntax-ns#"
   xmlns:svg="http://www.w3.org/2000/svg"
   xmlns="http://www.w3.org/2000/svg"
   xmlns:sodipodi="http://sodipodi.sourceforge.net/DTD/sodipodi-0.dtd"
   xmlns:inkscape="http://www.inkscape.org/namespaces/inkscape"
   width="300"
   height="700"
   id="svg2"
   version="1.1"
   inkscape:version="0.48.5 r10040"
   sodipodi:docname="traveler.svg">
  <defs
     id="defs4" />
  <sodipodi:namedview
     id="base"
     pagecolor="#ffffff"
     bordercolor="#666666"
     borderopacity="1.0"
     inkscape:pageopacity="0.0"
     inkscape:pageshadow="2"
     inkscape:zoom="1.4142136"
     inkscape:cx="45.378971"
     inkscape:cy="328.81562"
     inkscape:document-units="px"
     inkscape:current-layer="layer2"
     showgrid="false"
     inkscape:window-width="1366"
     inkscape:window-height="706"
     inkscape:window-x="-8"
     inkscape:window-y="-8"
     inkscape:window-maximized="1" />
  <metadata
     id="metadata7">
    <rdf:RDF>
      <cc:Work
         rdf:about="">
        <dc:format>image/svg+xml</dc:format>
        <dc:type
           rdf:resource="http://purl.org/dc/dcmitype/StillImage" />
        <dc:title />
      </cc:Work>
    </rdf:RDF>
  </metadata>
  <g
     inkscape:groupmode="layer"
     id="layer3"
     inkscape:label="fills"
     style="display:inline"
     sodipodi:insensitive="true">
    <path
       style="fill:#7e7ebf;fill-opacity:1;stroke:none"
       d="m 146.37849,55.692981 c -8.58498,-0.03523 -17.35494,0.732685 -25.28907,4.241692 -9.42611,3.93149 -16.95164,11.470029 -22.109185,20.167698 -0.65613,-1.385135 -2.77752,-0.408515 -4.07171,-0.576609 -16.05509,1.187207 -32.52525,1.249038 -47.93536,6.384986 -7.77994,2.59614 -15.58336,7.185887 -19.16133,14.891862 -1.72249,3.89489 -2.77988,8.29043 -2.20182,12.55588 0.75351,4.04871 4.83749,6.27226 8.60998,6.78696 10.18485,1.07808 20.37874,-0.92264 30.33296,-2.95412 29.50326,-6.33839 58.467095,-15.22954 88.304725,-19.883251 11.75382,-1.73001 23.8013,-2.510302 35.58419,-0.625001 20.78827,3.028518 41.33287,7.676022 62.21869,10.023032 7.87855,0.68328 15.97597,1.56534 23.74687,-0.32399 2.7716,-0.64551 5.46369,-2.5069 6.04513,-5.45324 1.0869,-3.54407 0.51056,-7.636044 -2.09133,-10.393528 -3.32921,-3.883544 -8.35524,-5.697417 -13.07239,-7.275389 -13.68641,-3.767425 -28.04497,-4.406636 -42.18609,-4.327554 -8.96881,0.179478 -17.97153,0.629636 -26.8322,2.061737 -0.77455,0.890545 -0.80821,-0.673754 -1.24691,-1.167989 -4.39596,-8.840211 -11.93162,-16.059811 -21.13005,-19.757043 -8.67086,-3.530112 -18.19925,-4.606907 -27.5151,-4.376133 z"
       id="path3246"
       inkscape:connector-curvature="0" />
    <path
       style="fill:#bf7ebf;fill-opacity:1;stroke:none"
       d="m 172.8603,94.834322 c -18.03041,0.371141 -35.71819,4.425037 -53.23015,8.401738 -9.3179,2.22907 -18.6581,4.42305 -27.905615,6.90839 -1.51021,0.83058 -0.6483,2.83294 -1.19564,4.171 -1.19088,7.50303 -5.33518,14.05432 -8.1335,21.0224 -2.55647,5.55926 -3.60076,12.3559 -0.59035,17.9807 1.05664,1.74528 1.96385,3.85788 3.65339,5.0449 1.28067,-0.14846 0.22243,1.13675 0.22461,1.92638 -0.94665,3.4285 -1.0245,7.21442 0.75398,10.40063 1.80594,3.59362 5.03626,6.35797 8.54683,8.1996 1.70129,0.44121 1.66375,-1.81585 1.8065,-2.91412 0.47304,-0.0416 1.40896,1.17515 2.20362,1.49328 2.314895,1.33467 4.917555,2.29187 7.516825,2.73942 1.61671,-0.25462 0.82412,-2.40231 1.07174,-3.52826 0.0257,-8.83768 0.0602,-17.62813 1.23604,-26.39205 1.2095,-10.65974 2.64594,-21.29332 3.79559,-31.96007 2.3789,0.22359 4.90592,-0.14102 7.3315,-0.29989 0.007,1.26496 -0.74055,3.75537 1.22246,3.69727 3.61699,-0.34956 7.46318,-0.39439 10.78191,-1.94143 0.91981,-0.65155 -0.40818,-3.26187 0.48048,-3.17637 2.18738,0.4634 4.77019,0.20595 6.77907,0.26043 0.41544,2.10526 3.00204,1.50373 4.52991,1.40475 1.63361,-0.27675 3.4246,-0.27105 4.88503,-1.07329 0.23205,-1.63257 0.33742,-2.20654 2.1446,-1.8383 1.31993,-0.14256 2.76207,-0.0124 3.97945,-0.61605 0.24626,1.59143 -0.0695,3.32698 0.584,4.814 1.59824,0.63827 3.3083,-0.60735 4.95669,-0.78471 1.71143,-0.19292 3.28935,-1.4676 3.20344,-3.32692 0.13576,-0.91485 0.057,-2.17973 0.22098,-2.84895 1.49805,1.19793 3.63255,0.51656 5.39011,0.74972 0.45327,0.40337 0.12123,1.88481 0.23675,2.73846 -0.18152,1.56573 0.68398,3.53614 2.52538,3.30668 1.60335,-0.0495 3.19958,-0.31803 4.71931,-0.83654 0.52037,23.16699 0.71023,46.33957 0.89967,69.51112 0.55702,1.87362 2.6588,0.38043 3.93435,0.16123 3.19516,-1.00465 6.7433,-2.18569 8.44001,-5.33826 0.93731,-1.73438 0.0788,-3.85114 0.2423,-5.7287 0.0756,-1.30847 -0.41728,-3.46267 0.0102,-4.24655 1.92123,-0.79693 3.50723,-2.40097 5.60319,-2.85684 0.58375,-0.33699 0.19672,1.22488 0.4814,1.70463 0.56948,1.68268 2.67199,0.6056 3.70127,-0.0316 2.58055,-1.61393 5.3491,-3.27001 7.17366,-5.75313 1.13285,-2.75421 0.41183,-5.85341 0.39812,-8.74333 -0.94849,-10.83788 -3.88681,-21.36327 -6.01646,-32.0154 -1.72551,-7.77017 -2.74518,-15.71345 -2.14274,-23.69343 -0.22851,-1.24077 0.85023,-2.976793 -0.4543,-3.819947 -3.92783,-1.029256 -8.04775,-1.351212 -12.05638,-2.022859 -4.61643,-0.64008 -9.27947,-0.898909 -13.93927,-0.849762 z"
       id="path3254"
       inkscape:connector-curvature="0" />
    <path
       style="fill:#ffe5d4;fill-opacity:1;stroke:none"
       d="m 163.20861,112.45675 c -0.89492,1.43145 -0.16377,3.38635 -0.86021,4.95606 -2.17556,0.69739 -4.42422,1.1594 -6.6528,1.7362 -0.24779,-1.54518 0.50649,-3.50546 -0.50209,-4.73754 -1.37912,-0.39766 -2.9267,0.39413 -4.39084,0.20764 -1.39992,-0.29298 -3.18074,0.23665 -2.68321,2.00452 -0.30907,0.64468 -1.72008,0.37679 -2.4285,0.6408 -1.8795,0.24486 -3.77194,0.44188 -5.65272,0.29043 -0.12792,-2.17057 -2.85692,-1.17737 -4.29315,-1.45998 -1.38581,0.24108 -3.74249,-0.8472 -4.29315,0.92334 -0.19878,0.83639 0.5207,2.49495 -0.83653,2.58851 -3.29273,0.95577 -6.75842,1.16369 -10.15677,1.34161 -0.011,-1.21934 0.82932,-3.67303 -1.13579,-3.59658 -2.3154,0.28115 -4.69653,0.12042 -6.96644,0.48849 -1.05348,1.21292 -0.52979,3.23223 -0.94034,4.77936 -1.07984,9.63348 -2.5243,19.24346 -3.4265,28.88585 1.18093,3.6029 3.74538,6.58117 6.02145,9.55699 8.5751,10.59721 22.72421,16.26026 36.26782,14.63198 10.13419,-1.01513 20.28808,-5.51122 26.59434,-13.7176 1.8255,-1.77286 0.73753,-4.50161 1.02999,-6.74643 -0.0718,-12.10959 -0.23394,-24.22187 -0.58399,-36.32604 -0.61641,-1.73014 -2.60889,-0.37639 -3.8591,-0.3788 -1.01852,0.047 -2.50893,0.26566 -3.18462,-0.31413 -0.34799,-1.7482 0.0637,-3.58749 -0.4614,-5.27328 -1.71398,-0.68715 -3.70772,-0.11845 -5.50856,-0.5821 -0.37407,-0.12759 -0.73066,0.0307 -1.09689,0.1007 z"
       id="path3262"
       inkscape:connector-curvature="0" />
    <path
       style="fill:#7e7eff;fill-opacity:1;stroke:none"
       d="m 128.33089,129.2369 c -2.71156,0.16353 -5.53024,0.0122 -8.12857,0.9194 -1.11804,0.48416 -2.27501,1.24116 -2.7937,2.37938 -0.22746,1.18847 1.16435,1.58115 1.90982,2.16236 6.4497,4.10711 13.69142,6.75424 20.50689,10.12915 1.11808,0.34548 1.86868,-0.85856 2.47013,-1.61782 1.4236,-2.0558 0.9437,-4.83467 -0.38654,-6.80723 -2.52502,-3.82428 -6.85099,-6.27867 -11.32491,-7.02318 -0.73895,-0.1277 -1.49774,-0.16134 -2.25312,-0.14206 z"
       id="path3294"
       inkscape:connector-curvature="0" />
    <path
       style="fill:#7e7eff;fill-opacity:1;stroke:none"
       d="m 166.97712,129.53679 c -3.98938,0.30061 -7.96992,1.11908 -11.69712,2.58738 -2.8313,1.0996 -5.25859,3.69071 -5.38866,6.83545 -0.10251,2.18569 0.72143,4.39631 2.12963,6.04536 0.87394,0.75734 1.93731,-0.21488 2.84806,-0.45178 6.97151,-2.77835 13.96727,-6.14391 19.20678,-11.65449 0.77611,-0.96877 -0.37974,-1.90104 -1.26006,-2.19703 -1.82685,-0.81889 -3.83406,-1.20267 -5.83863,-1.16489 z"
       id="path3296"
       inkscape:connector-curvature="0" />
    <path
       style="fill:#bf7ebf;fill-opacity:1;stroke:none"
       d="m 124.45996,137.19975 c -1.05891,0.47089 -0.76035,1.8413 -0.87619,2.77785 -0.21329,1.88271 0.4658,4.18211 2.35985,4.94034 1.64499,0.57584 3.35095,-0.40969 4.30893,-1.7283 0.55316,-0.79712 1.32263,-1.66986 1.29911,-2.66648 -0.34126,-1.01226 -1.63912,-1.0226 -2.43228,-1.55272 -1.44784,-0.59611 -2.79834,-1.5402 -4.34375,-1.82199 -0.10522,0.0171 -0.21045,0.0342 -0.31567,0.0513 z"
       id="path3298"
       inkscape:connector-curvature="0" />
    <path
       style="fill:#bf7ebf;fill-opacity:1;stroke:none"
       d="m 165.01995,139.10562 c -1.93506,0.73028 -3.79228,1.70025 -5.61503,2.67138 -0.90112,0.6406 -0.25358,1.73952 0.18151,2.44646 0.73005,1.26488 1.99897,2.83764 3.65786,2.33993 1.99795,-0.70961 2.59298,-3.03648 2.81738,-4.92055 0.0976,-0.85058 0.47402,-2.23916 -0.67268,-2.51308 -0.12251,-0.0442 -0.24209,-0.0472 -0.36904,-0.0241 z"
       id="path3300"
       inkscape:connector-curvature="0" />
    <path
       style="fill:#7ebfbf;fill-opacity:1;stroke:none"
       d="m 117.61381,132.98552 c -1.29906,0.16515 -1.51046,1.71516 -1.80328,2.7424 -0.59391,2.94937 1.25126,5.75152 3.49607,7.48934 3.20391,2.51463 7.24234,3.86865 11.27706,4.18804 2.71079,0.13415 5.51425,-0.0563 7.98292,-1.27202 0.75493,-0.33642 2.04345,-0.827 1.57149,-1.86878 -0.53251,-0.81852 -1.69117,-0.96159 -2.50838,-1.45226 -1.95066,-0.83514 -3.85299,-1.84384 -5.83998,-2.55611 -1.20217,-0.15429 -1.31108,1.38503 -1.96332,2.06935 -0.73638,1.0277 -1.79915,2.07827 -3.16462,1.87825 -1.15873,-0.0955 -1.95338,-1.31985 -2.13473,-2.38727 -0.0802,-1.46643 -0.0749,-2.94954 0.18151,-4.38785 -0.0914,-1.0425 -1.33402,-1.17618 -2.02262,-1.71537 -1.55533,-0.82047 -2.97681,-1.88638 -4.54732,-2.66459 -0.17001,-0.0498 -0.34722,-0.0806 -0.5248,-0.0631 z"
       id="path3306"
       inkscape:connector-curvature="0" />
    <path
       style="fill:#7ebfbf;fill-opacity:1;stroke:none"
       d="m 173.62598,132.16082 c -2.3723,2.44692 -5.07186,4.58075 -7.97798,6.34263 -0.77,0.78413 -0.23818,2.02598 -0.46232,3.01707 -0.19259,1.45298 -0.49602,3.20971 -1.79539,4.0919 -0.85512,0.42099 -1.83551,-0.0184 -2.33203,-0.76945 -0.77488,-0.74219 -0.95676,-1.8888 -1.73226,-2.61219 -1.03195,-0.37139 -1.96649,0.51998 -2.92728,0.77399 -1.11522,0.54445 -2.40336,0.82408 -3.42957,1.51858 -0.74771,0.8173 0.096,1.79916 0.80496,2.2689 2.28845,1.87727 5.37842,2.65481 8.28909,2.13661 3.72272,-0.60826 6.78385,-3.10049 9.42409,-5.64058 2.09566,-2.15213 4.22236,-4.67727 4.54174,-7.78527 0.0878,-1.2899 -0.27205,-2.87925 -1.4511,-3.53947 -0.36155,-0.12724 -0.64207,0.0212 -0.95195,0.19728 z"
       id="path3308"
       inkscape:connector-curvature="0" />
    <path
       style="fill:#f378f3;fill-opacity:1;stroke:none"
       d="m 107.98125,153.45876 c -0.86885,1.67794 -0.37562,3.80293 -0.72421,5.65002 -0.0882,3.01775 -0.71863,6.10055 -0.22281,9.09189 0.88786,1.52661 2.66931,0.095 3.96959,0.1026 1.68545,-0.38094 4.57514,0.0728 4.86136,-2.29652 0.056,-1.75963 0.48228,-3.84741 -1.11988,-5.09931 -2.05282,-2.29309 -3.57932,-5.12907 -5.50925,-7.425 -0.44535,-0.32213 -0.7828,-0.23496 -1.2548,-0.0237 z"
       id="path4317"
       inkscape:connector-curvature="0" />
    <path
       style="fill:#f378f3;fill-opacity:1;stroke:none"
       d="m 115.62053,163.50504 c -0.67912,1.70641 -0.71988,3.70225 -0.60884,5.52509 0.68325,1.51868 2.64875,0.24841 3.92985,0.37467 1.2284,0.0222 4.0611,-0.25981 2.70834,-2.03277 -1.9255,-1.1969 -3.35238,-3.13928 -5.35855,-4.1432 -0.2236,0.0921 -0.4472,0.18414 -0.6708,0.27621 z"
       id="path4319"
       inkscape:connector-curvature="0" />
    <path
       style="fill:#f378f3;fill-opacity:1;stroke:none"
       d="m 176.45065,161.65836 c -2.4894,2.72276 -5.20933,5.20999 -8.14577,7.43407 -0.9302,1.69506 1.60857,1.75451 2.70042,1.96508 2.10478,0.24174 3.9907,1.599 6.08459,1.6415 1.44447,-0.87601 0.71373,-2.95564 0.95491,-4.34839 -0.15658,-2.17297 0.32562,-4.46558 -0.26043,-6.5581 -0.45665,-0.32384 -0.81819,-0.36626 -1.33372,-0.13416 z"
       id="path4321"
       inkscape:connector-curvature="0" />
    <path
       style="fill:#ffe5d4;fill-opacity:1;stroke:none"
       d="m 131.93761,173.39003 c -1.04262,1.37979 -0.46228,3.39669 -0.75192,5.019 0.0476,2.19307 -0.46848,4.57149 0.52306,6.58987 2.9587,1.04265 6.47072,1.03338 9.07559,2.89629 2.67427,3.26238 3.25039,7.61551 4.64519,11.49188 -0.14892,1.61563 2.02463,3.08741 2.50372,0.98111 1.2842,-4.18783 1.04343,-8.65016 1.34269,-12.97806 2.24831,-2.72184 5.65577,-3.80302 8.81516,-5.04288 1.91955,-0.89177 0.77201,-3.36939 1.04172,-4.97973 -0.22405,-1.26752 0.63557,-3.7798 -1.29426,-3.82753 -6.03529,1.8044 -12.43463,1.82763 -18.65626,1.18377 -2.31305,-0.21492 -4.52714,-1.26645 -6.79454,-1.45137 l -0.24433,0.0639 -0.20582,0.0538 z"
       id="path4337"
       inkscape:connector-curvature="0" />
    <path
       style="fill:#d66b71;fill-opacity:1;stroke:none"
       d="m 130.34347,177.84891 c -2.04493,1.08661 -4.17123,2.23837 -5.91886,3.7644 -0.67254,0.99234 0.58945,2.01328 1.69674,2.12289 1.6472,0.29034 3.34099,1.21572 5.0113,0.90756 1.35556,-1.07337 0.51975,-3.11547 0.65553,-4.58468 0.004,-0.92859 -0.0495,-2.54297 -1.44471,-2.21017 z"
       id="path4341"
       inkscape:connector-curvature="0" />
    <path
       style="fill:#d66b71;fill-opacity:1;stroke:none"
       d="m 158.77768,176.09693 c -0.7958,1.34463 -0.4306,3.17699 -0.1894,4.68773 0.77142,1.77877 2.93618,0.53976 4.18021,0.0636 1.12462,-0.41493 2.74692,-0.80921 2.34632,-2.37591 -0.83071,-2.15874 -3.69491,-2.22798 -5.64265,-2.54905 -0.23149,0.0579 -0.46298,0.11574 -0.69448,0.17362 z"
       id="path4349"
       inkscape:connector-curvature="0" />
    <path
       style="fill:#c83737;fill-opacity:1;stroke:none"
       d="m 163.61537,179.64824 c -4.67673,2.23492 -10.38204,2.83586 -14.23684,6.62913 -1.56815,1.82726 -0.6893,4.46188 -1.11148,6.62674 -0.0932,2.50193 -0.36101,5.0044 -0.99564,7.42069 0.25802,1.77117 2.41072,0.90432 3.5376,0.68787 5.28989,-1.37157 10.50083,-4.07623 13.93489,-8.41396 0.92941,-1.06924 1.21114,-2.49371 0.74972,-3.81963 -0.42443,-2.8943 -0.0735,-5.8926 -0.61723,-8.73487 -0.16447,-0.42569 -0.86424,-0.57771 -1.26102,-0.39597 z"
       id="path4351"
       inkscape:connector-curvature="0" />
    <path
       style="fill:#c83737;fill-opacity:1;stroke:none"
       d="m 123.4021,182.40629 c -1.45648,0.7671 -1.34673,2.79901 -1.85457,4.18266 -0.58357,2.95471 -1.20466,6.27014 0.22097,9.07559 3.80391,4.41032 9.96401,5.62032 15.51531,6.18718 2.84216,0.28611 5.79821,0.13752 8.55473,-0.56031 1.09528,-1.14093 -0.2044,-2.74939 -0.33958,-4.06192 -1.16657,-3.42838 -1.92279,-7.25972 -4.37973,-10.03287 -2.77222,-1.70021 -6.18331,-1.94763 -9.26633,-2.83508 -2.85193,-0.53172 -5.62205,-1.55433 -8.4508,-1.95525 z"
       id="path4457"
       inkscape:connector-curvature="0" />
    <path
       style="fill:#ffe5d4;fill-opacity:1;stroke:none"
       d="m 144.89941,379.08615 c -3.38795,2.19564 -7.17942,4.51725 -11.39516,3.97556 -1.59447,-0.48406 -2.92337,0.30151 -3.91496,1.50925 -2.82806,2.67574 -4.94695,6.00583 -6.85227,9.35479 0.28946,3.39606 2.29575,6.6233 4.80829,8.93055 2.25926,1.85665 4.78147,3.8458 7.75765,4.2379 0.78191,-0.028 1.77527,-0.41801 1.8388,-1.31793 1.03269,1.23057 2.68406,1.59676 4.1432,0.93913 0.95229,0.006 1.66397,-1.44527 2.33598,-0.3946 1.7218,1.55197 4.17712,0.40891 6.0114,-0.21331 0.80057,-0.35062 2.16457,1.31239 3.4674,0.009 1.49708,-0.28313 2.50737,-1.82735 1.86174,-3.28391 -1.35221,-4.07456 -3.21266,-8.07792 -4.1511,-12.24021 1.93791,-0.66028 4.01784,-0.53721 5.97144,-0.82992 1.05266,-1.06701 0.18566,-2.89525 0.18418,-4.29976 -0.19995,-2.45887 -1.88575,-4.7999 -4.42719,-5.18489 -2.44458,-0.50773 -4.9484,-1.2089 -7.4244,-1.23469 l -0.215,0.043 z"
       id="path4459"
       inkscape:connector-curvature="0" />
    <path
       style="fill:#ffe5d4;fill-opacity:1;stroke:none"
       d="m 184.03493,380.72764 c -4.23557,3.19093 -10.06341,3.211 -14.93337,1.78824 -1.38377,-0.78711 -2.91315,-0.75728 -4.04645,0.44515 -1.87042,1.47035 -4.72408,2.78142 -4.66989,5.562 -0.23748,3.21034 -1.27254,6.43619 -0.8307,9.66131 1.02263,3.03309 3.00832,5.73472 5.32697,7.9076 1.25871,0.86491 3.21155,1.1054 4.48256,0.37092 0.6696,1.41511 2.06,2.38207 3.66969,2.13079 1.4898,-0.11817 3.91883,-0.16638 4.23001,-1.98085 1.53115,-0.0877 3.56883,0.1345 4.64039,-1.16799 1.45858,0.81989 3.27829,-0.16638 4.61672,-0.82864 1.14999,-1.11781 -0.0402,-3.00467 0.0273,-4.40588 -0.16828,-1.79703 -0.76859,-3.78332 -0.71389,-5.46678 1.95355,-1.17606 4.71853,-2.46624 4.90871,-5.05076 -0.64274,-3.44638 -3.2627,-6.12565 -5.38222,-8.79149 -0.44547,-0.34596 -0.80229,-0.39304 -1.32583,-0.17362 z"
       id="path4461"
       inkscape:connector-curvature="0" />
    <path
       style="fill:#ffe5d4;fill-opacity:1;stroke:none"
       d="m 153.72246,396.29031 c -1.34296,-0.0948 -1.75514,1.46025 -1.08907,2.42278 0.16082,1.44694 1.92832,1.42745 2.73057,0.51297 1.27344,-0.59328 1.80008,-2.83026 -0.0316,-2.91997 -0.53189,-0.0513 -1.07474,-0.0395 -1.60994,-0.0158 z"
       id="path4463"
       inkscape:connector-curvature="0" />
    <g
       id="g3170"
       transform="translate(-113.13709,0)"
       style="fill:#d47e7e;fill-opacity:1">
      <path
         inkscape:connector-curvature="0"
         id="path4594"
         d="m 269.44493,591.18642 c -9.06355,1.21307 -18.153,2.11473 -27.28907,2.53906 -1.68929,0.6271 -0.66599,2.87197 -0.94531,4.25 0.13103,14.21093 -4.35706,28.94028 -14.58935,39.17044 -5.43436,5.43182 -12.32179,9.1675 -19.53565,11.56393 -1.74482,0.90183 -1.84246,3.22086 -2.28147,4.91877 -0.169,2.40512 -0.51077,4.97801 0.24241,7.3078 1.1422,1.69272 3.5672,1.47337 5.31562,2.056 12.83577,2.5544 26.42549,1.93982 38.81719,-2.29819 3.7216,-1.07048 6.8358,-3.55796 9.03419,-6.70677 1.07575,-1.39733 2.11237,-3.22738 2.93456,-4.55104 0.0299,2.06992 -0.54996,4.17523 -0.28125,6.20312 2.02565,1.03226 4.55816,0.67934 6.76001,0.30667 3.09617,-0.71514 6.28885,-1.81094 8.73999,-3.86136 0.59189,-1.9191 -0.70414,-3.85446 -0.92969,-5.76562 -3.19143,-13.94617 -3.11723,-28.33681 -3.86339,-42.55983 -0.29815,-4.00235 -0.18782,-8.08564 -0.84754,-12.03392 -0.32428,-0.40964 -0.75978,-0.6456 -1.28125,-0.53906 z"
         style="fill:#d47e7e;fill-opacity:1;stroke:none" />
      <path
         inkscape:connector-curvature="0"
         id="path4602"
         d="m 277.946,560.59594 c -0.98732,0.93932 -0.32228,2.48809 -0.52154,3.70125 -0.0905,20.43585 0.94597,40.85898 2.21438,61.24951 0.60602,8.7129 1.13581,17.45331 1.89241,26.13895 0.98435,1.42091 2.91034,1.70435 4.46914,2.19866 3.14715,0.60665 6.4384,0.9795 9.61388,0.48134 1.30173,-0.54714 0.54982,-2.29464 0.74965,-3.39815 -0.0927,-1.08306 -0.12906,-2.16335 1.21025,-1.32812 11.82478,3.36901 23.53362,7.26406 35.66267,9.39179 4.69398,0.85121 9.46294,1.16954 14.23203,1.01276 3.34814,-0.13744 7.02556,0.21461 9.9272,-1.80649 1.79295,-1.14942 3.72459,-2.17758 5.25911,-3.66259 0.75668,-1.83822 0.59107,-3.94686 0.48078,-5.89856 -0.28171,-1.44064 -0.22758,-3.15942 -1.25418,-4.3103 -2.90696,-1.2439 -5.9402,-2.15867 -8.79778,-3.52637 -10.88644,-4.84905 -21.09528,-11.32759 -29.13964,-20.22129 -7.73144,-8.41658 -13.08155,-19.17009 -14.70336,-30.56698 -0.50026,-2.9383 -0.53781,-5.94501 -0.79408,-8.90384 -0.50225,-1.4331 -2.20029,-0.39137 -3.23386,-0.25383 -6.95246,1.7398 -13.9025,3.48931 -20.85338,5.23544 -3.01652,-7.89914 -4.1538,-16.35489 -4.93318,-24.76531 -0.16444,-0.703 -0.80831,-1.03789 -1.4805,-0.76787 z"
         style="fill:#d47e7e;fill-opacity:1;stroke:none" />
    </g>
    <g
       id="g3157"
       transform="translate(-113.13709,0)"
       style="fill:#8c5353;fill-opacity:1">
      <path
         inkscape:connector-curvature="0"
         id="path4657"
         d="m 340.30137,184.92473 c -10.55469,2.52154 -21.02787,5.59278 -31.95233,5.87187 -9.6754,0.59272 -19.38845,0.35391 -29.04767,-0.0594 -1.84354,0.74956 -2.55315,3.15523 -4.45312,4.09375 -4.98176,4.27037 -11.4281,6.26264 -17.92108,6.24701 -7.26364,0.38169 -15.66218,-0.0356 -21.17267,-5.38764 -1.70561,-1.38195 0.25894,-5.31167 -2.875,-4.77784 -14.16618,-0.26078 -28.4841,0.86629 -42.54688,-0.92528 -3.04773,-0.33596 -6.28837,-1.77877 -9.17187,-1.79688 -1.93914,1.42269 1.11462,3.79492 1.52719,5.48648 14.9682,26.45331 21.49049,56.5166 29.36515,85.69831 2.92179,11.55067 5.96097,23.0687 10.54702,34.0708 7.69614,22.22596 10.00234,46.00046 17.98251,68.15066 3.58882,2.09805 8.51374,3.04473 12.40043,0.8423 1.95724,-1.16297 5.40293,-1.75613 5.75582,-4.38917 0.71348,2.66763 4.39988,1.78774 6.40625,2.73437 3.05637,0.40066 4.7778,3.37651 4.5,6.28125 -0.26316,2.45481 3.03052,3.63022 4.26563,1.5 0.51292,-2.92777 3.50311,-4.15413 5.59375,-5.79687 -0.0292,-2.04383 1.62289,0.32922 2.82812,0.375 5.60294,1.71763 12.68858,0.96086 16.76563,-3.54688 1.03139,-3.01839 -0.63076,-6.25112 -0.23438,-9.40625 0.45523,-20.79434 4.66309,-41.25438 8.06333,-61.72614 6.38092,-34.39452 12.25909,-69.19191 24.81167,-101.93011 2.82665,-7.01326 6.63516,-13.62455 9.98438,-20.3125 0.17239,-0.8614 -0.68586,-1.3854 -1.42188,-1.29687 z"
         style="fill:#8c5353;fill-opacity:1;stroke:none" />
      <path
         inkscape:connector-curvature="0"
         id="path4667"
         d="m 225.434,323.57882 c -0.49849,0.17032 -0.76686,0.72217 -0.66603,1.22622 0.3324,3.03921 0.58858,6.08975 0.74951,9.14375 0.28315,4.88838 0.43449,9.78438 0.75897,14.67017 0.0266,0.55563 0.494,1.04671 1.06343,1.02475 1.39331,-0.019 2.7944,0.0424 4.18274,-0.0468 0.61734,-0.0718 1.02974,-0.75567 0.83357,-1.33941 -1.40692,-6.62759 -2.83658,-13.25454 -4.50387,-19.81871 -0.37377,-1.41405 -0.71488,-2.83944 -1.14569,-4.23694 -0.17514,-0.50512 -0.76605,-0.79147 -1.27263,-0.62306 z"
         style="fill:#8c5353;fill-opacity:1;stroke:none" />
      <path
         inkscape:connector-curvature="0"
         id="path4669"
         d="m 230.41147,348.63439 c -1.57048,0.10723 -4.27495,0.14256 -3.7109,2.45258 0.0359,11.53686 -0.86427,23.03691 -2.16701,34.49218 -0.52646,6.15872 -1.20979,12.38864 -1.05965,18.54124 0.83561,1.43943 2.795,-0.0956 4.17543,0.2539 1.88187,-0.17443 4.80697,0.76757 5.19442,-1.92131 0.75806,-2.47679 2.72146,-4.2017 3.76594,-6.47558 -0.11893,-1.34827 -0.0748,-2.58085 0.95018,-3.65707 1.79159,-3.05629 4.31881,-5.83577 6.4634,-8.46318 0.67454,-2.24292 -3.0672,-1.19986 -3.21141,-3.23911 -3.69775,-10.10127 -6.10301,-20.64558 -8.34537,-31.16606 -0.37572,-0.78831 -1.25174,-0.8659 -2.05503,-0.81759 z"
         style="fill:#8c5353;fill-opacity:1;stroke:none" />
      <path
         inkscape:connector-curvature="0"
         id="path4673"
         d="m 299.80017,351.42638 c -0.6214,0.61792 -0.39646,1.59869 -0.5665,2.38607 -0.2646,2.93544 -0.58088,5.85889 -0.96391,8.77769 -0.40592,4.41624 -0.36757,8.87924 0.26259,13.27286 0.13459,0.98982 0.30249,1.97818 0.45575,2.96377 -0.46423,0.70696 -1.4691,1.17869 -1.36449,2.13237 0.49233,0.9659 1.38118,1.67566 2.01083,2.54116 1.44103,1.79732 2.93738,3.72792 3.50239,6.00489 0.13431,0.86085 -0.85994,1.6621 -0.23741,2.46963 0.88949,0.79365 1.75762,1.61625 2.63495,2.43039 0.67857,0.61489 1.86627,-0.03 1.72673,-0.92772 -2.50362,-11.87855 -4.44482,-23.89438 -5.45838,-35.99927 -0.14295,-1.81077 -0.26688,-3.6283 -0.38118,-5.43588 -0.1469,-0.74213 -1.01805,-1.05734 -1.62137,-0.61596 z"
         style="fill:#8c5353;fill-opacity:1;stroke:none" />
      <path
         inkscape:connector-curvature="0"
         id="path4675"
         d="m 271.63178,395.93905 c -0.85707,0.0509 -2.05855,-0.0745 -2.45278,0.89769 -0.14999,0.8204 -0.64469,1.56301 -1.41421,1.92245 -0.61675,0.2965 -1.54727,0.64945 -1.38118,1.50086 0.27597,0.93357 0.63915,1.86369 1.05503,2.73978 0.49657,0.78954 1.55841,0.40148 2.33146,0.49498 1.65754,-0.0268 3.32879,0.0595 4.97773,-0.0382 0.84782,-0.10414 1.0409,-1.23318 0.48543,-1.78991 -0.98423,-1.46633 -1.78426,-3.10163 -1.96354,-4.87692 -0.15384,-0.80438 -0.94658,-0.92748 -1.63794,-0.85074 z"
         style="fill:#8c5353;fill-opacity:1;stroke:none" />
      <path
         inkscape:connector-curvature="0"
         id="path4679"
         d="m 334.90988,525.19598 c -16.35479,2.48448 -32.88883,4.21157 -49.37359,5.8471 -2.99853,0.41193 -6.21191,0.13202 -9.05111,1.11349 -0.2978,2.62909 0.59654,5.36569 0.61369,8.05173 1.57235,15.0687 1.19968,30.66872 6.22314,45.09312 0.57983,2.40578 3.39628,0.80579 4.90916,0.55794 21.56099,-5.28236 43.09547,-10.80583 64.87566,-15.02184 2.06961,-0.98653 -0.33641,-3.03189 -0.90598,-4.29789 -7.27903,-12.26966 -10.30594,-26.40902 -15.35213,-39.64715 -0.32765,-0.80923 -0.84878,-1.9495 -1.93884,-1.6965 z"
         style="fill:#8c5353;fill-opacity:1;stroke:none" />
      <path
         inkscape:connector-curvature="0"
         id="path4682"
         d="m 206.85552,522.33897 c -0.8108,1.10342 -0.58884,2.66734 -0.97227,3.93328 -2.68362,13.47504 -8.22755,26.13598 -14.51652,38.31326 -4.43546,8.77619 -9.36182,17.267 -13.66279,26.10527 -0.37125,1.13472 0.92122,1.60405 1.82301,1.55232 12.71847,1.29805 25.483,2.1858 38.26662,2.4761 11.4533,0.0409 22.92975,0.17135 34.34889,-0.84593 7.38033,-0.60102 14.77397,-1.43131 22.03799,-2.80289 1.26978,-0.64137 0.31786,-2.25895 0.36643,-3.34571 -0.78052,-6.92315 -0.42486,-13.93154 -0.46919,-20.89319 0.13608,-11.29785 1.32571,-22.56136 1.2788,-33.86381 -0.33256,-1.58116 -2.27393,-0.84009 -3.414,-0.90598 -13.74071,0.96684 -27.42686,2.94615 -41.22208,2.90605 -7.19891,-0.11946 -14.52377,-0.80466 -21.32925,-3.13255 -0.57677,-2.977 -0.45534,-6.08381 -0.98884,-9.07638 -0.34447,-0.60113 -0.94162,-0.77979 -1.5468,-0.41984 z"
         style="fill:#8c5353;fill-opacity:1;stroke:none" />
    </g>
    <g
       id="g3166"
       transform="translate(-113.13709,0)"
       style="opacity:0.78846154;fill:#d66b71;fill-opacity:1">
      <path
         inkscape:connector-curvature="0"
         id="path4686"
         d="m 349.42809,570.76824 c -2.63109,0.44793 -5.25006,1.05172 -7.87212,1.58037 -11.07616,2.34279 -22.09685,4.973 -33.10053,7.65205 -0.60956,0.15698 -0.8415,0.81391 -0.77575,1.3866 0.0207,0.65997 -0.22685,1.56064 0.47688,1.94989 0.53546,0.27226 1.18548,0.173 1.77152,0.25922 2.84943,0.06 5.71064,0.0416 8.53856,-0.3478 8.10377,-1.0197 15.83968,-3.82563 23.32863,-6.97447 2.75404,-1.18377 5.51518,-2.35805 8.22851,-3.63086 0.68253,-0.36737 0.65566,-1.48971 -0.0832,-1.77662 -0.14843,-0.0968 -0.34017,-0.10453 -0.51248,-0.0984 z"
         style="fill:#d66b71;fill-opacity:1;stroke:none" />
      <path
         inkscape:connector-curvature="0"
         id="path4688"
         d="m 275.07759,531.87826 c -0.8382,0.56831 -0.44617,1.69611 -0.55974,2.54644 -0.17286,11.0999 -1.11467,22.17092 -1.38121,33.26739 -0.0462,5.17204 -0.0808,10.3495 0.1466,15.51746 -0.0519,0.73201 0.35499,1.63168 1.20602,1.58571 1.08531,-0.20434 2.20425,-0.11276 3.28655,-0.3118 0.90156,-0.26829 0.67463,-1.36739 0.67503,-2.09106 -0.18247,-9.66434 -0.21404,-19.33625 0.13743,-28.9971 0.26027,-3.33734 -0.19103,-6.66891 -0.38713,-9.99728 -0.29632,-3.56872 -0.58655,-7.14709 -1.15415,-10.68283 -0.18941,-0.90703 -1.19528,-1.14135 -1.9694,-0.83693 z"
         style="fill:#d66b71;fill-opacity:1;stroke:none" />
    </g>
    <path
       style="fill:#ffb27e;fill-opacity:1;stroke:none"
       d="m 170.25419,465.33922 c -8.83226,0.34683 -17.6739,0.66277 -26.49218,1.22657 -1.65614,0.67991 -0.41558,2.71327 -0.5625,4.00781 0.29783,2.34101 -0.21054,4.79708 0.36718,7.0625 2.235,0.8135 4.7696,0.37188 7.13272,0.47476 8.07128,-0.0639 16.13234,-0.69902 24.1876,-0.99039 1.98105,-0.43792 1.21242,-2.97869 1.50781,-4.42968 -0.0392,-2.38071 0.49834,-4.85493 0.008,-7.17188 -1.75882,-0.78938 -3.88519,-0.0367 -5.79406,-0.19158 l -0.24986,0.008 -0.10452,0.004 z"
       id="path4690"
       inkscape:connector-curvature="0" />
    <path
       style="fill:#ffb27e;fill-opacity:1;stroke:none"
       d="m 171.69169,476.49547 c -8.58183,0.46045 -17.1664,0.94811 -25.76562,0.86719 -1.73905,0.58405 -0.70934,2.8276 -0.83594,4.23438 -0.0137,1.20473 0.45116,2.84239 1.99996,2.42964 8.7013,-0.18107 17.42861,0.0274 26.11264,-0.51638 1.95934,0.0909 1.72116,-2.02723 1.68908,-3.38172 -0.0602,-1.29092 0.61641,-3.85463 -1.45793,-3.64092 -0.58073,0.002 -1.16156,-0.006 -1.74219,0.008 z"
       id="path4692"
       inkscape:connector-curvature="0" />
    <g
       id="g3178"
       transform="translate(-113.13709,0)"
       style="fill:#ff7eff;fill-opacity:1">
      <path
         inkscape:connector-curvature="0"
         id="path4698"
         d="m 347.57097,421.01891 c -1.47255,0.7882 -0.92895,2.86134 -1.20099,4.23401 -0.3767,13.86185 -0.36867,27.73821 -0.0725,41.60193 0.0944,2.65118 0.21473,5.3021 0.5625,7.92187 -18.44051,0.50898 -36.89887,0.21791 -55.3436,0.59441 -1.15692,0.0355 -2.70696,-0.0272 -3.18765,1.22591 -1.76891,1.33787 -0.91874,3.94959 -0.93588,5.82494 -1.21194,0.66367 -3.1979,0.40642 -4.74364,0.56687 -7.82362,0.20823 -15.65116,0.19541 -23.47673,0.28006 -0.42605,-1.76763 0.22483,-3.83193 -0.77343,-5.42969 -0.55677,-0.5791 -1.63357,-0.49312 -1.20313,-1.60937 0.54416,-1.88614 -1.16365,-2.63036 -2.74999,-2.2379 -15.06666,0.0133 -29.9815,3.48466 -45.0547,2.58946 -1.46067,0.0967 -3.36617,-0.94086 -4.51562,0.3125 -0.42146,3.17183 0.13923,6.4432 0.18976,9.6458 0.91677,15.08285 2.03458,30.20871 3.48993,45.21358 1.15695,1.60706 3.48548,1.51774 5.21351,2.1369 11.1061,2.59812 22.62238,1.90887 33.90367,1.09747 15.74822,-1.50526 31.53386,-2.59516 47.28286,-4.10875 18.43956,-1.87017 36.85856,-4.14961 55.07652,-7.56312 1.63592,-0.50129 0.75196,-2.61114 0.96416,-3.85155 -0.4243,-31.06727 -0.94851,-62.13465 -1.72299,-93.19517 -0.23212,-1.59482 0.23452,-3.48032 -0.60545,-4.89569 -0.21891,-0.3742 -0.6634,-0.43611 -1.09666,-0.35447 z"
         style="fill:#ff7eff;fill-opacity:1;stroke:none" />
      <path
         inkscape:connector-curvature="0"
         id="path4702"
         d="m 356.64859,419.99575 c -1.83933,0.82466 -3.27303,3.52149 -5.58594,2.70313 -1.61524,-1.14556 -2.92222,0.41134 -2.39472,2.07031 0.48975,32.04257 1.10766,64.08691 1.76191,96.125 0.32101,1.38165 2.11022,0.81189 2.27786,-0.35923 0.43095,-0.80657 0.78402,-2.10678 1.21433,-2.62514 0.72316,1.52589 2.68987,1.04502 3.61174,-0.005 1.375,-1.22596 3.13805,-2.11784 4.39607,-3.4407 0.3406,-3.14939 -0.49596,-6.33791 -0.68131,-9.49157 -1.32404,-11.86135 -2.78119,-23.71494 -2.65714,-35.67249 -0.2007,-15.63396 0.21177,-31.28022 -0.3803,-46.90626 -0.0856,-0.97652 -0.10107,-2.63501 -1.5625,-2.39844 z"
         style="fill:#ff7eff;fill-opacity:1;stroke:none" />
      <path
         inkscape:connector-curvature="0"
         id="path4704"
         d="m 302.64078,391.62857 c -1.39249,1.18024 -3.68421,1.69979 -4.38282,3.51562 0.25382,2.77011 0.43207,5.78877 2.07032,8.16406 1.46986,2.56412 2.0129,5.54905 3.3125,8.19532 1.86275,1.85151 4.94956,1.11374 7.13281,0.25781 1.7046,-0.59637 2.98667,-2.23991 2.63281,-4.10156 -0.5414,-6.49262 -4.95329,-11.99218 -9.77023,-16.00925 -0.33453,-0.23891 -0.64018,-0.15187 -0.99539,-0.022 z"
         style="fill:#ff7eff;fill-opacity:1;stroke:none" />
      <path
         inkscape:connector-curvature="0"
         id="path4706"
         d="m 269.1564,389.26138 c -1.74204,0.24876 -3.79607,-0.27134 -5.29687,0.78125 -1.00233,1.53806 0.2839,3.37824 0.55468,4.96875 0.19653,1.22899 1.01642,2.5148 2.45313,2.10937 2.03867,-0.36843 4.234,-0.0462 6.17969,-0.75781 0.64885,-1.99265 0.76293,-4.23564 0.95821,-6.31363 -0.5162,-1.60659 -2.68707,-0.58343 -3.95719,-0.81121 -0.29722,0.008 -0.59443,0.0155 -0.89165,0.0233 z"
         style="fill:#ff7eff;fill-opacity:1;stroke:none" />
      <path
         inkscape:connector-curvature="0"
         id="path4708"
         d="m 236.18765,396.51138 c -2.04007,1.08026 -2.89146,3.53899 -3.86719,5.52344 -1.28953,3.07738 -2.10977,6.42158 -2.10937,9.76562 0.87866,2.41873 4.07928,2.9153 6.3125,2.32813 2.33586,-0.39604 4.34887,-2.45942 4.05469,-4.9375 -0.25783,-2.00171 -0.13486,-3.95429 0.75,-5.78907 0.009,-1.49763 -1.72014,-2.19122 -2.30469,-3.5 -0.76172,-0.93822 -1.24708,-2.05343 -1.73438,-3.10937 -0.28669,-0.27063 -0.72001,-0.38259 -1.10156,-0.28125 z"
         style="fill:#ff7eff;fill-opacity:1;stroke:none" />
      <path
         inkscape:connector-curvature="0"
         id="path4714"
         d="m 270.33484,402.71482 c -1.06306,-0.12711 -2.40038,0.26328 -2.42969,1.49219 -0.99857,0.8641 -2.32565,1.64673 -3.63281,1.57031 -1.51976,-1.2114 -3.25005,0.55939 -4.88281,0.55469 -1.06508,0.47555 -1.79011,-0.34445 -2.66406,-0.73438 -1.84589,-0.4076 -3.82393,1.63251 -5.53125,0.28125 -1.46088,-0.49015 -2.86813,1.27501 -4.26219,0.15425 -1.96136,-0.72752 -3.60885,-2.10128 -5.42503,-3.02935 -1.53999,0.17941 -1.56583,2.31097 -1.77372,3.58604 -0.12585,1.61593 0.78219,3.31218 -0.26563,4.8125 -1.77323,2.77954 -6.5967,3.05596 -8.52343,0.41406 -0.22882,-2.53869 0.98991,-5.02757 0.82812,-7.53125 -1.30476,-1.00567 -3.19253,-0.22121 -4.74219,-0.46875 -7.60033,0.17324 -15.2326,-0.1391 -22.8125,0.42188 -3.81231,0.63461 -7.38312,2.87249 -9.66406,5.99219 -1.10303,1.57771 -1.83446,3.39188 -1.49174,5.35143 0.0491,19.74154 1.71676,39.50425 5.35112,58.90638 0.8699,1.75287 3.26383,1.52153 4.88695,2.01142 6.00139,1.24595 12.17241,0.96284 18.26031,0.74356 11.57245,-0.63259 22.9987,-2.65856 34.60274,-2.54404 1.66844,-0.49424 0.82842,-2.64708 0.93982,-3.97567 -0.0728,-1.161 -0.28267,-2.30603 -0.54139,-3.4384 10.79074,-0.60481 21.59612,-0.99008 32.39844,-1.35156 -0.0147,3.08883 -0.28392,6.21801 -0.1496,9.28206 0.71156,1.48022 2.83774,0.50171 4.173,0.77173 17.67356,-0.14869 35.35591,-0.0372 53.02348,-0.4366 1.98946,0.014 1.51144,-2.1768 1.35937,-3.5 -1.05576,-17.42024 -0.81017,-34.90404 0.0469,-52.32813 0.3696,-3.85317 0.0599,-8.22225 2.57031,-11.39843 0.89884,-0.79962 3.28575,-1.02996 2.52973,-2.61699 -1.9239,-1.22726 -4.44648,-1.49481 -6.72402,-1.76502 -9.97378,-0.86964 -20.01206,1.16027 -29.96196,0.0773 -1.18384,-0.0163 -2.8211,-1.20924 -3.55469,0.25 -0.0804,1.84553 0.91243,3.89269 0.0781,5.66406 -2.12061,1.80622 -5.32529,2.48489 -7.96094,1.50781 -1.00287,-0.98998 -0.78762,-2.71104 -1.46043,-3.93343 -0.62693,-1.22907 -0.7778,-3.09919 -2.06264,-3.72076 -1.93124,0.28373 -3.76323,1.26656 -5.77381,1.27919 -1.4953,0.61686 -3.24682,0.56816 -4.625,1.45313 -0.90633,1.19153 -2.77582,1.05902 -4.14062,1.26562 -1.24374,0.11356 -2.41597,-0.24568 -3.1875,-1.24218 -1.43513,-0.83734 -3.35377,-0.15651 -4.73438,-0.92969 -1.36068,-1.11991 -2.15398,-3.44669 -4.30468,-2.91406 -1.25518,0.007 -2.51071,-0.0159 -3.76563,0.0156 z"
         style="fill:#ff7eff;fill-opacity:1;stroke:none" />
      <path
         inkscape:connector-curvature="0"
         id="path4716"
         d="m 351.81054,406.70871 c -2.2115,0.0382 -3.55133,2.17816 -4.07813,4.09375 -0.86437,3.00237 -1.01571,6.16238 -1.16456,9.2588 0.20255,0.97215 1.25424,1.46358 1.94008,2.10171 1.27026,1.00387 2.93963,1.96877 4.59558,1.33089 1.48561,-0.6591 2.54202,-1.99874 3.76562,-3.03515 0.6913,-0.58071 1.50409,-1.32102 1.23438,-2.33203 -0.46988,-3.18797 -0.98403,-6.38954 -1.89063,-9.48438 -0.5099,-1.1462 -1.89915,-1.48216 -2.99609,-1.80469 -0.46143,-0.0953 -0.93461,-0.15158 -1.40625,-0.1289 z"
         style="fill:#ff7eff;fill-opacity:1;stroke:none" />
    </g>
    <g
       id="g3174"
       transform="translate(-113.13709,0)"
       style="fill:#856d6d;fill-opacity:1">
      <path
         inkscape:connector-curvature="0"
         id="path4747"
         d="m 260.30798,650.45101 c -1.19215,0.91318 -2.74844,2.54735 -2.18761,4.14321 0.98632,1.18122 3.37154,0.99007 3.33666,-0.85074 0.22834,-1.12087 0.8884,-3.56466 -1.14905,-3.29247 z"
         style="fill:#856d6d;fill-opacity:1;stroke:#000000;stroke-width:0.35355338;stroke-linecap:round;stroke-linejoin:round;stroke-miterlimit:4;stroke-opacity:1;stroke-dasharray:none" />
      <path
         inkscape:connector-curvature="0"
         id="path4749"
         d="m 296.16841,648.57231 c -1.15644,0.78195 -0.4705,2.40955 -0.6353,3.59078 -0.16517,0.93565 0.61635,2.14352 1.65729,1.61309 1.14092,-0.90259 2.46241,-1.72154 3.23722,-2.97759 0.32678,-0.88192 -0.5863,-1.50011 -1.44554,-1.58617 -0.93554,-0.21098 -1.83913,-0.75148 -2.81367,-0.64011 z"
         style="fill:#856d6d;fill-opacity:1;stroke:#000000;stroke-width:0.17677669;stroke-linecap:round;stroke-linejoin:round;stroke-miterlimit:4;stroke-opacity:1;stroke-dasharray:none" />
    </g>
    <path
       style="fill:#ffff00;fill-opacity:1;stroke:#000000;stroke-width:0.17677669;stroke-linecap:round;stroke-linejoin:round;stroke-miterlimit:4;stroke-opacity:1;stroke-dasharray:none"
       d="m 139.11277,594.89472 c -2.27168,0.21827 -4.60824,0.10708 -6.842,0.47225 -1.15289,0.64907 -0.37304,2.25128 -0.50032,3.33366 0.24531,1.37872 -0.26126,3.35111 1.15514,4.20981 1.95007,0.44501 4.00895,0.0732 5.9992,0.11082 1.10457,-0.0582 2.80195,0.16142 2.95012,-1.29302 0.27651,-2.10091 0.52627,-4.34279 -0.0685,-6.39352 -0.5035,-0.96924 -1.83772,-0.36777 -2.69362,-0.44 z"
       id="path3136"
       inkscape:connector-curvature="0" />
    <path
       style="fill:#ffff00;fill-opacity:1;stroke:#000000;stroke-width:0.17677669;stroke-linecap:round;stroke-linejoin:round;stroke-miterlimit:4;stroke-opacity:1;stroke-dasharray:none"
       d="m 139.05753,605.61733 c -2.2591,0.12648 -4.54746,0.2098 -6.76604,0.61861 -1.23658,0.57198 -0.54781,2.24662 -0.74912,3.33123 0.0759,1.81675 -0.4135,3.60343 -0.36797,5.40828 0.39507,1.17374 1.9517,0.61462 2.91956,0.57556 2.42774,-0.30217 4.90505,-0.40783 7.30586,-0.81311 1.22026,-0.90572 0.34949,-2.6383 0.42537,-3.88356 -0.32413,-1.55333 0.0849,-3.38367 -0.85626,-4.74535 -0.47826,-0.54602 -1.25269,-0.51299 -1.9114,-0.49166 z"
       id="path3138"
       inkscape:connector-curvature="0" />
    <path
       style="fill:#ffff00;fill-opacity:1;stroke:#000000;stroke-width:0.17677669;stroke-linecap:round;stroke-linejoin:round;stroke-miterlimit:4;stroke-opacity:1;stroke-dasharray:none"
       d="m 139.96904,618.26791 c -3.05929,0.19719 -6.16645,-0.006 -9.19792,0.42537 -1.45611,0.64194 -1.18509,2.56692 -1.72921,3.81544 -0.31458,1.62054 -1.12717,3.19998 -0.97768,4.85767 0.90334,1.01719 2.48212,0.51728 3.70124,0.67278 3.05032,-0.0732 6.13362,0.0906 9.15927,-0.32475 1.31768,-0.55905 0.83663,-2.32953 1.20429,-3.47477 0.13616,-1.8526 0.63871,-3.7643 0.28173,-5.59609 -0.63978,-0.72419 -1.60585,-0.32297 -2.44172,-0.37565 z"
       id="path3140"
       inkscape:connector-curvature="0" />
    <path
       style="fill:#ffff00;fill-opacity:1;stroke:#000000;stroke-width:0.17677669;stroke-linecap:round;stroke-linejoin:round;stroke-miterlimit:4;stroke-opacity:1;stroke-dasharray:none"
       d="m 191.51602,590.01126 c -2.25159,0.83398 -4.6847,1.20151 -6.86115,2.24286 -1.19211,0.95518 -0.0706,2.5324 0.0812,3.70566 0.50673,1.54345 0.77793,3.16975 1.2336,4.7078 0.7756,1.23339 2.38189,0.35318 3.51896,0.33146 1.6837,-0.3903 3.65804,-0.316 5.06023,-1.43079 0.64734,-1.07897 -0.15146,-2.39144 -0.25412,-3.53001 -0.50572,-1.85036 -0.75179,-3.79844 -1.56889,-5.53532 -0.27029,-0.40404 -0.73126,-0.58688 -1.20981,-0.49166 z"
       id="path3142"
       inkscape:connector-curvature="0" />
    <path
       style="fill:#ffff00;fill-opacity:1;stroke:#000000;stroke-width:0.17677669;stroke-linecap:round;stroke-linejoin:round;stroke-miterlimit:4;stroke-opacity:1;stroke-dasharray:none"
       d="m 194.97973,602.45745 c -2.31865,0.46737 -4.68524,1.02895 -6.83352,2.01636 -0.97298,1.01816 0.21416,2.41179 0.35682,3.54398 0.63719,1.67119 0.90475,3.54142 1.82527,5.07388 1.0236,0.84698 2.33355,-0.20294 3.43401,-0.3441 1.44109,-0.52497 3.06846,-0.7697 4.407,-1.46638 1.06942,-0.85939 -0.0622,-2.22029 -0.25141,-3.25975 -0.6583,-1.69981 -1.08184,-3.53617 -1.95428,-5.124 -0.23795,-0.32087 -0.58276,-0.49832 -0.98389,-0.43999 z"
       id="path3144"
       inkscape:connector-curvature="0" />
    <path
       style="fill:#ffff00;fill-opacity:1;stroke:#000000;stroke-width:0.17677669;stroke-linecap:round;stroke-linejoin:round;stroke-miterlimit:4;stroke-opacity:1;stroke-dasharray:none"
       d="m 200.22227,614.05842 c -2.39522,0.84424 -4.92746,1.26579 -7.33071,2.03846 -1.33476,0.76098 -0.20175,2.25642 0.10496,3.28141 0.65976,1.53493 0.83585,3.29485 1.75119,4.69563 1.61639,0.36196 3.29454,-0.29251 4.90058,-0.56645 1.5084,-0.44113 3.17968,-0.63684 4.49069,-1.54382 0.93974,-1.18984 -0.5284,-2.38239 -0.90046,-3.49134 -0.82418,-1.40054 -1.07956,-3.26136 -2.38648,-4.31998 -0.20956,-0.0294 -0.41363,-0.14454 -0.62977,-0.0939 z"
       id="path3146"
       inkscape:connector-curvature="0" />
  </g>
  <g
     inkscape:groupmode="layer"
     id="layer2"
     inkscape:label="lines"
     style="display:inline"
     sodipodi:insensitive="true">
    <path
       style="fill:none;stroke:#000000;stroke-width:1px;stroke-linecap:butt;stroke-linejoin:miter;stroke-opacity:1"
       d="m 108.11291,151.60714 c 17.50985,34.02249 57.98593,27.04931 69.46429,8.75"
       id="path3049"
       inkscape:connector-curvature="0"
       sodipodi:nodetypes="cc" />
    <path
       style="fill:none;stroke:#000000;stroke-width:1px;stroke-linecap:butt;stroke-linejoin:miter;stroke-opacity:1"
       d="m 176.68434,107.5 c 0.7689,25.94686 1.07143,54.24829 1.07143,81.42857 4.95551,-1.56346 10.37143,-2.35715 12.14285,-6.78571 -0.6676,-20.62715 -1.99706,-41.6762 -3.57142,-62.14286"
       id="path3057"
       inkscape:connector-curvature="0" />
    <path
       style="fill:none;stroke:#000000;stroke-width:1px;stroke-linecap:butt;stroke-linejoin:miter;stroke-opacity:1"
       d="m 189.89862,173.03571 c 3.50031,-2.96147 5.1935,-3.49776 6.42858,-3.12499"
       id="path3059"
       inkscape:connector-curvature="0"
       sodipodi:nodetypes="cc" />
    <path
       style="fill:none;stroke:#000000;stroke-width:1px;stroke-linecap:butt;stroke-linejoin:miter;stroke-opacity:1"
       d="m 86.148635,159.01785 c -15.74543,-17.40876 5.08928,-30.32729 5.08928,-48.30357"
       id="path3079"
       inkscape:connector-curvature="0"
       sodipodi:nodetypes="cc" />
    <path
       style="fill:none;stroke:#000000;stroke-width:1px;stroke-linecap:butt;stroke-linejoin:miter;stroke-opacity:1"
       d="m 92.398625,133.75 c 0.53882,12.06087 -7.14285,21.88309 -7.14285,32.5 1.77763,7.34892 5.11144,9.76739 10.80356,12.94642 1.64711,-11.99653 2.13099,-24.26506 4.196435,-35.62499"
       id="path3081"
       inkscape:connector-curvature="0"
       sodipodi:nodetypes="cccc" />
    <path
       style="fill:none;stroke:#000000;stroke-width:1px;stroke-linecap:butt;stroke-linejoin:miter;stroke-opacity:1"
       d="m 112.75577,113.21428 c -1.9066,22.98155 -7.00761,44.8806 -5.26786,66.96429 -4.00373,-1.01887 -8.313555,-1.95877 -10.892855,-5.17858"
       id="path3095"
       inkscape:connector-curvature="0"
       sodipodi:nodetypes="ccc" />
    <path
       style="fill:none;stroke:#000000;stroke-width:1px;stroke-linecap:butt;stroke-linejoin:miter;stroke-opacity:1"
       d="m 199.27363,98.035716 c -3.63208,21.222894 9.77098,47.429904 7.85713,67.678574 -1.94943,2.03872 -7.19256,6.66493 -10.62499,6.78571 -1.17977,-12.9774 -0.86502,-25.76048 -1.60715,-38.75"
       id="path3105"
       inkscape:connector-curvature="0"
       sodipodi:nodetypes="cccc" />
    <path
       style="fill:none;stroke:#000000;stroke-width:1px;stroke-linecap:butt;stroke-linejoin:miter;stroke-opacity:1"
       d="m 112.39862,118.03571 c 2.84136,-0.1182 5.63713,-0.10662 8.39286,-0.35714"
       id="path3109"
       inkscape:connector-curvature="0" />
    <path
       style="fill:none;stroke:#000000;stroke-width:1px;stroke-linecap:butt;stroke-linejoin:miter;stroke-opacity:1"
       d="m 120.97005,111.25 c -0.0534,3.393 -0.89285,6.48537 -0.89285,10 3.80125,0.11299 9.59443,-0.60079 11.60714,-1.60714 0.55245,-3.22136 -0.35714,-6.23771 -0.35714,-9.64286"
       id="path3113"
       inkscape:connector-curvature="0" />
    <path
       style="fill:none;stroke:#000000;stroke-width:1px;stroke-linecap:butt;stroke-linejoin:miter;stroke-opacity:1"
       d="m 131.86291,116.25 c 2.3287,0.44857 4.78087,0.3933 7.14286,0.17857"
       id="path3121"
       inkscape:connector-curvature="0" />
    <path
       style="fill:none;stroke:#000000;stroke-width:1px;stroke-linecap:butt;stroke-linejoin:miter;stroke-opacity:1"
       d="m 138.64862,109.10714 c 0.65877,2.93395 0.59636,6.31566 1.07143,8.92857 3.20919,0.28296 6.0287,-0.39807 8.75,-0.89285 0.60336,-4.29058 0.19527,-8.38782 -0.17857,-12.5"
       id="path3129"
       inkscape:connector-curvature="0" />
    <path
       style="fill:none;stroke:#000000;stroke-width:1px;stroke-linecap:butt;stroke-linejoin:miter;stroke-opacity:1"
       d="m 149.00577,114.82143 c 2.03732,0.42337 4.26316,0.13176 5.89285,-0.35715"
       id="path3133"
       inkscape:connector-curvature="0" />
    <path
       style="fill:none;stroke:#000000;stroke-width:1px;stroke-linecap:butt;stroke-linejoin:miter;stroke-opacity:1"
       d="m 154.18434,107.14286 c 1.0164,4.03855 1.07143,8.1036 1.07143,12.5 2.45088,-0.73546 5.53145,-1.17687 7.5,-1.96429 0.7499,-2.93933 0.53571,-7.17065 0.53571,-9.64286"
       id="path3135"
       inkscape:connector-curvature="0" />
    <path
       style="fill:none;stroke:#000000;stroke-width:1px;stroke-linecap:butt;stroke-linejoin:miter;stroke-opacity:1"
       d="m 169.18434,106.78571 c 0.65884,3.92407 0.37402,8.22138 0.71428,11.96429 2.64722,0.64446 5.09242,0.0345 6.96429,-0.71429"
       id="path3145"
       inkscape:connector-curvature="0"
       sodipodi:nodetypes="ccc" />
    <path
       style="fill:none;stroke:#000000;stroke-width:1px;stroke-linecap:butt;stroke-linejoin:miter;stroke-opacity:1"
       d="m 163.38077,112.41071 c 1.70746,0.72006 4.91178,0.625 5.80357,0.625"
       id="path3147"
       inkscape:connector-curvature="0"
       sodipodi:nodetypes="cc" />
    <path
       id="path3217"
       style="fill:none;stroke:#000000;stroke-width:1px;stroke-linecap:butt;stroke-linejoin:miter;stroke-opacity:1"
       d="m 99.628145,79.642856 c -25.00365,1.996133 -73.87146,-0.102272 -73.83666,32.142854 0.0292,27.0857 104.069265,-20.198552 154.642855,-16.428568 25.62013,1.909841 93.89225,20.617018 99.28571,6.785718 10.4268,-26.739073 -64.72523,-24.267139 -84.26591,-20.71429 M 95.434345,87.499999 C 104.9421,67.073721 119.37599,56.071428 143.64862,56.071428 c 27.73447,-1.171888 44.90672,7.981064 52.85715,27.857142"
       inkscape:connector-curvature="0"
       sodipodi:nodetypes="cssscccc" />
    <path
       style="fill:none;stroke:#000000;stroke-width:1px;stroke-linecap:butt;stroke-linejoin:miter;stroke-opacity:1"
       d="m 128.54191,129.64262 c -3.12186,0.23529 -7.78933,-0.16563 -9.84899,1.89403 -9.14288,9.14288 7.98652,18.21432 18.30901,14.77349 12.65553,-4.21851 1.98553,-16.66752 -8.46002,-16.66752 z"
       id="path3264"
       inkscape:connector-curvature="0" />
    <path
       style="fill:none;stroke:#000000;stroke-width:1px;stroke-linecap:butt;stroke-linejoin:miter;stroke-opacity:1"
       d="m 167.43278,129.89516 c -3.86466,0.2791 -7.43118,1.00392 -10.85914,2.14657 -13.32542,4.44181 -3.06802,21.29512 8.71257,15.40483 6.83108,-3.41555 18.28906,-16.2062 2.14657,-17.5514 z"
       id="path3268"
       inkscape:connector-curvature="0" />
    <path
       style="fill:none;stroke:#000000;stroke-width:1px;stroke-linecap:butt;stroke-linejoin:miter;stroke-opacity:1"
       d="m 117.5565,133.05188 c 7.32672,5.13401 16.04243,8.14749 22.72843,11.49049"
       id="path3270"
       inkscape:connector-curvature="0" />
    <path
       style="fill:none;stroke:#000000;stroke-width:1px;stroke-linecap:butt;stroke-linejoin:miter;stroke-opacity:1"
       d="m 152.78557,144.92118 c 8.61809,-3.30592 16.20945,-6.8903 21.33947,-12.75318"
       id="path3272"
       inkscape:connector-curvature="0" />
    <path
       style="fill:none;stroke:#000000;stroke-width:1px;stroke-linecap:butt;stroke-linejoin:miter;stroke-opacity:1"
       d="m 124.5013,136.83996 c -2.54502,8.24173 3.91677,10.91618 6.81853,3.6618"
       id="path3274"
       inkscape:connector-curvature="0" />
    <path
       style="fill:none;stroke:#000000;stroke-width:1px;stroke-linecap:butt;stroke-linejoin:miter;stroke-opacity:1"
       d="m 159.22529,142.52206 c 2.6485,6.83222 7.07903,3.49682 6.43972,-3.53553"
       id="path3276"
       inkscape:connector-curvature="0" />
    <path
       style="fill:none;stroke:#000000;stroke-width:1px;stroke-linecap:butt;stroke-linejoin:miter;stroke-opacity:1"
       d="m 121.59711,147.69909 c 3.35249,1.09578 6.77883,1.46571 10.10152,1.76777"
       id="path3280"
       inkscape:connector-curvature="0" />
    <path
       style="fill:none;stroke:#000000;stroke-width:1px;stroke-linecap:butt;stroke-linejoin:miter;stroke-opacity:1"
       d="m 160.61425,150.98209 c 3.08966,-0.0981 6.51252,-1.32639 8.46003,-3.03046"
       id="path3282"
       inkscape:connector-curvature="0" />
    <path
       style="fill:none;stroke:#000000;stroke-width:1px;stroke-linecap:butt;stroke-linejoin:miter;stroke-opacity:1"
       d="m 143.82046,147.06775 c 7.53207,-0.75327 5.68487,-0.8894 3.15673,4.16688"
       id="path3284"
       inkscape:connector-curvature="0" />
    <path
       style="fill:none;stroke:#000000;stroke-width:1px;stroke-linecap:butt;stroke-linejoin:miter;stroke-opacity:1"
       d="m 134.85536,164.74542 c 8.73183,-5.5895 18.11444,-5.68232 22.94309,3.13147"
       id="path3288"
       inkscape:connector-curvature="0"
       sodipodi:nodetypes="cc" />
    <path
       style="fill:none;stroke:#000000;stroke-width:2;stroke-linecap:butt;stroke-linejoin:miter;stroke-miterlimit:4;stroke-opacity:1;stroke-dasharray:none"
       d="m 149.50257,130.5265 c 7.18445,-1.54671 14.17542,-5.52794 20.58186,-7.44987"
       id="path3326"
       inkscape:connector-curvature="0" />
    <path
       style="fill:none;stroke:#000000;stroke-width:2;stroke-linecap:butt;stroke-linejoin:miter;stroke-miterlimit:4;stroke-opacity:1;stroke-dasharray:none"
       d="m 121.08188,123.21812 c 7.0572,2.61101 14.03491,5.54171 20.47082,7.29696"
       id="path3328"
       inkscape:connector-curvature="0"
       sodipodi:nodetypes="cc" />
    <path
       style="fill:none;stroke:#000000;stroke-width:1px;stroke-linecap:butt;stroke-linejoin:miter;stroke-opacity:1"
       d="m 119.70307,134.06204 c 1.2436,-0.74947 1.63429,-1.62708 2.14658,-2.65165"
       id="path4204"
       inkscape:connector-curvature="0" />
    <path
       style="fill:none;stroke:#000000;stroke-width:1px;stroke-linecap:butt;stroke-linejoin:miter;stroke-opacity:1"
       d="m 122.73353,135.8298 c 1.15086,-1.38043 1.91055,-2.56667 2.39911,-3.78807"
       id="path4206"
       inkscape:connector-curvature="0" />
    <path
       style="fill:none;stroke:#000000;stroke-width:1px;stroke-linecap:butt;stroke-linejoin:miter;stroke-opacity:1"
       d="m 126.14279,137.34503 c 0.83236,-1.5093 1.3656,-2.71367 1.89404,-4.16688"
       id="path4208"
       inkscape:connector-curvature="0" />
    <path
       style="fill:none;stroke:#000000;stroke-width:1px;stroke-linecap:butt;stroke-linejoin:miter;stroke-opacity:1"
       d="m 128.66818,138.73399 c 1.19251,-1.66358 1.75596,-2.82274 2.27284,-4.54569"
       id="path4210"
       inkscape:connector-curvature="0" />
    <path
       style="fill:none;stroke:#000000;stroke-width:1px;stroke-linecap:butt;stroke-linejoin:miter;stroke-opacity:1"
       d="m 132.20371,140.88057 c 0.0825,-0.6869 1.24251,-3.69468 2.14657,-5.05077"
       id="path4212"
       inkscape:connector-curvature="0" />
    <path
       style="fill:none;stroke:#000000;stroke-width:1px;stroke-linecap:butt;stroke-linejoin:miter;stroke-opacity:1"
       d="m 135.1079,142.01699 c 0.0635,-0.53643 1.3287,-2.75067 2.0203,-3.78808"
       id="path4214"
       inkscape:connector-curvature="0" />
    <path
       style="fill:none;stroke:#000000;stroke-width:1px;stroke-linecap:butt;stroke-linejoin:miter;stroke-opacity:1"
       d="m 138.01209,143.15341 c 0.85117,-0.92437 1.06465,-2.05179 1.26269,-2.77792"
       id="path4216"
       inkscape:connector-curvature="0" />
    <path
       style="fill:none;stroke:#000000;stroke-width:1px;stroke-linecap:butt;stroke-linejoin:miter;stroke-opacity:1"
       d="m 153.16438,141.1331 c 0.34714,1.36036 1.12329,2.62539 1.38895,3.15673"
       id="path4218"
       inkscape:connector-curvature="0" />
    <path
       style="fill:none;stroke:#000000;stroke-width:1px;stroke-linecap:butt;stroke-linejoin:miter;stroke-opacity:1"
       d="m 157.33125,142.64833 c -0.14559,-1.74712 -0.85486,-2.57911 -1.38896,-3.91434"
       id="path4222"
       inkscape:connector-curvature="0" />
    <path
       style="fill:none;stroke:#000000;stroke-width:1px;stroke-linecap:butt;stroke-linejoin:miter;stroke-opacity:1"
       d="m 160.48798,141.25937 c -0.37087,-1.8541 -1.17987,-3.59618 -1.38896,-4.29315"
       id="path4230"
       inkscape:connector-curvature="0" />
    <path
       style="fill:none;stroke:#000000;stroke-width:1px;stroke-linecap:butt;stroke-linejoin:miter;stroke-opacity:1"
       d="m 163.89725,139.74414 c -0.64944,-1.64258 -1.06566,-3.01518 -1.76777,-4.41941"
       id="path4234"
       inkscape:connector-curvature="0" />
    <path
       style="fill:none;stroke:#000000;stroke-width:1px;stroke-linecap:butt;stroke-linejoin:miter;stroke-opacity:1"
       d="m 167.55905,137.59757 c -0.44233,-1.33017 -1.1425,-2.24089 -1.76777,-3.283"
       id="path4236"
       inkscape:connector-curvature="0" />
    <path
       style="fill:none;stroke:#000000;stroke-width:1px;stroke-linecap:butt;stroke-linejoin:miter;stroke-opacity:1"
       d="m 170.2107,135.57726 c -0.51827,0.0283 -1.57918,-1.61196 -1.89404,-2.39911"
       id="path4238"
       inkscape:connector-curvature="0" />
    <path
       style="fill:none;stroke:#000000;stroke-width:1px;stroke-linecap:butt;stroke-linejoin:miter;stroke-opacity:1"
       d="m 172.10474,133.68323 c -1.03858,-0.64527 -1.17266,-1.19078 -1.6415,-1.89404"
       id="path4240"
       inkscape:connector-curvature="0" />
    <path
       style="fill:none;stroke:#000000;stroke-width:1px;stroke-linecap:butt;stroke-linejoin:miter;stroke-opacity:1"
       d="m 100.76271,89.362786 c 10.63036,1.321679 21.98193,1.767767 32.57742,1.767767"
       id="path4246"
       inkscape:connector-curvature="0" />
    <path
       style="fill:none;stroke:#000000;stroke-width:1px;stroke-linecap:butt;stroke-linejoin:miter;stroke-opacity:1"
       d="m 121.3272,190.89286 c -18.43834,0.58005 -40.477465,2.30901 -55.178575,-3.57143 22.31677,36.36011 28.12095,78.05073 39.412315,115.68862 11.89057,25.85531 13.20238,56.23946 22.22335,78.7919 8.49649,3.94283 12.85398,0.52205 18.18275,-3.03046 -13.42688,-46.506 -15.81982,-90.03947 -24.24366,-136.37059"
       id="path4295"
       inkscape:connector-curvature="0" />
    <path
       style="fill:none;stroke:#000000;stroke-width:1px;stroke-linecap:butt;stroke-linejoin:miter;stroke-opacity:1"
       d="m 165.91755,190.68922 c 26.11433,2.83882 45.53031,-0.57248 63.89214,-6.62463 -15.78239,25.36594 -20.58068,50.2504 -28.03172,80.05459 -5.28282,30.23749 -13.06545,63.66528 -15.76963,95.41758 -1.23565,6.6287 -0.71301,13.71654 0.31886,19.39181 -4.40666,6.24425 -16.47361,6.38354 -21.25,1.60714 6.47597,-23.2133 3.2099,-49.41611 5.35714,-73.03571 2.87614,-23.78137 4.41092,-49.66169 6.34235,-70.90748"
       id="path4305"
       inkscape:connector-curvature="0"
       sodipodi:nodetypes="cccccccc" />
    <path
       style="fill:none;stroke:#000000;stroke-width:1px;stroke-linecap:butt;stroke-linejoin:miter;stroke-opacity:1"
       d="m 107.04148,169.01786 c 2.55781,-1.04441 5.59269,-1.44187 8.39286,-1.69643"
       id="path4309"
       inkscape:connector-curvature="0" />
    <path
       style="fill:none;stroke:#000000;stroke-width:1px;stroke-linecap:butt;stroke-linejoin:miter;stroke-opacity:1"
       d="m 115.52362,162.67857 c 0.13073,2.58772 -0.26785,4.40031 -0.26785,6.875 2.57838,-0.45003 5.75068,-0.93975 8.21428,-0.26786"
       id="path4313"
       inkscape:connector-curvature="0" />
    <path
       style="fill:none;stroke:#000000;stroke-width:1px;stroke-linecap:butt;stroke-linejoin:miter;stroke-opacity:1"
       d="m 167.39863,170.17857 c 3.66664,0.076 6.85418,1.34882 9.73214,2.5"
       id="path4315"
       inkscape:connector-curvature="0" />
    <path
       style="fill:none;stroke:#000000;stroke-width:1px;stroke-linecap:butt;stroke-linejoin:miter;stroke-opacity:1"
       d="m 131.68434,173.03571 c 0.38015,4.12563 -0.99562,8.62702 0.26785,11.78572"
       id="path4323"
       inkscape:connector-curvature="0"
       sodipodi:nodetypes="cc" />
    <path
       style="fill:none;stroke:#000000;stroke-width:1px;stroke-linecap:butt;stroke-linejoin:miter;stroke-opacity:1"
       d="m 158.55934,173.30357 c 0.0186,2.79053 0.11096,5.41698 0.35714,8.125"
       id="path4327"
       inkscape:connector-curvature="0" />
    <path
       style="fill:none;stroke:#000000;stroke-width:1px;stroke-linecap:butt;stroke-linejoin:miter;stroke-opacity:1"
       d="m 131.59505,177.23214 c -2.37418,1.82754 -6.25252,3.51054 -7.94643,5.44643 5.61894,1.76022 11.86656,2.52128 16.96429,4.375 3.43155,3.59642 3.9668,9.55986 5.71429,13.92857 -7.44974,1.67117 -20.56529,0.17885 -24.73215,-6.07143 -0.95023,-4.49667 0.33725,-9.41455 1.42857,-12.14285"
       id="path4329"
       inkscape:connector-curvature="0" />
    <path
       style="fill:none;stroke:#000000;stroke-width:1px;stroke-linecap:butt;stroke-linejoin:miter;stroke-opacity:1"
       d="m 147.30934,201.07143 c 1.78237,-4.27086 1.21523,-9.43901 1.60714,-13.75 3.76515,-5.0371 10.99712,-4.93756 15.71429,-7.76786 1.26023,-2.64584 -3.54567,-3.21429 -5.80357,-3.21429"
       id="path4331"
       inkscape:connector-curvature="0" />
    <path
       style="fill:none;stroke:#000000;stroke-width:1px;stroke-linecap:butt;stroke-linejoin:miter;stroke-opacity:1"
       d="m 164.80934,178.83928 c -0.21926,3.94814 -0.19299,8.85076 0.71429,11.875 -2.55591,5.25299 -11.55076,10.44643 -18.66072,10.44643"
       id="path4335"
       inkscape:connector-curvature="0" />
    <path
       style="fill:none;stroke:#000000;stroke-width:1px;stroke-linecap:butt;stroke-linejoin:miter;stroke-opacity:1"
       d="m 132.04148,383.03571 c -4.85607,3.33815 -6.74094,7.52213 -9.10714,11.07143 1.45926,6.63135 5.90242,10.39668 11.60714,12.67857 1.23104,0.23751 2.09073,-0.50965 2.85714,-0.89285"
       id="path4357"
       inkscape:connector-curvature="0" />
    <path
       style="fill:none;stroke:#000000;stroke-width:1px;stroke-linecap:butt;stroke-linejoin:miter;stroke-opacity:1"
       d="m 131.68434,399.10714 c 2.06345,3.45884 4.67961,5.52323 7.14286,7.67857 1.78135,-0.0803 3.1469,-0.6159 4.28571,-1.07142"
       id="path4361"
       inkscape:connector-curvature="0" />
    <path
       style="fill:none;stroke:#000000;stroke-width:1px;stroke-linecap:butt;stroke-linejoin:miter;stroke-opacity:1"
       d="m 137.04148,397.32143 c 1.75248,3.86315 4.74057,6.70485 7.32143,9.28571 1.9942,0.74776 4.84619,-0.81099 5.71428,-1.07142"
       id="path4363"
       inkscape:connector-curvature="0"
       sodipodi:nodetypes="ccc" />
    <path
       style="fill:none;stroke:#000000;stroke-width:1px;stroke-linecap:butt;stroke-linejoin:miter;stroke-opacity:1"
       d="m 144.72005,396.96429 c 1.50243,4.45643 4.64372,7.72396 6.42857,9.28571 2.30601,-0.22674 2.95301,-0.95442 4.10715,-1.96429 -1.83299,-4.96491 -4.06581,-9.32623 -5,-14.46428"
       id="path4367"
       inkscape:connector-curvature="0" />
    <path
       style="fill:none;stroke:#000000;stroke-width:1px;stroke-linecap:butt;stroke-linejoin:miter;stroke-opacity:1"
       d="m 145.43434,379.28572 c 8.70898,1.7348 11.42857,0.37888 11.42857,9.99999"
       id="path4371"
       inkscape:connector-curvature="0"
       sodipodi:nodetypes="cc" />
    <path
       style="fill:none;stroke:#000000;stroke-width:1px;stroke-linecap:butt;stroke-linejoin:miter;stroke-opacity:1"
       d="m 156.50577,396.78571 c -0.35433,2.10881 -1.55645,2.29608 -3.03572,3.03572"
       id="path4373"
       inkscape:connector-curvature="0" />
    <path
       style="fill:none;stroke:#000000;stroke-width:1px;stroke-linecap:butt;stroke-linejoin:miter;stroke-opacity:1"
       d="m 167.39862,381.96429 c -2.71425,1.38268 -4.65941,3.09484 -6.42857,4.64285 -0.33453,3.19828 -0.73526,6.63323 -1.25,9.46429 -0.30813,3.98289 3.28635,7.38857 5.17857,9.82143 1.24671,0.93221 3.1666,0.36407 4.73215,0.625"
       id="path4375"
       inkscape:connector-curvature="0"
       sodipodi:nodetypes="ccccc" />
    <path
       style="fill:none;stroke:#000000;stroke-width:1px;stroke-linecap:butt;stroke-linejoin:miter;stroke-opacity:1"
       d="m 164.89862,396.25 c 2.02933,4.0861 3.21162,8.54287 5.89286,11.60714 2.82488,0.94215 5.28185,-0.0516 6.25,-0.53571 0.54124,-0.33941 0.53489,-0.62293 0.71429,-1.07143"
       id="path4379"
       inkscape:connector-curvature="0" />
    <path
       style="fill:none;stroke:#000000;stroke-width:1px;stroke-linecap:butt;stroke-linejoin:miter;stroke-opacity:1"
       d="m 172.84505,394.91072 c 0.19695,4.71455 2.63737,7.88806 4.01786,11.33928 2.20313,0.21879 3.63711,-0.21141 5,-0.89286"
       id="path4383"
       inkscape:connector-curvature="0"
       sodipodi:nodetypes="ccc" />
    <path
       style="fill:none;stroke:#000000;stroke-width:1px;stroke-linecap:butt;stroke-linejoin:miter;stroke-opacity:1"
       d="m 179.18434,395 c 1.06484,3.8541 2.13664,6.88544 2.76786,10.35715"
       id="path4385"
       inkscape:connector-curvature="0"
       sodipodi:nodetypes="cc" />
    <path
       style="fill:none;stroke:#000000;stroke-width:1px;stroke-linecap:butt;stroke-linejoin:miter;stroke-opacity:1"
       d="m 152.28049,396.82797 c 2.40504,-0.30066 5.93837,-0.37915 7.32361,-0.50508"
       id="path4393"
       inkscape:connector-curvature="0" />
    <path
       style="fill:none;stroke:#000000;stroke-width:1px;stroke-linecap:butt;stroke-linejoin:miter;stroke-opacity:1"
       d="m 150.38646,390.38824 c 3.4169,-1.40023 7.1662,-0.61703 10.10152,-0.88388"
       id="path4397"
       inkscape:connector-curvature="0"
       sodipodi:nodetypes="cc" />
    <path
       style="fill:none;stroke:#000000;stroke-width:1px;stroke-linecap:butt;stroke-linejoin:miter;stroke-opacity:1"
       d="m 189.90867,391.52467 c 4.75161,4.09843 10.10153,9.35392 10.10153,17.9302 -1.45647,2.61745 -6.84419,3.77097 -9.47018,2.02031 -0.59437,-3.06166 -2.25785,-7.42739 -4.04061,-10.10153"
       id="path4399"
       inkscape:connector-curvature="0" />
    <path
       style="fill:none;stroke:#000000;stroke-width:1px;stroke-linecap:butt;stroke-linejoin:miter;stroke-opacity:1"
       d="m 190.54002,389.7569 c -0.60068,-3.19474 -3.50528,-6.36907 -5.55584,-8.71257"
       id="path4409"
       inkscape:connector-curvature="0"
       sodipodi:nodetypes="cc" />
    <path
       style="fill:none;stroke:#000000;stroke-width:1px;stroke-linecap:butt;stroke-linejoin:miter;stroke-opacity:1"
       d="m 181.9522,405.40178 c 1.82608,0.17264 3.35314,-0.52875 4.82143,-1.11607 -0.3316,-3.30933 -1.14811,-6.69165 -1.48275,-9.69055 2.98994,-1.53327 5.01496,-2.64107 5.24914,-5.21707"
       id="path4419"
       inkscape:connector-curvature="0"
       sodipodi:nodetypes="cccc" />
    <path
       style="fill:none;stroke:#000000;stroke-width:1px;stroke-linecap:butt;stroke-linejoin:miter;stroke-opacity:1"
       d="m 123.29148,396.42857 c -3.23648,2.60185 -5.89286,9.54909 -5.89286,15.53571 1.56359,2.73926 6.32652,2.52234 8.39286,0.71429 1.00441,-0.94978 1.39571,-1.92706 1.51786,-3.39286 -0.85732,-2.29115 -0.26345,-4.69411 0.71428,-6.16071"
       id="path4425"
       inkscape:connector-curvature="0" />
    <path
       style="fill:none;stroke:#000000;stroke-width:1px;stroke-linecap:butt;stroke-linejoin:miter;stroke-opacity:1"
       d="m 90.612915,404.46429 c 9.20717,-0.5769 18.937635,0.20757 27.857135,-0.53572"
       id="path4465"
       inkscape:connector-curvature="0" />
    <path
       style="fill:none;stroke:#000000;stroke-width:1px;stroke-linecap:butt;stroke-linejoin:miter;stroke-opacity:1"
       d="m 154.89862,403.03571 c 2.48786,0 5.78675,0 7.67858,0"
       id="path4469"
       inkscape:connector-curvature="0" />
    <path
       style="fill:none;stroke:#000000;stroke-width:1px;stroke-linecap:butt;stroke-linejoin:miter;stroke-opacity:1"
       d="m 199.01023,403.50893 c 12.83039,4.23273 33.94517,-3.92398 43.4714,4.41147 6.18896,21.97508 0.73013,48.32071 2.98543,73.12904 0.5601,11.58884 2.23072,21.7599 3.283,33.33503 -3.62467,1.422 -6.65764,7.2139 -8.04786,2.57982 -1.01134,2.3438 -1.57473,4.42782 -3.03572,6.07142 m 0,0 -1.875,-100.89285"
       id="path4471"
       inkscape:connector-curvature="0"
       sodipodi:nodetypes="cccccccc" />
    <path
       style="fill:none;stroke:#000000;stroke-width:1px;stroke-linecap:butt;stroke-linejoin:miter;stroke-opacity:1"
       d="m 234.09505,420.53571 c 5.5715,5.21467 6.38381,2.11507 10.53572,-1.51785"
       id="path4473"
       inkscape:connector-curvature="0" />
    <path
       style="fill:none;stroke:#000000;stroke-width:1px;stroke-linecap:butt;stroke-linejoin:miter;stroke-opacity:1"
       d="m 242.75577,408.48214 c -9.95237,-6.27724 -8.50512,10.12616 -9.10714,16.33929 -0.87625,16.27384 -0.78883,36.6198 0.45422,50.29336 -19.13666,1.11443 -39.31823,0.41669 -57.99539,0.41669"
       id="path4477"
       inkscape:connector-curvature="0"
       sodipodi:nodetypes="cccc" />
    <path
       style="fill:none;stroke:#000000;stroke-width:1px;stroke-linecap:butt;stroke-linejoin:miter;stroke-opacity:1"
       d="m 143.7447,474.35717 c -18.76968,-0.6538 -40.3617,6.05151 -58.008005,0.75762 -3.62335,-18.62341 -5.48092,-40.13718 -5.48092,-59.22193 -0.46384,-6.69306 5.7365,-9.98881 10.53571,-11.42857"
       id="path4479"
       inkscape:connector-curvature="0"
       sodipodi:nodetypes="cccc" />
    <path
       style="fill:none;stroke:#000000;stroke-width:1px;stroke-linecap:butt;stroke-linejoin:miter;stroke-opacity:1"
       d="m 91.862915,476.25 c 0.62427,19.20376 2.34208,38.44148 3.92857,55.89286 16.858045,5.94015 39.894645,2.21116 57.857135,0.71428 28.69853,-1.9284 58.24338,-5.25265 84.10715,-10"
       id="path4481"
       inkscape:connector-curvature="0"
       sodipodi:nodetypes="cccc" />
    <path
       style="fill:none;stroke:#000000;stroke-width:1px;stroke-linecap:butt;stroke-linejoin:miter;stroke-opacity:1"
       d="m 109.60155,312.22769 c 3.86224,12.66581 3.10859,26.99715 4.29314,40.0273 0.7313,17.47158 -3.40926,34.5417 -3.40926,51.64404"
       id="path4483"
       inkscape:connector-curvature="0" />
    <path
       style="fill:none;stroke:#000000;stroke-width:1px;stroke-linecap:butt;stroke-linejoin:miter;stroke-opacity:1"
       d="m 94.449265,516.59418 c -1.83526,27.43819 -19.37884,53.72056 -30.05204,75.06696 30.9652,3.32537 67.047055,4.43123 96.974635,-1.01015 -2.57315,-17.51288 0.50508,-40.94168 0.50508,-58.58885"
       id="path4487"
       inkscape:connector-curvature="0"
       sodipodi:nodetypes="cccc" />
    <path
       style="fill:none;stroke:#000000;stroke-width:1px;stroke-linecap:butt;stroke-linejoin:miter;stroke-opacity:1"
       d="m 223.0543,525.36987 c 5.33774,14.85085 9.47446,33.71033 18.24588,44.88866 -22.59523,4.19432 -47.31716,10.52594 -70.33187,16.35185 -6.38432,-15.96082 -4.95584,-37.1151 -7.57614,-54.54824"
       id="path4505"
       inkscape:connector-curvature="0"
       sodipodi:nodetypes="cccc" />
    <path
       style="fill:none;stroke:#000000;stroke-width:1px;stroke-linecap:butt;stroke-linejoin:miter;stroke-opacity:1"
       d="m 194.08321,395.42632 c -3.38662,-15.23326 -6.44738,-34.90581 -6.44738,-51.00002"
       id="path4509"
       inkscape:connector-curvature="0"
       sodipodi:nodetypes="cc" />
    <path
       style="fill:none;stroke:#000000;stroke-width:1px;stroke-linecap:butt;stroke-linejoin:miter;stroke-opacity:1"
       d="m 128.54191,594.18652 c 0.79159,27.31463 -11.1339,47.86264 -35.102795,55.05331 -2.08432,3.80619 -1.85879,8.84329 -1.26269,12.12184 15.245165,4.55542 35.484965,3.47071 47.982235,-2.77792 4.06418,-2.77797 6.95475,-8.10112 8.33376,-10.85914 -0.31296,2.57579 -0.28174,5.37196 -0.50508,7.82868 5.76192,1.37495 11.26779,-1.03005 15.40483,-3.78807 -5.8477,-18.48704 -4.39637,-42.29916 -6.06092,-60.60916"
       id="path4517"
       inkscape:connector-curvature="0" />
    <path
       style="fill:none;stroke:#000000;stroke-width:1px;stroke-linecap:butt;stroke-linejoin:miter;stroke-opacity:1"
       d="m 194.99007,580.11835 c -0.41868,36.48883 29.29463,56.45399 53.75999,64.5758 1.06481,2.96011 1.32008,6.57081 0.50508,9.84899 -1.75487,1.16991 -4.57449,3.1589 -7.32361,4.54568 -17.9781,3.26875 -40.5091,-5.06194 -59.09392,-10.35406 0,0.73174 -1e-5,3.74565 0,5.3033 -4.3394,0.39449 -10.54882,0.10636 -14.08612,-2.19888 -2.06174,-26.951 -5.18698,-72.83667 -3.67449,-100.43031"
       id="path4531"
       inkscape:connector-curvature="0"
       sodipodi:nodetypes="cccccccc" />
    <path
       style="fill:none;stroke:#000000;stroke-width:1px;stroke-linecap:butt;stroke-linejoin:miter;stroke-opacity:1"
       d="m 160.74052,584.4638 c 1.6812,-0.41679 2.7883,-0.242 4.29315,-0.3788"
       id="path4535"
       inkscape:connector-curvature="0" />
    <path
       style="fill:none;stroke:#000000;stroke-width:1px;stroke-linecap:butt;stroke-linejoin:miter;stroke-opacity:1"
       d="m 195.43434,583.03571 c 17.44393,1.46585 34.16637,-8.04065 45.97765,-12.76517"
       id="path4547"
       inkscape:connector-curvature="0"
       sodipodi:nodetypes="cc" />
    <path
       style="fill:none;stroke:#000000;stroke-width:1px;stroke-linecap:butt;stroke-linejoin:miter;stroke-opacity:1;display:inline"
       d="m 132.14058,595.70175 c -0.0939,2.38233 0.14596,4.69921 0.35355,6.98268 2.89918,0.0217 7.05691,0.10703 9.104,-0.26517 0.0979,-2.31468 0.19876,-4.88472 0,-7.07106 -2.28085,-0.38015 -6.41873,0.44907 -9.45755,0.35355 z"
       id="path4567"
       inkscape:connector-curvature="0" />
    <path
       style="fill:none;stroke:#000000;stroke-width:1px;stroke-linecap:butt;stroke-linejoin:miter;stroke-opacity:1;display:inline"
       d="m 131.87541,606.57352 c 0.43751,3.16268 -0.0657,6.05087 -0.53033,8.83883 3.28436,-0.29411 6.91238,-0.74089 10.42983,-1.06066 -0.51715,-2.71632 -0.22064,-6.08683 -1.06066,-8.39689 -2.89807,-10e-6 -5.94354,0.46589 -8.83884,0.61872 z"
       id="path4571"
       inkscape:connector-curvature="0" />
    <path
       style="fill:none;stroke:#000000;stroke-width:1px;stroke-linecap:butt;stroke-linejoin:miter;stroke-opacity:1;display:inline"
       d="m 130.37281,619.12466 c -0.72261,2.82247 -1.63252,5.62009 -2.12132,8.30851 4.25295,0.46522 8.97774,0.27664 12.99309,-0.0884 0.3136,-2.93675 1.24479,-5.88152 0.7071,-8.83883 -3.74534,0.68098 -7.75454,-0.0939 -11.57887,0.61872 z"
       id="path4573"
       inkscape:connector-curvature="0" />
    <path
       style="fill:none;stroke:#000000;stroke-width:1px;stroke-linecap:butt;stroke-linejoin:miter;stroke-opacity:1"
       d="m 144.95689,654.39161 c 1.11183,0.58437 1.8318,0.76168 2.82842,1.06067"
       id="path4615"
       inkscape:connector-curvature="0"
       sodipodi:nodetypes="cc" />
    <path
       style="fill:none;stroke:#000000;stroke-width:1px;stroke-linecap:butt;stroke-linejoin:miter;stroke-opacity:1"
       d="m 183.14065,654.03806 c 1.71685,-1.24052 3.24266,-2.60531 4.50781,-3.71231"
       id="path4617"
       inkscape:connector-curvature="0" />
    <path
       style="fill:none;stroke:#000000;stroke-width:1px;stroke-linecap:butt;stroke-linejoin:miter;stroke-opacity:1"
       d="m 184.36291,592.75 c 0.45358,2.88095 1.74858,5.48441 2,8.25 2.82519,-0.23867 6.42134,-0.88049 8.125,-1.5 -0.17729,-3.58732 -1.73845,-6.748 -2,-9.625 -2.3121,1.5414 -5.4008,1.5071 -8.125,2.875 z"
       id="path4621"
       inkscape:connector-curvature="0" />
    <path
       style="fill:none;stroke:#000000;stroke-width:1px;stroke-linecap:butt;stroke-linejoin:miter;stroke-opacity:1"
       d="m 187.86291,604.75 c 0.88812,2.89551 2.008,6.02667 2.75,8.5 2.51339,-0.72392 6.18924,-1.83177 8,-2.375 -1.17518,-2.7061 -2.14106,-5.97765 -3,-8.125 -2.84379,0.51705 -4.926,1.16796 -7.75,2 z"
       id="path4623"
       inkscape:connector-curvature="0" />
    <path
       style="fill:none;stroke:#000000;stroke-width:1px;stroke-linecap:butt;stroke-linejoin:miter;stroke-opacity:1"
       d="m 192.23791,616.625 c 1.37671,2.55671 1.97386,5.07953 2.625,7.25 3.29417,-0.21962 7.20771,-1.16635 9.625,-2.375 -1.62914,-2.47524 -2.64959,-5.06149 -3.625,-7.5 -2.36762,1.57841 -5.71075,1.60953 -8.625,2.625 z"
       id="path4625"
       inkscape:connector-curvature="0" />
    <path
       style="fill:none;stroke:#000000;stroke-width:1px;stroke-linecap:butt;stroke-linejoin:miter;stroke-opacity:1"
       d="m 175.73791,476.75 c 0.21359,-2.34948 0.64247,-7.6999 0.375,-11.125 -10.01801,0 -22.28694,0.85568 -33.125,1.25 0.98241,3.53238 0.75,6.94547 0.75,10.625 10.63529,1.06704 22.09411,-0.75 32,-0.75 z"
       id="path4627"
       inkscape:connector-curvature="0" />
    <path
       style="fill:none;stroke:#000000;stroke-width:1px;stroke-linecap:butt;stroke-linejoin:miter;stroke-opacity:1"
       d="m 145.23791,477.75 c 0.18563,2.00731 0.375,4.4027 0.375,5.875 9.28884,-0.55002 20.23484,0.86639 29.125,-0.75 -0.41809,-1.89278 -0.31245,-4.28155 0,-6"
       id="path4629"
       inkscape:connector-curvature="0" />
  </g>
  <g
     inkscape:groupmode="layer"
     id="layer4"
     inkscape:label="ribbon"
     style="display:inline"
     sodipodi:insensitive="true">
    <path
       style="fill:#ff0000;fill-opacity:1;stroke:none;display:inline"
       d="m 198.39952,70.278032 c -3.9831,-0.309379 -7.61331,1.919738 -10.59106,4.333051 -0.97485,0.786345 -1.88158,1.654349 -2.81156,2.49538 -1.35405,-0.462654 -2.90265,-0.551813 -4.20956,0.112175 -3.88433,-3.980391 -8.07663,-8.129409 -13.55888,-9.732763 -1.03982,-0.22121 -2.27243,-0.853379 -3.25729,-0.377097 -1.01858,0.919689 -1.42267,2.337231 -2.03137,3.537805 -1.29887,2.869732 -1.78809,6.034923 -2.12347,9.143258 -0.11725,3.417972 0.17519,7.103325 2.14594,10.010173 0.90046,0.985156 2.37956,0.485873 3.53901,0.439336 5.20869,-0.59929 10.3325,-2.726698 14.16347,-6.35244 1.74361,0.268249 3.49738,0.03398 5.23012,-0.187748 3.29572,2.732195 7.52066,3.943877 11.64152,4.79382 1.28556,0.198689 2.54471,0.75518 3.84978,0.689487 0.91797,-0.56659 0.85433,-1.812145 1.13977,-2.751037 0.873,-4.715561 1.04119,-9.859593 -1.14022,-14.259712 -0.43297,-0.825035 -0.93884,-1.799098 -1.98619,-1.893692 z"
       id="path4254"
       inkscape:connector-curvature="0" />
    <path
       style="fill:none;stroke:#000000;stroke-width:1px;stroke-linecap:butt;stroke-linejoin:miter;stroke-opacity:1;display:inline"
       d="m 199.05017,70.814756 c 3.2163,4.173502 3.32075,11.639409 1.44787,18.049639 -5.61064,-1.110381 -11.59336,-2.106274 -15.48852,-5.639636 -1.38356,0.2591 -3.44191,0.567951 -5.44753,0.209079 -3.6581,3.672866 -9.98158,6.611195 -16.9993,6.547027 -4.05163,-5.257426 -2.47894,-16.842291 1.66293,-22.711435 6.73543,0.707935 11.99886,5.739719 16.46401,10.466543 1.51989,-0.948184 2.81799,-0.624966 4.40758,-0.157457 3.8436,-3.748958 8.92002,-7.759812 13.95296,-6.76376 z"
       id="path4250"
       inkscape:connector-curvature="0" />
    <path
       sodipodi:type="star"
       style="fill:#ffff00;fill-opacity:1;stroke:#000000;stroke-width:1.54906964;stroke-linecap:round;stroke-linejoin:round;stroke-miterlimit:4;stroke-opacity:1;stroke-dasharray:none"
       id="path4720"
       sodipodi:sides="5"
       sodipodi:cx="252.79066"
       sodipodi:cy="211.03566"
       sodipodi:r1="13.473353"
       sodipodi:r2="6.2957644"
       sodipodi:arg1="0.90630093"
       sodipodi:arg2="1.1031197"
       inkscape:flatsided="false"
       inkscape:rounded="0"
       inkscape:randomized="0"
       d="m 261.09917,221.64226 -5.47029,-4.98689 -10.35822,5.55977 3.0524,-6.74359 -8.48852,-8.13319 7.35677,0.81912 5.11204,-10.58636 1.49433,7.24983 11.64793,1.59047 -6.43322,3.66152 z"
       inkscape:transform-center-x="-0.73859689"
       inkscape:transform-center-y="-0.096136374"
       transform="matrix(0.61387315,0.19973223,-0.19973223,0.61387315,34.277815,32.79203)" />
    <path
       sodipodi:type="star"
       style="fill:#ffff00;fill-opacity:1;stroke:#000000;stroke-width:1.54906964;stroke-linecap:round;stroke-linejoin:round;stroke-miterlimit:4;stroke-opacity:1;stroke-dasharray:none;display:inline"
       id="path4720-1"
       sodipodi:sides="5"
       sodipodi:cx="252.79066"
       sodipodi:cy="211.03566"
       sodipodi:r1="13.473353"
       sodipodi:r2="6.2957644"
       sodipodi:arg1="0.90630093"
       sodipodi:arg2="1.1031197"
       inkscape:flatsided="false"
       inkscape:rounded="0"
       inkscape:randomized="0"
       d="m 261.09917,221.64226 -5.47029,-4.98689 -10.35822,5.55977 3.0524,-6.74359 -8.48852,-8.13319 7.35677,0.81912 5.11204,-10.58636 1.49433,7.24983 11.64793,1.59047 -6.43322,3.66152 z"
       inkscape:transform-center-x="0.66077486"
       inkscape:transform-center-y="0.17662924"
       transform="matrix(0.60778317,-0.21756111,0.21756111,0.60778317,-50.965426,159.01281)" />
    <path
       sodipodi:type="star"
       style="fill:#ffff00;fill-opacity:1;stroke:#000000;stroke-width:1.54906964;stroke-linecap:round;stroke-linejoin:round;stroke-miterlimit:4;stroke-opacity:1;stroke-dasharray:none;display:inline"
       id="path4720-7"
       sodipodi:sides="5"
       sodipodi:cx="252.79066"
       sodipodi:cy="211.03566"
       sodipodi:r1="13.473353"
       sodipodi:r2="6.2957644"
       sodipodi:arg1="0.90630093"
       sodipodi:arg2="1.1031197"
       inkscape:flatsided="false"
       inkscape:rounded="0"
       inkscape:randomized="0"
       d="m 261.09917,221.64226 -5.47029,-4.98689 -10.35822,5.55977 3.0524,-6.74359 -8.48852,-8.13319 7.35677,0.81912 5.11204,-10.58636 1.49433,7.24983 11.64793,1.59047 -6.43322,3.66152 z"
       inkscape:transform-center-x="-0.36667989"
       inkscape:transform-center-y="-0.47405593"
       transform="matrix(0.63590899,0.11114393,-0.11114393,0.63590899,12.707325,89.782679)" />
  </g>
</svg>
