<?xml version="1.0" encoding="UTF-8" standalone="no"?><svg xmlns="http://www.w3.org/2000/svg" width="300" height="700"><path d="M146.378 55.693c-8.584-.035-17.354.733-25.29 4.242-9.425 3.93-16.95 11.47-22.108 20.167-.656-1.385-2.777-.408-4.07-.576-16.057 1.187-32.527 1.25-47.937 6.385-7.78 2.597-15.583 7.187-19.16 14.893-1.724 3.895-2.78 8.29-2.203 12.555.754 4.05 4.838 6.273 8.61 6.787 10.185 1.08 20.38-.922 30.333-2.954 29.503-6.337 58.467-15.228 88.305-19.882 11.754-1.73 23.8-2.51 35.584-.625 20.788 3.03 41.333 7.676 62.22 10.023 7.877.683 15.975 1.565 23.745-.324 2.772-.645 5.464-2.507 6.046-5.453 1.086-3.545.51-7.637-2.092-10.395-3.328-3.883-8.354-5.697-13.07-7.275-13.688-3.767-28.046-4.407-42.187-4.328-8.97.18-17.972.63-26.832 2.062-.774.89-.808-.674-1.246-1.168-4.396-8.84-11.932-16.06-21.13-19.757-8.67-3.53-18.2-4.608-27.516-4.377z" fill="#7e7ebf"/><path d="M172.86 94.834c-18.03.37-35.718 4.425-53.23 8.402-9.318 2.23-18.658 4.423-27.905 6.908-1.51.83-.65 2.833-1.196 4.17-1.192 7.504-5.336 14.056-8.135 21.024-2.556 5.56-3.6 12.356-.59 17.98 1.057 1.746 1.964 3.858 3.653 5.045 1.28-.148.223 1.137.225 1.927-.947 3.428-1.024 7.214.754 10.4 1.806 3.594 5.036 6.358 8.547 8.2 1.7.44 1.664-1.816 1.806-2.914.473-.042 1.41 1.175 2.204 1.493 2.315 1.334 4.918 2.29 7.517 2.74 1.618-.256.825-2.404 1.073-3.53.025-8.837.06-17.628 1.236-26.392 1.208-10.66 2.645-21.293 3.794-31.96 2.38.224 4.906-.14 7.332-.3.007 1.265-.74 3.756 1.222 3.698 3.617-.35 7.463-.395 10.782-1.942.92-.65-.408-3.262.48-3.176 2.188.463 4.77.206 6.78.26.415 2.106 3.002 1.504 4.53 1.405 1.633-.277 3.424-.27 4.885-1.073.232-1.633.337-2.207 2.144-1.84 1.32-.14 2.76-.01 3.98-.615.245 1.592-.07 3.327.583 4.814 1.598.638 3.308-.608 4.956-.785 1.71-.193 3.29-1.468 3.203-3.327.135-.915.057-2.18.22-2.85 1.5 1.2 3.633.517 5.39.75.454.404.122 1.885.238 2.74-.18 1.565.685 3.535 2.526 3.306 1.603-.05 3.2-.318 4.72-.837.52 23.167.71 46.34.9 69.51.556 1.875 2.658.382 3.933.162 3.194-1.005 6.743-2.186 8.44-5.34.937-1.733.078-3.85.242-5.727.075-1.31-.418-3.463.01-4.247 1.92-.797 3.507-2.4 5.603-2.857.584-.338.197 1.224.48 1.704.57 1.682 2.673.605 3.703-.032 2.58-1.614 5.35-3.27 7.173-5.753 1.134-2.755.413-5.854.4-8.744-.95-10.838-3.887-21.364-6.017-32.016-1.726-7.77-2.745-15.713-2.143-23.693-.228-1.24.85-2.977-.454-3.82-3.928-1.03-8.048-1.35-12.056-2.023-4.617-.64-9.28-.9-13.94-.85z" fill="#bf7ebf"/><path d="M163.21 112.457c-.896 1.43-.165 3.386-.862 4.956-2.175.697-4.424 1.16-6.652 1.736-.248-1.546.506-3.506-.502-4.74-1.38-.396-2.927.396-4.39.21-1.4-.294-3.182.236-2.685 2.004-.31.644-1.72.376-2.43.64-1.88.245-3.77.442-5.652.29-.128-2.17-2.857-1.177-4.293-1.46-1.386.242-3.742-.846-4.293.924-.2.837.52 2.495-.837 2.59-3.292.954-6.758 1.162-10.156 1.34-.012-1.22.828-3.673-1.137-3.596-2.316.28-4.697.12-6.967.488-1.053 1.213-.53 3.232-.94 4.78-1.08 9.633-2.524 19.243-3.426 28.885 1.18 3.603 3.745 6.582 6.02 9.557 8.576 10.598 22.725 16.26 36.27 14.632 10.133-1.015 20.287-5.51 26.593-13.717 1.826-1.773.738-4.502 1.03-6.747-.072-12.11-.234-24.22-.584-36.326-.617-1.73-2.61-.376-3.86-.378-1.018.047-2.51.265-3.185-.315-.348-1.747.064-3.586-.46-5.272-1.715-.687-3.71-.118-5.51-.582-.374-.128-.73.03-1.096.1z" fill="#ffe5d4"/><path d="M128.33 129.237c-2.71.163-5.53.012-8.128.92-1.118.483-2.275 1.24-2.793 2.38-.23 1.187 1.163 1.58 1.908 2.16 6.45 4.108 13.692 6.755 20.507 10.13 1.118.346 1.87-.858 2.47-1.618 1.424-2.056.944-4.835-.386-6.808-2.526-3.824-6.852-6.28-11.326-7.023-.74-.13-1.498-.162-2.253-.143zM166.977 129.537c-3.99.3-7.97 1.12-11.697 2.587-2.83 1.1-5.26 3.69-5.39 6.836-.1 2.185.723 4.396 2.13 6.045.875.757 1.938-.215 2.85-.452 6.97-2.778 13.966-6.144 19.206-11.654.776-.97-.38-1.902-1.26-2.198-1.827-.82-3.834-1.203-5.84-1.165z" fill="#7e7eff"/><path d="M124.46 137.2c-1.06.47-.76 1.84-.876 2.778-.214 1.882.466 4.182 2.36 4.94 1.645.576 3.35-.41 4.31-1.728.552-.797 1.32-1.67 1.298-2.667-.342-1.012-1.64-1.022-2.433-1.553-1.448-.596-2.8-1.54-4.344-1.822l-.316.052zM165.02 139.106c-1.935.73-3.792 1.7-5.615 2.67-.9.642-.254 1.74.18 2.447.73 1.265 2 2.838 3.66 2.34 1.997-.71 2.592-3.036 2.817-4.92.097-.85.474-2.24-.673-2.513a.69.69 0 0 0-.37-.024z" fill="#bf7ebf"/><path d="M117.614 132.986c-1.3.165-1.51 1.715-1.803 2.742-.593 2.95 1.252 5.75 3.497 7.49 3.204 2.514 7.242 3.868 11.277 4.187 2.71.134 5.514-.056 7.983-1.272.755-.336 2.043-.827 1.57-1.868-.53-.82-1.69-.962-2.507-1.453-1.95-.835-3.853-1.844-5.84-2.556-1.202-.154-1.31 1.385-1.964 2.07-.736 1.027-1.8 2.078-3.164 1.878-1.16-.096-1.954-1.32-2.135-2.388-.08-1.466-.075-2.95.182-4.387-.093-1.044-1.335-1.178-2.024-1.717-1.555-.82-2.977-1.886-4.547-2.664-.17-.05-.35-.082-.526-.064zM173.626 132.16a40.034 40.034 0 0 1-7.978 6.343c-.77.785-.238 2.026-.462 3.018-.193 1.453-.496 3.21-1.796 4.092-.855.42-1.835-.018-2.332-.77-.775-.74-.957-1.888-1.732-2.61-1.032-.373-1.966.52-2.927.773-1.117.544-2.405.824-3.43 1.518-.75.818.095 1.8.804 2.27 2.29 1.877 5.38 2.654 8.29 2.136 3.722-.61 6.783-3.102 9.423-5.642 2.096-2.152 4.223-4.677 4.542-7.785.087-1.29-.273-2.88-1.452-3.54-.362-.127-.642.022-.952.198z" fill="#7ebfbf"/><path d="M107.98 153.46c-.868 1.677-.374 3.802-.723 5.65-.088 3.017-.72 6.1-.223 9.09.888 1.527 2.67.096 3.97.103 1.685-.38 4.575.073 4.86-2.296.057-1.76.483-3.848-1.12-5.1-2.052-2.293-3.578-5.13-5.508-7.425-.445-.322-.783-.235-1.255-.023z" fill="#f378f3"/><path d="M115.62 163.505c-.68 1.706-.72 3.702-.608 5.525.683 1.52 2.648.25 3.93.375 1.228.022 4.06-.26 2.708-2.033-1.926-1.197-3.352-3.14-5.36-4.143-.222.09-.446.183-.67.275zM176.45 161.658a60.66 60.66 0 0 1-8.145 7.434c-.93 1.695 1.608 1.755 2.7 1.966 2.105.24 3.99 1.6 6.085 1.64 1.444-.875.714-2.955.955-4.347-.157-2.172.325-4.465-.26-6.557-.457-.324-.82-.367-1.334-.135z" fill="#f378f3"/><path d="M131.938 173.39c-1.043 1.38-.463 3.397-.752 5.02.047 2.192-.47 4.57.523 6.59 2.957 1.042 6.47 1.032 9.074 2.895 2.675 3.263 3.25 7.616 4.646 11.492-.15 1.616 2.024 3.087 2.503.98 1.284-4.187 1.044-8.65 1.343-12.977 2.248-2.722 5.656-3.803 8.815-5.043 1.92-.892.773-3.37 1.043-4.98-.224-1.267.635-3.78-1.294-3.827-6.037 1.804-12.436 1.828-18.658 1.184-2.313-.215-4.527-1.267-6.794-1.452l-.245.064-.205.054z" fill="#ffe5d4"/><path d="M130.343 177.85c-2.044 1.086-4.17 2.237-5.918 3.763-.673.993.59 2.014 1.696 2.123 1.65.29 3.342 1.216 5.013.908 1.355-1.074.52-3.116.655-4.585.004-.93-.05-2.544-1.445-2.21zM158.778 176.097c-.796 1.345-.43 3.177-.19 4.688.772 1.778 2.936.54 4.18.063 1.125-.415 2.747-.81 2.347-2.376-.83-2.158-3.695-2.228-5.643-2.55-.23.06-.463.117-.694.175z" fill="#d66b71"/><path d="M163.615 179.648c-4.676 2.235-10.382 2.836-14.236 6.63-1.57 1.827-.69 4.46-1.113 6.626-.093 2.502-.36 5.005-.996 7.42.26 1.772 2.412.905 3.54.69 5.29-1.373 10.5-4.078 13.934-8.415.93-1.07 1.21-2.495.75-3.82-.425-2.895-.074-5.894-.618-8.736-.164-.425-.864-.577-1.26-.396zM123.402 182.406c-1.456.767-1.347 2.8-1.854 4.183-.584 2.954-1.205 6.27.22 9.075 3.804 4.41 9.965 5.62 15.516 6.187 2.842.286 5.798.137 8.555-.56 1.094-1.142-.206-2.75-.34-4.063-1.168-3.43-1.924-7.26-4.38-10.033-2.773-1.7-6.184-1.948-9.267-2.835-2.852-.532-5.622-1.555-8.45-1.956z" fill="#c83737"/><path d="M144.9 379.086c-3.39 2.196-7.18 4.517-11.396 3.976-1.594-.484-2.923.3-3.915 1.51-2.83 2.675-4.948 6.005-6.853 9.354.29 3.396 2.296 6.623 4.808 8.93 2.26 1.857 4.782 3.846 7.758 4.238.782-.028 1.775-.418 1.84-1.318 1.03 1.23 2.683 1.597 4.142.94.952.005 1.664-1.446 2.336-.395 1.723 1.553 4.178.41 6.012-.213.8-.35 2.165 1.313 3.468.01 1.497-.284 2.507-1.828 1.86-3.284-1.35-4.075-3.21-8.078-4.15-12.24 1.938-.66 4.018-.538 5.972-.83 1.052-1.068.185-2.896.184-4.3-.2-2.46-1.886-4.8-4.427-5.185-2.446-.508-4.95-1.21-7.426-1.235l-.215.043zM184.035 380.728c-4.236 3.19-10.063 3.21-14.933 1.788-1.384-.787-2.914-.757-4.047.445-1.87 1.47-4.724 2.782-4.67 5.563-.237 3.21-1.272 6.436-.83 9.66 1.022 3.034 3.008 5.736 5.326 7.91 1.26.864 3.213 1.104 4.484.37.67 1.415 2.06 2.382 3.67 2.13 1.49-.118 3.92-.166 4.23-1.98 1.53-.088 3.57.134 4.64-1.168 1.46.82 3.278-.167 4.617-.83 1.15-1.117-.04-3.003.028-4.405-.168-1.797-.768-3.783-.714-5.466 1.954-1.177 4.72-2.467 4.91-5.05-.644-3.448-3.264-6.127-5.383-8.793-.445-.345-.802-.392-1.325-.172z" fill="#ffe5d4"/><path d="M153.722 396.29c-1.342-.094-1.755 1.46-1.09 2.423.162 1.447 1.93 1.428 2.732.513 1.273-.593 1.8-2.83-.032-2.92a11.53 11.53 0 0 0-1.61-.016z" fill="#ffe5d4"/><g fill="#d47e7e"><path d="M156.308 591.186c-9.064 1.213-18.153 2.115-27.29 2.54-1.69.627-.665 2.87-.945 4.25.13 14.21-4.357 28.94-14.59 39.17-5.433 5.432-12.32 9.167-19.535 11.564-1.744.902-1.842 3.22-2.28 4.92-.17 2.404-.512 4.977.24 7.306 1.144 1.693 3.57 1.474 5.317 2.056 12.836 2.555 26.426 1.94 38.817-2.298 3.722-1.07 6.836-3.558 9.034-6.707 1.076-1.397 2.113-3.227 2.935-4.55.03 2.07-.55 4.175-.28 6.203 2.025 1.032 4.558.68 6.76.306 3.096-.715 6.29-1.81 8.74-3.86.592-1.92-.704-3.856-.93-5.767-3.19-13.947-3.117-28.338-3.863-42.56-.3-4.003-.188-8.086-.848-12.035-.325-.41-.76-.645-1.282-.54zM164.81 560.596c-.988.94-.323 2.488-.523 3.7-.09 20.437.946 40.86 2.215 61.25.606 8.714 1.136 17.454 1.892 26.14.985 1.42 2.91 1.704 4.47 2.198 3.146.607 6.438.98 9.613.482 1.302-.547.55-2.295.75-3.398-.093-1.084-.13-2.164 1.21-1.33 11.825 3.37 23.534 7.265 35.663 9.393 4.694.852 9.463 1.17 14.232 1.014 3.348-.138 7.025.215 9.927-1.807 1.792-1.15 3.724-2.177 5.258-3.662.757-1.838.59-3.947.48-5.9-.28-1.44-.227-3.158-1.253-4.31-2.907-1.243-5.94-2.158-8.798-3.525-10.887-4.85-21.095-11.328-29.14-20.222-7.73-8.416-13.08-19.17-14.703-30.567-.5-2.937-.538-5.944-.794-8.902-.502-1.434-2.2-.392-3.234-.254-6.952 1.74-13.903 3.49-20.853 5.235-3.017-7.9-4.154-16.356-4.934-24.766-.165-.703-.81-1.038-1.48-.768z"/></g><g fill="#8c5353"><path d="M227.164 184.925c-10.554 2.52-21.028 5.593-31.952 5.872-9.675.592-19.388.354-29.048-.06-1.843.75-2.553 3.155-4.453 4.094-4.98 4.27-11.427 6.264-17.92 6.248-7.264.382-15.662-.036-21.173-5.388-1.705-1.382.26-5.31-2.875-4.778-14.166-.26-28.484.867-42.546-.925-3.048-.336-6.29-1.78-9.172-1.797-1.94 1.423 1.114 3.795 1.527 5.487 14.97 26.453 21.49 56.516 29.366 85.698 2.922 11.55 5.96 23.07 10.547 34.07 7.696 22.227 10.002 46 17.983 68.152 3.588 2.098 8.513 3.044 12.4.842 1.957-1.164 5.403-1.757 5.756-4.39.713 2.667 4.4 1.787 6.406 2.734 3.056.4 4.778 3.377 4.5 6.28-.263 2.456 3.03 3.632 4.266 1.5.513-2.926 3.503-4.153 5.593-5.796-.03-2.043 1.623.33 2.83.375 5.6 1.718 12.687.96 16.764-3.546 1.033-3.02-.63-6.252-.233-9.407.455-20.794 4.663-41.254 8.063-61.726 6.38-34.394 12.26-69.192 24.812-101.93 2.826-7.013 6.635-13.624 9.984-20.312.173-.862-.686-1.386-1.422-1.297z"/><path d="M112.297 323.58c-.5.17-.767.72-.666 1.225.333 3.04.59 6.09.75 9.144.284 4.887.435 9.783.76 14.67.026.555.493 1.046 1.063 1.024 1.393-.02 2.794.042 4.183-.047.617-.072 1.03-.756.833-1.34-1.408-6.627-2.837-13.254-4.505-19.818-.374-1.415-.715-2.84-1.145-4.238-.176-.505-.767-.792-1.273-.623z"/><path d="M117.274 348.634c-1.57.108-4.275.143-3.71 2.453.035 11.537-.865 23.037-2.168 34.492-.526 6.158-1.21 12.388-1.06 18.54.836 1.44 2.796-.095 4.176.254 1.882-.174 4.807.768 5.195-1.92.758-2.478 2.72-4.203 3.766-6.477-.12-1.348-.075-2.58.95-3.657 1.79-3.056 4.32-5.835 6.463-8.463.675-2.243-3.067-1.2-3.21-3.24-3.7-10.1-6.104-20.645-8.347-31.165-.376-.788-1.252-.866-2.056-.818zM186.663 351.426c-.62.618-.396 1.6-.566 2.386a217.46 217.46 0 0 1-.964 8.778c-.406 4.416-.368 8.88.262 13.273.135.99.303 1.978.456 2.964-.463.707-1.468 1.178-1.363 2.132.492.965 1.38 1.675 2.01 2.54 1.44 1.798 2.938 3.728 3.503 6.005.134.86-.86 1.662-.238 2.47.89.793 1.758 1.616 2.635 2.43.68.615 1.867-.03 1.727-.928-2.504-11.878-4.445-23.894-5.458-36a349.06 349.06 0 0 1-.382-5.435c-.146-.742-1.018-1.057-1.62-.616zM158.495 395.94c-.857.05-2.06-.075-2.453.897-.15.82-.645 1.563-1.414 1.922-.617.296-1.548.65-1.38 1.5.274.934.638 1.864 1.054 2.74.496.79 1.558.4 2.33.495 1.66-.027 3.33.06 4.98-.038.847-.105 1.04-1.234.484-1.79-.984-1.467-1.784-3.102-1.963-4.877-.154-.805-.947-.928-1.638-.85zM221.773 525.196c-16.355 2.484-32.89 4.212-49.374 5.847-3 .412-6.213.132-9.052 1.114-.298 2.63.597 5.365.614 8.05 1.572 15.07 1.2 30.67 6.223 45.094.58 2.407 3.396.807 4.91.56 21.56-5.283 43.095-10.806 64.875-15.022 2.07-.987-.337-3.032-.906-4.298-7.28-12.27-10.306-26.41-15.352-39.648-.328-.81-.85-1.95-1.94-1.696zM93.718 522.34c-.81 1.102-.588 2.666-.972 3.932-2.683 13.475-8.227 26.136-14.516 38.314-4.436 8.776-9.362 17.267-13.663 26.105-.37 1.135.92 1.605 1.823 1.553 12.718 1.298 25.483 2.186 38.266 2.476 11.454.04 22.93.17 34.35-.847 7.38-.6 14.773-1.43 22.037-2.803 1.27-.64.318-2.26.367-3.345-.78-6.923-.425-13.932-.47-20.894.137-11.296 1.326-22.56 1.28-33.862-.333-1.58-2.275-.84-3.415-.906-13.74.967-27.426 2.946-41.222 2.906-7.2-.12-14.523-.805-21.33-3.133-.576-2.977-.454-6.084-.988-9.076-.344-.602-.94-.78-1.547-.42z"/></g><g opacity=".788" fill="#d66b71"><path d="M236.29 570.768c-2.63.448-5.25 1.052-7.87 1.58-11.077 2.343-22.098 4.974-33.102 7.653-.61.158-.84.815-.775 1.387.02.66-.227 1.56.476 1.95.535.272 1.185.173 1.77.26 2.85.06 5.712.04 8.54-.348 8.103-1.02 15.84-3.827 23.328-6.976 2.754-1.184 5.515-2.358 8.23-3.63.68-.368.654-1.49-.084-1.777-.15-.097-.34-.105-.513-.1zM161.94 531.878c-.838.57-.446 1.696-.56 2.547-.172 11.1-1.114 22.17-1.38 33.267-.047 5.172-.08 10.35.146 15.518-.052.732.355 1.63 1.206 1.585 1.085-.204 2.204-.113 3.287-.312.9-.268.673-1.367.674-2.09-.183-9.665-.214-19.337.137-28.998.26-3.337-.19-6.67-.386-9.997-.296-3.57-.587-7.147-1.154-10.683-.19-.907-1.195-1.14-1.97-.837z"/></g><path d="M170.254 465.34c-8.832.346-17.674.662-26.492 1.226-1.656.68-.416 2.713-.562 4.008.297 2.34-.21 4.797.367 7.062 2.235.814 4.77.372 7.132.475 8.07-.063 16.132-.698 24.187-.99 1.98-.437 1.212-2.978 1.508-4.43-.04-2.38.498-4.854.008-7.17-1.76-.79-3.885-.038-5.794-.193l-.25.008-.106.004z" fill="#ffb27e"/><path d="M171.692 476.495c-8.582.46-17.167.95-25.766.868-1.74.584-.71 2.827-.836 4.234-.014 1.205.45 2.842 2 2.43 8.7-.18 17.43.027 26.113-.517 1.96.09 1.72-2.027 1.69-3.38-.06-1.292.615-3.856-1.46-3.642-.58.002-1.16-.006-1.74.008z" fill="#ffb27e"/><g fill="#ff7eff"><path d="M234.434 421.02c-1.473.787-.93 2.86-1.2 4.233-.378 13.862-.37 27.738-.074 41.602.095 2.65.215 5.302.563 7.922-18.44.51-36.9.218-55.344.594-1.158.037-2.708-.026-3.188 1.227-1.77 1.338-.92 3.95-.936 5.825-1.212.664-3.198.406-4.744.567-7.823.207-15.65.194-23.477.28-.426-1.77.225-3.833-.773-5.43-.557-.58-1.634-.494-1.203-1.61.543-1.886-1.165-2.63-2.75-2.238-15.068.013-29.983 3.485-45.056 2.59-1.46.096-3.366-.94-4.515.312-.423 3.172.138 6.443.188 9.646.917 15.083 2.035 30.208 3.49 45.213 1.157 1.607 3.486 1.518 5.214 2.137 11.106 2.598 22.622 1.91 33.903 1.098 15.75-1.506 31.534-2.596 47.283-4.11 18.44-1.87 36.86-4.15 55.077-7.562 1.636-.502.752-2.61.964-3.852-.425-31.067-.95-62.134-1.724-93.195-.232-1.596.234-3.48-.606-4.897-.218-.374-.663-.436-1.096-.354z"/><path d="M243.512 419.996c-1.84.824-3.274 3.52-5.586 2.703-1.616-1.147-2.923.41-2.395 2.07.49 32.042 1.11 64.086 1.763 96.124.32 1.382 2.11.812 2.278-.36.432-.806.785-2.106 1.215-2.624.723 1.526 2.69 1.045 3.612-.005 1.375-1.226 3.138-2.118 4.396-3.44.34-3.15-.496-6.34-.682-9.492-1.323-11.862-2.78-23.715-2.656-35.673-.2-15.634.212-31.28-.38-46.906-.086-.977-.1-2.635-1.563-2.4zM189.504 391.63c-1.393 1.18-3.685 1.698-4.383 3.514.255 2.77.433 5.79 2.07 8.164 1.47 2.564 2.014 5.55 3.314 8.196 1.862 1.85 4.95 1.113 7.133.257 1.704-.595 2.986-2.24 2.632-4.1-.542-6.493-4.954-11.992-9.77-16.01-.335-.238-.64-.15-.996-.02zM156.02 389.26c-1.743.25-3.797-.27-5.298.783-1.002 1.538.284 3.378.555 4.968.197 1.23 1.017 2.516 2.453 2.11 2.04-.368 4.234-.045 6.18-.757.65-1.993.763-4.236.958-6.314-.516-1.607-2.687-.584-3.957-.812l-.89.023zM123.05 396.51c-2.04 1.082-2.89 3.54-3.867 5.525-1.29 3.077-2.11 6.42-2.11 9.765.88 2.42 4.08 2.916 6.314 2.33 2.335-.397 4.348-2.46 4.054-4.94-.257-2-.134-3.953.75-5.788.01-1.498-1.72-2.19-2.303-3.5-.762-.938-1.248-2.053-1.735-3.11a1.194 1.194 0 0 0-1.1-.28z"/><path d="M157.198 402.715c-1.063-.127-2.4.263-2.43 1.492-1 .864-2.326 1.647-3.633 1.57-1.52-1.21-3.25.56-4.883.555-1.065.476-1.79-.344-2.664-.734-1.846-.408-3.824 1.632-5.53.28-1.462-.49-2.87 1.276-4.263.155-1.96-.727-3.61-2.1-5.425-3.03-1.54.18-1.566 2.312-1.774 3.587-.126 1.616.782 3.312-.265 4.812-1.773 2.78-6.596 3.056-8.523.414-.23-2.538.99-5.027.828-7.53-1.305-1.007-3.192-.222-4.742-.47-7.6.174-15.233-.14-22.812.422-3.812.635-7.383 2.873-9.664 5.992-1.103 1.578-1.834 3.392-1.49 5.352.048 19.74 1.716 39.504 5.35 58.906.87 1.753 3.264 1.522 4.887 2.012 6 1.246 12.172.963 18.26.743 11.573-.632 23-2.658 34.603-2.544 1.668-.495.828-2.648.94-3.976-.073-1.16-.283-2.307-.542-3.44 10.79-.604 21.596-.99 32.4-1.35-.016 3.088-.285 6.218-.15 9.282.71 1.48 2.837.5 4.172.77 17.674-.147 35.356-.036 53.024-.435 1.99.015 1.51-2.176 1.36-3.5-1.057-17.42-.81-34.903.046-52.327.37-3.854.06-8.223 2.57-11.4.9-.798 3.286-1.03 2.53-2.616-1.924-1.227-4.447-1.495-6.724-1.765-9.974-.87-20.012 1.16-29.962.077-1.184-.017-2.82-1.21-3.555.25-.08 1.845.913 3.892.078 5.664-2.12 1.806-5.325 2.484-7.96 1.507-1.003-.99-.788-2.71-1.46-3.932-.628-1.23-.78-3.1-2.064-3.72-1.932.283-3.764 1.266-5.774 1.278-1.496.617-3.247.57-4.625 1.453-.906 1.19-2.775 1.06-4.14 1.265-1.244.114-2.416-.246-3.188-1.242-1.435-.837-3.353-.157-4.734-.93-1.36-1.12-2.154-3.446-4.305-2.914-1.255.006-2.51-.017-3.765.015z"/><path d="M238.673 406.71c-2.21.037-3.55 2.177-4.078 4.092-.864 3.003-1.015 6.163-1.164 9.26.203.97 1.255 1.463 1.94 2.1 1.27 1.005 2.94 1.97 4.596 1.332 1.486-.66 2.542-2 3.766-3.035.69-.582 1.504-1.322 1.234-2.333-.47-3.188-.984-6.39-1.89-9.485-.51-1.146-1.9-1.482-2.996-1.804a5.635 5.635 0 0 0-1.407-.13z"/></g><g fill="#856d6d" stroke="#000" stroke-linecap="round" stroke-linejoin="round"><path d="M147.17 650.45c-1.19.914-2.748 2.548-2.187 4.144.987 1.18 3.372.99 3.337-.85.228-1.12.888-3.565-1.15-3.293z" stroke-width=".354"/><path d="M183.03 648.572c-1.155.782-.47 2.41-.634 3.59-.165.937.616 2.145 1.657 1.614 1.14-.902 2.463-1.72 3.238-2.977.327-.883-.586-1.502-1.445-1.588-.936-.21-1.84-.75-2.814-.64z" stroke-width=".177"/></g><path d="M139.113 594.895c-2.272.218-4.608.107-6.842.472-1.152.65-.372 2.25-.5 3.334.246 1.38-.26 3.352 1.156 4.21 1.95.445 4.01.074 6 .11 1.103-.057 2.8.163 2.95-1.292.275-2.1.525-4.343-.07-6.393-.503-.97-1.837-.368-2.693-.44zM139.058 605.617c-2.26.127-4.548.21-6.767.62-1.235.57-.546 2.246-.748 3.33.076 1.817-.413 3.604-.368 5.408.395 1.174 1.952.615 2.92.576 2.428-.3 4.905-.407 7.306-.812 1.22-.906.35-2.638.425-3.884-.324-1.553.085-3.383-.856-4.745-.48-.547-1.254-.514-1.912-.493zM139.97 618.268c-3.06.197-6.167-.006-9.2.425-1.455.642-1.184 2.567-1.728 3.816-.315 1.62-1.127 3.2-.978 4.856.904 1.018 2.482.518 3.7.673 3.052-.074 6.135.09 9.16-.326 1.318-.56.837-2.33 1.205-3.474.135-1.853.638-3.765.28-5.596-.64-.725-1.605-.323-2.44-.376zM191.516 590.01c-2.252.835-4.685 1.203-6.86 2.244-1.193.955-.072 2.533.08 3.706.507 1.543.778 3.17 1.234 4.708.775 1.233 2.382.353 3.52.33 1.682-.39 3.657-.315 5.06-1.43.646-1.08-.153-2.39-.255-3.53-.506-1.85-.752-3.798-1.57-5.535a1.152 1.152 0 0 0-1.21-.492zM194.98 602.457c-2.32.468-4.686 1.03-6.834 2.017-.973 1.018.214 2.412.357 3.544.637 1.67.905 3.54 1.825 5.074 1.024.847 2.334-.203 3.434-.344 1.44-.525 3.07-.77 4.407-1.467 1.07-.858-.063-2.22-.252-3.26-.658-1.698-1.082-3.535-1.954-5.123-.238-.32-.583-.498-.984-.44zM200.222 614.058c-2.395.845-4.927 1.266-7.33 2.04-1.335.76-.202 2.255.105 3.28.66 1.535.835 3.295 1.75 4.696 1.617.362 3.295-.293 4.9-.567 1.51-.44 3.18-.636 4.492-1.543.94-1.19-.53-2.383-.9-3.492-.826-1.4-1.08-3.26-2.388-4.32-.21-.03-.414-.144-.63-.094z" fill="#ff0" stroke="#000" stroke-width=".177" stroke-linecap="round" stroke-linejoin="round"/><g fill="none" stroke="#000"><path d="M108.113 151.607c17.51 34.023 57.986 27.05 69.464 8.75M176.684 107.5c.77 25.947 1.072 54.248 1.072 81.43 4.955-1.565 10.37-2.36 12.143-6.787-.67-20.627-1.998-41.676-3.573-62.143M189.9 173.036c3.5-2.962 5.192-3.498 6.427-3.125M86.15 159.018c-15.747-17.41 5.088-30.327 5.088-48.304"/><path d="M92.4 133.75c.537 12.06-7.144 21.883-7.144 32.5 1.777 7.35 5.11 9.767 10.803 12.946 1.646-11.996 2.13-24.265 4.196-35.625"/><path d="M112.756 113.214c-1.907 22.982-7.008 44.88-5.268 66.965-4.004-1.02-8.314-1.96-10.893-5.18M199.274 98.036c-3.632 21.223 9.77 47.43 7.857 67.678-1.95 2.04-7.192 6.665-10.624 6.786-1.18-12.977-.865-25.76-1.607-38.75M112.4 118.036c2.84-.118 5.636-.107 8.39-.357"/><path d="M120.97 111.25c-.053 3.393-.893 6.485-.893 10 3.8.113 9.595-.6 11.607-1.607.553-3.222-.357-6.238-.357-9.643M131.863 116.25c2.33.45 4.78.393 7.143.18M138.65 109.107c.657 2.934.595 6.316 1.07 8.93 3.21.282 6.03-.4 8.75-.894.603-4.29.195-8.388-.18-12.5M149.006 114.82c2.037.425 4.263.133 5.893-.356"/><path d="M154.184 107.143c1.017 4.038 1.072 8.103 1.072 12.5 2.45-.736 5.53-1.177 7.5-1.964.75-2.94.535-7.172.535-9.644M169.184 106.786c.66 3.924.374 8.22.715 11.964 2.646.644 5.09.035 6.963-.714M163.38 112.41c1.708.72 4.913.626 5.804.626"/><path d="M99.628 79.643c-25.004 1.996-73.87-.102-73.837 32.143.03 27.085 104.07-20.2 154.644-16.43 25.62 1.91 93.893 20.618 99.286 6.787 10.427-26.74-64.725-24.267-84.266-20.714M95.434 87.5c9.508-20.426 23.942-31.43 48.215-31.43 27.733-1.17 44.905 7.982 52.856 27.86M128.542 129.643c-3.122.235-7.79-.166-9.85 1.894-9.142 9.143 7.987 18.214 18.31 14.773 12.655-4.218 1.985-16.667-8.46-16.667zM167.433 129.895c-3.865.28-7.43 1.004-10.86 2.147-13.325 4.442-3.067 21.295 8.713 15.405 6.83-3.416 18.29-16.207 2.147-17.552zM117.556 133.052c7.327 5.134 16.043 8.147 22.73 11.49M152.786 144.92c8.618-3.305 16.21-6.89 21.34-12.752M124.5 136.84c-2.544 8.242 3.918 10.916 6.82 3.662M159.225 142.522c2.65 6.832 7.08 3.497 6.44-3.535M121.597 147.7c3.353 1.095 6.78 1.465 10.102 1.767M160.614 150.982c3.09-.098 6.513-1.326 8.46-3.03M143.82 147.068c7.533-.754 5.685-.89 3.157 4.167M134.855 164.745c8.732-5.59 18.115-5.682 22.943 3.132"/><path d="M149.503 130.526c7.184-1.546 14.175-5.527 20.58-7.45M121.082 123.218c7.057 2.61 14.035 5.542 20.47 7.297" stroke-width="2"/><path d="M119.703 134.062c1.244-.75 1.634-1.627 2.147-2.652M122.734 135.83c1.15-1.38 1.91-2.567 2.4-3.788M126.143 137.345a27.576 27.576 0 0 0 1.894-4.167M128.668 138.734c1.193-1.664 1.756-2.823 2.273-4.546M132.204 140.88c.082-.686 1.242-3.694 2.146-5.05M135.108 142.017c.063-.536 1.33-2.75 2.02-3.788M138.012 143.153c.85-.924 1.065-2.05 1.263-2.778M153.164 141.133c.348 1.36 1.124 2.625 1.39 3.157M157.33 142.648c-.144-1.747-.854-2.58-1.388-3.914M160.488 141.26c-.37-1.855-1.18-3.597-1.39-4.294M163.897 139.744c-.65-1.642-1.065-3.015-1.768-4.42M167.56 137.598c-.443-1.33-1.143-2.24-1.77-3.283M170.21 135.577c-.518.03-1.578-1.612-1.893-2.4M172.105 133.683c-1.04-.645-1.173-1.19-1.642-1.894M100.763 89.363c10.63 1.32 21.982 1.768 32.577 1.768M121.327 190.893c-18.438.58-40.477 2.31-55.178-3.572 22.315 36.362 28.12 78.052 39.41 115.69 11.892 25.855 13.203 56.24 22.224 78.792 8.497 3.943 12.854.522 18.183-3.03-13.427-46.507-15.82-90.04-24.244-136.37M165.918 190.69c26.114 2.838 45.53-.573 63.892-6.625-15.783 25.366-20.58 50.25-28.032 80.054-5.283 30.237-13.065 63.664-15.77 95.417-1.235 6.628-.713 13.716.32 19.392-4.407 6.243-16.474 6.382-21.25 1.606 6.475-23.214 3.21-49.416 5.356-73.036 2.876-23.78 4.41-49.662 6.343-70.907M107.04 169.018c2.56-1.045 5.594-1.442 8.394-1.697"/><path d="M115.524 162.68c.13 2.586-.268 4.4-.268 6.874 2.578-.45 5.75-.94 8.214-.268M167.4 170.18c3.665.075 6.853 1.347 9.73 2.5M131.684 173.036c.38 4.125-.995 8.627.268 11.785M158.56 173.304c.018 2.79.11 5.417.356 8.125"/><path d="M131.595 177.232c-2.374 1.828-6.252 3.51-7.946 5.447 5.618 1.76 11.865 2.52 16.963 4.374 3.43 3.596 3.967 9.56 5.714 13.928-7.45 1.67-20.565.18-24.732-6.07-.95-4.498.337-9.416 1.43-12.144M147.31 201.07c1.782-4.27 1.215-9.438 1.606-13.75 3.766-5.036 10.998-4.936 15.715-7.766 1.26-2.646-3.545-3.215-5.803-3.215"/><path d="M164.81 178.84c-.22 3.947-.194 8.85.714 11.874-2.556 5.253-11.55 10.447-18.66 10.447M132.04 383.036c-4.855 3.338-6.74 7.522-9.106 11.07 1.46 6.632 5.903 10.398 11.607 12.68 1.233.237 2.092-.51 2.86-.893"/><path d="M131.684 399.107c2.064 3.46 4.68 5.523 7.143 7.68 1.782-.082 3.147-.617 4.286-1.073M137.04 397.32c1.754 3.865 4.742 6.706 7.323 9.287 1.994.748 4.846-.81 5.714-1.07M144.72 396.964c1.502 4.457 4.644 7.724 6.43 9.286 2.305-.227 2.952-.954 4.106-1.964-1.833-4.965-4.066-9.327-5-14.465M145.434 379.286c8.71 1.735 11.43.38 11.43 10M156.506 396.786c-.355 2.11-1.557 2.296-3.036 3.035M167.4 381.964c-2.716 1.383-4.66 3.095-6.43 4.643-.334 3.198-.735 6.633-1.25 9.464-.308 3.984 3.286 7.39 5.18 9.823 1.245.932 3.165.364 4.73.625"/><path d="M164.9 396.25c2.028 4.086 3.21 8.543 5.89 11.607 2.826.942 5.283-.05 6.25-.536.543-.338.536-.62.716-1.07"/><path d="M172.845 394.91c.197 4.715 2.637 7.89 4.018 11.34 2.203.22 3.637-.21 5-.893M179.184 395c1.065 3.854 2.137 6.885 2.768 10.357M152.28 396.828c2.406-.3 5.94-.38 7.324-.505M150.386 390.388c3.417-1.4 7.167-.617 10.102-.884M189.91 391.525c4.75 4.098 10.1 9.354 10.1 17.93-1.456 2.617-6.844 3.77-9.47 2.02-.594-3.06-2.258-7.427-4.04-10.1M190.54 389.757c-.6-3.195-3.505-6.37-5.556-8.713"/><path d="M181.952 405.402c1.826.172 3.353-.53 4.822-1.116-.332-3.31-1.148-6.692-1.483-9.69 2.99-1.534 5.016-2.642 5.25-5.218M123.29 396.43c-3.235 2.6-5.89 9.548-5.89 15.534 1.562 2.74 6.325 2.523 8.39.715 1.006-.95 1.397-1.928 1.52-3.394-.858-2.29-.264-4.694.714-6.16M90.613 404.464c9.207-.577 18.938.208 27.857-.535M154.9 403.036h7.677M199.01 403.51c12.83 4.232 33.945-3.925 43.472 4.41 6.19 21.975.73 48.32 2.985 73.13.56 11.588 2.23 21.76 3.283 33.334-3.625 1.422-6.658 7.214-8.048 2.58-1.01 2.344-1.575 4.428-3.036 6.072m0 0l-1.875-100.893M234.095 420.536c5.572 5.214 6.384 2.115 10.536-1.518"/><path d="M242.756 408.482c-9.953-6.277-8.505 10.126-9.107 16.34-.878 16.273-.79 36.62.453 50.293-19.137 1.114-39.318.416-57.996.416M143.745 474.357c-18.77-.654-40.362 6.052-58.008.758-3.624-18.624-5.48-40.137-5.48-59.222-.465-6.693 5.735-9.99 10.534-11.43"/><path d="M91.863 476.25c.624 19.204 2.342 38.44 3.928 55.893 16.86 5.94 39.896 2.21 57.86.714 28.697-1.928 58.242-5.253 84.106-10M109.602 312.228c3.862 12.665 3.108 26.997 4.293 40.027.73 17.472-3.41 34.542-3.41 51.644"/><path d="M94.45 516.594c-1.836 27.438-19.38 53.72-30.053 75.067 30.965 3.327 67.047 4.432 96.975-1.01-2.573-17.512.505-40.94.505-58.588M223.054 525.37c5.338 14.85 9.475 33.71 18.246 44.89-22.595 4.193-47.317 10.524-70.332 16.35-6.384-15.96-4.956-37.115-7.576-54.548M194.083 395.426c-3.386-15.233-6.447-34.905-6.447-51"/><path d="M128.542 594.187c.79 27.314-11.134 47.862-35.103 55.053-2.085 3.806-1.86 8.843-1.264 12.122 15.246 4.555 35.485 3.47 47.983-2.778 4.063-2.778 6.953-8.1 8.332-10.86-.313 2.576-.28 5.373-.505 7.83 5.762 1.374 11.268-1.03 15.405-3.79-5.848-18.486-4.396-42.298-6.06-60.608M194.99 580.118c-.42 36.49 29.295 56.454 53.76 64.576 1.065 2.96 1.32 6.57.505 9.85-1.755 1.17-4.574 3.158-7.323 4.545-17.98 3.268-40.51-5.063-59.094-10.355v5.303c-4.34.395-10.55.106-14.087-2.2-2.06-26.95-5.185-72.835-3.673-100.43M160.74 584.464c1.682-.417 2.79-.242 4.294-.38M195.434 583.036c17.444 1.466 34.167-8.04 45.978-12.765"/><path d="M132.14 595.702c-.093 2.382.147 4.7.354 6.982 2.9.022 7.057.107 9.104-.265.098-2.315.2-4.885 0-7.072-2.28-.38-6.42.45-9.457.354zM131.875 606.574c.438 3.162-.065 6.05-.53 8.838 3.284-.294 6.912-.74 10.43-1.06-.517-2.717-.22-6.087-1.06-8.397-2.9 0-5.944.466-8.84.62zM130.373 619.125c-.723 2.822-1.633 5.62-2.122 8.308 4.254.465 8.98.277 12.995-.088.313-2.937 1.244-5.882.707-8.84-3.746.682-7.755-.093-11.58.62zM144.957 654.392c1.112.584 1.832.76 2.828 1.06M183.14 654.038c1.718-1.24 3.243-2.605 4.508-3.712M184.363 592.75c.453 2.88 1.748 5.484 2 8.25 2.825-.24 6.42-.88 8.125-1.5-.177-3.587-1.74-6.748-2-9.625-2.312 1.54-5.4 1.507-8.125 2.875zM187.863 604.75c.888 2.896 2.008 6.027 2.75 8.5 2.513-.724 6.19-1.832 8-2.375-1.175-2.706-2.14-5.978-3-8.125-2.844.517-4.926 1.168-7.75 2zM192.238 616.625c1.377 2.557 1.974 5.08 2.625 7.25 3.294-.22 7.208-1.166 9.625-2.375-1.63-2.475-2.65-5.06-3.625-7.5-2.368 1.578-5.71 1.61-8.625 2.625zM175.738 476.75c.213-2.35.642-7.7.375-11.125-10.018 0-22.287.856-33.125 1.25.982 3.532.75 6.945.75 10.625 10.635 1.067 22.094-.75 32-.75z"/><path d="M145.238 477.75c.186 2.007.375 4.403.375 5.875 9.29-.55 20.235.866 29.125-.75-.418-1.893-.313-4.282 0-6"/></g><g><path d="M198.4 70.278c-3.984-.31-7.614 1.92-10.592 4.333-.974.787-1.88 1.655-2.81 2.496-1.355-.462-2.904-.55-4.21.113-3.885-3.982-8.077-8.13-13.56-9.734-1.04-.22-2.272-.854-3.257-.377-1.017.918-1.422 2.336-2.03 3.537-1.3 2.87-1.788 6.035-2.124 9.143-.117 3.418.176 7.103 2.146 10.01.9.985 2.38.486 3.54.44 5.208-.6 10.332-2.727 14.163-6.353 1.743.268 3.497.034 5.23-.188 3.296 2.73 7.52 3.943 11.64 4.793 1.287.2 2.546.755 3.85.69.92-.567.855-1.813 1.14-2.752.874-4.714 1.042-9.858-1.14-14.258-.432-.825-.938-1.8-1.985-1.894z" fill="red"/><path d="M199.05 70.815c3.216 4.173 3.32 11.64 1.448 18.05-5.61-1.11-11.593-2.107-15.488-5.64-1.384.26-3.442.568-5.448.21-3.658 3.672-9.982 6.61-17 6.546-4.05-5.257-2.478-16.84 1.664-22.71 6.735.707 11.998 5.74 16.464 10.466 1.52-.948 2.818-.625 4.407-.157 3.844-3.75 8.92-7.76 13.953-6.765z" fill="none" stroke="#000"/><path d="M150.29 221.002l-2.362-4.154-7.47 1.344 3.222-3.53-3.586-6.688 4.352 1.972 5.253-5.477-.532 4.748L156 212.52l-4.68.963zM155.947 236.918l-4.41-1.84-5.086 5.632.39-4.763-6.93-3.096 4.65-1.102.804-7.546 2.486 4.08 7.425-1.566-3.113 3.625zM154.108 259.747l-2.924-3.78-7.205 2.385 2.69-3.95-4.494-6.115 4.587 1.34 4.427-6.165.145 4.776 7.23 2.306-4.498 1.614z" fill="#ff0" stroke="#000" stroke-width=".9999569499999998" stroke-linecap="round" stroke-linejoin="round"/></g></svg>