<svg height='235px' width='788px'  fill="#000000" xmlns="http://www.w3.org/2000/svg" xmlns:xlink="http://www.w3.org/1999/xlink" xml:space="preserve" version="1.1" style="shape-rendering:geometricPrecision;text-rendering:geometricPrecision;image-rendering:optimizeQuality;" viewBox="0 0 788 235" x="0px" y="0px" fill-rule="evenodd" clip-rule="evenodd"><defs><style type="text/css">
   
    .fil0 {fill:#000000}
   
  </style></defs><g><path class="fil0" d="M598 117l4 0 0 3 -4 0 0 -3zm-502 106c11,-22 42,-16 42,12l-89 0c-3,-24 28,-41 47,-12zm134 -58c6,0 12,5 12,12 0,5 -4,10 -10,12l0 20c7,-5 14,-5 24,1l0 -36c-10,-3 -17,-11 -17,-22 0,-12 10,-22 22,-22 13,0 23,10 23,22 0,11 -8,19 -17,22l0 37c5,-3 11,-4 17,-4 12,0 23,5 30,13l0 -30 4 0 0 -24 5 0 0 -21 7 -8 6 8 0 43 10 6 0 -119 16 0 0 -13 -6 0 0 -11 6 0 0 -7 32 0 0 7 6 0 0 11 -6 0 0 4 -18 0 0 5 18 0 0 4 10 0 0 7 -36 0 0 9 36 0 0 8 -36 0 0 9 36 0 0 8 -36 0 0 9 36 0 0 8 -36 0 0 9 36 0 0 8 -36 0 0 8 36 0 0 9 -36 0 0 8 36 0 0 9 -36 0 0 8 36 0 0 9 -36 0 0 8 36 0 0 9 -36 0 0 6 41 0 0 -104 11 0 0 -42 8 0 0 -10 4 0 0 -12 6 0 0 -10 3 0 0 -16 3 0 0 16 2 0 0 10 7 0 0 12 3 0 0 10 8 0 0 42 13 0 0 5 12 0 0 -80 45 0 0 16 -18 0 0 5 18 0 0 5 -18 0 0 6 18 0 0 4 -18 0 0 6 18 0 0 5 -18 0 0 6 18 0 0 4 -18 0 0 6 18 0 0 5 -18 0 0 5 18 0 0 5 -18 0 0 6 18 0 0 4 -18 0 0 6 18 0 0 5 -18 0 0 6 18 0 0 0 10 0 0 -89 9 3 0 -5 6 0 0 -14 2 0 0 14 7 0 0 11 12 4 0 10 -19 0 0 10 19 0 0 7 -19 0 0 10 19 0 0 7 -19 0 0 9 19 0 0 7 -19 0 0 10 17 0 0 -8 39 0 0 41 7 0 0 23 4 0 0 -38 4 0 0 -75 32 0 0 75 15 0 0 -10 11 -9 0 -98 34 0 0 116 8 0 0 34 4 0 0 -58 7 0 0 -25 19 -17 18 17 0 25 8 0 0 98c-208,0 -416,0 -624,0 10,-29 34,-34 63,-26l0 -20c-6,-2 -9,-7 -9,-12 0,-7 5,-12 12,-12zm187 59l8 0 0 -83 -8 0 0 83zm15 0l8 0 0 -83 -8 0 0 83zm15 0l8 0 0 -83 -8 0 0 83zm16 0l7 0 0 -83 -7 0 0 83zm15 0l8 0 0 -83 -8 0 0 83zm83 0l17 0 0 -6 -17 0 0 6zm181 0l6 0 0 -62 -6 0 0 62zm8 0l6 0 0 -62 -6 0 0 62zm9 0l6 0 0 -62 -6 0 0 62zm8 0l6 0 0 -62 -6 0 0 62zm9 0l5 0 0 -62 -5 0 0 62zm-188 -120l2 0 0 -4 7 0 0 -14 2 0 0 14 6 0 0 4 2 0 0 12 -19 0 0 -12zm19 18l0 10 -19 0 0 -10 19 0zm139 15l6 0 0 -18 -6 0 0 18zm13 0l6 0 0 -18 -6 0 0 18zm12 0l6 0 0 -18 -6 0 0 18zm-76 44l4 0 0 9 -4 0 0 -9zm20 0l4 0 0 9 -4 0 0 -9zm-7 0l5 0 0 9 -5 0 0 -9zm-7 0l5 0 0 9 -5 0 0 -9zm-6 -15l4 0 0 9 -4 0 0 -9zm20 0l4 0 0 9 -4 0 0 -9zm-7 0l5 0 0 9 -5 0 0 -9zm-7 0l5 0 0 9 -5 0 0 -9zm-6 -14l4 0 0 9 -4 0 0 -9zm20 0l4 0 0 9 -4 0 0 -9zm-7 0l5 0 0 9 -5 0 0 -9zm-7 0l5 0 0 9 -5 0 0 -9zm-6 -15l4 0 0 9 -4 0 0 -9zm20 0l4 0 0 9 -4 0 0 -9zm-7 0l5 0 0 9 -5 0 0 -9zm-7 0l5 0 0 9 -5 0 0 -9zm-6 -15l4 0 0 10 -4 0 0 -10zm20 0l4 0 0 10 -4 0 0 -10zm-7 0l5 0 0 10 -5 0 0 -10zm-7 0l5 0 0 10 -5 0 0 -10zm-6 -14l4 0 0 9 -4 0 0 -9zm20 0l4 0 0 9 -4 0 0 -9zm-7 0l5 0 0 9 -5 0 0 -9zm-7 0l5 0 0 9 -5 0 0 -9zm-6 -15l4 0 0 9 -4 0 0 -9zm20 0l4 0 0 9 -4 0 0 -9zm-7 0l5 0 0 9 -5 0 0 -9zm-7 0l5 0 0 9 -5 0 0 -9zm-6 -14l4 0 0 9 -4 0 0 -9zm20 0l4 0 0 9 -4 0 0 -9zm-7 0l5 0 0 9 -5 0 0 -9zm-7 0l5 0 0 9 -5 0 0 -9zm-6 -15l4 0 0 9 -4 0 0 -9zm20 0l4 0 0 9 -4 0 0 -9zm-7 0l5 0 0 9 -5 0 0 -9zm-7 0l5 0 0 9 -5 0 0 -9zm-6 -15l4 0 0 9 -4 0 0 -9zm20 0l4 0 0 9 -4 0 0 -9zm-7 0l5 0 0 9 -5 0 0 -9zm-7 0l5 0 0 9 -5 0 0 -9zm-123 162l0 -9 -17 0 0 9 17 0zm0 -16l0 -10 -17 0 0 10 17 0zm0 -17l0 -10 -17 0 0 10 17 0zm0 -17l0 -10 -17 0 0 10 17 0zm9 53l5 0 0 8 -5 0 0 -8zm19 0l5 0 0 8 -5 0 0 -8zm-6 0l4 0 0 8 -4 0 0 -8zm-6 0l4 0 0 8 -4 0 0 -8zm-7 -15l5 0 0 8 -5 0 0 -8zm19 0l5 0 0 8 -5 0 0 -8zm-6 0l4 0 0 8 -4 0 0 -8zm-6 0l4 0 0 8 -4 0 0 -8zm-7 -16l5 0 0 9 -5 0 0 -9zm19 0l5 0 0 9 -5 0 0 -9zm-6 0l4 0 0 9 -4 0 0 -9zm-6 0l4 0 0 9 -4 0 0 -9zm-7 -15l5 0 0 8 -5 0 0 -8zm19 0l5 0 0 8 -5 0 0 -8zm-6 0l4 0 0 8 -4 0 0 -8zm-6 0l4 0 0 8 -4 0 0 -8zm-7 -15l5 0 0 8 -5 0 0 -8zm19 0l5 0 0 8 -5 0 0 -8zm-6 0l4 0 0 8 -4 0 0 -8zm-6 0l4 0 0 8 -4 0 0 -8zm-7 -16l5 0 0 8 -5 0 0 -8zm19 0l5 0 0 8 -5 0 0 -8zm-6 0l4 0 0 8 -4 0 0 -8zm-6 0l4 0 0 8 -4 0 0 -8zm42 -41l10 0 0 9 -10 0 0 -9zm0 48l10 0 0 9 -10 0 0 -9zm13 0l11 0 0 9 -11 0 0 -9zm-13 -16l10 0 0 9 -10 0 0 -9zm13 0l11 0 0 9 -11 0 0 -9zm-13 -16l10 0 0 9 -10 0 0 -9zm13 0l11 0 0 9 -11 0 0 -9zm0 -16l11 0 0 9 -11 0 0 -9zm-4 118l34 0 0 5 -34 0 0 -5zm0 -10l34 0 0 6 -34 0 0 -6zm0 -9l34 0 0 5 -34 0 0 -5zm0 -9l34 0 0 5 -34 0 0 -5zm0 -10l34 0 0 6 -34 0 0 -6zm0 -9l34 0 0 5 -34 0 0 -5zm-144 -106l11 0 0 5 -11 0 0 -5zm-66 17l3 0 0 -19 -3 0 0 19zm6 0l3 0 0 -19 -3 0 0 19zm5 0l3 0 0 -19 -3 0 0 19zm-22 4l4 0 0 10 -4 0 0 -10zm0 25l4 0 0 10 -4 0 0 -10zm33 0l4 0 0 10 -4 0 0 -10zm-9 0l5 0 0 10 -5 0 0 -10zm-8 0l4 0 0 10 -4 0 0 -10zm-8 0l4 0 0 10 -4 0 0 -10zm-8 -13l4 0 0 10 -4 0 0 -10zm33 0l4 0 0 10 -4 0 0 -10zm-9 0l5 0 0 10 -5 0 0 -10zm-8 0l4 0 0 10 -4 0 0 -10zm-8 0l4 0 0 10 -4 0 0 -10zm25 -12l4 0 0 10 -4 0 0 -10zm-9 0l5 0 0 10 -5 0 0 -10zm-8 0l4 0 0 10 -4 0 0 -10zm-8 0l4 0 0 10 -4 0 0 -10zm-80 -1l8 0 0 143 -8 0 0 -143zm176 131l0 -6 -12 0 0 6 12 0zm0 -10l0 -6 -12 0 0 6 12 0zm0 -11l0 -5 -12 0 0 5 12 0zm0 -10l0 -6 -12 0 0 6 12 0zm0 -10l0 -6 -12 0 0 6 12 0zm0 -11l0 -6 -12 0 0 6 12 0zm-27 46l11 0 0 6 -11 0 0 -6zm0 -10l11 0 0 6 -11 0 0 -6zm0 -10l11 0 0 5 -11 0 0 -5zm0 -11l11 0 0 6 -11 0 0 -6zm0 -10l11 0 0 6 -11 0 0 -6zm0 -11l11 0 0 6 -11 0 0 -6zm0 -10l11 0 0 6 -11 0 0 -6zm0 -11l11 0 0 6 -11 0 0 -6zm0 -10l11 0 0 6 -11 0 0 -6zm0 -10l11 0 0 5 -11 0 0 -5zm0 -11l11 0 0 6 -11 0 0 -6zm0 -10l11 0 0 6 -11 0 0 -6zm0 -11l11 0 0 6 -11 0 0 -6zm0 -10l11 0 0 6 -11 0 0 -6zm89 46l5 0 0 3 -5 0 0 -3zm15 0l5 0 0 3 -5 0 0 -3z"></path><path class="fil0" d="M95 0l57 0 0 228 -11 0c0,-22 -33,-32 -46,-11l0 -217zm-95 101l5 0 0 -7 5 0 0 -4 3 0 0 -17 6 0 0 17 3 0 0 4 5 0 0 7 5 0 0 13 59 0 0 97c-23,-20 -51,2 -45,24l-46 -1 0 -133zm5 96l22 0 0 6 -22 0 0 -6zm0 -9l22 0 0 6 -22 0 0 -6zm0 -8l22 0 0 6 -22 0 0 -6zm0 -8l22 0 0 6 -22 0 0 -6zm0 -8l22 0 0 5 -22 0 0 -5zm0 -8l22 0 0 5 -22 0 0 -5zm0 -9l22 0 0 6 -22 0 0 -6zm0 -8l22 0 0 6 -22 0 0 -6zm0 -8l22 0 0 5 -22 0 0 -5zm0 -8l22 0 0 5 -22 0 0 -5zm0 -9l22 0 0 6 -22 0 0 -6zm0 -8l22 0 0 6 -22 0 0 -6zm152 -23l53 0 0 118c-17,-3 -42,3 -48,27l-5 0 0 -145zm12 79l30 0 0 5 -30 0 0 -5zm0 21l30 0 0 5 -30 0 0 -5zm0 -11l30 0 0 6 -30 0 0 -6zm-1 -79l6 0 0 11 -6 0 0 -11zm0 48l6 0 0 11 -6 0 0 -11zm10 0l11 0 0 11 -11 0 0 -11zm16 0l6 0 0 11 -6 0 0 -11zm-26 -16l6 0 0 11 -6 0 0 -11zm10 0l11 0 0 11 -11 0 0 -11zm16 0l6 0 0 11 -6 0 0 -11zm-26 -16l6 0 0 11 -6 0 0 -11zm10 0l11 0 0 11 -11 0 0 -11zm16 0l6 0 0 11 -6 0 0 -11zm-16 -16l11 0 0 11 -11 0 0 -11zm16 0l6 0 0 11 -6 0 0 -11zm-156 32l12 0 0 10 -12 0 0 -10zm0 63l12 0 0 11 -12 0 0 -11zm32 0l11 0 0 11 -11 0 0 -11zm-16 0l11 0 0 11 -11 0 0 -11zm-16 -15l12 0 0 10 -12 0 0 -10zm32 0l11 0 0 10 -11 0 0 -10zm-16 0l11 0 0 10 -11 0 0 -10zm-16 -16l12 0 0 10 -12 0 0 -10zm32 0l11 0 0 10 -11 0 0 -10zm-16 0l11 0 0 10 -11 0 0 -10zm-16 -16l12 0 0 10 -12 0 0 -10zm32 0l11 0 0 10 -11 0 0 -10zm-16 0l11 0 0 10 -11 0 0 -10zm16 -16l11 0 0 10 -11 0 0 -10zm-16 0l11 0 0 10 -11 0 0 -10zm55 -105l7 0 0 17 -7 0 0 -17zm0 134l7 0 0 17 -7 0 0 -17zm22 0l6 0 0 17 -6 0 0 -17zm-11 0l7 0 0 17 -7 0 0 -17zm-11 -22l7 0 0 16 -7 0 0 -16zm22 0l6 0 0 16 -6 0 0 -16zm-11 0l7 0 0 16 -7 0 0 -16zm-11 -23l7 0 0 17 -7 0 0 -17zm22 0l6 0 0 17 -6 0 0 -17zm-11 0l7 0 0 17 -7 0 0 -17zm-11 -22l7 0 0 17 -7 0 0 -17zm22 0l6 0 0 17 -6 0 0 -17zm-11 0l7 0 0 17 -7 0 0 -17zm-11 -22l7 0 0 16 -7 0 0 -16zm22 0l6 0 0 16 -6 0 0 -16zm-11 0l7 0 0 16 -7 0 0 -16zm-11 -22l7 0 0 16 -7 0 0 -16zm22 0l6 0 0 16 -6 0 0 -16zm-11 0l7 0 0 16 -7 0 0 -16zm11 -23l6 0 0 17 -6 0 0 -17zm-11 0l7 0 0 17 -7 0 0 -17z"></path></g></svg>