<?xml version="1.0" encoding="utf-8"?><svg height="100" width="100" xmlns="http://www.w3.org/2000/svg" viewBox="-10.947 -4.446 99.998 94.77"><path d="M42.36 23.924L53.198 35.06 4.743 88.63c-2.107 2.258-5.872 2.258-8.13 0l-5.866-6.02c-2.258-2.105-2.258-5.867 0-8.123L42.36 23.924zM87.812 35.36l-8.13 8.277c-1.653 1.656-4.214 1.656-6.018 0l-1.805-1.955c-1.356-1.205-1.962-3.463-1.205-4.516 1.35-.902.902-3.61-1.66-6.02-3.606-3.763-8.274-3.912-10.078-1.957-.75.602-3.16 3.16-3.16 3.16L44.62 21.365l1.81-1.807s.447-.452 1.35-1.505c3.463-3.462-.15-7.374-.15-7.374C37.85 1.05 24.157 1.2 24.157 1.2l-.15-3.462c27.538-7.074 37.92 4.967 41.686 8.73 3.456 3.46 7.07 7.07 7.973 7.975 1.955 1.955 0 7.52 2.857 10.685 1.355 1.353 3.16 1.956 4.516 1.956 1.508-1.353 3.91-.902 5.115.45l1.66 1.808c1.65 1.656 1.65 4.213-.003 6.017z"/></svg>