<?xml version="1.0" encoding="UTF-8" standalone="no"?>
<svg
   xmlns:dc="http://purl.org/dc/elements/1.1/"
   xmlns:cc="http://creativecommons.org/ns#"
   xmlns:rdf="http://www.w3.org/1999/02/22-rdf-syntax-ns#"
   xmlns:svg="http://www.w3.org/2000/svg"
   xmlns="http://www.w3.org/2000/svg"
   version="1.1"
   id="svg78553"
   viewBox="0 0 157.55562 108.25625"
   height="30.552319mm"
   width="44.465698mm">
  <defs
     id="defs78555" />
  <metadata
     id="metadata78558">
    <rdf:RDF>
      <cc:Work
         rdf:about="">
        <dc:format>image/svg+xml</dc:format>
        <dc:type
           rdf:resource="http://purl.org/dc/dcmitype/StillImage" />
        <dc:title></dc:title>
      </cc:Work>
    </rdf:RDF>
  </metadata>
  <g
     transform="translate(-5.0214124e-8,-944.106)"
     id="layer1">
    <g
       style="fill:#00C8B4;fill-opacity:1"
       id="g50576"
       transform="matrix(1.25,0,0,-1.25,64.590685,1040.201)">
      <path
         d="M 0,0 0.082,-0.294 0,0 Z m 71.158,23.813 c -0.127,0.013 -0.225,0.15 -0.11,0.237 0.035,-0.05 0.405,-0.265 0.11,-0.237 m -72.349,2.102 c 0.036,0.05 0.404,0.266 0.109,0.236 -0.126,-0.012 -0.224,-0.149 -0.109,-0.236 m 14.754,19.443 c -0.126,0.013 -0.224,0.15 -0.109,0.237 0.036,-0.05 0.404,-0.265 0.109,-0.237 m 29.368,-25.92 c 0.172,0.005 0.5,-0.108 0.481,0.105 -0.172,-0.005 -0.5,0.109 -0.481,-0.105 M 9.62,-0.406 C 9.916,-0.436 9.547,-0.22 9.511,-0.17 9.396,-0.257 9.494,-0.395 9.62,-0.406 m 25.812,48.255 c 0.114,-0.088 0.018,-0.225 -0.109,-0.238 -0.296,-0.028 0.073,0.187 0.109,0.238 M 3.425,67.326 c -0.127,0.012 -0.224,0.149 -0.11,0.237 0.036,-0.05 0.405,-0.266 0.11,-0.237 M 0.89,4.804 C 1.185,4.774 0.816,4.99 0.781,5.04 0.666,4.953 0.763,4.816 0.89,4.804 m 3.363,28.915 c 0.05,-0.036 0.265,-0.406 0.237,-0.11 -0.013,0.127 -0.15,0.224 -0.237,0.11 M -13.49,8.371 c 0.087,0.115 0.224,0.019 0.237,-0.108 0.028,-0.295 -0.187,0.073 -0.237,0.108 m 85.177,19.118 c -0.137,0 -0.137,0.198 0,0.198 0.137,0 0.137,-0.198 0,-0.198 M 56.056,42.557 c -0.137,0 -0.137,0.196 0,0.196 0.137,0 0.137,-0.196 0,-0.196 M 21.134,58.188 c 0.137,0 0.137,0.196 0,0.196 -0.137,0 -0.137,-0.196 0,-0.196 m 10.983,-9.577 c -0.137,0 -0.137,0.198 0,0.198 0.138,0 0.138,-0.198 0,-0.198 M -6.325,27.312 c 0.127,-0.053 0.233,0.052 0.249,0.146 0.019,0.119 -0.124,0.246 -0.249,0.282 l 0,-0.428 z m 76.873,-2.458 c 0.067,0.069 0.49,0.125 0.455,0.026 -0.071,-0.204 -0.193,-0.294 -0.298,-0.176 -0.026,0.03 -0.117,0.109 -0.157,0.15 M 40.992,42.018 c 0.103,0.122 0.227,0.029 0.3,-0.177 0.042,-0.116 -0.3,-0.008 -0.453,-0.013 -0.011,0.08 0.1,0.126 0.153,0.19 M -0.389,9.746 C -0.29,9.708 -0.154,9.86 -0.137,9.919 -0.305,10.049 -0.816,9.91 -0.389,9.746 M -22.87,28.01 c -0.098,-0.19 0.203,-0.286 0.279,-0.141 0.098,0.191 -0.202,0.286 -0.279,0.141 m 77.944,15.134 c 0.103,0.122 0.226,0.029 0.301,-0.176 0.041,-0.116 -0.302,-0.008 -0.455,-0.013 -0.011,0.08 0.101,0.125 0.154,0.189 M 2.183,46.757 c -0.159,0.09 0.075,0.372 0.25,0.222 0.372,-0.32 -0.216,-0.242 -0.25,-0.222 m 48.663,-1.285 0.241,0 c 0.046,0.175 0.118,0.589 -0.241,0.399 l 0,-0.399 z m -27.459,-4.225 0,0.399 c 0.358,0.191 0.287,-0.223 0.24,-0.399 l -0.24,0 z M -12.717,28.988 c 0.115,0.025 0.337,0.036 0.325,-0.003 -0.088,-0.284 -0.439,-0.322 -0.564,-0.211 0.059,0.053 0.195,0.205 0.239,0.214 m 40.751,24.229 0,0.399 c 0.358,0.19 0.287,-0.223 0.24,-0.399 l -0.24,0 z M -17.223,28.144 c 0.115,0.025 0.337,0.036 0.325,-0.004 -0.088,-0.285 -0.439,-0.323 -0.563,-0.211 0.058,0.052 0.193,0.205 0.238,0.215 m -24.851,-5.91 c 0.005,0.146 -0.108,0.48 0.109,0.426 0.122,-0.03 0.305,-0.136 0.213,-0.276 -0.067,-0.103 -0.205,-0.187 -0.322,-0.15 m 21.826,-24.642 c 0.005,0.145 -0.107,0.479 0.109,0.426 0.123,-0.032 0.306,-0.136 0.213,-0.277 -0.067,-0.102 -0.204,-0.186 -0.322,-0.149 m 48.441,67.732 c 0.004,0.146 -0.108,0.481 0.109,0.426 0.122,-0.03 0.306,-0.136 0.214,-0.276 -0.068,-0.103 -0.205,-0.187 -0.323,-0.15 M 29.242,8.994 C 29.15,8.853 29.333,8.748 29.456,8.717 29.672,8.663 29.56,8.998 29.564,9.143 29.447,9.18 29.31,9.097 29.242,8.994 m -4.795,40.002 c -0.12,0.105 -0.027,0.232 0.084,0.246 0.114,0.015 0.248,-0.119 0.233,-0.233 -0.014,-0.111 -0.144,-0.205 -0.249,-0.086 -0.013,0.015 -0.054,0.059 -0.068,0.073 m 12.532,14.645 c -0.119,0.104 -0.026,0.232 0.085,0.246 0.113,0.015 0.248,-0.119 0.232,-0.233 -0.013,-0.111 -0.143,-0.206 -0.248,-0.087 -0.013,0.015 -0.053,0.061 -0.069,0.074 M 16.787,-3.957 c 0.118,-0.037 0.255,0.047 0.322,0.149 0.092,0.141 -0.09,0.245 -0.213,0.277 -0.217,0.053 -0.104,-0.281 -0.109,-0.426 M 7.544,38.007 c 0.056,-0.069 0.136,-0.11 0.314,-0.172 0.12,-0.042 0.053,0.356 -0.017,0.406 -0.105,0.076 -0.57,0.1 -0.297,-0.234 m 19.659,6.756 c -0.014,-0.117 0.027,-0.501 -0.014,-0.6 -0.046,-0.109 -0.162,-0.227 -0.291,-0.261 -0.019,0.329 0.161,0.599 0.305,0.861 M -4.253,19.721 c -0.049,-0.077 -0.048,-0.192 0.053,-0.216 0.116,-0.029 0.446,-0.026 0.311,0.21 -0.057,0.098 -0.306,0.097 -0.364,0.006 M 13.474,0.7 C 13.338,0.556 13.138,0.45 13.141,0.297 13.144,0.179 13.269,0.106 13.395,0.185 13.599,0.309 13.537,0.628 13.474,0.7 m -51.342,23.932 0,0.402 c 0.143,-0.005 0.477,0.109 0.429,-0.108 -0.044,-0.198 -0.248,-0.324 -0.429,-0.294 m 39.992,28.866 0.423,0 0,-0.423 -0.423,0 0,0.423 z m 25.06,-0.202 c 0.123,0.09 0.248,0.009 0.243,-0.082 -0.01,-0.184 -0.149,-0.438 -0.361,-0.442 -0.014,0.187 -0.056,0.398 0.118,0.524 M 47.281,31.838 c 0.095,0.228 0.4,0.083 0.613,0.1 -0.064,-0.214 -0.35,-0.339 -0.55,-0.323 -0.106,0.009 -0.104,0.127 -0.063,0.223 m -9.526,-1.795 c -0.197,-0.089 -0.144,-0.314 -0.13,-0.482 0.111,-0.04 0.267,0.041 0.312,0.156 0.045,0.112 0.046,0.429 -0.182,0.326 M 20.284,61.886 c 0.123,0.09 0.248,0.009 0.243,-0.082 -0.009,-0.184 -0.149,-0.438 -0.36,-0.442 -0.015,0.187 -0.057,0.398 0.117,0.524 M 31.522,29.665 c -0.176,-0.121 -0.423,-0.234 -0.57,-0.394 0.355,-0.011 0.664,0.142 0.903,0.368 -0.033,0.094 -0.254,0.08 -0.333,0.026 m -31.229,1.443 0.423,0 0,0.422 -0.423,0 0,-0.422 z m 37.739,-22.53 0.423,0 0,0.422 -0.423,0 0,-0.422 z m 0.501,17.403 c -0.055,-0.19 0.275,-0.274 0.484,-0.2 l 0,0.383 c -0.17,0.014 -0.414,0.07 -0.484,-0.183 m 10.691,27.514 c 0.1,0.228 0.53,0.181 0.515,0.113 -0.083,-0.351 -0.351,-0.448 -0.582,-0.374 -0.017,0.082 0.03,0.175 0.067,0.261 M 9.872,-0.512 C 9.679,-0.609 9.729,-0.827 9.74,-0.957 c 0.211,-0.08 0.555,-0.06 0.389,0.28 -0.043,0.088 -0.126,0.233 -0.257,0.165 m 24.514,15.244 c 0.063,-0.145 0.239,-0.277 0.406,-0.237 l 0,0.515 c -0.222,0.085 -0.555,0.068 -0.406,-0.278 m -37.442,4.516 c 0.017,-0.205 0.261,-0.223 0.43,-0.119 0.211,0.129 -0.162,0.35 -0.325,0.426 -0.239,0.108 -0.112,-0.224 -0.105,-0.307 m -11.799,5.979 c -0.11,0.019 -0.118,0.4 0.149,0.247 0.163,-0.095 0.393,-0.095 0.49,-0.283 0.09,-0.175 -0.118,-0.143 -0.197,-0.128 -0.08,0.016 -0.285,0.134 -0.442,0.164 m 57.394,1.093 c 0.027,0 0.111,0.001 0.109,0 0.23,0.119 0.533,0.175 0.609,0.423 l -0.718,0 0,-0.423 z M 61.9,14.37 c 0.07,0.104 0.346,0.092 0.388,-0.008 0.049,-0.116 0.088,-0.307 -0.017,-0.336 -0.131,-0.034 -0.307,-0.082 -0.357,0.033 -0.028,0.06 -0.049,0.259 -0.014,0.311 M 39.859,40.625 c -0.051,-0.039 -0.182,-0.176 -0.201,-0.239 -0.069,-0.219 0.34,-0.367 0.42,-0.197 0.035,0.073 0.25,0.791 -0.219,0.436 M 5.081,-7.757 l 0,0.703 0.413,0 c 0.135,-0.319 -0.182,-0.497 -0.38,-0.703 0.011,0.012 -0.019,0 -0.033,0 m 11.828,72.093 0,0.709 0.384,0 c 0.107,-0.29 0.016,-0.756 -0.384,-0.709 m 15.566,5.915 c 0.087,0.126 0.249,0.16 0.385,0.135 0.253,-0.049 0.193,-0.368 0.085,-0.501 -0.165,0.05 -0.343,0.119 -0.541,0.084 -0.021,0.104 0.015,0.201 0.071,0.282 M 47.601,23.989 c -0.025,-0.002 -0.107,-0.123 -0.125,-0.16 -0.086,-0.183 0.08,-0.449 0.213,-0.393 0.23,0.095 0.329,0.291 0.23,0.543 -0.027,0.071 -0.197,0.026 -0.318,0.01 m 22.471,2.613 c 0.138,0.286 0.447,0.08 0.606,-0.028 0.567,-0.382 -0.325,-0.234 -0.493,-0.197 -0.036,0.008 -0.18,0.087 -0.113,0.225 m -15.067,0.292 c -0.219,0.219 0.059,0.333 0.233,0.248 0.158,-0.079 0.31,-0.208 0.367,-0.351 0.043,-0.104 0.062,-0.315 -0.027,-0.347 -0.151,0.23 -0.402,0.28 -0.573,0.45 M 69.3,22.709 c 0.194,0.068 0.442,0.003 0.553,-0.201 -0.168,-0.182 -0.443,-0.294 -0.686,-0.275 -0.013,0.174 -0.068,0.404 0.133,0.476 m -9.721,3.255 c -0.052,-0.037 -0.228,-0.127 -0.267,-0.15 0.012,-0.112 -0.119,-0.443 0.114,-0.326 0.268,0.135 0.691,0.202 0.743,0.542 -0.214,-0.006 -0.42,0.054 -0.59,-0.066 M -5.187,15.552 c 0.12,0.05 0.486,0.144 0.414,-0.046 -0.128,-0.335 -0.527,-0.457 -0.855,-0.454 -0.03,0.262 0.223,0.408 0.441,0.5 m 44.138,45.836 c -0.119,0.104 -0.016,0.255 0.095,0.235 0.362,-0.063 0.405,-0.547 0.659,-0.799 -0.05,-0.095 -0.168,-0.2 -0.26,-0.069 -0.152,0.218 -0.285,0.452 -0.494,0.633 M 20.614,-2.195 c -0.171,-0.147 -0.428,-0.285 -0.324,-0.539 0.075,-0.183 0.266,-0.191 0.412,-0.143 0.226,0.071 0.155,0.349 0.116,0.506 -0.024,0.094 -0.121,0.246 -0.204,0.176 m -46.653,37.253 c 0.24,0.104 0.132,-0.265 0.094,-0.287 -0.249,-0.144 -0.455,-0.654 -0.757,-0.377 -0.12,0.11 0.096,0.326 0.246,0.435 0.077,0.056 0.328,0.19 0.417,0.229 M -1.822,21.89 c -0.172,-0.115 -0.167,-0.36 -0.073,-0.501 0.115,-0.172 0.36,-0.166 0.501,-0.073 0.172,0.115 0.166,0.36 0.073,0.501 -0.115,0.172 -0.36,0.166 -0.501,0.073 M 20.43,-3.627 c 0.024,-0.098 0.162,-0.38 0.215,-0.457 0.075,-0.108 0.212,-0.192 0.341,-0.151 -0.008,0.233 0.043,0.479 -0.084,0.792 -0.056,0.137 -0.241,0.253 -0.472,0.17 0,-0.053 -0.017,-0.283 0,-0.354 M 31.453,7.57 C 31.556,7.378 31.735,7.063 32.021,7.171 32.208,7.24 32.23,7.45 32.139,7.6 32.055,7.736 31.804,7.77 31.618,7.852 31.33,7.978 31.4,7.667 31.453,7.57 m 18.97,50.387 c -0.011,0.093 0,0.376 0,0.47 l 0.687,0 c -0.019,-0.201 0.128,-0.495 -0.122,-0.644 -0.142,-0.084 -0.396,-0.102 -0.492,0.081 -0.012,0.02 -0.07,0.073 -0.073,0.093 M 43.03,54.344 c 0.151,0.215 0.542,0.205 0.715,0.006 0.104,-0.12 0.046,-0.288 0.053,-0.432 -0.247,-0.029 -0.504,-0.165 -0.713,-0.146 -0.119,0.011 -0.253,0.149 -0.193,0.289 0.025,0.057 0.102,0.231 0.138,0.283 m 9.512,3.157 c 0.204,0.127 0.577,0.138 0.69,-0.157 0.074,-0.193 -0.073,-0.387 -0.236,-0.436 -0.214,-0.064 -0.491,-0.035 -0.582,0.213 -0.051,0.138 -0.002,0.298 0.128,0.38 M -43.006,33.084 c 0.101,0.109 0.438,0.146 0.486,-0.101 0.015,-0.071 0.02,-0.308 -0.01,-0.354 -0.096,-0.148 -0.209,-0.301 -0.375,-0.377 -0.281,-0.128 -0.376,0.127 -0.303,0.345 0.036,0.105 0.133,0.412 0.202,0.487 M 26.769,1.897 C 27.019,2.038 27.344,1.832 27.492,1.661 27.583,1.554 27.566,1.301 27.367,1.288 27.155,1.274 26.849,1.153 26.69,1.39 26.594,1.534 26.578,1.791 26.769,1.897 m 0.434,42.866 c 0.071,0.566 0.068,1.153 0.254,1.405 0.332,0.449 0.499,-0.139 0.386,-0.285 -0.258,-0.338 -0.376,-0.795 -0.64,-1.12 M 42.816,16.26 c -0.201,-0.126 -0.143,-0.383 -0.088,-0.53 0.067,-0.181 0.253,-0.418 0.514,-0.323 0.347,0.128 0.222,0.561 0.076,0.778 -0.113,0.169 -0.362,0.162 -0.502,0.075 M 0.478,18.103 C 0.448,18.086 0.209,17.86 0.171,17.77 0.134,17.682 0.125,17.354 0.152,17.284 c 0.043,-0.11 0.14,-0.239 0.282,-0.187 0.236,0.085 0.351,0.325 0.392,0.563 0.03,0.176 0.139,0.712 -0.348,0.443 M 57.007,39.15 c 0.1,0.211 0.325,0.096 0.429,0.106 0.082,-0.47 0.019,-0.944 -0.284,-1.147 -0.084,-0.055 -0.424,-0.056 -0.305,0.182 0.12,0.245 0.026,0.574 0.16,0.859 M 0,0 C 0.142,0.287 0.633,0.453 0.521,0.743 0.434,0.973 0.212,1.031 0.135,0.926 -0.077,0.642 -0.557,0.556 -0.596,0.111 -0.352,0.146 -0.144,0.134 0,0 m 44.662,31.173 c -0.06,-0.082 -0.196,-0.143 -0.155,-0.279 0.089,-0.299 0.246,-0.608 0.549,-0.755 0.065,-0.033 0.401,-0.045 0.447,-0.017 0.17,0.104 0.524,0.326 0.247,0.479 -0.28,0.152 -0.631,-0.32 -0.837,-0.056 -0.107,0.135 -0.068,0.344 0.005,0.499 0.109,0.233 -0.159,0.263 -0.256,0.129 M 22.481,58.168 c 0.343,0.21 0.269,-0.553 0.307,-0.926 0.015,-0.154 -0.095,-0.516 -0.469,-0.712 -0.103,0.31 -0.037,1.012 -0.048,1.387 0,0.025 0.075,0.168 0.21,0.251 M -1.172,29.832 c -0.026,-0.005 -0.126,-0.103 -0.13,-0.117 -0.043,-0.173 -0.043,-0.402 0.139,-0.394 0.392,0.016 0.824,0.075 1.167,0.321 0.1,0.071 0.186,0.207 0.142,0.342 -0.468,0.022 -0.899,-0.08 -1.318,-0.152 m -33.031,-5.556 c 0.167,0.082 0.488,0.159 0.639,-0.066 0.145,-0.215 0.272,-0.657 -0.082,-0.77 -0.272,-0.084 -0.581,0.08 -0.654,0.291 -0.061,0.175 -0.125,0.435 0.097,0.545 m 31.118,34.639 c 0.266,0.109 0.434,-0.132 0.581,-0.396 0.102,-0.184 -0.226,-0.376 -0.415,-0.471 -0.193,-0.097 -0.492,-0.053 -0.556,0.206 -0.039,0.155 -0.106,0.417 0.108,0.523 0.056,0.029 0.224,0.115 0.282,0.138 M 71.13,28.919 c 0.33,0.129 0.744,0.065 1.104,0.071 0.012,-0.159 0.06,-0.375 -0.129,-0.486 -0.314,-0.186 -0.772,-0.33 -0.999,-0.113 -0.172,0.163 -0.177,0.449 0.024,0.528 m -32.747,5.706 c -0.245,-0.158 -0.44,-0.513 -0.52,-0.842 0.412,-0.042 0.781,0.088 1.154,0.148 l 0,0.857 C 38.812,34.758 38.562,34.74 38.383,34.625 M 26.316,76.876 c 0.057,-0.966 -0.064,-1.897 -0.451,-2.479 -0.119,0.231 -0.117,0.592 -0.06,0.829 0.131,0.535 0.137,1.123 0.511,1.65 M -23.902,28.53 c -0.085,-0.003 -0.282,-0.263 -0.3,-0.339 -0.122,-0.513 0.414,-0.855 0.852,-0.884 0.206,-0.015 0.143,0.334 0.069,0.435 -0.193,0.266 -0.274,0.801 -0.621,0.788 m 72.501,24.481 c 0.219,0.104 0.219,-0.22 0.183,-0.348 -0.108,-0.373 -0.486,-0.816 -0.847,-0.724 -0.261,0.068 -0.401,0.587 -0.128,0.714 0.091,0.042 0.343,-0.014 0.403,0.015 0.089,0.041 0.293,0.297 0.389,0.343 M 34.511,16.5 c -0.068,-0.168 -0.117,-0.431 0.01,-0.498 0.267,-0.14 0.535,0.11 0.836,0.043 0,0.118 0.044,0.502 0,0.614 -0.062,0.153 -0.228,0.283 -0.379,0.367 -0.07,0.039 -0.373,0 -0.467,0 0,-0.103 0.039,-0.429 0,-0.526 M 10.14,51.417 c 0.129,0.118 0.241,-0.043 0.247,-0.135 0.025,-0.403 0.35,-0.747 0.355,-1.174 -0.481,0.103 -0.904,0.334 -1.155,0.663 -0.047,0.062 0,0.379 0,0.489 0.22,-0.055 0.413,0.029 0.553,0.157 m 37.641,0.099 c 0.236,0.225 0.39,-0.1 0.48,-0.163 0.162,-0.115 0.309,-0.144 0.438,-0.279 -0.18,-0.331 -0.112,-0.8 -0.498,-0.985 -0.131,-0.063 -0.411,-0.055 -0.379,0.044 0.139,0.426 0.103,0.941 -0.041,1.383 M 21.336,-7.196 c -0.032,0.188 -0.078,0.373 -0.056,0.593 0.316,-0.198 0.436,-0.693 0.498,-1.152 0.084,-0.611 0.252,-1.217 0.194,-1.974 l -0.428,0 c 0.08,0.944 -0.073,1.738 -0.208,2.533 m 5.783,62.822 c 0.05,0.115 0.267,0.08 0.323,0.033 0.449,-0.375 0.819,-0.823 1.104,-1.347 0.096,-0.176 -0.278,-0.003 -0.416,0.013 -0.481,0.06 -0.913,0.54 -1.017,1 -0.013,0.056 -0.021,0.24 0.006,0.301 M 40.373,34.894 c -0.12,-0.165 -0.216,-0.354 -0.377,-0.501 0.092,-0.289 0.068,-0.635 0.222,-0.885 0.16,-0.258 0.512,-0.118 0.76,-0.132 0.051,0.205 -0.066,0.388 -0.162,0.568 -0.139,0.264 0.098,0.559 0.027,0.869 -0.055,0.247 -0.383,0.204 -0.47,0.081 m 4.252,-7.713 C 44.585,27.183 44.528,27.108 44.507,27.097 44.26,26.96 44.4,26.67 44.384,26.461 c 0.144,0 0.667,-0.078 0.807,0 0.383,0.215 0.858,0.398 1.431,0.414 l 0,0.433 c -0.509,-0.204 -1.318,-0.15 -1.997,-0.127 m -6.26,5.144 c 0.133,-0.198 0.307,-0.468 0.213,-0.809 0.303,0.016 0.595,0.016 0.894,-0.108 0.199,-0.083 -0.023,0.388 0.245,0.479 0.206,0.069 0.47,0.225 0.307,0.551 -0.329,-0.085 -0.842,-0.224 -1.213,0.045 -0.114,0.084 -0.328,0.05 -0.446,-0.158 m 19.193,-3.042 c 0.633,0.11 1.168,-0.206 1.674,-0.61 -0.434,-0.249 -1.149,-0.266 -1.49,0.041 -0.144,0.129 -0.907,0 -1.122,0 l 0,0.423 c 0.187,0.028 0.751,0.113 0.938,0.146 M -5.691,10.549 c -0.021,0.5 0.571,0.295 0.848,0.253 0.112,-0.017 0.269,-0.197 0.303,-0.321 0.102,-0.377 0.031,-0.747 -0.174,-1.053 -0.089,-0.133 -0.284,-0.202 -0.34,-0.132 -0.277,0.346 -0.616,0.729 -0.637,1.253 m 9.93,52.952 C 4.164,63.75 4.462,63.607 4.613,63.623 4.972,62.665 5.366,61.637 5.658,60.556 5.32,60.408 5.015,60.693 4.952,60.918 L 4.239,63.501 Z M -1.54,20.75 c -0.149,-0.068 -0.36,-0.13 -0.417,-0.364 -0.055,-0.228 0.201,-0.531 0.097,-0.831 -0.052,-0.151 -0.05,-0.382 0.169,-0.382 0.403,0 0.829,0.23 1.041,0.54 0.2,0.294 -0.177,0.433 -0.303,0.665 -0.103,0.188 -0.269,0.516 -0.587,0.372 m -24.58,11.068 c 0.081,0.405 0.8,0.273 1.131,0.245 1.197,-0.099 2.493,0.025 3.492,-0.295 0.231,-0.074 0.429,-0.354 0.179,-0.693 -0.502,0.599 -1.791,0.738 -2.586,0.577 l -2.216,0.166 z m 8.383,-7.525 c -0.274,0.597 0.498,0.329 0.643,0.277 1.019,-0.357 1.977,-0.756 3.281,-1.442 l -3.82,0.821 c -0.152,0.033 -0.239,0.243 -0.104,0.344 m 89.662,2.853 c 0.116,0.168 0.428,0.087 0.6,-0.059 0.109,-0.092 0.418,-0.402 0.445,-0.405 0.498,-0.053 0.83,-0.493 1.4,-0.358 0.03,-0.263 -0.29,-0.622 -0.674,-0.475 -0.376,0.143 -0.991,0.543 -1.833,0.449 -0.137,-0.015 -0.311,-0.078 -0.471,-0.012 -0.098,0.041 -0.1,0.309 0.018,0.368 0.219,0.115 0.382,0.298 0.515,0.492 m -23.203,33.07 c 0.409,0.16 0.569,-0.222 0.756,-0.403 0.182,-0.174 0.139,-0.494 0.092,-0.739 -0.018,-0.091 -0.33,-0.421 -0.42,-0.419 -0.494,0.008 -0.925,0.179 -1.21,0.485 -0.009,0.508 0.395,0.923 0.782,1.076 m 2.951,-3.761 c 0.049,0.046 0.459,0 0.666,0 -0.298,-0.401 -0.548,-0.912 -0.675,-1.364 -0.079,-0.278 -0.407,-0.48 -0.622,-0.549 -0.219,-0.072 -0.564,-0.175 -0.709,0.146 -0.131,0.292 0.413,0.434 0.236,0.841 0.291,0.377 0.731,0.575 1.104,0.926 M 24.306,44.647 c 0.247,0.173 0.178,-0.718 0.227,-1.091 0.11,-0.83 -0.434,-1.342 -0.88,-1.737 -0.197,-0.173 -0.111,0.194 -0.102,0.318 0.013,0.205 0.178,0.467 0.078,0.7 -0.065,0.151 -0.227,0.313 -0.149,0.517 0.187,0.482 0.333,0.948 0.826,1.293 m -4.881,-2.364 c -0.144,-0.09 -0.572,-0.549 -0.657,-0.721 -0.056,-0.114 -0.033,-0.55 -0.019,-0.689 0.034,-0.319 0.317,-0.588 0.666,-0.569 0.266,0.014 0.591,0.192 0.679,0.48 0.12,0.391 0.055,0.829 -0.126,1.198 -0.088,0.18 -0.283,0.462 -0.543,0.301 m 1.422,17.54 c 0.271,0.321 0.052,-0.495 0.106,-0.582 0.092,-0.15 0.567,-0.362 0.603,-0.47 0.072,-0.208 0.04,-0.895 -0.039,-1.106 -0.045,-0.121 -0.246,-0.276 -0.129,-0.491 0.129,-0.237 -0.068,-0.531 -0.31,-0.778 -0.689,0.536 -0.89,2.092 -0.427,3.011 0.028,0.057 0.065,0.262 0.196,0.416 M 59.046,18.146 c 0.431,0.056 0.754,-0.31 0.899,-0.691 0.092,-0.244 0.127,-0.54 0.047,-0.764 -0.073,-0.2 -0.307,-0.42 -0.465,-0.455 -0.674,-0.149 -1.203,0.283 -1.277,0.791 -0.053,0.354 0.171,0.655 0.369,0.907 0.048,0.063 0.344,0.202 0.427,0.212 M 33.229,6.595 c -0.197,-0.272 0.063,-0.624 0.259,-0.8 0.554,-0.493 1.029,-1.128 1.789,-1.418 0.23,-0.088 0.51,0.033 0.315,0.271 -0.469,0.576 -0.85,1.238 -1.194,1.79 -0.226,0.364 -0.924,0.495 -1.169,0.157 M -20.492,3.743 c 0.221,0.037 0.42,0.198 0.658,0.209 l -0.243,-1.633 c -0.486,-0.07 -0.921,-0.334 -1.321,-0.396 -0.141,-0.023 -0.364,0.251 -0.417,0.403 -0.052,0.151 -0.056,0.67 0,0.807 0.057,0.139 0.438,0.505 0.583,0.557 0.218,0.079 0.493,0.011 0.74,0.053 m -5.403,19.272 c 0.437,-0.041 0.876,-0.468 0.905,-0.92 0.017,-0.268 0.028,-0.666 -0.294,-0.765 -0.341,-0.104 -0.826,0.108 -0.951,-0.36 -0.114,0 -0.343,-0.007 -0.354,0 -0.522,0.27 -0.799,1.041 -0.345,1.529 0.105,0.114 0.371,0.146 0.5,-0.03 0.185,-0.249 0.322,0.048 0.225,0.207 0.085,0.091 0.261,0.345 0.314,0.339 M 1.332,64.477 c 0.365,0.12 0.536,-0.317 0.788,-0.486 0.117,-0.078 0.299,-0.1 0.329,-0.223 0.065,-0.28 0.144,-0.706 0.056,-0.829 -0.245,-0.34 -0.604,-0.575 -0.997,-0.595 -0.387,-0.02 -0.764,0.354 -0.933,0.704 -0.066,0.135 -0.029,0.74 0.029,0.891 0.116,0.308 0.431,0.439 0.728,0.538 M -36.355,20.368 c 0.244,0.021 0.621,-0.097 0.912,0.052 0.19,-0.184 0.433,-0.325 0.474,-0.454 0.254,-0.793 -0.335,-1.278 -0.957,-1.55 -0.089,-0.039 -0.433,0.049 -0.725,0.165 -0.147,0.06 -0.328,0.209 -0.372,0.362 -0.06,0.206 -0.03,0.879 0.029,1.092 0.065,0.235 0.369,0.31 0.639,0.333 M 8.249,42.799 c -0.02,-0.052 -0.013,-0.236 0.013,-0.278 0.073,-0.118 0.413,-0.402 0.48,-0.523 0.032,-0.058 -0.004,-0.303 0,-0.31 0.435,-0.629 0.877,-1.177 1.423,-1.62 0.108,-0.088 0.267,-0.229 0.419,-0.125 0.229,0.157 0.225,0.522 0.262,0.959 0.019,0.225 -0.26,0.626 -0.524,0.892 -0.429,0.43 -0.912,0.823 -1.434,1.101 -0.196,0.104 -0.54,0.154 -0.639,-0.096 m 15.038,24.876 c 0.109,0.145 0.519,0.024 0.861,0.035 -0.591,-1.873 -0.957,-3.931 -1.17,-6.108 -0.012,-0.129 -0.183,-0.407 -0.219,-0.487 -0.146,0.114 -0.25,0.269 -0.213,0.48 0.102,0.588 0.018,1.191 0.21,1.743 0.09,0.256 -0.043,0.741 -0.021,1.145 0.055,0.995 0.223,1.871 0.378,2.766 0.012,0.069 0.072,0.289 0.174,0.426 M 5.423,59.985 c 0.225,0.228 0.359,-0.145 0.412,-0.29 0.524,-1.426 1.047,-2.811 1.574,-4.247 0.19,-0.515 0.438,-1.045 0.962,-1.219 0.323,-0.556 0.511,-1.211 0.632,-1.884 0.016,-0.089 -0.153,-0.274 -0.301,-0.117 -0.185,0.197 -0.112,0.688 -0.139,0.989 -0.056,0 -0.42,-0.061 -0.463,0 l -0.907,1.247 c -0.041,0.056 0.069,0.464 0,0.583 l -1.141,2.01 c -0.174,0.328 -0.02,0.792 -0.186,1.115 -0.13,0.251 -0.264,0.511 -0.298,0.816 -0.037,0.33 -0.014,0.694 -0.145,0.997 m 27.686,0.33 c 0.234,0.158 0.558,-0.133 0.558,-0.33 l -0.011,-1.51 c -0.058,-0.417 -0.458,-0.898 -0.977,-0.825 -0.768,0.11 -1.336,0.531 -1.385,1.341 -0.016,0.257 -0.131,0.756 0.157,0.774 0.615,0.038 1.218,0.257 1.658,0.55 M -19.244,-2.021 c 0.328,0.142 0.806,0.255 1.031,-0.175 0.122,-0.235 0.174,-0.743 0.196,-1.126 -0.167,-0.512 -0.734,-0.694 -1.088,-0.385 -0.091,-0.098 -0.324,-0.267 -0.348,-0.376 -0.089,-0.406 0.035,-1.009 -0.376,-1.065 -0.363,-0.051 -0.555,-0.708 -0.994,-0.361 -0.359,0.285 -0.422,0.856 -0.217,1.17 0.299,0.46 0.832,0.793 1.604,0.778 0.064,0.429 -0.108,0.827 -0.08,1.174 0.013,0.16 0.176,0.323 0.272,0.366 m 34.149,52.65 c 0.274,0.084 0.611,0.104 0.878,-0.095 0.087,-0.064 0.174,-0.154 0.06,-0.263 l -1.697,-1.685 c -0.408,-0.521 -0.079,-1.223 0.13,-1.689 -0.147,-0.195 -0.419,-0.659 -0.527,-0.707 -0.106,-0.047 -0.446,-0.124 -0.381,0.129 0.102,0.394 0.636,0.611 0.497,0.882 -0.176,0.342 -0.434,0.743 -0.729,0.668 -0.466,-0.119 -0.273,-0.568 -0.283,-0.835 -0.161,-0.052 -0.297,0.033 -0.364,0.138 -0.267,0.411 -0.472,0.893 -0.631,1.406 0.257,0.494 0.893,0.331 1.345,0.132 0.361,0.465 0.757,0.776 1.136,1.1 0.197,0.168 0.239,0.717 0.566,0.819 m 8.322,-2.841 c 0.917,-10e-4 1.501,-0.464 1.825,-1.092 0.194,-0.373 -0.162,-0.847 -0.376,-1.066 -0.735,-0.752 -2.026,-0.32 -2.557,0.35 -0.04,0.051 -0.077,0.791 0.026,0.921 0.299,0.38 0.677,0.651 1.082,0.887 m 22.409,-21.68 -1.5,-0.357 c -0.465,-0.309 -1.438,-0.4 -1.992,-0.148 -0.119,0.054 -0.535,-0.072 -0.635,-0.136 -0.215,-0.142 -0.509,-0.37 -0.369,-0.696 0.084,0 0.391,0.047 0.476,0 0.109,-0.06 0.346,-0.53 0.413,-0.536 1.012,-0.08 1.973,-0.025 2.759,0.199 0.827,0.235 1.659,0.557 2.121,1.183 0.118,0.161 0.266,0.359 0.283,0.554 -0.556,0 -1.077,0.054 -1.556,-0.063 m -7.332,33.855 c 0.5,-0.026 0.994,0.164 1.446,-0.028 0.445,-0.192 1.041,-0.868 0.601,-1.527 -0.664,-0.25 -1.454,-0.704 -2.279,-0.75 -0.395,-0.022 -0.766,-0.353 -1.17,-0.025 -0.084,0.068 -0.324,0.287 -0.349,0.371 -0.046,0.155 0,0.676 0,0.892 l 1.751,1.067 z m 9.883,-12.628 c 0.188,0.253 0.433,-0.163 0.596,-0.328 0.126,-0.128 0.15,-0.354 0.285,-0.375 0.654,-0.108 1.029,0.515 1.298,0.847 0.212,-0.489 0.671,-0.174 0.788,-0.402 0.146,-0.284 0.32,-0.594 0.502,-0.576 0.499,0.046 0.922,-0.19 1.334,-0.379 0.291,-0.132 0.241,-0.619 0.279,-0.925 0.043,-0.339 0.4,-0.27 0.561,-0.306 0.311,-0.071 0.635,-0.147 0.734,-0.464 0.1,-0.319 -0.297,-0.629 -0.35,-0.964 -0.016,-0.109 0.147,-0.376 0.131,-0.456 -0.056,-0.277 -0.22,-0.538 -0.269,-0.798 0.236,-0.172 0.295,-0.609 0.519,-0.538 0.465,0.147 0.979,0.153 1.251,-0.192 0.139,-0.176 0.058,-0.513 0.064,-0.816 -0.618,0.11 -1.184,0.416 -1.491,0.813 -0.127,0.163 -0.427,-10e-4 -0.595,-0.147 -0.219,-0.19 -0.504,-0.301 -0.762,-0.364 -0.115,-0.028 -0.513,-0.059 -0.602,0.02 -0.39,0.348 -0.529,0.932 -0.918,1.444 -0.073,0.096 -0.099,0.373 -0.072,0.584 0.045,0.346 0.049,0.695 -0.019,1.035 0.345,0.165 0.161,0.502 0.345,0.777 -0.441,0.163 -1.037,0.076 -1.496,0.095 -0.293,0.013 -0.334,0.338 -0.29,0.518 -0.624,0.122 -1.096,0.5 -1.698,0.842 -0.208,0.118 -0.391,-0.399 -0.658,-0.487 -0.289,-0.095 -0.571,-0.229 -0.727,-0.456 -0.115,0.059 -0.154,0.14 -0.066,0.309 0.329,0.625 0.9,1.114 1.326,1.689 M 12.48,-0.157 c -0.823,-1.937 -1.583,-4.034 -2.178,-6.196 -0.081,-0.295 0.039,-0.61 0.179,-0.898 0.139,-0.282 0.464,-0.492 0.671,-0.774 0.192,-0.264 0.57,-0.379 0.898,-0.24 0.2,0.085 0.429,0.285 0.551,0.496 0.251,0.431 0.432,0.907 0.558,1.424 0.039,0.159 -0.088,0.4 -0.034,0.495 0.464,0.815 0.845,1.757 1.357,2.449 0.134,0.179 0.102,0.87 0.033,1.058 -0.039,0.109 -0.522,0.328 -0.563,0.436 -0.067,0.179 0.081,0.813 0,0.958 -0.113,0.201 -0.257,0.421 -0.424,0.559 -0.061,0.051 -0.355,-0.011 -0.427,0.026 -0.117,0.059 -0.124,0.278 -0.217,0.338 -0.131,0.083 -0.341,0.014 -0.404,-0.131 m 16.448,53.945 c -0.012,0.077 0.091,0.133 0.322,-0.042 0.415,-0.314 1.234,-0.356 1.642,-0.469 0.698,-0.436 0.987,-1.109 0.815,-1.781 -0.055,-0.212 0.12,-0.485 0.281,-0.574 0.156,-0.085 0.374,0.056 0.453,0.196 0.115,0.202 -0.093,0.421 -0.041,0.577 0.095,0.28 0.142,0.56 0.176,0.569 0.757,0.193 1.213,0.432 1.626,0.811 0.091,0.084 0.784,0.066 0.895,-0.021 0.424,-0.334 0.887,-0.669 1.386,-0.85 0,-0.255 -0.089,-0.867 0,-1.03 0.112,-0.206 0.485,-0.552 0.245,-0.748 l -1.504,-1.185 c -0.74,-0.141 -1.486,-0.079 -2.203,0.07 -0.298,0.062 -0.418,0.386 -0.464,0.667 l -0.591,0 c 0.141,-0.325 -0.16,-0.546 -0.398,-0.705 -0.029,-0.019 -0.285,-0.032 -0.342,0 -0.121,0.067 -0.405,0.416 -0.513,0.459 -0.138,0.057 -0.323,0.06 -0.413,-0.048 -0.089,0.398 -0.279,0.833 -0.067,1.182 0.146,0.24 0.412,0.634 0.129,0.961 -0.179,0.208 -0.53,0.034 -0.631,0.357 -0.1,0.32 -0.033,0.763 -0.289,0.905 -0.296,0.166 -0.473,0.433 -0.514,0.699 m -80.454,-19.93 c 0.215,0.11 0.605,0.2 0.793,0.062 l 2.347,-1.719 c 1.322,-0.307 2.196,-0.895 3.328,-1.193 0.908,-0.238 2.154,-0.026 3.041,-0.377 0.915,-0.361 2.104,-0.325 3.245,-0.569 2.118,-0.454 4.624,-0.545 6.539,-1.271 0.394,-0.149 0.837,-0.284 1.394,-0.204 0.055,0.21 -0.009,0.456 -0.28,0.548 -0.161,0.053 -0.482,-0.109 -0.618,0.142 -0.095,0.174 -0.184,0.528 0.066,0.651 0.422,0.209 0.919,-0.051 1.472,-0.017 0.145,0.009 0.44,-0.351 0.713,-0.351 l 2.26,0 c 0.473,-0.127 1.012,-0.25 1.624,-0.278 -0.013,-0.176 -0.065,-0.395 0.13,-0.49 0.302,-0.146 0.5,0.173 0.63,0.454 0.133,0.288 -0.49,0.476 -0.536,0.865 0.339,0.064 0.642,0.192 0.958,0.123 0.399,-0.087 0.054,-0.804 0.458,-0.866 0.89,-0.136 1.596,-0.808 2.097,-1.482 0.126,-0.168 -0.029,-0.37 -0.22,-0.411 -0.217,-0.046 -0.502,-0.008 -0.799,-0.259 -0.122,-0.104 -0.142,-0.61 0.083,-0.813 0.092,-0.082 0.368,-0.181 0.212,-0.431 -0.184,-0.295 0.404,-0.416 0.387,-0.76 -0.206,-0.016 -0.423,-0.066 -0.527,0.124 -0.102,0.187 -0.159,0.487 -0.301,0.517 -0.428,0.087 -0.867,0.217 -1.347,0.185 -0.485,0.439 -1.187,0.743 -2.01,0.728 -0.394,-0.007 -0.813,0.301 -1.229,0.298 -0.116,-0.217 -0.389,-0.185 -0.626,-0.163 -1.148,0.109 -2.208,-0.319 -2.891,-0.746 -1.052,0.218 -2.158,0.229 -3.189,0.211 -0.297,-0.006 -0.849,0.043 -1.046,0.136 -0.668,0.315 -1.249,0.625 -1.736,0.861 -0.486,0.681 -1.181,0.907 -1.883,1.162 -0.949,0.347 -1.995,0.557 -3.195,0.647 -1.266,0.391 -2.618,0.739 -3.18,1.4 -1.441,0.335 -2.653,0.587 -3.773,0.88 -0.528,0.138 -0.574,0.726 -0.68,1.075 -0.646,0.4 -1.32,0.509 -1.836,0.716 -0.002,0.252 -0.096,0.504 0.125,0.615 m 73.265,20.489 c 0.109,0.064 0.125,0.263 0.236,0.298 0.074,-2.724 -0.499,-4.777 -1.256,-6.689 0.046,-0.554 -0.148,-1.042 -0.031,-1.498 -0.105,-0.512 -0.142,-1.062 -0.481,-1.519 -0.103,-0.137 0.095,-0.472 0.361,-0.584 0.169,-0.07 0.646,0.101 0.661,-0.252 0.025,-0.606 -0.266,-1.102 -0.276,-1.823 0,-0.019 -0.213,-0.211 -0.236,-0.316 -0.048,-0.215 0.052,-0.529 -0.157,-0.736 -0.186,-0.185 -0.431,-0.54 -0.241,-0.712 0.29,-0.261 0.47,-0.733 0.375,-1.271 0.236,-0.32 0.681,-0.4 1.244,-0.313 0.151,0.023 0.459,0.372 0.804,0.209 0.417,-0.197 0.211,-0.719 0.523,-0.851 0.128,-0.055 0.395,-0.032 0.448,0 0.149,0.09 0.329,0.214 0.378,0.367 0.056,0.178 -0.106,0.887 0,0.974 l 1.564,1.292 c 0.29,0.898 0.745,1.483 1.117,2.083 0.131,0.212 0.269,-0.132 0.34,-0.202 0.376,-0.368 0.848,-0.532 1.42,-0.87 0.518,0.469 1.332,0.774 2.018,1.238 0.057,0.039 0.418,0.141 0.303,-0.091 -0.207,-0.416 -0.466,-0.842 -0.599,-1.312 0.186,-0.133 0.292,-0.311 0.24,-0.52 -0.072,-0.284 -0.229,-0.55 -0.22,-0.892 0.789,0.183 1.327,0.645 1.843,1.101 0.183,0.161 0.896,0.598 1.328,0.614 0.33,0.012 0.785,0.219 1.055,0.443 0.101,0.084 0.578,-0.069 0.667,0.021 0.458,0.465 0.662,1.261 0.979,1.886 0.661,-0.08 1.413,-0.087 2.026,-0.221 l 0,-0.422 c -0.305,-0.037 -0.612,-0.13 -0.921,-0.14 -0.264,-0.011 -0.556,0.204 -0.845,0.096 -0.328,-0.123 -0.243,-0.672 -0.136,-1.193 0.04,-0.19 0.612,-0.226 0.556,-0.52 -0.076,-0.403 -0.485,-0.894 -0.34,-1.564 0.369,-0.435 1.031,-0.348 1.636,-0.188 0.159,0.042 0.644,0.233 0.754,0.343 l 1.023,1.023 c 0.224,0.222 0.456,-0.415 0.889,-0.497 0.087,-0.251 0.154,-0.962 0.491,-0.826 0.471,0.191 0.929,0.693 1.209,1.143 0.982,0.253 1.225,1.04 1.701,1.745 0.461,0.682 0.997,1.405 1.939,1.579 0.243,0.044 0.233,-0.153 0.182,-0.295 l -0.515,0 c 0.04,-0.861 -0.471,-1.312 -0.807,-1.816 -0.336,-0.259 -0.475,-0.749 -0.548,-1.211 -0.155,0 -0.448,0.024 -0.463,0 -0.306,-0.484 -0.827,-0.703 -1.185,-1.097 -0.199,-0.218 -0.544,-0.298 -0.855,-0.234 -0.102,-0.164 -0.229,-0.319 -0.218,-0.482 0.019,-0.275 0.194,-0.486 0.409,-0.65 -0.353,-0.517 -0.725,-1.019 -0.998,-1.563 -0.045,-0.087 0,-0.334 0,-0.414 0.299,-0.068 0.546,0.14 0.856,0.085 -0.11,-0.109 -0.453,-0.382 -0.512,-0.51 -0.078,-0.17 0.234,-0.369 0.391,-0.251 0.513,0.386 1.031,0.749 1.664,1.029 0.249,0.11 0.751,0.133 0.754,0.549 0.002,0.22 0.342,0.309 0.482,0.16 0.258,-0.272 -0.307,-0.434 -0.291,-0.776 0.129,0 0.422,0.029 0.505,0 0.075,-0.027 0.257,-0.254 0.362,-0.277 0.215,-0.047 0.524,0.048 0.764,-0.198 0.123,-0.129 0.523,-0.293 0.373,-0.558 -0.084,-0.148 -0.213,-0.305 -0.365,-0.375 -0.076,-0.036 -0.358,0.023 -0.414,-0.007 -0.828,-0.445 -1.803,-0.727 -2.539,-1.235 l 0.164,-1.305 c -0.119,-0.053 -0.516,-0.174 -0.559,-0.245 -0.147,-0.237 0.103,-0.403 0.213,-0.571 -0.176,-0.252 -0.474,-0.258 -0.737,-0.286 0.003,-0.226 0.2,-0.45 0.125,-0.54 -0.3,-0.354 0.247,-0.38 0.357,-0.42 0.788,-0.292 1.403,0.161 1.802,0.582 0.479,0.232 0.755,0.771 1.363,0.929 0.106,0.027 0.223,-0.016 0.389,0.113 0.485,0.38 0.949,0.765 1.324,1.237 0.629,0.139 1.034,0.572 1.463,0.79 0.379,0.191 0.71,-0.116 0.959,-0.324 -0.215,-0.35 -0.729,-0.054 -0.79,-0.264 -0.122,-0.415 -0.585,-0.633 -0.769,-0.823 -0.359,-0.374 -0.988,-0.554 -1.36,-0.729 -0.417,-0.689 -0.963,-1.007 -1.286,-1.456 -0.117,-0.161 -0.037,-0.363 0.116,-0.443 0.306,-0.157 0.554,0.362 0.702,0.032 0.162,-0.36 -0.467,-0.056 -0.556,-0.602 -0.017,-0.106 -0.114,-0.425 0.124,-0.559 0.183,-0.105 0.431,-0.126 0.518,-0.191 l 1.973,-1.534 c 0.267,-0.215 0.776,0.273 1.052,0.208 0.669,-0.159 1.286,-0.312 2.077,-0.193 1.086,0.161 1.994,0.67 2.763,1.128 0.268,-0.196 0.541,-0.362 0.368,-0.627 -0.109,-0.166 -0.301,-0.327 -0.401,-0.559 -0.504,0.194 -0.978,-0.029 -1.389,-0.179 -0.693,-0.251 -1.382,-0.57 -2.244,-0.733 -0.097,-0.018 -0.257,0.495 -0.412,0.423 -0.624,-0.288 -1.418,-0.387 -2.052,-0.712 -0.215,-0.111 -0.172,-0.536 -0.088,-0.503 0.574,0.229 1.125,0.455 1.781,0.46 0.006,-0.325 -0.329,-0.576 -0.59,-0.636 -0.197,-0.044 -0.448,-0.243 -0.322,-0.503 0.086,-0.178 0.195,-0.38 0.084,-0.588 -0.077,-0.142 -0.514,-0.27 -0.418,-0.371 0.312,-0.328 0.696,-0.583 0.904,-0.994 0.059,0.135 0.117,0.359 0.274,0.375 0.937,0.092 1.849,0.197 2.875,0.164 l 1.925,0.59 c 0.159,0.041 0.334,0.345 0.612,0.247 l 0,0.595 c 0.492,0.036 0.87,-0.312 1.236,-0.4 0.385,0.372 0.797,0.708 1.381,0.797 0.066,0.011 0.329,-0.131 0.412,-0.116 0.321,0.055 0.822,0.103 0.942,0.307 0.225,0.38 0.605,0.733 0.959,1.032 0.068,0.056 -0.106,0.434 0.175,0.322 0.088,-0.036 0.295,-0.238 0.377,0.013 0.023,0.07 0.142,0.282 0.129,0.34 -0.047,0.203 -0.129,0.41 -0.251,0.577 -0.403,-0.081 -0.746,0.126 -1.149,0.083 0.025,0.102 0.152,0.234 0.267,0.254 0.595,0.102 1.174,0.246 1.705,0.431 0.22,0.077 1.03,-0.086 1.153,0.029 0.423,0.393 1.183,0.646 1.867,0.393 l 3.687,0.72 c 0.326,0.063 0.318,-0.418 0.158,-0.509 -0.248,-0.143 -0.723,-0.363 -0.571,-0.766 0.077,-0.204 0.304,-0.142 0.476,-0.138 0.657,0.016 1.158,0.336 1.699,0.465 0.15,0.035 0.355,0.042 0.414,-0.174 0.012,-0.044 0.002,-0.274 -0.018,-0.341 -0.143,-0.518 -0.73,-0.251 -0.949,-0.268 -1.291,-0.096 -2.642,-0.388 -3.804,-0.207 -0.271,0.043 -0.852,-0.427 -1.049,-0.47 -0.188,-0.042 -0.784,-0.015 -0.721,0.004 -0.863,-0.25 -1.277,-0.698 -1.545,-1.276 -0.142,-0.305 0.19,-0.454 0.438,-0.683 0.037,-0.034 0.347,-0.095 0.222,-0.336 -0.126,-0.242 -0.634,0.069 -0.741,-0.298 -0.03,-0.107 0.026,-0.358 -0.009,-0.411 -0.309,-0.484 -0.941,-0.633 -1.681,-0.452 -0.168,0.041 -0.371,0.152 -0.55,0.049 -0.798,-0.459 -1.761,-0.942 -2.212,-1.636 -0.19,-0.291 -0.681,-0.56 -1.086,-0.586 -0.453,-0.028 -0.885,-0.056 -1.34,-0.156 -0.378,0.091 -0.832,0.202 -1.419,0.037 -0.765,0.16 -1.535,-0.247 -1.723,-0.86 -0.712,-0.219 -1.505,-0.227 -2.089,-0.466 -0.361,-0.359 -0.435,-0.896 -0.681,-1.35 -0.937,-0.261 -1.782,-0.53 -2.555,-0.941 -0.074,-0.039 -0.238,-0.246 -0.244,-0.268 -0.395,-1.5 -0.679,-3.054 -0.656,-4.77 -0.291,-0.887 -1.25,-1.725 -2.34,-1.22 -0.656,-0.096 -1.168,-0.31 -1.51,-0.491 C 41.894,11.688 41.535,11.429 41.327,11.123 40.964,10.59 40.288,10.343 39.863,9.976 39.841,9.422 39.744,8.972 39.705,8.552 39.697,8.473 39.987,8.276 40.003,8.202 40.042,8.023 39.964,7.442 40.003,7.264 40.02,7.188 40.223,6.999 40.218,7.016 40.437,6.32 40.081,5.683 39.531,5.636 39.233,5.609 38.934,5.501 38.633,5.507 38.306,5.513 38.067,5.966 37.812,5.801 37.533,5.619 37.178,5.521 37.046,5.283 36.986,5.176 37.029,4.82 37.064,4.769 c 0.135,-0.206 0.308,-0.551 0.59,-0.414 0.188,0.092 0.715,0.492 0.928,0.517 0.359,0.042 0.78,-0.109 1.136,-0.311 0.19,-0.108 0.141,-0.325 0.123,-0.54 -0.475,0.066 -1.021,0.42 -1.55,0.152 C 37.826,3.938 37.429,3.604 37.102,3.236 36.997,3.118 36.824,2.834 36.646,2.656 36.255,2.769 35.851,2.963 35.521,3.191 35.09,3.487 34.714,3.908 34.469,4.337 34.093,4.271 33.902,4.579 33.702,4.747 32.799,5.497 32.084,6.394 31.25,7.218 30.952,7.511 30.513,7.45 30.213,7.354 29.741,7.823 29.061,7.521 28.84,7.282 28.489,7.363 28.222,7.534 27.996,7.459 27.842,7.407 27.511,6.965 27.348,6.908 27.114,6.825 26.751,6.988 26.557,6.753 26.443,6.616 26.438,6.353 26.705,6.23 c 0.25,0.185 0.712,0.195 1.068,0.051 0.092,0.156 0.257,0.562 0.355,0.608 0.212,0.098 0.982,0.156 1.185,0.114 C 29.46,6.973 29.715,6.776 29.52,6.478 29.273,6.1 28.888,5.408 29.221,4.626 28.871,4.227 28.327,4.146 27.637,4.259 27.166,4.624 26.865,5.264 26.379,5.857 25.887,5.729 26.115,4.662 26.094,4.212 c -0.154,0 -0.551,0.049 -0.627,0 -0.35,-0.222 -0.562,-0.638 -0.561,-1.173 0,-0.784 -0.378,-1.303 -0.674,-1.744 -0.131,-0.196 0.069,-0.979 -0.023,-1.04 -0.521,-0.349 -0.667,-1.024 -1.023,-1.502 -0.139,-0.187 -0.71,0.086 -0.79,-0.103 -0.275,-0.651 -0.755,-1.096 -0.853,-1.755 -0.03,-0.206 0.077,-0.854 0.013,-1.039 -0.048,-0.138 -0.451,-0.468 -0.613,-0.637 -0.703,0.183 -1.313,0.594 -1.776,1.076 -0.418,0.434 -0.23,-0.434 -0.271,-0.605 -0.108,-0.447 -0.447,-0.804 -0.967,-0.911 -0.146,0.54 0.144,1.272 -0.081,1.672 -0.119,0.21 -0.375,0.003 -0.375,-0.098 l 0,-1.348 c 0,-0.114 0.238,-0.209 0.289,-0.393 -0.441,-0.124 -0.509,-0.63 -0.546,-1.05 0.224,-0.121 -0.013,-0.138 -0.208,-0.121 -0.128,0.808 -0.768,1.52 -1.826,1.287 -0.064,-0.015 -0.242,-0.056 -0.399,0.02 -0.148,0.071 -0.144,0.368 -0.365,0.439 -0.146,0.046 -0.402,0.034 -0.545,-0.432 -0.284,-0.921 -0.594,-2.246 -1.272,-3.208 -0.164,-0.233 -0.46,-0.43 -0.758,-0.343 -0.378,0.111 -0.843,0.038 -1.126,0.218 -0.354,0.225 -0.679,0.622 -0.599,1.135 0.017,0.108 -0.216,0.397 -0.369,0.296 C 9.567,-7.27 9.384,-7.375 9.165,-7.32 c 0,0.164 0.082,0.737 0,0.916 -0.111,0.241 -0.526,0.275 -0.748,0.61 C 8.085,-5.936 7.663,-6.261 7.135,-6.235 6.918,-6.225 6.752,-6.726 6.367,-6.668 6.247,-6.649 6.098,-6.802 5.856,-6.767 c 0.205,0.73 0.794,1.14 1.147,1.744 0.123,0.21 0.757,0.513 0.679,0.779 -0.148,0.502 -0.151,1.206 -0.193,1.887 -0.017,0.275 0.17,0.567 0.096,0.845 -0.098,0.367 -0.566,0.262 -0.891,0.374 -0.44,-0.408 -0.701,-1.009 -0.995,-1.56 -0.181,0.044 -0.301,0.136 -0.337,0.255 -0.042,0.136 0.068,0.667 0,0.786 -0.149,0.261 -0.402,0.502 -0.687,0.631 -0.16,0.072 -0.366,-0.126 -0.59,-0.128 -0.183,0.4 0.4,0.504 0.258,0.764 -0.146,0.269 -0.335,0.383 -0.536,0.442 -0.191,0.055 -0.334,-0.16 -0.416,-0.314 -0.049,-0.091 -0.043,-0.527 0,-0.642 0.041,-0.11 0.353,-0.37 0.38,-0.444 0.087,-0.246 0.052,-0.535 -0.203,-0.61 -0.218,-0.064 -0.561,-0.033 -0.585,0.25 -0.04,0.46 -0.462,0.995 -0.998,1.037 -0.136,-0.343 -0.716,-0.6 -0.931,-0.187 -0.324,-0.063 -0.665,0.212 -0.858,0.057 -0.415,-0.335 -0.68,-0.735 -1.009,-1.071 -0.201,-0.205 -0.48,0.072 -0.382,0.095 -0.954,-0.221 -1.963,-0.161 -2.255,-0.759 -0.404,-0.443 -0.752,-0.958 -0.988,-1.512 -0.166,-0.387 -0.544,-0.697 -0.933,-0.889 -0.18,-0.087 -0.098,0.293 -0.094,0.321 0.087,0.765 0.652,1.126 0.898,1.65 0.631,1.339 1.649,2.397 2.709,3.343 0.177,0.158 0.368,0.31 0.435,0.599 0.08,0.347 0.374,0.634 0.529,0.983 0.145,0 0.568,-0.044 0.637,0 0.515,0.328 0.901,0.785 1.345,1.102 0.135,0.095 0.155,0.614 0.007,0.705 -0.441,0.268 -0.803,0.553 -1.224,0.447 l 0,0.575 c -0.308,0.013 -0.679,-0.099 -0.964,0.124 0.096,0.39 -0.197,0.802 -0.598,0.931 -0.355,0.113 -0.49,-0.415 -0.872,-0.211 -0.094,0.05 -0.233,0.132 -0.164,0.265 0.163,0.315 0.6,0.587 0.497,0.872 -0.228,0.633 -0.683,1.01 -1.128,1.407 -0.465,-0.014 -0.999,-0.121 -1.335,0.188 0.171,0.667 0.811,0.981 1.286,1.229 0.15,0.078 0.423,0.381 0.461,0.486 0.046,0.125 -0.084,0.617 0,0.751 l 1.972,3.132 c 0.155,0.243 0,0.905 0,1.094 l -0.711,0 c 0.096,0.333 0.482,0.297 0.736,0.256 0.083,0.161 0.232,0.28 0.169,0.533 -0.597,0.04 -1.209,0.348 -1.435,0.843 0.472,0.049 0.459,0.615 0.334,1.011 -0.024,0.076 -0.152,0.265 -0.306,0.314 -0.177,0.055 -0.762,0.013 -0.916,-0.016 -0.218,-0.041 -0.188,-0.25 -0.201,-0.395 -0.033,-0.366 0.32,-0.574 0.604,-0.731 -0.613,0.066 -1.054,-0.148 -1.287,-0.468 -0.128,-0.174 -0.115,0.321 -0.135,0.377 -0.183,0.52 -0.059,0.974 0.01,1.352 -0.406,0.198 -0.092,0.806 -0.256,0.896 -1.924,1.048 -3.956,2.091 -6.823,2.252 -0.581,0.676 -1.413,1.169 -2.293,1.649 2.04,-0.501 3.834,-1.387 6.04,-1.775 0.141,-0.446 0.647,-0.512 0.892,-0.658 0.439,-0.26 0.885,-0.225 1.343,-0.27 0.218,-0.022 0.225,0.438 0.104,0.536 -0.299,0.245 -0.624,0.521 -0.826,0.973 -0.061,0.136 0.312,0.571 0.662,0.492 0.985,-0.225 2.196,-0.194 3.027,-0.464 0,0.005 -0.038,0.307 0,0.378 0.085,0.15 0.223,0.294 0.392,0.368 0.252,0.111 0.619,0.054 0.746,0.251 0.189,0.291 -0.096,0.597 -0.316,0.584 -0.846,-0.057 -1.684,-0.125 -2.715,-0.086 -0.115,0.005 -0.288,0.218 -0.498,0.162 -0.488,-0.129 -1.007,0.088 -1.497,0.129 -0.321,0.026 -0.729,0.175 -0.899,0.438 -0.058,0.09 0,0.409 0,0.51 0.797,-0.054 1.56,-0.151 2.294,-0.322 0.133,0.186 0.311,0.291 0.52,0.24 0.322,-0.076 0.597,-0.299 0.898,-0.354 0.094,-0.018 0.366,0.15 0.426,0.132 0.568,-0.161 1.132,-0.355 1.61,-0.583 0.108,0.305 -0.076,0.504 -0.282,0.663 0.222,0.085 0.396,0.357 0.536,0.357 l 1.32,0 0,0.444 c -0.234,-0.082 -0.396,0.044 -0.511,0.246 -0.147,0.26 0.131,0.486 0.003,0.716 -0.065,0.115 -0.301,0.102 -0.451,-0.011 0.162,-0.325 0.023,-0.666 -0.531,-0.722 -0.192,-0.021 -0.535,0.567 -0.905,0.547 -1.165,-0.065 -2.305,0.046 -3.36,0.286 -0.161,0.036 -0.479,-0.184 -0.675,-0.073 -0.382,0.215 -0.862,0.34 -1.409,0.378 -0.708,0.05 -1.496,-0.019 -2.03,0.156 -0.136,0.044 -0.257,0.167 -0.287,0.287 0.261,0 1.002,-0.045 1.25,0 0.196,0.034 0.384,0.235 0.546,0.202 0.235,-0.048 0.574,-0.164 0.655,0.072 0.04,0.116 0.082,0.286 -0.037,0.36 -0.19,0.116 -0.489,0.154 -0.511,0.354 -0.029,0.258 0.32,0.283 0.484,0.314 0.529,0.098 0.253,0.485 0.267,0.824 0.246,-0.002 0.418,-0.147 0.604,-0.233 -0.101,-0.104 -0.246,-0.187 -0.282,-0.337 0.227,-0.132 0.39,-0.523 0.503,-0.434 0.508,0.398 1.043,0.25 1.56,0.265 0.361,0.011 0.828,-0.253 1.003,-0.09 0.383,0.36 0.828,0.544 1.111,0.91 0.114,0.148 0.177,0.671 -0.153,0.73 l -1.528,0.157 c -0.104,0.011 -0.232,0.165 -0.271,0.322 l 3.591,0.203 c 0.276,0.55 0.837,0.721 1.203,1.167 0.596,-0.062 1.108,0.467 1.212,0.991 0.053,0.269 -0.157,0.41 -0.294,0.477 -0.155,0.076 -0.233,0.228 -0.187,0.375 0.257,0.028 0.613,-0.258 0.73,-0.134 0.326,0.347 0.572,0.754 0.97,1.017 0.183,0.122 0.412,0.294 0.67,0.206 0.25,-0.085 0.611,-0.3 0.877,-0.064 0.321,0.283 0.824,0.145 1.239,0.503 -0.351,0.689 -0.616,1.507 -0.306,2.547 0.308,0.243 0.411,0.893 -0.084,1.61 -0.067,0.099 -0.395,0.374 -0.583,0.796 -0.053,0.121 -0.024,0.771 0.02,0.967 0.181,0.806 0.487,1.516 0.795,2.046 0.073,0.835 0.039,1.641 -0.152,2.191 0.287,0.035 0.598,-0.205 0.686,-0.067 0.242,0.38 0.606,0.655 0.762,1.128 0.079,0.238 -0.111,0.643 0.158,0.833 0.151,0.106 0.466,0.06 0.528,0.338 0.036,0.16 -0.101,0.37 -0.035,0.556 0.074,0.214 0.307,0.159 0.519,0.142 C 7.566,47.259 7.346,46.52 7.195,45.854 6.669,45.381 6.597,44.721 6.201,44.091 6.109,43.945 6.35,43.579 6.621,43.304 c 0.432,0.132 0.747,0.633 1.147,0.964 0.404,-0.289 1.063,-0.222 1.559,-0.514 0.301,-0.176 0.367,-0.544 0.61,-0.641 0.362,-0.142 0.661,0.251 0.964,0.257 0.177,0.003 0.697,-0.247 0.825,-0.398 0.24,-0.284 0.563,-0.635 1.128,-0.763 0.499,0.499 0.823,1.356 0.744,2.437 0.446,-0.477 0.683,-1.061 0.834,-1.573 0.172,-0.585 0.418,-1.156 0.439,-1.937 0.006,-0.262 0.685,-0.335 1.029,-0.593 0.105,-0.079 0.832,-0.099 0.956,0.033 0.427,0.45 0.694,1.152 1.321,1.447 0,0.097 -0.032,0.34 0,0.397 0.08,0.141 0.512,0.467 0.563,0.61 0.062,0.176 -0.021,0.794 0.021,0.953 0.076,0.286 0.291,0.504 0.403,0.735 0.149,0.306 0.138,0.728 0.109,1.022 -0.025,0.257 -0.284,0.353 -0.484,0.282 -0.174,-0.061 -0.268,-0.298 -0.472,-0.29 0,0.115 0.036,0.413 0,0.491 -0.049,0.109 -0.421,0.375 -0.421,0.468 l 0,1.53 c 0,0.117 0.745,0.51 0.967,0.63 0.035,0.019 0.287,-0.022 0.347,0.022 0.289,0.208 0.692,0.45 0.82,0.702 0.43,0.849 0.741,1.788 0.67,3.095 -0.283,0.006 -0.414,-0.345 -0.624,-0.44 -0.151,-0.068 -0.693,-0.052 -0.803,0.018 -0.441,0.279 -0.642,0.862 -0.473,1.638 0.041,0.187 0.392,0.596 0.616,0.563 0.655,-0.095 1.196,-0.476 1.561,-1.008 0.154,0.466 0.471,0.731 0.762,0.906"
         style="fill-opacity:1;fill-rule:nonzero;stroke:none"
         id="path50578" />
    </g>
  </g>
</svg>
