<svg xmlns="http://www.w3.org/2000/svg" viewBox="0 0 157.55562 108.25625" height="115.473" width="168.059"><path d="M64.59 96.095l.103.368-.102-.368zM153.54 66.33c-.16-.017-.28-.19-.137-.297.044.062.507.33.138.296M63.102 63.7c.045-.06.505-.33.136-.294-.157.015-.28.187-.136.295M81.544 39.4c-.157-.017-.28-.188-.136-.297.045.064.505.333.136.298m36.71 32.4c.215-.007.625.135.602-.132-.215.007-.625-.136-.602.132M76.616 96.603c.37.037-.092-.233-.137-.295-.144.108-.022.28.136.295m32.265-60.32c.143.11.023.282-.136.298-.37.036.092-.232.137-.296M68.873 11.938c-.16-.015-.28-.187-.138-.297.045.064.507.334.138.298m-3.17 78.152c.37.038-.09-.232-.135-.295-.144.11-.023.28.136.295m4.204-36.144c.062.045.33.508.296.138-.016-.16-.187-.28-.296-.138M47.727 85.63c.11-.142.28-.022.297.136.035.37-.233-.09-.296-.135m106.47-23.896c-.17 0-.17-.248 0-.248.173 0 .173.248 0 .248M134.662 42.9c-.17 0-.17-.246 0-.246.172 0 .172.245 0 .245M91.01 23.36c.17 0 .17-.245 0-.245s-.17.245 0 .245m13.73 11.97c-.172 0-.172-.246 0-.246.17 0 .17.247 0 .247M56.683 61.956c.16.066.292-.065.312-.182.023-.15-.155-.308-.312-.353v.535zm96.092 3.073c.083-.087.612-.157.568-.033-.088.255-.24.368-.372.22-.033-.037-.146-.136-.196-.187M115.83 43.573c.13-.153.284-.037.376.22.052.146-.375.01-.567.017-.014-.1.124-.157.19-.237m-51.726 40.34c.124.047.294-.143.315-.217-.21-.162-.85.012-.316.217m-28.1-22.83c-.123.237.253.357.348.176.122-.24-.253-.36-.35-.177m97.43-18.918c.13-.152.284-.036.377.22.05.145-.378.01-.57.016-.013-.1.127-.155.193-.235M67.32 37.65c-.2-.114.093-.466.312-.28.465.4-.27.304-.313.28m60.828 1.605h.3c.06-.22.15-.736-.3-.5v.5zm-34.324 5.28v-.497c.448-.24.36.278.3.498h-.3zM48.694 59.86c.144-.03.422-.045.407.004-.11.355-.548.402-.704.264.073-.067.243-.257.298-.268m50.94-30.286v-.5c.447-.236.358.28.3.5h-.3zM43.06 60.914c.144-.03.42-.044.406.006-.11.356-.55.404-.704.264.073-.065.242-.256.298-.27m-31.064 7.39c.006-.184-.135-.6.136-.534.153.038.382.17.267.345-.083.13-.256.234-.402.188M39.28 99.105c.007-.18-.133-.6.137-.532.154.04.382.17.266.346-.084.126-.255.23-.402.185M99.833 14.44c.005-.182-.135-.6.136-.532.153.037.383.17.268.345-.085.128-.257.233-.404.187m1.31 70.413c-.114.176.115.307.27.346.27.066.13-.352.134-.534-.147-.046-.318.058-.403.187M95.15 34.85c-.15-.13-.034-.29.104-.307.143-.02.31.148.292.29-.018.14-.18.257-.312.108a2.935 2.935 0 0 0-.085-.09m15.664-18.306c-.148-.13-.032-.29.107-.308.142-.018.31.15.29.292-.016.138-.178.257-.31.108a1.2 1.2 0 0 0-.086-.092m-25.24 84.497c.148.048.32-.057.403-.185.115-.176-.113-.306-.266-.346-.27-.067-.13.35-.136.53M74.02 48.587c.07.087.17.138.393.215.15.054.066-.444-.02-.506-.132-.095-.714-.125-.372.292m24.574-8.445c-.017.148.034.628-.017.75a.598.598 0 0 1-.364.328c-.024-.412.2-.75.38-1.077m-39.32 31.304c-.06.096-.06.24.068.27.146.036.558.032.39-.263-.072-.12-.383-.12-.456-.006m22.16 23.776c-.17.18-.42.313-.417.504.004.147.16.24.317.14.255-.155.178-.554.1-.644M17.255 65.305v-.502c.178.006.596-.137.536.135a.487.487 0 0 1-.536.367m49.99-36.082h.528v.528h-.528v-.527zm31.325.252c.154-.112.31-.01.304.103-.012.23-.186.547-.45.552-.018-.234-.07-.497.147-.655m25.122 26.823c.12-.285.5-.104.766-.125-.08.267-.437.423-.687.403-.132-.01-.13-.158-.078-.278m-11.908 2.243c-.246.113-.18.394-.162.604.14.05.334-.05.39-.195.056-.14.057-.537-.228-.41M89.946 18.74c.153-.113.31-.012.303.102-.012.23-.187.548-.45.553-.02-.234-.072-.498.146-.655m14.047 40.276c-.22.15-.53.292-.712.492.444.014.83-.177 1.13-.46-.042-.117-.318-.1-.417-.032M64.957 57.21h.53v-.527h-.53v.527zm47.174 28.163h.53v-.528h-.53v.528zm.627-21.754c-.07.236.344.34.605.25v-.48c-.213-.017-.518-.087-.605.23m13.364-34.394c.126-.285.663-.226.644-.14-.103.438-.438.56-.727.467-.02-.103.037-.22.084-.327m-49.19 67.51c-.24.12-.178.393-.164.555.263.1.693.076.486-.35-.054-.11-.158-.29-.32-.205m30.64-19.055c.08.18.3.346.51.296v-.643c-.28-.107-.695-.085-.51.347m-46.8-5.645c.02.256.325.28.536.15.264-.162-.202-.44-.406-.534-.3-.134-.14.28-.13.385M46.02 64.56c-.138-.022-.148-.5.186-.307.204.118.49.118.613.353.113.22-.147.18-.246.16-.1-.02-.356-.167-.552-.205m71.742-1.365h.137c.288-.15.667-.22.762-.53h-.898v.53zm24.202 14.938c.087-.13.432-.115.485.01.062.145.11.383-.02.42-.164.042-.384.102-.447-.042-.035-.074-.06-.322-.017-.387m-27.552-32.82c-.063.05-.227.22-.25.3-.087.273.424.458.524.246.044-.092.313-.99-.274-.546M70.942 105.79v-.877h.516c.17.398-.227.62-.475.878.014-.014-.024 0-.04 0m14.784-90.115v-.886h.48c.134.36.02.944-.48.885m19.457-7.394c.11-.156.312-.2.482-.167.316.06.24.46.106.626-.206-.064-.43-.15-.676-.106a.458.458 0 0 1 .088-.353m18.908 57.83c-.03 0-.134.153-.156.2-.108.228.1.56.266.49.287-.12.41-.364.287-.68-.034-.087-.247-.03-.398-.01m28.09-3.267c.17-.358.557-.1.756.035.71.477-.406.292-.616.246-.045-.01-.225-.11-.14-.28m-18.835-.366c-.274-.274.074-.417.29-.31.2.098.39.26.46.438.054.13.077.394-.034.434-.19-.287-.502-.35-.716-.562m17.87 5.23c.24-.084.55-.003.69.252a1.11 1.11 0 0 1-.858.344c-.017-.218-.086-.505.166-.595m-12.152-4.07c-.065.046-.285.16-.333.188.016.14-.148.553.143.407.335-.17.864-.252.93-.677-.27.007-.526-.068-.74.082M58.108 76.655c.15-.062.607-.18.517.058-.16.418-.658.57-1.068.567-.038-.327.278-.51.55-.625M113.28 19.36a.164.164 0 0 1 .118-.294c.453.08.506.684.824 1-.063.118-.21.25-.325.085-.19-.27-.356-.564-.618-.79M90.357 98.84c-.214.183-.535.355-.405.673.094.228.333.238.515.178.283-.087.194-.435.145-.63-.03-.12-.15-.31-.255-.22M32.042 52.272c.3-.13.165.33.117.358-.312.18-.57.82-.947.473-.15-.138.12-.408.308-.544.097-.07.41-.24.522-.287m30.27 16.46c-.214.143-.208.45-.09.626.144.214.45.206.626.09.215-.144.208-.45.09-.626-.142-.215-.45-.208-.625-.09m27.815 31.895c.03.12.203.474.27.57.093.135.264.24.425.19-.01-.292.054-.6-.105-.99-.07-.172-.3-.317-.59-.214 0 .067-.02.354 0 .443m13.78-13.997c.128.24.35.633.71.498.233-.085.26-.347.146-.535-.105-.17-.418-.212-.65-.315-.36-.157-.273.23-.207.353M127.62 23.65c-.014-.117 0-.47 0-.59h.858c-.024.253.16.62-.152.806-.178.105-.495.128-.615-.1-.014-.026-.087-.092-.09-.117m-9.242 4.515c.19-.27.678-.256.894-.007.13.15.057.36.066.54-.31.036-.63.206-.89.182-.15-.014-.317-.186-.242-.36.03-.072.127-.29.172-.355m11.89-3.946c.255-.16.72-.174.863.195.093.24-.09.484-.294.545-.268.08-.614.044-.728-.266a.398.398 0 0 1 .16-.475M10.833 54.74c.126-.136.548-.182.608.126.02.09.026.385-.012.443-.12.184-.26.375-.47.47-.35.16-.47-.16-.377-.43.046-.132.167-.516.253-.61m87.22 38.984c.31-.176.718.08.903.295.113.133.092.45-.157.465-.266.018-.648.17-.847-.127-.12-.18-.14-.502.1-.634m.54-53.583c.09-.706.086-1.44.32-1.755.414-.56.623.174.48.356-.32.424-.47.995-.8 1.4m19.518 35.63c-.25.158-.178.48-.11.663.084.226.317.522.643.403.434-.16.278-.7.095-.972-.14-.21-.452-.203-.627-.094M65.19 73.466c-.037.022-.336.304-.384.417-.046.11-.057.52-.023.607.054.138.176.3.353.234.295-.106.44-.406.49-.704.038-.22.174-.89-.435-.554m70.66-26.308c.126-.264.408-.12.538-.133.102.588.023 1.18-.355 1.434-.104.068-.53.07-.38-.23.15-.305.032-.716.2-1.072M64.59 96.095c.178-.36.792-.566.652-.93-.11-.286-.386-.36-.483-.227-.266.355-.866.462-.914 1.018.305-.043.565-.028.745.14m55.828-38.967c-.075.1-.245.178-.194.348.112.373.308.76.687.943.082.043.502.058.56.023.212-.13.654-.408.308-.6-.35-.19-.79.4-1.046.07-.134-.168-.085-.43.006-.623.136-.29-.2-.33-.32-.16M92.692 23.384c.43-.262.336.69.384 1.158.018.192-.12.645-.587.89-.13-.388-.047-1.265-.06-1.734 0-.032.093-.21.262-.315m-29.566 35.42a.6.6 0 0 0-.163.146c-.054.218-.054.504.174.494.49-.02 1.03-.094 1.46-.4.124-.09.23-.26.176-.43-.585-.026-1.124.1-1.647.19m-41.29 6.946c.21-.102.61-.2.8.083.18.268.34.82-.103.962-.34.105-.726-.1-.817-.364-.077-.217-.157-.542.12-.68m38.898-43.3c.333-.135.543.166.727.496.128.23-.282.47-.518.59-.24.12-.615.065-.695-.258-.05-.194-.133-.522.135-.654.07-.036.28-.144.352-.173m92.77 37.496c.412-.16.93-.08 1.38-.088.014.198.074.468-.162.607-.393.233-.965.413-1.25.14-.214-.202-.22-.56.03-.66m-40.933-7.13c-.307.196-.55.64-.65 1.05.514.054.976-.11 1.442-.184v-1.07c-.256.038-.57.06-.793.204M97.485 0c.07 1.208-.08 2.37-.564 3.1-.15-.29-.146-.74-.075-1.037.164-.67.17-1.404.64-2.063M34.712 60.433c-.106.003-.352.328-.375.423-.152.642.518 1.07 1.065 1.105.258.02.18-.416.086-.542-.242-.333-.343-1.002-.777-.985M125.34 29.83c.273-.13.273.276.228.436-.135.467-.607 1.02-1.06.905-.325-.084-.5-.732-.16-.89.115-.054.43.016.505-.02.11-.05.366-.37.486-.43m-17.61 45.64c-.086.21-.147.54.012.623.334.175.67-.138 1.045-.054 0-.15.055-.63 0-.77-.078-.19-.285-.352-.474-.457-.087-.05-.466 0-.584 0 0 .128.048.536 0 .657M77.265 31.824c.16-.148.3.054.308.17.032.502.438.932.444 1.466-.6-.13-1.13-.417-1.444-.83-.058-.076 0-.472 0-.61.275.07.517-.036.692-.196m47.05-.124c.296-.28.488.125.6.204.203.144.387.18.548.35-.225.412-.14 1-.622 1.23-.164.08-.514.07-.474-.055.174-.534.13-1.177-.05-1.73M91.26 105.09c-.04-.235-.097-.466-.07-.74.396.246.546.865.623 1.44.105.763.315 1.52.243 2.466h-.535c.1-1.18-.09-2.172-.26-3.166m7.23-78.527c.062-.144.333-.1.403-.042.56.47 1.024 1.03 1.38 1.685.12.22-.347.004-.52-.016-.6-.076-1.14-.676-1.27-1.25-.017-.07-.027-.3.006-.377m16.567 25.915c-.15.206-.27.442-.47.626.114.36.084.794.276 1.106.2.323.64.148.95.165.064-.256-.082-.485-.202-.71-.173-.33.123-.7.034-1.086-.068-.31-.478-.256-.587-.102m5.315 9.64c-.05-.002-.12.092-.148.106-.308.17-.133.534-.153.795.18 0 .834.096 1.01 0a3.832 3.832 0 0 1 1.788-.52v-.54c-.636.255-1.647.188-2.496.16m-7.825-6.43c.166.246.384.584.266 1.01.38-.02.744-.02 1.118.135.25.104-.028-.485.307-.6.257-.085.587-.28.384-.687-.41.106-1.052.28-1.516-.057-.142-.104-.41-.06-.557.2m23.99 3.8c.792-.136 1.46.26 2.094.764-.542.31-1.436.332-1.862-.05-.18-.163-1.134 0-1.402 0v-.53c.233-.035.938-.14 1.172-.183m-79.06 23.42c-.027-.626.713-.37 1.06-.317.14.02.335.246.378.4.127.472.038.935-.218 1.317-.11.166-.355.253-.425.165-.346-.432-.77-.91-.796-1.566M69.89 16.72c-.094-.312.278-.134.467-.154.45 1.198.94 2.483 1.306 3.834-.422.185-.804-.17-.882-.452l-.89-3.23zm-7.224 53.438c-.187.085-.45.162-.522.455-.068.285.252.663.122 1.038-.065.19-.063.48.21.48.505 0 1.037-.29 1.302-.676.25-.368-.22-.54-.38-.83-.127-.236-.335-.646-.732-.466M31.94 56.323c.102-.507 1-.342 1.414-.307 1.497.124 3.117-.03 4.365.37.288.092.536.442.223.865-.627-.747-2.24-.92-3.232-.72l-2.77-.207zm10.48 9.406c-.343-.747.622-.412.803-.347 1.274.446 2.47.945 4.1 1.802L42.55 66.16c-.19-.042-.3-.305-.13-.43m112.077-3.567c.145-.21.535-.11.75.073.136.115.522.503.556.507.623.066 1.038.616 1.75.447.038.33-.362.778-.842.594-.47-.18-1.238-.68-2.29-.56-.172.017-.39.096-.59.014-.122-.052-.124-.387.023-.46.274-.144.478-.373.644-.615m-29.004-41.338c.51-.2.71.278.945.504.228.216.174.616.115.923-.022.113-.412.526-.525.523-.617-.01-1.156-.223-1.512-.606-.012-.635.493-1.154.977-1.345m3.69 4.7c.06-.056.573 0 .83 0-.37.503-.684 1.14-.842 1.706-.098.35-.508.6-.777.688-.274.09-.705.218-.886-.183-.164-.365.516-.542.295-1.05.364-.472.914-.72 1.38-1.16m-34.21 14.76c.31-.215.224.9.285 1.365.137 1.038-.543 1.678-1.1 2.17-.246.218-.14-.24-.128-.396.016-.256.222-.584.097-.875-.08-.19-.284-.392-.186-.647.234-.603.417-1.185 1.033-1.617m-6.1 2.955c-.18.114-.716.688-.822.903-.07.142-.04.687-.023.86a.8.8 0 0 0 .832.712c.332-.017.738-.24.848-.6.15-.49.07-1.036-.157-1.497-.11-.225-.353-.578-.678-.377m1.777-21.924c.338-.4.064.62.132.728.115.187.71.452.754.587.09.26.05 1.12-.05 1.384-.055.15-.307.345-.16.614.16.296-.085.663-.388.972-.86-.67-1.112-2.615-.534-3.764.035-.07.082-.327.245-.52m47.748 52.097c.54-.07.943.387 1.124.863.115.305.16.675.06.955-.093.25-.385.526-.583.57-.843.186-1.504-.354-1.597-.99-.066-.44.214-.817.46-1.132.06-.08.43-.253.535-.265m-32.27 14.438c-.247.34.078.78.323 1 .693.618 1.287 1.41 2.237 1.774.287.11.637-.04.394-.34-.586-.72-1.062-1.546-1.492-2.236-.282-.455-1.155-.62-1.46-.197m-67.152 3.566c.276-.046.525-.247.822-.26l-.304 2.04c-.607.088-1.15.418-1.65.495-.177.03-.456-.312-.522-.502-.065-.19-.07-.838 0-1.01.07-.173.547-.63.73-.695.27-.1.615-.014.924-.067m-6.754-24.09c.546.052 1.095.585 1.13 1.15.022.335.036.833-.366.957-.427.13-1.033-.135-1.19.45-.142 0-.428.008-.442 0-.652-.338-.998-1.302-.43-1.912.13-.14.463-.18.624.04.23.31.403-.06.28-.26.108-.114.328-.43.394-.424M66.256 15.5c.456-.15.67.395.985.606.147.098.374.125.412.28.08.35.18.882.07 1.035-.306.426-.755.72-1.246.745-.484.025-.955-.442-1.167-.88-.083-.17-.037-.925.036-1.114.145-.384.538-.547.91-.67m-47.11 55.135c.306-.026.777.12 1.14-.065.238.23.542.406.593.568.317.99-.42 1.597-1.197 1.937-.11.05-.54-.06-.906-.206-.184-.076-.41-.262-.465-.454-.075-.257-.038-1.098.036-1.365.08-.292.46-.386.8-.415M74.9 42.595c-.025.066-.016.296.016.35.09.146.516.5.6.653.04.072-.005.378 0 .387.544.786 1.096 1.47 1.78 2.025.134.11.333.286.523.156.287-.196.282-.652.328-1.198.024-.282-.325-.783-.655-1.115-.536-.538-1.14-1.03-1.792-1.377-.244-.13-.674-.192-.798.12M93.7 11.5c.136-.18.648-.03 1.076-.042-.74 2.34-1.197 4.913-1.463 7.635-.015.16-.23.508-.274.608-.183-.14-.313-.335-.267-.6.128-.734.023-1.487.263-2.177.112-.32-.054-.927-.027-1.432.068-1.242.278-2.337.472-3.456.015-.086.09-.36.217-.533m-22.33 9.614c.28-.285.448.18.514.362.655 1.783 1.31 3.514 1.968 5.31.237.643.547 1.305 1.202 1.523.404.694.64 1.513.79 2.354.02.11-.19.342-.376.146-.23-.246-.14-.86-.174-1.236-.07 0-.525.076-.578 0l-1.134-1.56c-.05-.07.086-.58 0-.728l-1.426-2.512c-.218-.41-.025-.99-.233-1.394-.162-.314-.33-.64-.372-1.02-.046-.412-.017-.867-.18-1.246m34.607-.413c.292-.196.697.168.697.414L106.66 23c-.072.523-.572 1.124-1.22 1.033-.96-.138-1.67-.664-1.732-1.677-.02-.32-.164-.945.196-.967a4.343 4.343 0 0 0 2.073-.69m-65.44 77.92c.41-.176 1.006-.317 1.287.22.153.294.218.93.245 1.408-.21.64-.918.867-1.36.48-.114.123-.406.335-.436.47-.11.508.044 1.262-.47 1.332-.453.064-.693.885-1.242.45-.45-.355-.528-1.07-.27-1.46.372-.576 1.04-.992 2.004-.974.08-.536-.135-1.033-.1-1.467.016-.2.22-.405.34-.46m42.686-65.81c.342-.106.764-.13 1.097.118.108.08.217.192.074.328l-2.12 2.107c-.51.65-.1 1.528.162 2.11-.184.245-.524.825-.66.885-.132.058-.557.155-.475-.162.128-.492.796-.763.622-1.102-.22-.428-.543-.93-.91-.835-.584.148-.343.71-.355 1.043a.392.392 0 0 1-.455-.173c-.334-.514-.59-1.116-.79-1.757.322-.618 1.117-.414 1.682-.165.452-.582.947-.97 1.42-1.375.247-.21.3-.897.708-1.024m10.402 3.55c1.147 0 1.877.58 2.282 1.365.242.466-.203 1.06-.47 1.333-.92.94-2.533.4-3.197-.438-.05-.064-.097-.99.032-1.15.374-.476.846-.815 1.352-1.11m28.012 27.1l-1.875.446c-.58.387-1.797.5-2.49.185-.148-.066-.668.09-.793.17-.27.18-.636.464-.46.87.104 0 .487-.057.594 0 .137.076.433.664.517.67 1.265.1 2.466.033 3.45-.247 1.032-.294 2.072-.697 2.65-1.48.147-.2.332-.448.354-.692-.694 0-1.346-.066-1.944.08m-9.165-42.32c.626.034 1.243-.204 1.808.036.556.24 1.3 1.085.75 1.91-.83.312-1.816.88-2.847.937-.493.027-.957.44-1.462.03-.105-.084-.405-.358-.436-.463-.058-.194 0-.845 0-1.115l2.19-1.334zm12.354 15.786c.235-.316.542.204.745.41.157.16.187.443.356.47.817.134 1.286-.645 1.622-1.06.265.612.84.218.985.503.183.354.4.74.628.72.624-.06 1.153.236 1.668.473.364.165.3.773.35 1.156.053.423.5.336.7.38.39.09.794.185.918.58.125.4-.372.788-.438 1.206-.02.137.184.47.164.57-.07.347-.275.673-.336.998.295.215.368.76.648.672.582-.183 1.224-.19 1.564.24.174.22.073.642.08 1.02-.772-.137-1.48-.52-1.864-1.016-.158-.204-.533 0-.743.184-.273.237-.63.376-.952.455-.144.034-.64.073-.752-.026-.488-.435-.662-1.165-1.148-1.805-.09-.12-.124-.467-.09-.73.056-.434.06-.87-.024-1.295.432-.206.202-.627.432-.97-.552-.205-1.297-.096-1.87-.12-.367-.016-.418-.422-.363-.647-.78-.153-1.37-.625-2.122-1.053-.26-.147-.488.5-.822.61-.36.118-.714.285-.91.57-.142-.075-.19-.176-.08-.387.41-.782 1.124-1.393 1.656-2.112M80.19 96.29a62.088 62.088 0 0 0-2.722 7.746c-.1.37.05.763.224 1.123.174.35.58.614.84.966.24.33.71.474 1.12.3.25-.106.537-.356.69-.62a6.63 6.63 0 0 0 .697-1.78c.048-.198-.11-.5-.043-.618.58-1.02 1.056-2.197 1.696-3.062.168-.223.128-1.087.04-1.322-.047-.136-.65-.41-.702-.545-.083-.225.102-1.017 0-1.2-.14-.25-.32-.525-.53-.697-.076-.064-.443.013-.533-.033-.146-.074-.155-.347-.27-.422-.165-.104-.428-.018-.506.163m20.56-67.43c-.014-.096.114-.166.403.053.52.392 1.543.445 2.053.586.872.544 1.233 1.385 1.018 2.225-.068.265.15.606.352.718.195.106.467-.07.566-.245.144-.253-.116-.527-.05-.722.117-.35.176-.7.22-.71.945-.242 1.515-.54 2.03-1.015.115-.104.98-.08 1.12.028.53.417 1.11.836 1.732 1.062 0 .32-.11 1.084 0 1.288.14.257.607.69.307.935l-1.88 1.48c-.924.177-1.857.1-2.753-.087-.373-.077-.523-.482-.58-.833h-.74c.177.406-.2.682-.496.88-.036.025-.356.04-.427 0-.15-.083-.506-.52-.64-.573-.174-.07-.405-.075-.517.06-.112-.497-.35-1.04-.084-1.477.182-.3.515-.793.16-1.202-.223-.26-.66-.04-.788-.445-.125-.4-.04-.954-.36-1.13-.37-.21-.592-.542-.643-.875M.184 53.773c.27-.138.756-.25.99-.078l2.935 2.15c1.653.383 2.745 1.118 4.16 1.49 1.135.298 2.693.033 3.8.47 1.145.453 2.63.408 4.058.713 2.647.567 5.78.68 8.173 1.588.492.187 1.046.355 1.742.255.07-.26-.01-.57-.35-.684-.2-.066-.603.137-.773-.177-.12-.22-.23-.66.082-.815.527-.26 1.15.064 1.84.02.18-.01.55.44.89.44h2.826c.59.16 1.265.313 2.03.348-.016.22-.08.493.163.612.378.183.626-.216.788-.567.166-.36-.612-.595-.67-1.082.424-.08.803-.24 1.198-.153.498.108.067 1.005.572 1.082 1.113.17 1.995 1.01 2.62 1.853.16.21-.035.462-.274.513-.27.06-.627.01-.998.325-.153.13-.178.763.103 1.016.114.104.46.228.264.54-.23.37.505.52.484.95-.257.02-.53.083-.66-.155-.126-.234-.197-.61-.375-.646-.535-.11-1.084-.272-1.684-.232-.607-.55-1.484-.93-2.513-.91-.493.008-1.016-.377-1.536-.373-.144.27-.486.23-.782.204-1.435-.137-2.76.398-3.614.93-1.315-.27-2.697-.285-3.986-.262-.37.007-1.06-.054-1.307-.17-.834-.394-1.56-.782-2.17-1.077-.607-.85-1.476-1.132-2.353-1.45-1.186-.435-2.494-.697-3.994-.81-1.582-.49-3.272-.924-3.975-1.75-1.8-.42-3.316-.734-4.716-1.1-.66-.172-.718-.907-.85-1.344-.808-.5-1.65-.636-2.295-.895-.003-.314-.12-.63.156-.767m91.58-25.612c.138-.08.158-.327.296-.37.092 3.404-.624 5.97-1.57 8.36.057.693-.186 1.303-.04 1.873-.13.64-.177 1.327-.6 1.898-.13.173.118.59.45.73.212.09.808-.125.827.316.03.758-.333 1.378-.345 2.28 0 .023-.266.263-.295.394-.06.27.065.66-.196.92-.232.23-.538.675-.3.89.362.326.587.916.468 1.59.295.4.85.5 1.555.39.19-.03.574-.465 1.005-.26.52.245.264.898.654 1.063.16.068.494.04.56 0 .186-.113.41-.268.472-.46.07-.222-.132-1.108 0-1.217l1.955-1.615c.362-1.12.93-1.852 1.396-2.602.163-.265.336.165.425.252.47.46 1.06.665 1.776 1.088.647-.587 1.665-.968 2.522-1.548.07-.05.523-.176.38.114-.26.52-.584 1.052-.75 1.64.233.166.365.39.3.65-.09.355-.286.687-.275 1.115.986-.23 1.66-.807 2.304-1.377.23-.202 1.12-.748 1.66-.768.412-.015.98-.274 1.32-.554.125-.104.72.088.832-.025.572-.58.827-1.576 1.223-2.357.826.1 1.766.108 2.533.276v.527c-.382.048-.765.164-1.152.176-.33.014-.695-.255-1.056-.12-.41.154-.304.84-.17 1.492.05.237.765.282.695.65-.095.503-.606 1.117-.425 1.955.46.543 1.29.435 2.045.235.2-.053.805-.292.943-.43l1.278-1.278c.28-.277.57.52 1.112.62.108.315.192 1.204.613 1.034.588-.24 1.16-.866 1.51-1.43 1.228-.315 1.532-1.3 2.127-2.18.576-.853 1.246-1.756 2.424-1.974.304-.055.292.19.228.37h-.644c.05 1.075-.588 1.64-1.008 2.27-.42.323-.594.935-.685 1.513-.193 0-.56-.03-.578 0-.383.605-1.034.878-1.48 1.37-.25.273-.68.373-1.07.293-.128.205-.286.4-.273.603.023.343.242.606.51.81-.44.648-.906 1.275-1.247 1.955-.056.11 0 .418 0 .518.374.085.683-.175 1.07-.107-.137.137-.566.478-.64.638-.097.212.293.46.49.314.64-.483 1.288-.937 2.08-1.287.31-.136.938-.165.94-.685.004-.275.43-.386.604-.2.322.34-.384.543-.364.97.16 0 .528-.036.63 0 .095.034.323.318.454.346.27.06.655-.06.955.25.154.16.654.365.466.696-.105.185-.266.382-.456.47-.095.044-.448-.03-.518.008-1.035.556-2.253.91-3.173 1.544l.206 1.63c-.15.067-.645.218-.7.307-.183.296.13.504.267.714-.22.314-.592.32-.92.356.003.283.25.563.155.675-.375.444.31.476.446.526.985.365 1.754-.2 2.253-.727.6-.29.944-.965 1.704-1.162.133-.034.28.02.487-.142.606-.475 1.186-.956 1.655-1.546.786-.174 1.292-.715 1.83-.987.472-.24.886.145 1.197.405-.27.437-.912.067-.988.33-.153.518-.73.79-.96 1.028-.45.468-1.236.693-1.7.912-.523.86-1.205 1.258-1.61 1.82-.145.2-.045.453.146.553.383.198.693-.45.878-.04.202.45-.584.07-.695.754-.02.132-.142.53.156.7.228.13.538.156.647.237l2.466 1.92c.333.268.97-.342 1.314-.26.837.198 1.608.39 2.597.24 1.358-.2 2.493-.837 3.454-1.41.335.245.677.453.46.784-.136.207-.376.41-.5.7-.63-.244-1.223.035-1.737.222-.866.314-1.728.713-2.805.917-.12.022-.32-.62-.515-.53-.78.36-1.773.485-2.565.89-.27.14-.215.67-.11.63.717-.287 1.406-.57 2.226-.575.008.406-.41.72-.737.795-.246.055-.56.303-.402.628.108.224.244.476.105.736-.096.178-.642.338-.522.464.39.41.87.73 1.13 1.243.074-.17.147-.45.343-.47 1.17-.114 2.31-.245 3.594-.204l2.406-.74c.2-.05.418-.43.765-.307v-.744c.615-.046 1.088.39 1.545.5.48-.466.996-.886 1.726-.997.082-.014.41.163.514.145.402-.07 1.028-.13 1.178-.384.28-.475.756-.916 1.2-1.29.084-.07-.134-.543.217-.403.11.046.368.3.47-.015.03-.087.178-.352.162-.425a2.004 2.004 0 0 0-.314-.72c-.504.1-.932-.16-1.436-.105.03-.127.19-.292.334-.317a13.42 13.42 0 0 0 2.13-.54c.276-.095 1.288.108 1.442-.035.53-.492 1.48-.808 2.334-.492l4.61-.9c.406-.077.396.524.196.638-.31.178-.904.453-.714.957.097.255.38.178.595.173.82-.02 1.447-.42 2.123-.582.188-.043.444-.052.518.218.016.055.003.342-.022.426-.18.648-.912.314-1.186.335-1.614.12-3.303.485-4.755.26-.34-.055-1.065.533-1.31.586-.236.054-.98.02-.903-.004-1.078.313-1.596.873-1.93 1.595-.178.383.237.57.547.855.047.043.434.12.278.42-.157.303-.792-.086-.926.373-.038.133.032.447-.01.513-.388.606-1.178.793-2.103.566-.21-.05-.464-.19-.688-.06-.998.573-2.2 1.177-2.765 2.044-.238.364-.85.7-1.358.733-.567.035-1.107.07-1.676.195-.472-.114-1.04-.253-1.773-.047-.956-.2-1.918.31-2.153 1.076-.89.274-1.88.284-2.61.583-.453.448-.545 1.12-.853 1.686-1.17.327-2.227.663-3.193 1.177-.092.048-.297.307-.304.335-.494 1.875-.85 3.817-.82 5.962-.364 1.11-1.563 2.156-2.925 1.525a5.85 5.85 0 0 0-1.887.614c-.505.265-.954.59-1.214.97-.454.668-1.3.976-1.83 1.435-.028.693-.15 1.255-.198 1.78-.01.1.352.345.372.438.05.223-.048.95 0 1.172.022.095.275.33.27.31.273.87-.172 1.666-.86 1.725-.372.034-.746.17-1.122.16-.41-.006-.708-.572-1.026-.366-.35.227-.793.35-.958.647-.075.135-.02.58.023.644.17.257.386.69.738.517.235-.114.894-.614 1.16-.645.45-.052.975.136 1.42.39.238.134.176.405.154.674-.594-.084-1.276-.526-1.938-.19-.58.293-1.077.71-1.486 1.17-.13.148-.347.503-.57.725a5.002 5.002 0 0 1-1.406-.67 4.495 4.495 0 0 1-1.315-1.43c-.47.08-.71-.304-.96-.514-1.128-.936-2.02-2.057-3.064-3.087-.372-.367-.92-.29-1.296-.17-.59-.587-1.44-.21-1.716.09-.438-.102-.772-.315-1.054-.222-.193.066-.607.62-.81.69-.293.104-.747-.1-.99.194-.142.17-.148.5.186.654.312-.232.89-.244 1.335-.064.115-.195.32-.703.444-.76.266-.123 1.228-.195 1.482-.143.184.04.502.285.26.658-.31.472-.79 1.337-.375 2.315-.438.498-1.118.6-1.98.458-.59-.455-.965-1.255-1.573-1.996-.615.16-.33 1.494-.356 2.056-.192 0-.69-.06-.784 0-.437.278-.702.798-.7 1.466 0 .98-.473 1.63-.843 2.18-.163.245.087 1.224-.028 1.3-.65.437-.834 1.28-1.28 1.878-.173.234-.886-.108-.986.13-.344.812-.944 1.37-1.067 2.192-.038.258.096 1.068.016 1.3-.06.172-.564.584-.767.795-.88-.227-1.642-.74-2.22-1.344-.523-.542-.288.543-.34.757-.134.558-.558 1.005-1.208 1.138-.183-.674.18-1.59-.1-2.09-.15-.26-.47-.002-.47.124v1.685c0 .14.297.26.36.49-.55.155-.635.788-.68 1.313.28.15-.018.172-.26.15-.16-1.01-.96-1.9-2.284-1.608-.08.02-.302.07-.5-.025-.184-.09-.18-.46-.455-.55-.182-.056-.502-.04-.68.54-.356 1.153-.744 2.81-1.59 4.01-.206.293-.576.54-.95.43-.47-.14-1.052-.047-1.406-.272-.443-.282-.85-.778-.75-1.42.022-.134-.27-.495-.46-.37-.228.155-.456.286-.73.217 0-.205.102-.92 0-1.145-.14-.3-.658-.344-.935-.762-.415.177-.943.583-1.603.55-.272-.012-.48.615-.96.542-.15-.024-.337.168-.64.124.257-.913.993-1.425 1.434-2.18.154-.263.947-.64.85-.974-.186-.627-.19-1.507-.242-2.36-.02-.342.212-.707.12-1.055-.123-.46-.708-.327-1.114-.467-.55.51-.876 1.26-1.244 1.95-.226-.055-.376-.17-.42-.32-.053-.17.084-.833 0-.982a1.96 1.96 0 0 0-.86-.788c-.2-.09-.457.157-.737.16-.23-.5.5-.63.322-.955a1.058 1.058 0 0 0-.67-.553c-.24-.07-.418.2-.52.393-.062.113-.054.658 0 .802.05.138.44.463.474.555.11.308.065.67-.253.763-.272.08-.7.04-.73-.313-.05-.575-.578-1.244-1.248-1.296-.17.43-.895.75-1.164.234-.405.078-.83-.265-1.072-.072-.52.42-.85.92-1.262 1.34-.25.255-.6-.09-.477-.12-1.193.277-2.454.202-2.82.95a6.798 6.798 0 0 0-1.234 1.89c-.207.483-.68.87-1.166 1.11-.225.11-.123-.366-.118-.4.108-.957.814-1.408 1.122-2.063.79-1.674 2.06-2.997 3.386-4.18.22-.197.46-.387.544-.748.1-.434.467-.792.66-1.23.182 0 .71.056.797 0 .643-.41 1.126-.98 1.68-1.376.17-.12.194-.77.01-.882-.552-.335-1.004-.692-1.53-.56v-.718c-.386-.016-.85.124-1.206-.155.12-.487-.246-1.002-.747-1.164-.444-.14-.613.52-1.09.265-.118-.062-.29-.165-.205-.33.204-.395.75-.735.62-1.09-.284-.792-.853-1.264-1.41-1.76-.58.018-1.248.15-1.668-.235.214-.834 1.014-1.226 1.608-1.536.187-.098.53-.476.576-.608.058-.156-.105-.77 0-.938l2.465-3.915c.194-.304 0-1.132 0-1.368h-.89c.12-.416.604-.37.92-.32.105-.2.29-.35.213-.666-.747-.05-1.512-.436-1.794-1.055.59-.06.574-.77.417-1.264-.03-.094-.19-.33-.383-.39-.22-.07-.953-.017-1.145.02-.273.05-.235.31-.25.493-.043.457.4.717.754.913-.767-.082-1.318.185-1.61.585-.16.22-.143-.4-.168-.47-.23-.65-.074-1.217.013-1.69-.507-.247-.114-1.007-.32-1.12-2.404-1.31-4.944-2.614-8.528-2.815-.726-.845-1.766-1.46-2.866-2.06 2.55.625 4.792 1.733 7.55 2.218.176.557.808.64 1.115.822.55.325 1.107.28 1.68.338.272.027.28-.548.13-.67-.374-.307-.78-.652-1.033-1.217-.076-.17.39-.713.827-.615 1.232.283 2.745.244 3.784.58 0-.005-.047-.382 0-.47.106-.19.28-.37.49-.46.315-.14.774-.07.933-.315.237-.364-.12-.746-.394-.73-1.058.07-2.105.156-3.394.108-.144-.007-.36-.273-.623-.203-.61.16-1.26-.11-1.872-.16-.4-.034-.91-.22-1.124-.55-.072-.11 0-.51 0-.636.997.067 1.95.19 2.868.402.166-.232.39-.363.65-.3.402.095.746.374 1.122.443.118.02.458-.19.533-.166.71.2 1.415.444 2.012.73.134-.383-.096-.63-.353-.83.277-.106.495-.446.67-.446h1.65v-.555c-.293.102-.495-.055-.64-.308-.183-.325.165-.607.005-.895-.08-.144-.376-.127-.564.014.203.406.03.832-.664.902-.24.027-.668-.708-1.13-.683-1.457.08-2.882-.058-4.2-.358-.202-.045-.6.23-.845.09-.478-.267-1.078-.424-1.762-.47-.885-.064-1.87.023-2.537-.196a.563.563 0 0 1-.358-.36c.326 0 1.252.056 1.562 0 .245-.042.48-.294.683-.252.294.06.717.205.82-.09.05-.145.1-.358-.048-.45-.238-.145-.612-.193-.64-.443-.036-.322.4-.354.606-.392.66-.123.316-.607.333-1.03.307.002.522.183.754.29-.126.13-.307.235-.352.422.284.165.487.654.63.543.634-.498 1.302-.313 1.95-.332.45-.013 1.034.317 1.252.113.48-.45 1.035-.68 1.39-1.14.142-.184.22-.837-.192-.91l-1.91-.197c-.13-.014-.29-.207-.34-.403l4.49-.254c.345-.687 1.046-.9 1.504-1.458.745.077 1.385-.584 1.515-1.24.067-.335-.196-.512-.367-.595-.194-.095-.29-.285-.234-.47.32-.034.766.323.912.168.407-.432.715-.94 1.212-1.27.23-.152.515-.367.838-.257.312.106.764.375 1.096.08.4-.354 1.03-.182 1.55-.63-.44-.86-.77-1.883-.384-3.183.385-.304.514-1.116-.105-2.012-.084-.124-.494-.468-.73-.995-.066-.152-.03-.964.026-1.21a9.198 9.198 0 0 1 .993-2.557c.09-1.043.048-2.05-.19-2.738.358-.044.747.256.857.083.302-.474.757-.817.952-1.41.098-.296-.14-.802.197-1.04.19-.132.582-.075.66-.422.045-.2-.126-.463-.044-.695.093-.268.384-.2.65-.178-.115 1.086-.39 2.01-.58 2.843-.656.59-.746 1.416-1.24 2.203-.116.184.185.64.524.985.54-.165.934-.79 1.434-1.205.506.36 1.33.278 1.95.643.376.22.458.68.762.8.452.178.826-.313 1.205-.32.22-.004.87.308 1.03.497.3.355.705.794 1.41.954.625-.624 1.03-1.695.93-3.046.56.596.855 1.326 1.044 1.966.216.73.523 1.445.55 2.42.007.33.856.42 1.286.742.13.1 1.04.124 1.195-.04.534-.563.868-1.44 1.652-1.81 0-.12-.04-.425 0-.496.1-.176.64-.584.704-.762.077-.22-.027-.993.026-1.192.095-.357.364-.63.504-.918.186-.383.172-.91.136-1.278-.03-.32-.355-.44-.605-.352-.218.076-.335.372-.59.362 0-.144.045-.516 0-.614-.06-.136-.526-.468-.526-.585v-1.91c0-.147.932-.64 1.21-.79.043-.022.358.03.433-.026.36-.26.865-.563 1.025-.878.538-1.06.926-2.235.838-3.868-.354-.008-.518.43-.78.55-.19.085-.867.065-1.004-.023-.55-.35-.803-1.077-.59-2.047.05-.234.49-.745.77-.704.817.12 1.494.595 1.95 1.26.192-.583.59-.914.952-1.133" fill="#00c8b4"/></svg>