<svg xmlns="http://www.w3.org/2000/svg" xmlns:xlink="http://www.w3.org/1999/xlink" height="600" width="500"><defs><linearGradient id="a"><stop offset="0" stop-color="#5846d7"/></linearGradient><linearGradient xlink:href="#a" id="b" x1="146.842" y1="387.592" x2="381.122" y2="387.592" gradientUnits="userSpaceOnUse"/><linearGradient xlink:href="#a" id="c" gradientUnits="userSpaceOnUse" x1="146.842" y1="387.592" x2="381.122" y2="387.592"/><linearGradient xlink:href="#a" id="d" gradientUnits="userSpaceOnUse" x1="146.842" y1="387.592" x2="381.122" y2="387.592"/><linearGradient xlink:href="#a" id="e" gradientUnits="userSpaceOnUse" x1="146.842" y1="387.592" x2="381.122" y2="387.592"/></defs><path d="M281.182 368.626c-4.54.727-9.06 1.632-13.65 2.03-6.996.62-14.176.57-21.216.296-4.846-.22-9.698-.71-14.492-1.642-1.044-.12-1.294 1.03-1.26 1.84-.255 2.28-1.14 4.297-1.688 6.495.086 1.2 1.243 1.94 1.994 2.76 4.34 3.973 10.027 5.885 15.374 8.075 6.138 2.4 12.434 4.9 17.467 9.28.75.71 1.698.05 2.276-.532a85.536 85.536 0 0 0 14.617-15.848c.743-1.167 1.787-2.184 2.282-3.48-.175-2.833-.208-5.686-.49-8.506-.16-.508-.697-.81-1.213-.768z" fill="#faaeda" stroke="red" stroke-width=".125"/><g fill="url(#b)" transform="translate(0 100)"><path d="M302.744 265.18c-4.608.556-9.377 1.23-13.73 2.673-7.22 10.44-14.055 21.71-24.365 29.413-2.326-.874-4.182-3.226-6.607-4.207-8.88-5.18-19.69-6.87-27.447-13.927-2.538-2.184-2.875-5.807-4.737-8.32-3.97.718-7.514 3.367-11.26 4.914-17.44 8.34-33.066 19.87-48.98 30.722-7.114 4.913-14.68 10.657-16.968 19.47-1.852 8.467.51 17.144-.025 25.69-.865 18.794-3.398 37.97-.254 56.73 3.715 18.375 4.132 37.852 12.41 55.015 2.452 4.806 5.215 9.672 9.467 13.122-3.052-.436-1.29 4.28-1.908 6.265-.216 6.78-2.23 13.476-1.785 20.258 1.95 2.01 5.747.674 8.412 1.363 59.547 3.55 119.503 9.33 179.032 2.377 4.232-.72 8.756-.792 12.758-2.21-.556-7.717-2.18-15.565-2.668-23.292-.9-.936 2.114-1.912 2.61-3.33 4.358-7.07 3.45-15.897 4.464-23.79.627-8.192 3.503-16.11 4.115-24.358 2.26-21.14 2.23-42.44 5.46-63.457 1.85-12.693-3.294-25.227-9.63-35.948-5.042-8.298-11.152-16.674-11.32-26.753-.264-7.56-6.747-12.534-12.515-16.33-13.952-8.792-29.408-15.02-44.185-22.086a3.623 3.623 0 0 0-.346-.006z" fill="url(#c)"/><path d="M287.846 267.548c-1.934.335-3.948.487-5.812 1.052-1.01.706-.166 2.108-.314 3.14.206 1.727-.086 3.55.44 5.207 1.128 1 1.978-.57 2.472-1.427 1.412-2.198 2.908-4.347 4.246-6.59.21-.722-.277-1.39-1.032-1.382z" fill="url(#d)"/><path d="M227.005 270.416c-1.348.177-1 1.718-.645 2.592.55 1.465.925 3.183 2.106 4.273 1.245.605 1.732-.946 1.967-1.848.24-1.204 1.13-2.514.547-3.72-.967-.998-2.528-1.005-3.815-1.295l-.13-.002h-.03z" fill="url(#e)"/></g><path d="M231 390.072c-3.292.438-5.488 3.42-7.22 5.98-.653 1.556-.15-.22-.155-.864.244-2.02-1.976-3.96-3.887-2.86-3.582 2.014-5.633 5.83-7.79 9.177-1.98 3.297-3.788 7.03-5.325 10.352-.354-2.402-3.506-2.687-5.2-1.504-3.438 2.117-5.05 6.086-6.89 9.5-1.623 3.302-3.018 6.87-2.672 10.625.064 3.904 2.566 7.216 4.545 10.4 3.275 5.028 7.533 9.74 8.98 15.7-.176 3.386-2.644 6.107-3.89 9.144-.042 1.662 2.14 1.884 3.257 2.574 5.937 2.46 12.445 3.393 18.847 3.26 3.82-.062 7.68.133 11.478-.303 1.718-.907 1.225-3.202 1.836-4.76.457-2.186 1.592-4.255 3.614-5.357 4.775-3.57 8.962-8.88 8.884-15.114.214-3.94-1.022-7.72-1.48-11.584-.777-7.963 2.965-15.68 2.286-23.74-.286-2.088-1.84-4.753-4.25-4.488-1.792.468-2.926 2.48-3.764 3.75.652-4.546 1.734-9.21.98-13.806-.53-2.616-3.66-4.758-6.126-3.127-1.535.9-2.538 2.568-3.195 4.103.413-2.282.738-5.37-1.57-6.777a2.616 2.616 0 0 0-1.294-.28z" fill="#faaeda"/><path d="M201.052 460.16c-4.772.11-6.896 5.22-8.34 9.01-2.738 7.596-4.444 15.504-6.675 23.227.35 2.552 3.625 2.933 5.478 4.024 7.657 3.132 15.76 5.458 24.024 6.14 7.13.382 14.414-.132 21.09-2.87 1.81-.7 4.238-1.396 4.004-3.834 1.466-8.303 3.986-16.767 2.67-25.253-.528-2.49-2.98-5.39-5.746-4.64-1.185.824-.96 2.615-1.058 3.902.687.905-1.162.776-1.72 1.303-6.627.774-13.39.565-20.017-.165-4.21-.95-8.79-1.548-12.375-4.11-.575-.595-2.023-1.108-.725-1.685.61-1.38 2.433-3.568.786-4.81-.43-.214-.926-.246-1.398-.238z" fill="#c83153"/><g fill="none" stroke-linecap="round" stroke-linejoin="round"><path d="M226.21 370.127c1.04.91 3.7 1.32 4.484 1.452" stroke="#000"/><path d="M229.306 377.484c1.113-3.43 1.807-4.806 1.807-8.21M282.437 377.944l-.462-9.075" stroke="red"/><path d="M236.607 499.464c-1.954 11.724 3.443 32.044-.714 46.965-4.037 21.723-4.736 45.667-33.75 45.89-11.443 1.662-17.58-7.796-26.904-13.094a27.735 27.735 0 0 0-4.526-2.083c-16.743-16.743-17.556-42.47-21.25-65.18-6.482-24.56 2.007-52.64-1.43-78.027-.575-6.823 2.5-16.693 12.323-23.58 13.453-9.43 27.994-19.58 41.786-27.856 6.992-4.195 16.43-8.44 24.092-12.095 2.133 17.084 25.36 15.442 38.23 27.452 11.764-9.243 17.67-19.42 24.862-30.21" stroke="#000"/><path d="M180.357 551.43c.28-11.94-9.01-22.063.893-32.5 1.892-9.16 3.507-16.822 5.768-24.734M171.43 554.643c1.41-7.706-.047-20.134 5.177-25.357M236.774 466.07c12.265-1.75 4.495 22.34 3.226 31.787-17.512 8.756-37.19 3.693-54.286-4.286 4.153-8.36 6.15-39.77 17.958-32.39" stroke="#000"/><path d="M201.47 465.377c.837-2.594 4.974-6.388 4.244-9.306-2.23-8.918-11.194-15.133-13.57-24.64-1.163-4.65 3.822-14.807 7.34-19.134 2.794-3.436 8.4-3.082 6.504 1.885" stroke="red"/><path d="M202.5 434.643c-1.373-3.54-.105-10.395 1.79-15.843 4.97-14.274 15.936-32.573 18.924-24.514.313.842-.684 5.08-.922 6.085M233.214 399.643c3.467-10.313 9.52-7.43 9.95-1.86.375 4.855-2.01 14.87-3.143 22.804-.75 5.245-.312 9.58-.46 10.914" stroke="red"/><path d="M236.225 469.94c-.067-3.735 1.017-7.27 2.868-8.282 2.8-1.53 4.966-4.024 6.554-6.02 4.14-5.21 4.354-11.436 1.674-21.174-.9-8.886 6.938-25.504-.654-28.034-1.296.122-2.393.864-2.387 1.404-2.887 2.886-3.14 6.005-3.566 10.023" stroke="red"/><path d="M198.93 464.286c10.287 9.345 34.203 7.17 39.64 6.07M307.12 569.473c2.086 33.156 44.536 20.702 58.594 9.456 5.54-6.21 4.17-18.965 5.556-29.462 7.38-26.772 3.7-47.71 9.444-84.468.535-8.21-.365-14.423-3.75-22.143-4.213-13.943-18.06-24.848-17.32-39.643l-.715-3.57c-3.832-13.41-44.016-27.632-56.787-34.823" stroke="#000"/><path d="M363.75 580.223c.263 6.98 2.06 17.94 3.036 24.42-62.76 10.102-134.275 2.823-200-1.072-.99-6.566 3.493-20.207 1.607-28.75" stroke="#000"/><path d="M218.067 418.678c.187-7.508 2.592-15.65 6.455-23.267 5.08-6.76 9.22-6.25 9.308-1.015-1.057 10.862-4.525 20.823-4.525 31.48" stroke="red"/></g><path d="M350.135 394.428c-2.458.196-3.586 2.854-4.57 4.77-2.856 6.998-2.446 14.738-2.96 22.14-.294 5.126-.2 10.368-1.646 15.34-.272-6.665-1.256-13.298-1.568-19.88-.2-4.29-.188-8.637.53-12.913.022-3.1-3.85-5.796-6.55-3.76-2.485 1.75-2.432 5.137-3.317 7.763-2.493 9.28-1.688 18.974-2.148 28.437-2.22-4.83-3.04-9.96-3.093-15.173-.28-2.65.28-5.533-.86-8.017-.55-1.334-2.286-1.925-3.337-.807-2.657 1.93-2.26 5.56-2.645 8.436-.643 9.807-.49 19.78 2.04 29.337 1.69 7.083 4.63 13.804 8.272 20.088-1.122 1.625-.888 3.857-1.43 5.713-2.647 14.758-5.562 29.46-9.08 44.037-.69 1.195.413 2.457 1.69 2.31 9.88.5 19.472-2.6 28.71-5.73 2.424-.997 5.116-1.677 7.204-3.25 1.17-12.188 3.21-24.274 4.625-36.483 5.528-3.713 10-9.048 12.295-15.334 2.097-4.845 3.19-10.02 5.768-14.614 2.12-3.284 5.975-5.607 6.74-9.65.04-2.07-.23-4.645-1.994-5.993-1.9-.78-3.933.494-5.71 1.117-5.262 2.2-8.707 7.314-11.177 12.094 3.04-10.21 4.502-20.89 9.268-30.455 1.373-2.924 1.286-6.716-.598-9.398-1.292-1.925-4.003-1.346-5.432.09-4.705 3.852-6.24 10.044-8.514 15.41-2.218 5.628-4.113 11.42-7.012 16.75.417-10.12 3.194-20.06 3.422-30.25-.024-3.667.1-8.168-3.078-10.674-1.124-.775-2.452-1.443-3.847-1.45z" fill="#faaeda"/><path d="M355.85 504.815c-.9 1.026-.494 2.585-.794 3.85-.108 1.378-.396 2.947-.153 4.208-8.102 3.734-16.81 6.367-25.564 8.006-3.64.67-7.4.805-11.113.315a104.23 104.23 0 0 0 1.937-8.264c-.122-1.382-1.687-1.062-2.495-.532-4.28 1.902-8.57 4.67-10.508 9.124-1.504 3.272-1.182 7.025-.652 10.484 1.09 4.737-.21 9.517-1.036 14.17-1.058 5.082-2.273 10.225-2.094 15.467.01 2.448.316 5.018 1.424 7.206 1.5.685 3.29.793 4.93 1.135 3.268.354 6.613.208 9.85-.356 4.82-.973 9.13-3.46 13.67-5.15 5.21-1.657 10.792-1.913 16.192-1.25 2.41.445 5.026 1.68 7.41.426 3.708-1.9 6.74-5.163 8.42-8.972.667-2.496.402-5.14.6-7.697.127-8.115.202-16.252-.4-24.35-.3-3.856-.923-7.68-1.365-11.514.164-1.607.193-3.515-1.29-4.566-1.873-1.447-4.4-1.826-6.685-1.807l-.172.04-.114.025z" fill="#c83153"/><g fill="none" stroke-linecap="round" stroke-linejoin="round"><path d="M328.93 470.357c-10.38-16.437-12.715-36.272-9.864-55.505 2.074-4.012 4.848-3.89 5.326 1.346-.35 8.944.533 15.08 3.822 21.66M340.893 438.036c4.262-10.044-.647-34.587 7.59-42.68 1.93-1.474 3.24-.15 4.73.358 7.986 4.323 0 29.013 0 41.786M353.4 437.987c5.348-8.55 9.8-27.81 14.725-31.916 5.623-6.203 8.843.844 7.232 6.787-5.757 11.025-6.287 20.112-10 32.143-.613 2.342-1.926 6.512-2.32 6.875" stroke="red"/><path d="M319.91 511.964c-11.192 4.102-15.64 10.303-12.493 22.215.278 11.3-6.487 23.538-2.417 34.39 12.507 3.498 20.336-1.127 26.107-3.732 4.224-1.907 14.213-3.753 21.808-1.162 4.567 1.558 11.434-6.143 12.264-9.926.714-13.497.888-28.868-1.61-42.68 1.87-5.94-6.908-5.98-7.588-5.98" stroke="#000"/><path d="M355.09 513.125c.753-11.297 3.322-24.868 4.553-36.518 11.73-7.788 12.45-16.66 17.143-28.393 2.07-5.175 9.082-7.253 7.5-13.57-.71-3.055-1.417-3.016-2.125-3.407-11.148 1.303-16.727 12.814-20.017 24.12M317.857 521.16c4.018-16.393 7.627-34.423 10.357-50.803" stroke="red"/><path d="M313.93 519.643c7.778 7.66 42.35-5.796 44.284-8.214" stroke="#000"/><path d="M328.17 437.792c0-1.2.445-2.13.423-3.597-.964-10.418.58-23.143 2.836-29.91.707-6.015 7.406-6.002 8.213-.356-2.35 9.367.714 22.774.803 30 .045 1.447-.015 3.433.268 4.284" stroke="red"/></g><path d="M231.626 189.886c-2.02 1.01-1.84 3.697-2.41 5.587-.793 3.375-.76 6.908.35 10.21 1.57 6.1 3.975 12.066 4.19 18.39-.194 1.942-.157 4.42-1.775 5.75-2.73-.956-4.422-3.628-6.122-5.825-2.46-3.418-4.2-7.29-6.03-11.044-1.274-1.56-3.866-.297-3.712 1.63-.585 5.89-.74 11.77-2.662 17.443-.196.642-.913 1.16-1.328.303-2.728-3.617-3.608-8.127-4.763-12.448-1.184-4.61-1.68-9.375-2.808-13.988-.826-1.88-3.827-1.247-3.924.767-.894 7.61.605 15.64-2.313 22.926-.627 1.257-1.31 2.892-2.697 3.39-1.987-2.387-2.092-5.735-2.75-8.664-.588-2.735-.6-5.626-1.456-8.27-.867-1.74-3.525-.942-3.803.853-5.324 12.556-6.507 26.277-8.147 39.668-.407 2.437-.684 5.993-3.5 6.787-1.786-.553-1.948-3.523-4.183-3.21-2.46.78-1.46 3.72-1.896 5.67-.072 2.222-1.8 3.67-2.963 5.352-2.345 4.613-1.135 10.046.06 14.815 1.266 4.407 2.072 8.98 1.632 13.58-.092 7.112 1.874 14.053 3.605 20.89 1.957 6.815 4.465 12.57 9.29 17.986 9.644 11.36 21.58 20.337 35.08 26.55 4.59 2.047 9.913 4.183 14.85 5.01 4.827 1.31 10.52 1.347 15.485 1.77 9.743.414 18.942.1 28.597-1.353 8.853-1.63 17.693-2.734 26.453-4.856 1.872-.678 5.715-1.566 7.615-2.3 12.357-3.482 21.703-9.52 29.68-19.783 4.63-5.817 7.258-11.923 9.908-18.84 1.85-7.397.934-14.202-1.308-21.28-.494-1.437-1.248-2.867-.406-4.332 3.364-11.75 6.09-23.802 6.226-36.07-.056-3.076.41-6.22-.008-9.25-.338-1.396-1.898-1.192-2.96-1.425-2.612-2.852-1.925-7.028-2.04-10.566-.104-1.842-2.113-2.245-3.577-1.755-1.485.126-3.425-.28-3.587-2.087-1.202-3.958-.297-8.604-2.863-12.08-1.228-1.577-3.75-.63-3.992 1.24-.528 2.435-1.38 5.192-3.57 6.597-2.056.105-2.926-2.266-3.737-3.778-.85-1.656-.657-4.56-3.034-4.866-1.732-.124-2.426 1.688-2.346 3.12-.52 2.82-1.78 5.893-4.576 7.114-2.833-1.21-2.78-4.807-3.35-7.38-.69-4.896-1.152-10.076-3.713-14.4-1.328-1.577-3.835.055-3.442 1.952-.258 1.844.17 4.28-1.365 5.638-1.902.43-3.17-1.692-4.123-3.033-1.037-1.43-1.386-4.124-3.602-3.86-2.167.526-1.76 3.33-3.113 4.742-.94 1.838-3.28.812-4.396-.268-1.185-1.528-3.912-.99-3.938 1.087-.32 1.43.097 3.48-1.17 4.5-3.828.588-7.66-1.676-9.592-4.95-3.417-5.207-4.598-11.48-7.52-16.923-1.22-1.797-4.228-.34-3.653 1.724.744 4.066 1.488 8.158 1.227 12.313-.037 1.05-.298 2.748-1.483 3.052-1.69.018-2.504-1.964-3.602-2.953-1.384-1.26-1.773-3.984-3.928-4.133-1.87-.13-2.578 2.19-1.677 3.572 3.012 7.017 6.905 13.71 9.463 20.863.625 2.262.79 5.738-1.983 6.604-3.44.918-6.223-1.952-8.237-4.326-6.187-7.826-10.167-17.03-13.658-26.262-2.68-7.16-4.64-14.455-6.432-21.9-.467-.886-1.54-1.277-2.484-.986zm-1.966 179.6c-.026-.01-.065-.18 0 0z" fill="#fac7e6"/><g fill="#f0f"><path d="M302.144 108.722c-21.51 1.59-41.705 9.793-62.258 15.668-6.848 2.2-13.365 5.275-19.784 8.49.764-3.412 4.91-6.457 3.22-10.127-3.013-3.538-8.042-.764-11.412.688-20.168 9.76-39.612 21.29-57.127 35.306-3.405 3.293-7.35 6.107-12.128 6.9-12.713 3.293-25.124 12.086-28.53 25.35-1.87 5.602.01 12.027-3.537 17.114-5.284 9.535-13.28 17.498-17.395 27.673-.83 2.41-.8 6.263 1.45 7.533-2.86 5-6.82 10.045-7.01 16.01.645 3.44 5.077 2.21 7.36 1.455 4.806-1.547 6.988-6.547 10.035-10.127-1.166 5.074.316 10.49-1.55 15.35-4.587 7.644-11.824 13.927-14.358 22.68-.697 1.746.532 3.752 2.542 3.15 5.206-.782 7.915-6.718 12.163-8.71-2.805 6.945-2.227 14.79-1.364 22.077.53 2.184.888 6.66 4.028 6.224 1.905-.934 3.463-2.885 4.092-4.783.012 6.996-.585 14.72 3.136 20.962 1.107 2.34 4.1 1.885 5.334-.07 1.907-2.723 1.975-6.233 2.23-9.427.565 8.806 2.225 19.255 10.45 24.254 1.638 1.347 3.633-.313 3.23-2.213.18-.798-.638-3.84-.314-3.236 2.46 4.977 5.65 10.45 10.98 12.702 2.316.866 5.458-.66 4.847-3.463-.724-7.082-6.553-13.574-4.45-20.905.704-2.566.553 1.404.992 2.17 2.987 11.443 7.537 22.948 15.515 31.858 2.285 2.872 7.173 4.51 9.807 1.172 2.736-2.046-1.022-4.75-1.916-6.928-4.685-7.74-7.977-16.39-10.215-25.157 3.828 7.42 7.776 14.964 13.166 21.378 2.046 2.492 6.194 1.817 7.232-1.27 3.128-5.828-.756-11.885-2.974-17.238-3.697-9.16-5.968-18.83-7.463-28.577-1.97-.646-.446-2.005-.27-3.6 1.643-8.958-4.188-17.597-2.1-26.517-.92-1.168 1.586-1.253 1.937-2.432 2.652-3.468 1.534-8.187 1.573-12.224.757 2.698 1.956 7.708 5.788 6.742 3.854-1.864 3.594-7.082 4.37-10.692 1.482-13.098 3.207-26.405 8.51-38.513 1.11 6.082 1.018 12.737 4.083 18.25 1.832 2.35 4.585-.357 5.197-2.36 3.203-6.565 2.304-14.186 3.02-21.258.13-3.196.226-6.393.242-9.59 1.472 10.586 2.615 21.545 7.196 31.33.69 2 3.626 3.437 4.878 1.11 3.02-6.38 2.486-13.77 3.167-20.642 3.123 6.772 6.46 14.167 12.656 18.68 2.884 1.687 4.72-2.274 4.772-4.64 1.35-11-7.116-21.208-3.942-32.223a60.41 60.41 0 0 0 1.12-6.42c2.343 17.12 8.812 33.554 17.614 48.348 2.86 3.67 5.884 8.44 10.8 9.346 4.262.032 7.002-5.01 5.187-8.756-3.673-10.894-10.574-20.58-12.654-32.012 1.9 5.59 3.953 11.738 8.606 15.65 2.335 2.16 5.374-.596 5.12-3.258.576-5.78-.73-11.506-1.846-17.14 4.197 7.36 5.312 16.425 11.04 22.87 2.696 2.237 6.996 4.32 10.33 2.422 1.55-1.937 1.53-5.23 1.125-7.108 1.54 2.37 5.44 5.175 7.817 2.31 1.288-1.732 2.408-3.807 2.453-6.012 1.335 3.37 3.282 8.152 7.48 8.415 3.58-.81 3.145-5.594 2.536-8.367.018-.744-1.486-4.18-.74-2.97 4.944 6.488 4.092 15.108 6.733 22.446.72 2.312 3.663 3.964 5.594 1.92 3.635-3.112 4.428-8.19 4.403-12.723.988 4.208 1.575 9.786 5.792 12.054 3.687.888 5.535-3.744 6.235-6.57.288-.99.245-2.812.333-3.402 1.2 2.157 2.65 4.21 2.612 6.82.515 3.434.236 9.167 4.847 9.732 1.288.266 2.958-.46 3.767-.95-1.02 3.865-.71 8.487 1.42 11.936.707 1.348 2.917 1.135 3.597.97-1.01 6.677-.786 13.544-.755 20.294.94 6.093 4.89 11.363 9 15.782 1.444 2.014 4.973 3.078 6.284.37 1.44-3.288.615-7.08-.224-10.422 1.827 3.09 6.882.423 6.28-2.84.18-2.7-.14-6.19-.387-8.368 1.795 2.248 4.83-.98 5.186-2.98 1.077-4.262-.79-9.313-1.54-12.9 1.975.884 3.745-1.097 4.458-2.75 2.335-3.16.17-7.425-.616-10.787-.985-2.478-1.73-6.15-3.19-7.636 4.07-5.56 1.663-12.918.202-18.967-3.948-14.063-8.74-29.126-20.562-38.644-11.102-9.252-24.986-14.128-36.948-22.012 1.28-2.336 4.95-1.073 7.087-.514 4.114.915 8.335 3.53 12.73 2.893 2.87-.495 5-3.69 3.32-6.345-3.464-5.447-10.262-7.223-15.86-9.687-4.984-2.162-10.66-3.21-15.064-6.45 1.913-2.786 5.938-.967 8.653-1.1 2.143.436 6.312.408 6.27-2.598-2.448-3.74-7.353-4.832-11.233-6.542-7.01-1.982-14.597-.933-21.56.797-4.13.723-7.686 3.8-11.91 3.822-1.697-1.056.91-2.834 1.943-3.382 7.228-4.24 15.623-6.228 22.714-10.65 1.59-2.69-3.005-3.54-4.696-3.29zm-142.464 148c-.986.91.047-2.114 0 0zm-6.77 1.836c1.203.403-.77.84 0 0zm-5.953 8.243c1.633.575.162 1.654-.096-.02l-.07-.108.167.13zm2.785 37.978c.46.444-1.77.573-.65-.31.074-1.623.1-.346.65.31zm14.096.276c1.287.508-.854.42 0 0z"/><path d="M379.488 251.59c-2.018.347-3.67 1.967-2.684 4.083.384 3.983 2.362 9.113-.968 12.344-2.517.594-3.86 2.235-3.125 4.953-.112 2.466.57 7.03-2.953 7.29-3.39-.656-2.613 2.873-2.413 5.01.203 2.214-.49 6.885-3.695 5.783-5.023-3.182-8.058-8.597-10.718-13.724-2.032-1.626-2.667 1.884-2.716 3.296-1.238 6.88-3.394 13.57-4.75 20.395 2.646 7.272 3.153 15.183 6.72 22.15 1.5 3.332 3.412 7.99 7.484 8.583 2.052-.27 3.788-2.973 3.702-4.392 1.865 3.188 4.896 7.646 9.167 6.674 3.788-1.877 3.116-7.184 2.088-10.568-.975-1.594-.135-.65.95-.26 3.153 1.005 4.463-2.883 4.3-5.336.324-5.417-.078-10.94-1.84-16.103 1.26 1.697 2.997 5.336 5.596 4.07 1.633-3.212.614-7.236.082-10.654.023-1.103-2-3.056.045-2.373 4.27-1.89 3.957-7.425 3.26-11.28-1.495-9.942-4.497-19.653-6.37-29.47-.26-.36-.728-.533-1.162-.47zm-12.88 58.92c1.103 1.793-.82 2.11-.04.037l.013-.137.027.1z"/></g><path d="M179.103 335.036c7.952 11.957 25.085 25.038 42.25 31.716 11.316 4.404 23 4.61 30.82 4.895l9.446-.133c12.172-.742 12.417-1.286 19.855-2.525 22.564-3.76 51.464-6.51 65.512-39.08 4.87-8.01 2.397-18.42-1.48-29.166 5.082-16.776 7.626-30.802 6.8-47.285" fill="none" stroke="red" stroke-linecap="round" stroke-linejoin="round"/><g stroke="red" fill="none" stroke-linecap="round" stroke-linejoin="round"><path d="M94.665 243.34c-8.09-8.09 14.098-26.635 18.458-40.25-.696-19.504 9.256-29.15 24.51-35.688 3.814-1.634 10.35-2.016 13.385-5.05 9.264-9.265 42.014-30.292 54.043-35.103 3.533-1.414 11.803-7.99 16.668-5.557 5.5 2.75-1.346 7.035-2.143 11.774 8.564-4.326 16.01-7.99 24.344-10.074 13.374-3.344 23.983-8.333 37.677-11.072.157-.03 18.412-4.372 23.296-3.32 1.214.26 3.238 1.894 1.787 2.96-3.446 2.53-14.874 6.223-21.205 9.536-2.255 1.18-3.863 2.312-4.235 3.325-.472 1.29 1.778 2.148 3.214 1.43 8.93-4.466 23.932-8.66 34.822-3.214 1.35.675 9.59 3.624 6.785 6.428-3.895 3.897-12.385-3.122-14.552 2.5 5.94 4.79 34.88 9.487 31.428 19.822-5.55 7.722-20.054-6.928-23.928.268 26.066 15.09 41.57 17.174 53.036 44.017 2.158 10.105 13.14 31.69 2.59 36.966-8.467 4.233-13.57-20.97-14.823-25.357"/><path d="M106.43 227.5c-2.446 2.833-33.236 41.794-10 32.5 3.85-1.54 7.363-9.113 9.284-10.714M105.105 250.188c-.61 6.495.926 12.617-1.89 17.312-.06.097-22.67 26.32-10.715 23.93 5.436-1.09 6.957-7.44 12.5-9.287"/><path d="M104.39 282.605c-3.823 2.642-3.716 37.686 4.54 26.68 3.06-4.082 1.003-6.506 3.57-10.356"/><path d="M112.27 299.452c-3 3.772-2.324 37.03 6.66 28.048 2.63-2.632 2.305-14.454 2.542-16.11"/><path d="M121.47 311.6c-.332 11.7 1.27 26.142 11.113 31.064 1.122.56 2.04-.35 2.272-1.516.528-2.64-1.774-7.87-2.272-10.86"/><path d="M132.583 323.218c-3.63 7.41 10.165 32.893 17.677 25.065 1.363-8.294-9.082-16.074-3.535-25.317"/><path d="M146.725 323.47c-.627 7.74 16.296 49.715 26.01 36.114.42-.63.464-1.504-.788-3.22-7.063-10.304-10.57-21.107-13.1-32.388"/><path d="M159.194 325.112c.498 2.823 3.614 8.085 5.713 11.49 2.412 3.913 4.367 7.76 7.07 11.365 5.396 7.193 9.598 1.49 9.598-4.798 0-4.423-2.94-8.36-4.546-12.376-3.334-8.334-7.198-23.432-7.198-31.63M133.088 280.287c-1.222 7.086 7.242 34.997 16.415 23.99M133.34 253.77c2.53 7.263 1.497 17.316 6.314 23.74 7.484 9.977 8.896-5.102 7.197-11.05M142.937 283.57c-1.946 10.868 25.735 58.42 20.455 21.465"/><path d="M152.28 269.933c-3.508 4.55 9.66 49.21 16.92 31.062 3.854-9.634-5.586-20.394-1.01-29.547M139.654 245.942c3.476 6.102 1.305 15.26 6.566 20.203 5.313 4.993 7.57-5.39 6.155-8.113"/><path d="M147.482 230.537c-.137 1.75.83 7.927.726 9.754 1.41 8.463.902 25.868 11.617 15.153"/><path d="M160.11 236.598c-.223 4.858-3.175 40.035 8.034 34.745 1.427-.673 2.734-2.887 3.105-4.74.666-3.336-.577-6.39.002-9.864"/><path d="M170.716 226.244c-.256 1.366.336 2.946 0 4.293-2.232 8.927-1.104 20.43 1.262 29.042 2.357 8.576 7.903 5.59 8.84-2.022 1.55-15.244 3.33-30.877 9.285-42.783"/><path d="M188.9 206.798c1.587 3.88 2.065 31.093 7.827 27.274 4.003-2.652 5.148-11.322 4.866-18.806-.24-6.382.9-11.952 1.524-12.628"/><path d="M202.03 189.878c-.496 4.513 2.615 31.31 7.388 40.95 1.318 2.66 2.832 3.93 4.23 3.158 4.365-2.41 4.474-37.738 4.545-41.33"/><path d="M217.94 209.576c-.94 4.916 16.728 36.195 17.3 13.385-.928-7.648-3.35-13.4-4.925-19.697-1.493-5.973 2.796-14.03 2.02-18.688"/><path d="M232.53 185.985c-1.017 11.367 19.536 70.278 32.635 57.18 1.436-1.437 1.177-5.645.505-7.325-5.55-13.874-12.09-21.974-13.006-34.345.54 2.342 1.475 4.6 2.03 6.818.653 2.612 7.068 15.778 10.976 11.87 3.97-3.97-.906-18.215-1.01-22.224 1.194 2.297 1.86 4.226 2.778 6.06 4.14 8.28 5.2 21.718 17.425 21.718 3.21 0 2.898-6.278 2.645-8.047"/><path d="M280.065 194.676c.02 3.495 2.768 9.536 4.08 15.04 2.6 10.888 11.843 17.868 13.85 3.648"/><path d="M294.207 200.232c1.94 5.817 3.282 17.488 8.586 21.466 4.444 3.333 6.13-3.258 5.304-6.566-.69-2.764-2.055-5.004-2.526-7.83"/><path d="M305.91 209.367c7.388 7.823 5.958 18.375 7.468 22.42.134.994.835 4.025 4.04 4.905 9.28-2.842 6.428-22.293 4.063-29.39"/><path d="M323.813 221.624c.867 3.67 1.46 8.414 3.73 11.438 4.674 6.233 8.585-3.164 8.585-7.07 0-9.765-5.05-21.07-5.05-28.033M336.886 225.99c3.916 3.25 1.284 10.215 4.04 13.89 1.017 1.355 2.222 1.516 3.79 1.516 10.673 0 1.58-25.644 2.524-31.315"/><path d="M347.97 239.967c-1.1 2.13-.92 6.913-.296 9.405.346 1.385 1.656 4.386 3.12 4.386 8.438 0 8.063-22.39 8.063-29.03M351.65 272.027c-1.57 3.388 11.285 25.862 15.288 17.856 3.508-7.017-5.277-21.025-6.314-28.284M366.565 280.037c14.267 6.777 1.222-29.606-.637-36.116M372.596 269.326c12.693-.215-.572-26.167-1.365-31.718M376.25 252.985c11.41-2.72 1.278-17.37 1.116-22.137M351.28 293.67c1.223 6.03 4.762 10.983 6.22 15.468 3.108 9.55 13.43 10.07 6.913-12.69"/><path d="M366.402 310.186c1.425 3.87 7.786 17.305 12.584 11.548.38-.625.935-3.04.862-4.773.812-9.846-3.056-19.49-7.354-28.087M378.108 302.362c8.51 10.54 6.726-4.73 4.487-9.953"/><path d="M376.282 279.782c1.52 4.05-.2 5.29 4.336 10.338 1.344 2.135 2.687 2.833 4.03 1.873 7.587-3.33-4.085-31.038-4.326-42.01M363.507 326.917c-2.944 10.302-10.123 1.203-11.513-5.188-.788-2.208-1.995-3.432-2.262-5.034"/><path d="M374.35 322.864c3.725 14.248-6.07 13.864-10.773 4.454-.988-1.977-1.764-4.34-2.203-7.027"/></g><path d="M318.565 243.236c-12.75.29-25.388 6.026-33.838 15.606-4.526 5.15-7.35 11.777-7.577 18.66-.398 5.1-1.303 10.37-.178 15.516 1.052 6.48 4.77 12.544 10.436 15.967 5.492 3.47 12.17 4.67 18.588 4.21 9.413-.305 18.632-3.77 26.272-9.21 6.563-4.774 12.03-11.51 14.133-19.445.485-6.805 2.017-13.777 1.078-20.698-.723-3.75-2.555-7.293-4.91-10.275-3.504-4.1-8.012-7.407-13.25-8.87-3.475-1.067-7.124-1.513-10.753-1.46zm-4.28 16.922c4.823.212 9.37 2.362 13.367 4.94 4.885 3.555 5.876 10.377 4.637 15.864-1.575 7.202-6.132 14.343-13.212 17.116-3.87 1.414-8.288 1-11.792-1.185-6.187-3.25-10.446-9.52-12.027-16.234-.67-4.31-.867-9.098 1.605-13.005 2.708-4.57 8.035-6.67 13.102-7.19 1.43-.21 2.873-.342 4.318-.307z" fill="#fa8de4"/><path d="M313.822 258.17c-6.223.21-13.122 1.562-17.28 6.633-3.727 4.304-4.29 10.394-3.217 15.785 1.757 9.145 8.625 17.487 17.745 19.953 6.397 1.577 12.928-1.917 17.013-6.696 5.395-6.29 8.177-15.39 5.634-23.473-1.57-5.25-6.533-8.42-11.37-10.317-2.716-1.044-5.59-1.893-8.525-1.884zm2.55 15.54c.99-.155 1.82.274 2.21 1.188 1.573 2.03 4.064 3.208 5.45 5.357.302 2.136.448 4.34-.07 6.413-.865 2.514-3.473 3.923-6.052 3.717-4.972.41-10.125-4.06-9.29-9.234.52-3.396 2.758-7.078 6.486-7.392.42-.05.843-.06 1.266-.048z" fill="#f82771"/><path d="M315.427 271.836c-5.208.3-9.012 5.607-8.585 10.614-.31 4.367 3.417 7.968 7.26 9.35 3.812 1.145 8.924.537 10.987-3.308 1.436-2.513 1.163-5.622.705-8.366-.94-2.998-4.097-4.374-5.957-6.717-1.097-1.56-2.567-2.06-4.41-1.574z" fill="#2d98f0"/><path d="M211.566 252.072c-11.02.07-22.61 5.865-27.012 16.392-3.36 6.835-2.555 14.716-2.208 22.073.258 6.042 3.372 11.66 8.118 15.345 8.64 6.86 20.758 7.268 31.04 4.494 9.288-2.497 18.393-8.7 21.32-18.272 1.75-6.053 1.427-12.504 1.024-18.723-1.132-8.908-8.9-15.427-16.827-18.573-4.893-1.938-10.196-2.837-15.454-2.735zm-1.605 21.79c6.563-.142 13.214 4.013 14.94 10.54 1.853 6.133.46 14.146-5.646 17.347-5.228 2.835-12.583 2.823-16.832-1.795-5.798-5.787-7.373-16.428-1.53-22.712 2.354-2.387 5.774-3.432 9.07-3.382z" fill="#fa8de4"/><path d="M209.735 272.015c-6.04-.117-11.958 3.908-13.505 9.853-2.72 8.948 1.843 20.508 11.325 23.1 7.744 2.227 17.46-2.174 19.27-10.43 2.193-7.682-.982-17.002-8.472-20.503a18.382 18.382 0 0 0-8.618-2.02zm5.17 14.48c2.75 1.368 4.422 4.563 4.93 7.52.44 2.073-.424 4.88-2.955 4.866-3.68 1.023-7.518-1.946-7.51-5.764-.522-3.543 1.95-6.517 5.536-6.622z" fill="#db158c"/><path d="M214.072 284.823c-5.127.28-8.005 6.462-6.002 10.905 1.633 4.807 8.48 6.976 12.275 3.416 3.01-4.145.537-10.028-2.95-13.074-.926-.77-2.1-1.285-3.323-1.247z" fill="#5846d7"/><g fill="none"><path d="M254.558 307.308c3.808-8.924 12.657-8.052 19.193-1.515" stroke="#000" stroke-linecap="round" stroke-linejoin="round"/><path d="M213.142 305.035c14.193-1.69 16.043-14.848 12.204-23.34-2.306-5.097-7.44-9.03-15.36-9.237-22.16.346-16.072 34.867 3.156 32.577z"/><path d="M215.162 285.085c-11.05.414-8.985 17.404 2.273 15.152 7.623-1.524 2.583-13.765-2.273-15.152zM324.26 261.6c-6.27-3.34-10.685-3.37-17.426-2.02-20.944 4.187-15.433 32.666 2.02 39.647 20.083 8.033 36.702-29.642 15.405-37.628z"/><path d="M318.703 272.71c-3.48-1.154-7.628.003-9.596 3.284-9.783 16.304 20.318 23.81 16.415 4.293-.576-2.878-5.048-4.034-6.82-7.576z"/><path d="M315.42 316.905c7.048-2.074 15.922-4.07 18.94-11.112M319.966 320.693c5.14-1.438 10.133-4.143 12.88-7.576M326.28 323.218c-1.565.217 3.353-1.838 4.798-3.283" stroke="red" stroke-linecap="round" stroke-linejoin="round"/><path d="M225.264 334.077c8.13 6.113 13.357 16.067 25.506 13.637 3.26-.65 5.343-3.283 9.092-3.283 4.808 0 7.99 3.56 13.132 2.274 3.88-.97 6.898-6.003 10.86-7.323M238.396 298.217c-13.766 18.354-56.273 18.05-54.927-11.617-4.798-44.885 57.015-39.7 59.345-11.617.127 6.876.82 16.25-4.42 23.234zM278.55 279.15c-1.353-30.21 51.335-49.23 65.912-20.076 4.128 8.255.758 16.943.63 25.38-9.488 33.15-75.03 41.978-66.542-5.304z" stroke="#000" stroke-linecap="round" stroke-linejoin="round"/><path d="M184.605 306.55c4.29 4.147 9.315 5.304 13.637 5.304M185.11 311.35c3.68 1.818 6.995 3.953 11.112 2.777" stroke="red" stroke-linecap="round" stroke-linejoin="round"/></g><g><g fill="#988bf1" fill-rule="evenodd"><path d="M299.56 230.173c.68 3.298 1.92 5.525 4.03 6.09 2.725-.962 3.147-3.766 3.548-6.587-2.37 1.528-4.854 2.055-7.58.497zM245.452 254.325c.146 2.912-.103 5.574 2.824 6.4 3.002-.725 2.89-4.52 3.55-7.254-3.638 2.918-4.93 1.618-6.374.855zM219.112 236.602c.057 4.346 1.385 6.876 3.94 7.65 3.045-.628 3.32-3.718 3.193-7.165-2.378 1.128-4.755.764-7.133-.485zM196.077 329.146c-.3 3.592.292 6.4 2.958 7.383 3.043-.56 3.3-3.905 3.683-7.122-2.325 1.304-4.554 1.408-6.64-.262z"/></g><g stroke="#3526ee" stroke-opacity=".663" fill="none" stroke-linecap="round" stroke-linejoin="round"><path d="M196.222 328.774c-1.74 9.916 6.566 10.98 6.566.253M245.467 254.275c-1.103 9.17 6.314 8.357 6.314-.757M219.203 236.093c-1.435 10.318 8.68 11.763 7.07.505M299.763 230.032c.544 10.19 8.23 5.85 7.323-.505"/></g></g></svg>