<?xml version="1.0" encoding="UTF-8"?>
<svg id="svg2" xmlns:rdf="http://www.w3.org/1999/02/22-rdf-syntax-ns#" xmlns="http://www.w3.org/2000/svg" xmlns:osb="http://www.openswatchbook.org/uri/2009/osb" viewBox="0 0 500 600" version="1.1" xmlns:cc="http://creativecommons.org/ns#" xmlns:xlink="http://www.w3.org/1999/xlink" xmlns:dc="http://purl.org/dc/elements/1.1/">
 <defs id="defs4">
  <linearGradient id="linearGradient7517" osb:paint="solid">
   <stop id="stop7519" stop-color="#5846d7" offset="0"/>
  </linearGradient>
  <linearGradient id="linearGradient7521" y2="387.59" xlink:href="#linearGradient7517" gradientUnits="userSpaceOnUse" x2="381.12" y1="387.59" x1="146.84"/>
 </defs>
 <g id="layer13" transform="translate(0,100)">
  <path id="path7433" d="m281.18 268.63c-4.539 0.72637-9.061 1.6315-13.649 2.0287-6.997 0.62061-14.177 0.57224-21.217 0.29715-4.8466-0.22005-9.6984-0.7108-14.492-1.642-1.0448-0.11906-1.2949 1.029-1.2598 1.8408-0.25529 2.2804-1.1395 4.2965-1.6885 6.4941 0.0853 1.201 1.2425 1.9403 1.9939 2.7607 4.341 3.9726 10.027 5.8847 15.374 8.0747 6.1384 2.4009 12.434 4.8982 17.467 9.2786 0.74948 0.71126 1.6967 0.0502 2.2752-0.53103 5.5163-4.6413 10.438-9.9742 14.617-15.848 0.74322-1.1668 1.7868-2.1838 2.2817-3.48-0.17512-2.8326-0.20763-5.6861-0.49121-8.5061-0.15908-0.50776-0.69532-0.80949-1.2119-0.76734z" stroke="#f00" stroke-width=".125" fill="#faaeda"/>
 </g>
 <g id="layer16" transform="translate(0,100)">
  <g id="g6354" fill="url(#linearGradient7521)">
   <path id="path4796" d="m302.74 265.18c-4.6078 0.55621-9.3773 1.2304-13.73 2.6738-7.2206 10.44-14.055 21.711-24.365 29.412-2.3249-0.87389-4.1808-3.2256-6.6055-4.207-8.88-5.1782-19.691-6.8699-27.447-13.926-2.5382-2.1841-2.8751-5.8073-4.7363-8.3203-3.9696 0.71831-7.5135 3.3671-11.26 4.9141-17.44 8.3395-33.066 19.87-48.981 30.723-7.1137 4.9141-14.681 10.658-16.967 19.471-1.8524 8.4675 0.51037 17.144-0.0254 25.689-0.86536 18.795-3.398 37.971-0.2539 56.73 3.7146 18.375 4.1322 37.852 12.41 55.016 2.4514 4.8057 5.2144 9.6717 9.4668 13.121-3.0521-0.43528-1.2903 4.2813-1.9082 6.2656-0.21632 6.7784-2.2313 13.476-1.7852 20.258 1.9501 2.009 5.7475 0.67414 8.4121 1.3633 59.549 3.5497 119.5 9.3309 179.03 2.377 4.2323-0.72005 8.7561-0.79238 12.758-2.2109-0.5554-7.7164-2.1806-15.564-2.668-23.291-0.8993-0.93672 2.1142-1.9121 2.6094-3.3301 4.3584-7.0703 3.4516-15.897 4.4649-23.791 0.6273-8.1911 3.5025-16.11 4.1152-24.357 2.26-21.14 2.2276-42.441 5.459-63.457 1.8501-12.693-3.2946-25.227-9.6309-35.947-5.041-8.2981-11.151-16.675-11.318-26.754-0.265-7.5587-6.7486-12.533-12.516-16.328-13.953-8.7933-29.409-15.022-44.186-22.088-0.1147-0.009-0.2307-0.008-0.3457-0.006z"/>
   <path id="path6339" d="m287.85 267.55c-1.9335 0.33583-3.9479 0.48755-5.812 1.052-1.01 0.70615-0.16533 2.1082-0.31354 3.1411 0.20596 1.7262-0.086 3.55 0.43865 5.2061 1.1287 1.0005 1.9791-0.57086 2.4733-1.4271 1.4121-2.198 2.9082-4.3472 4.246-6.5903 0.21137-0.7219-0.27673-1.3894-1.0324-1.3818z"/>
   <path id="path6341" d="m227 270.42c-1.3476 0.17682-0.99937 1.7186-0.64496 2.5926 0.55072 1.465 0.92547 3.1824 2.1063 4.2728 1.2454 0.6039 1.7319-0.94744 1.9674-1.8491 0.24097-1.2039 1.1298-2.5142 0.54673-3.7216-0.96648-0.99637-2.5281-1.0038-3.8145-1.2937l-0.12982-0.002-0.0311 0.001z"/>
  </g>
 </g>
 <g id="layer14" transform="translate(0,100)">
  <path id="path4850" d="m231 290.07c-3.2908 0.43773-5.4865 3.4184-7.2178 5.9805-0.65398 1.5547-0.15042-0.21936-0.15576-0.86523 0.24352-2.0184-1.976-3.9584-3.8872-2.8604-3.582 2.0147-5.633 5.8315-7.7891 9.1774-1.9823 3.2975-3.7892 7.0309-5.3257 10.352-0.35439-2.4013-3.5065-2.6865-5.2012-1.5039-3.437 2.1168-5.0501 6.086-6.8891 9.4992-1.6226 3.3033-3.0176 6.8712-2.672 10.626 0.0636 3.9046 2.5647 7.2163 4.5444 10.402 3.2744 5.0269 7.5323 9.7377 8.9806 15.7-0.17736 3.3846-2.645 6.1062-3.8916 9.1426-0.0417 1.6621 2.1407 1.8842 3.2574 2.5743 5.9372 2.4589 12.445 3.3925 18.848 3.2598 3.822-0.0622 7.6796 0.1327 11.479-0.30284 1.7185-0.90685 1.2249-3.2024 1.8364-4.7598 0.45688-2.1865 1.5921-4.2556 3.6136-5.3569 4.7749-3.5718 8.9626-8.8803 8.8839-15.114 0.21446-3.939-1.0216-7.7188-1.4784-11.584-0.77811-7.9627 2.9641-15.68 2.285-23.739-0.28603-2.0892-1.8411-4.7543-4.25-4.4893-1.7924 0.46809-2.9266 2.4816-3.7642 3.75 0.65208-4.546 1.7342-9.21 0.98047-13.805-0.53013-2.6161-3.6598-4.7588-6.1265-3.127-1.5354 0.89942-2.538 2.5678-3.1948 4.1025 0.41262-2.2818 0.73789-5.3711-1.5693-6.7773-0.39733-0.20636-0.84928-0.29617-1.2954-0.28028z" fill="#faaeda"/>
  <path id="path4806" d="m201.05 360.16c-4.7716 0.11048-6.8952 5.2211-8.3396 9.0115-2.738 7.595-4.4446 15.502-6.6747 23.225 0.34857 2.5517 3.6246 2.9332 5.478 4.0241 7.6565 3.1313 15.76 5.4572 24.023 6.1404 7.1325 0.38024 14.415-0.13328 21.09-2.8724 1.8122-0.6986 4.2398-1.395 4.0051-3.8327 1.4659-8.3028 3.9863-16.767 2.671-25.253-0.52882-2.491-2.9796-5.391-5.7466-4.639-1.185 0.82316-0.95976 2.6141-1.0579 3.9015 0.68671 0.90427-1.1624 0.77565-1.7187 1.303-6.6287 0.77388-13.391 0.56499-20.019-0.16573-4.2086-0.94874-8.7909-1.5475-12.375-4.1088-0.57525-0.59613-2.0232-1.1089-0.72518-1.6855 0.61155-1.3816 2.4328-3.5684 0.78652-4.8096-0.42966-0.2153-0.92526-0.24654-1.3976-0.23893z" fill="#c83153"/>
 </g>
 <g id="layer2" stroke-linejoin="round" transform="translate(0,100)" stroke-linecap="round" stroke-width="1px" fill="none">
  <path id="path3820" d="m226.21 270.13c1.0379 0.9103 3.6975 1.3212 4.4826 1.4521" stroke="#000"/>
  <path id="path3563" d="m229.31 277.48c1.1134-3.4293 1.8074-4.8062 1.8074-8.2106" stroke="#f00"/>
  <path id="path3561" d="m282.44 277.94-0.46176-9.0746" stroke="#f00"/>
  <g stroke="#000">
   <path id="path3351" d="m236.61 399.46c-1.954 11.724 3.4424 32.044-0.71429 46.964-4.0373 21.724-4.7357 45.669-33.75 45.893-11.443 1.6602-17.579-7.7977-26.904-13.095-1.4249-0.80953-2.9243-1.5219-4.5245-2.0833-16.743-16.743-17.557-42.47-21.25-65.179-6.482-24.562 2.0065-52.643-1.4302-78.029-0.57533-6.8223 2.5-16.693 12.323-23.578 13.453-9.4299 27.993-19.582 41.786-27.857 6.9923-4.1954 16.431-8.4415 24.092-12.095 2.1335 17.084 25.361 15.442 38.23 27.452 11.765-9.2436 17.67-19.42 24.863-30.209"/>
   <path id="path3379" d="m180.36 451.43c0.27929-11.939-9.0098-22.062 0.89286-32.5 1.8917-9.1595 3.5074-16.821 5.7679-24.732"/>
   <path id="path3385" d="m171.43 454.64c1.4118-7.7056-0.0451-20.134 5.1786-25.357"/>
   <path id="path3395" d="m236.77 366.07c12.266-1.7522 4.4958 22.339 3.2264 31.786-17.512 8.7562-37.189 3.6926-54.286-4.2857 4.1524-8.3621 6.1482-39.772 17.957-32.392"/>
  </g>
  <g stroke="#f00">
   <path id="path3401" d="m201.47 365.38c0.83663-2.5943 4.9729-6.3882 4.2436-9.3054-2.2299-8.9197-11.194-15.135-13.571-24.643-1.162-4.648 3.8231-14.806 7.3412-19.133 2.7936-3.436 8.4-3.0819 6.5044 1.8855"/>
   <path id="path3445" d="m202.5 334.64c-1.373-3.5387-0.10479-10.395 1.7913-15.843 4.9675-14.273 15.935-32.573 18.923-24.514 0.31252 0.84277-0.68399 5.0798-0.92199 6.0852"/>
   <path id="path3459" d="m233.21 299.64c3.4668-10.313 9.5198-7.43 9.9499-1.8612 0.37511 4.8563-2.0092 14.872-3.1432 22.806-0.74953 5.2443-0.31284 9.5792-0.46111 10.914"/>
   <path id="path3469" d="m236.23 369.94c-0.0676-3.734 1.0173-7.2695 2.8683-8.2808 2.8008-1.5303 4.966-4.0242 6.5537-6.0216 4.1401-5.2084 4.3541-11.435 1.6742-21.172-0.90098-8.8863 6.9363-25.504-0.65499-28.034-1.2965 0.12181-2.3931 0.86365-2.3871 1.4043-2.886 2.886-3.138 6.0046-3.5651 10.023"/>
  </g>
  <g stroke="#000">
   <path id="path3397" d="m198.93 364.29c10.289 9.3451 34.205 7.17 39.643 6.0714"/>
   <path id="path3531" d="m307.12 469.47c2.0851 33.156 44.535 20.702 58.593 9.4553 5.5388-6.2074 4.1684-18.963 5.5558-29.46 7.381-26.772 3.7012-47.71 9.4442-84.468 0.53503-8.2101-0.36515-14.423-3.75-22.143-4.2134-13.943-18.06-24.848-17.321-39.643l-0.71429-3.5714c-3.8309-13.408-44.015-27.631-56.786-34.821"/>
   <path id="path3535" d="m363.75 480.22c0.26252 6.9808 2.059 17.94 3.0357 24.42-62.759 10.103-134.27 2.8232-200-1.0714-0.98929-6.5679 3.493-20.208 1.6072-28.75"/>
  </g>
  <path id="path3796" d="m218.07 318.68c0.18725-7.5074 2.5922-15.651 6.4556-23.266 5.0783-6.7625 9.2205-6.2501 9.3075-1.0161-1.0573 10.861-4.5252 20.823-4.5252 31.48" stroke="#f00"/>
 </g>
 <g id="layer15" transform="translate(0,100)">
  <path id="path4854" d="m350.14 294.43c-2.4579 0.19603-3.5863 2.8538-4.5708 4.7686-2.8558 6.9988-2.4456 14.74-2.9607 22.142-0.29243 5.1248-0.19839 10.367-1.6448 15.339-0.27116-6.6649-1.2545-13.298-1.5674-19.879-0.19872-4.2899-0.18808-8.637 0.53076-12.914 0.0213-3.0988-3.8518-5.796-6.5518-3.7602-2.4834 1.75-2.4311 5.1374-3.3154 7.7637-2.4933 9.2793-1.6878 18.974-2.1479 28.437-2.219-4.8314-3.0416-9.9605-3.0937-15.173-0.27937-2.6513 0.28176-5.5328-0.8609-8.0172-0.54932-1.3338-2.285-1.9253-3.3359-0.80664-2.6569 1.9295-2.2588 5.5588-2.6445 8.436-0.64271 9.8068-0.49159 19.779 2.0387 29.336 1.6918 7.0822 4.6302 13.803 8.2733 20.087-1.1226 1.6244-0.88819 3.8568-1.4287 5.7134-2.6485 14.756-5.563 29.459-9.0801 44.036-0.69052 1.1951 0.41163 2.4567 1.688 2.3096 9.8798 0.49971 19.473-2.599 28.712-5.729 2.4227-0.99751 5.1143-1.6778 7.2024-3.2505 1.1695-12.188 3.2108-24.274 4.625-36.483 5.5284-3.7136 10-9.048 12.295-15.334 2.0969-4.8452 3.1902-10.021 5.768-14.614 2.1209-3.2844 5.9742-5.6074 6.7383-9.6509 0.0418-2.0686-0.22727-4.6443-1.9927-5.9927-1.8994-0.77884-3.9326 0.49403-5.7085 1.1177-5.2635 2.1992-8.7086 7.3138-11.178 12.094 3.0401-10.209 4.5019-20.891 9.2681-30.456 1.3732-2.9224 1.2852-6.7147-0.59815-9.3965-1.2925-1.9256-4.0035-1.3469-5.4321 0.0894-4.7047 3.8525-6.2415 10.044-8.514 15.411-2.2175 5.6272-4.1117 11.42-7.0109 16.749 0.41701-10.12 3.1943-20.06 3.4219-30.25-0.0241-3.666 0.10094-8.1672-3.0776-10.673-1.1249-0.77484-2.4526-1.4434-3.8472-1.4497z" fill="#faaeda"/>
  <path id="path4879" d="m355.85 404.82c-0.89796 1.0258-0.49337 2.585-0.79371 3.8497-0.10743 1.3787-0.39586 2.9474-0.15302 4.2082-8.1016 3.734-16.811 6.3672-25.564 8.0064-3.6391 0.67134-7.3979 0.80537-11.112 0.3156 0.76168-2.7155 1.3991-5.4922 1.9373-8.2643-0.12193-1.3824-1.6866-1.0628-2.4949-0.53206-4.2789 1.9019-8.569 4.6703-10.507 9.1232-1.5036 3.2718-1.1818 7.0256-0.65166 10.484 1.0888 4.7368-0.20992 9.5171-1.036 14.169-1.0582 5.0828-2.2728 10.226-2.0944 15.468 0.01 2.4482 0.31583 5.0181 1.4237 7.2057 1.5 0.68634 3.2914 0.79407 4.9305 1.136 3.2684 0.35447 6.6126 0.20806 9.8496-0.35607 4.8199-0.9716 9.1293-3.4584 13.671-5.1475 5.2093-1.658 10.791-1.9142 16.191-1.2509 2.4097 0.44476 5.0264 1.6784 7.4101 0.42605 3.7084-1.8996 6.7414-5.1637 8.4204-8.9728 0.66675-2.4953 0.40175-5.1394 0.59994-7.6966 0.12687-8.1154 0.20156-16.252-0.39881-24.351-0.30135-3.8552-0.92405-7.6777-1.3664-11.513 0.16331-1.6072 0.19193-3.5157-1.2896-4.5668-1.8745-1.4462-4.4-1.8258-6.6859-1.8068l-0.17234 0.0393-0.11377 0.026z" fill="#c83153"/>
 </g>
 <g id="layer3" stroke-linejoin="round" transform="translate(0,100)" stroke-linecap="round" stroke-width="1px" fill="none">
  <g stroke="#f00">
   <path id="path3485" d="m328.93 370.36c-10.377-16.438-12.713-36.273-9.8629-55.505 2.0746-4.0125 4.8482-3.8909 5.3265 1.3456-0.3493 8.9444 0.53299 15.081 3.8221 21.659"/>
   <path id="path3495" d="m340.89 338.04c4.2619-10.044-0.64698-34.587 7.5893-42.679 1.9318-1.4756 3.2414-0.15189 4.7322 0.35715 7.985 4.3226 0 29.012 0 41.786"/>
   <path id="path3499" d="m353.4 337.99c5.3477-8.5497 9.7996-27.811 14.725-31.916 5.623-6.2044 8.8429 0.84208 7.2321 6.7857-5.757 11.025-6.2873 20.112-10 32.143-0.61349 2.3417-1.9258 6.5118-2.3214 6.875"/>
  </g>
  <path id="path3517" d="m319.91 411.96c-11.192 4.1021-15.641 10.302-12.494 22.215 0.27809 11.3-6.4874 23.539-2.4171 34.392 12.507 3.4962 20.336-1.1285 26.107-3.7336 4.2241-1.9067 14.213-3.7528 21.807-1.1618 4.5677 1.5584 11.434-6.1428 12.264-9.926 0.71568-13.497 0.88984-28.868-1.6071-42.679 1.8698-5.9406-6.9091-5.9821-7.5893-5.9821" stroke="#000"/>
  <path id="path3515" d="m355.09 413.12c0.75381-11.297 3.3229-24.868 4.5536-36.518 11.73-7.7878 12.45-16.662 17.143-28.393 2.07-5.1749 9.0821-7.2536 7.5-13.571-0.7083-3.0536-1.4166-3.015-2.1249-3.4056-11.149 1.3025-16.727 12.813-20.018 24.12" stroke="#f00"/>
  <path id="path3507" d="m317.86 421.16c4.0181-16.393 7.6272-34.424 10.357-50.804" stroke="#f00"/>
  <path id="path3529" d="m313.93 419.64c7.7791 7.6591 42.351-5.7955 44.286-8.2143" stroke="#000"/>
  <path id="path3806" d="m328.17 337.79c0-1.1996 0.44643-2.1312 0.42453-3.5972-0.9641-10.418 0.57991-23.143 2.8352-29.909 0.70821-6.0155 7.4078-6.0024 8.2143-0.35714-2.3488 9.368 0.71428 22.775 0.80356 30 0.0447 1.4489-0.0158 3.4349 0.26786 4.2857" stroke="#f00"/>
 </g>
 <g id="layer5" transform="translate(0,100)">
  <path id="path4756" d="m231.63 89.886c-2.0188 1.0087-1.8399 3.6968-2.4097 5.5864-0.79318 3.3751-0.76102 6.9083 0.34961 10.209 1.569 6.1006 3.9751 12.066 4.189 18.392-0.19312 1.9415-0.15598 4.4183-1.7744 5.7495-2.7316-0.95644-4.4223-3.6282-6.1225-5.8257-2.4605-3.418-4.2004-7.2894-6.0292-11.044-1.275-1.5609-3.8671-0.29671-3.7136 1.6306-0.58414 5.8905-0.73993 11.768-2.6611 17.442-0.19636 0.64221-0.91378 1.1617-1.3281 0.30371-2.7281-3.6177-3.6085-8.127-4.7637-12.449-1.1841-4.6107-1.6797-9.3745-2.8076-13.988-0.82644-1.881-3.8268-1.2464-3.9238 0.76758-0.89542 7.6079 0.60429 15.637-2.314 22.925-0.62708 1.2567-1.3103 2.8921-2.6968 3.3901-1.9872-2.3873-2.0921-5.7353-2.7503-8.6642-0.5878-2.7347-0.59928-5.626-1.4565-8.271-0.8666-1.7396-3.5245-0.94097-3.8025 0.85432-5.325 12.555-6.5077 26.277-8.1476 39.668-0.40706 2.4363-0.68454 5.9927-3.5018 6.7869-1.7842-0.55291-1.9466-3.5237-4.1816-3.2104-2.4607 0.78157-1.4591 3.7193-1.896 5.6709-0.0719 2.2209-1.8012 3.668-2.9634 5.3516-2.3461 4.6122-1.1361 10.046 0.0586 14.814 1.267 4.4072 2.0726 8.9818 1.6328 13.581-0.092 7.1116 1.8737 14.053 3.6047 20.891 1.9571 6.8139 4.4657 12.568 9.2889 17.985 9.6453 11.359 21.582 20.336 35.08 26.549 4.5917 2.0471 9.9141 4.1828 14.853 5.0107 4.8256 1.3094 10.52 1.3467 15.484 1.77 9.743 0.41358 18.942 0.10083 28.597-1.3537 8.8541-1.6302 17.694-2.7333 26.454-4.8553 1.8713-0.67885 5.7146-1.5661 7.6149-2.3007 12.356-3.4818 21.703-9.5199 29.679-19.783 4.6315-5.8173 7.2591-11.923 9.9089-18.84 1.8497-7.3976 0.93353-14.203-1.3081-21.281-0.49406-1.4374-1.248-2.8668-0.40602-4.3324 3.364-11.748 6.0913-23.801 6.2258-36.071-0.0556-3.0755 0.41163-6.2176-0.008-9.2495-0.33769-1.3956-1.8979-1.191-2.9597-1.4243-2.6119-2.852-1.9246-7.0282-2.0386-10.566-0.10595-1.8423-2.1147-2.2458-3.5781-1.7554-1.4849 0.12619-3.4254-0.28026-3.5869-2.0869-1.2024-3.9581-0.29793-8.6036-2.8633-12.081-1.2284-1.5768-3.7513-0.6307-3.9922 1.2407-0.5293 2.4352-1.3799 5.1919-3.5703 6.5972-2.0565 0.10493-2.927-2.266-3.7373-3.7788-0.85067-1.6553-0.65733-4.559-3.0347-4.8652-1.731-0.12456-2.4242 1.6876-2.3442 3.1206-0.51931 2.8196-1.7804 5.8916-4.5767 7.1128-2.8329-1.2111-2.7808-4.8071-3.3496-7.3784-0.69132-4.897-1.1519-10.077-3.7131-14.402-1.3278-1.5761-3.8352 0.056-3.4423 1.9529-0.2574 1.8437 0.17054 4.28-1.3652 5.638-1.9015 0.42869-3.1686-1.6927-4.123-3.0332-1.0365-1.4278-1.3853-4.1234-3.6013-3.8591-2.1672 0.52644-1.7599 3.3299-3.113 4.7419-0.93993 1.8386-3.2815 0.81169-4.3962-0.26738-1.1853-1.5284-3.9117-0.99151-3.9385 1.087-0.31989 1.4272 0.0976 3.4796-1.1687 4.4978-3.829 0.58863-7.6623-1.6755-9.5933-4.9482-3.4166-5.208-4.5981-11.482-7.52-16.924-1.2193-1.7971-4.2272-0.34058-3.6524 1.7241 0.74286 4.0646 1.4867 8.157 1.2257 12.312-0.0369 1.05-0.29774 2.7477-1.483 3.0514-1.6906 0.0188-2.5042-1.9632-3.602-2.9526-1.3834-1.2588-1.7724-3.9835-3.928-4.1333-1.8711-0.12929-2.5774 2.1912-1.677 3.5738 3.012 7.0166 6.9054 13.709 9.4629 20.862 0.62546 2.2622 0.79144 5.738-1.9824 6.604-3.4409 0.91921-6.2238-1.9505-8.2373-4.3247-6.1875-7.8263-10.167-17.031-13.658-26.262-2.6794-7.1598-4.6394-14.455-6.4316-21.9-0.46733-0.88547-1.5397-1.2771-2.4839-0.98535zm-1.9658 179.6c-0.0266-0.009-0.0658-0.1805 0 0z" fill="#fac7e6"/>
 </g>
 <g id="layer10" transform="translate(0,100)">
  <g id="g4818" fill="#f0f">
   <path id="path4814" d="m302.14 8.7217c-21.51 1.5901-41.706 9.7934-62.258 15.669-6.8482 2.1992-13.365 5.2748-19.784 8.4897 0.76393-3.4123 4.9086-6.4573 3.2197-10.127-3.013-3.5376-8.0423-0.76394-11.412 0.68849-20.168 9.759-39.613 21.288-57.127 35.305-3.4046 3.2925-7.3491 6.1068-12.128 6.8984-12.713 3.295-25.124 12.087-28.53 25.353-1.8702 5.6006 0.0108 12.026-3.5364 17.113-5.2848 9.5348-13.28 17.498-17.395 27.673-0.83032 2.4087-0.80037 6.2627 1.4512 7.5332-2.861 4.9984-6.8224 10.044-7.0127 16.011 0.64632 3.4377 5.0783 2.2099 7.3604 1.4541 4.8067-1.5486 6.9889-6.5478 10.036-10.128-1.1659 5.0732 0.31612 10.49-1.5488 15.351-4.588 7.6433-11.826 13.926-14.359 22.678-0.69696 1.7472 0.53245 3.7534 2.542 3.1524 5.2062-0.78283 7.915-6.7188 12.163-8.71-2.8052 6.9441-2.227 14.788-1.3643 22.076 0.52927 2.1842 0.88769 6.6611 4.0273 6.2236 1.9047-0.93355 3.4632-2.8851 4.0918-4.7832 0.0119 6.9951-0.58466 14.72 3.1357 20.961 1.1076 2.3419 4.0996 1.8858 5.334-0.0684 1.9073-2.724 1.975-6.2343 2.2305-9.4277 0.56442 8.8058 2.2244 19.254 10.45 24.254 1.6378 1.3479 3.6329-0.31231 3.2295-2.2119 0.18042-0.79873-0.6383-3.84-0.31347-3.2363 2.4595 4.9755 5.6498 10.448 10.979 12.701 2.3165 0.86572 5.458-0.66046 4.8476-3.4629-0.72436-7.0809-6.5537-13.574-4.4492-20.904 0.70278-2.5664 0.55183 1.4035 0.99121 2.1699 2.9866 11.443 7.5368 22.948 15.515 31.858 2.2846 2.8715 7.1724 4.5088 9.8066 1.1717 2.7362-2.046-1.022-4.7512-1.9161-6.9278-4.6855-7.7408-7.9771-16.389-10.216-25.157 3.8281 7.4203 7.7766 14.963 13.166 21.378 2.0446 2.4916 6.1926 1.8169 7.2314-1.2695 3.1274-5.8284-0.7563-11.885-2.9748-17.239-3.6969-9.1606-5.9679-18.83-7.4627-28.577-1.9692-0.64621-0.44611-2.0058-0.26953-3.6016 1.6428-8.9564-4.1881-17.595-2.0996-26.516-0.91929-1.1679 1.5856-1.2536 1.9365-2.4316 2.6519-3.468 1.5341-8.1878 1.5723-12.225 0.75789 2.6978 1.9568 7.7079 5.7881 6.7422 3.8543-1.8644 3.5948-7.0816 4.3691-10.692 1.4831-13.099 3.208-26.406 8.5098-38.513 1.1104 6.0824 1.0196 12.737 4.085 18.249 1.8319 2.3511 4.5842-0.35589 5.1963-2.3604 3.2031-6.5641 2.3039-14.185 3.0215-21.257 0.12894-3.1951 0.22425-6.392 0.24023-9.5898 1.4729 10.587 2.616 21.546 7.1963 31.33 0.69024 2.0012 3.6252 3.438 4.877 1.1113 3.0203-6.3791 2.4866-13.769 3.167-20.643 3.1232 6.7722 6.4595 14.167 12.656 18.682 2.8832 1.6859 4.7193-2.2759 4.7715-4.6426 1.3491-11-7.116-21.206-3.9424-32.222 0.4866-2.1174 0.86351-4.2614 1.1191-6.4189 2.3434 17.118 8.8132 33.553 17.614 48.347 2.8613 3.67 5.8841 8.4383 10.801 9.3454 4.2616 0.0332 7.0019-5.0077 5.1865-8.7549-3.6741-10.894-10.575-20.581-12.655-32.012 1.9019 5.5898 3.9533 11.738 8.6064 15.651 2.3352 2.1589 5.374-0.59757 5.1201-3.2598 0.57593-5.779-0.73106-11.506-1.8457-17.139 4.1971 7.3585 5.3121 16.424 11.041 22.869 2.6949 2.2369 6.9945 4.3186 10.33 2.4219 1.5483-1.9372 1.5273-5.2292 1.124-7.1084 1.5395 2.3693 5.4386 5.1758 7.8154 2.3115 1.2879-1.7327 2.4078-3.8081 2.4531-6.0127 1.3345 3.3691 3.2823 8.1517 7.4814 8.415 3.5785-0.81212 3.143-5.5955 2.5342-8.3682 0.0183-0.74437-1.4858-4.1793-0.74023-2.9717 4.945 6.4898 4.0924 15.11 6.7334 22.447 0.72118 2.3133 3.6643 3.9654 5.5947 1.9219 3.6354-3.1132 4.4282-8.1893 4.4033-12.724 0.98859 4.2083 1.5755 9.7855 5.792 12.054 3.6882 0.8871 5.5364-3.7449 6.2363-6.5713 0.28775-0.99086 0.24465-2.8117 0.33301-3.4014 1.1987 2.1565 2.6507 4.2095 2.6113 6.8193 0.51553 3.4346 0.2369 9.1671 4.8476 9.7324 1.2882 0.2662 2.9583-0.46127 3.7666-0.95118-1.0191 3.866-0.71044 8.4887 1.4209 11.938 0.70606 1.3481 2.916 1.1346 3.5967 0.96973-1.0112 6.6774-0.78694 13.544-0.75683 20.294 0.93927 6.0927 4.8918 11.363 9.001 15.782 1.443 2.0141 4.973 3.0783 6.2832 0.37012 1.4407-3.2879 0.61661-7.0798-0.22266-10.422 1.827 3.0884 6.8816 0.42297 6.2812-2.8408 0.17797-2.7009-0.14005-6.1909-0.38867-8.3672 1.7962 2.2472 4.8323-0.9803 5.1875-2.9814 1.0772-4.2608-0.78884-9.3114-1.5391-12.899 1.9735 0.88439 3.7438-1.0961 4.457-2.751 2.335-3.158 0.17032-7.4233-0.61563-10.786-0.98527-2.4779-1.7296-6.15-3.1891-7.6362 4.0696-5.5584 1.6611-12.917 0.2002-18.966-3.9472-14.063-8.7395-29.126-20.562-38.644-11.102-9.2511-24.986-14.128-36.948-22.012 1.2788-2.3357 4.9498-1.0726 7.0869-0.51367 4.1142 0.91535 8.3356 3.5293 12.729 2.8936 2.8721-0.49547 5.0013-3.691 3.3213-6.3457-3.4642-5.4471-10.263-7.2228-15.86-9.6869-4.9843-2.1615-10.661-3.2089-15.065-6.4488 1.9137-2.7869 5.9386-0.96812 8.6533-1.1006 2.1433 0.4355 6.3124 0.40727 6.2695-2.5986-2.4473-3.7387-7.353-4.8318-11.233-6.5415-7.0113-1.9819-14.597-0.93287-21.561 0.79655-4.1306 0.72308-7.6852 3.7994-11.909 3.8221-1.6976-1.0561 0.91048-2.8342 1.9424-3.3818 7.2278-4.2391 15.623-6.2281 22.714-10.651 1.5907-2.6879-3.0046-3.5386-4.6953-3.2891zm-142.46 148c-0.98577 0.91018 0.0471-2.1152 0 0zm-6.7705 1.835c1.2041 0.40298-0.76976 0.8395 0 0zm-5.9522 8.2432c1.6327 0.57392 0.1618 1.6535-0.0957-0.0215l-0.0703-0.10742 0.16601 0.1289zm2.7852 37.978c0.45949 0.44341-1.7707 0.57238-0.65137-0.31152 0.075-1.6218 0.10048-0.34526 0.65137 0.31152zm14.096 0.27539c1.2868 0.50833-0.85334 0.42161 0 0z"/>
   <path id="path4816" d="m379.49 151.59c-2.0181 0.34603-3.6691 1.9658-2.6845 4.0823 0.3842 3.9826 2.3627 9.1132-0.96785 12.343-2.5171 0.5946-3.859 2.2355-3.1249 4.9531-0.11323 2.4659 0.57007 7.0302-2.9542 7.29-3.3907-0.65567-2.6125 2.8735-2.4131 5.0098 0.20328 2.2146-0.49071 6.8853-3.6943 5.7832-5.0219-3.1816-8.0569-8.5963-10.718-13.724-2.0319-1.6254-2.6667 1.8851-2.7158 3.2969-1.2378 6.8802-3.394 13.571-4.749 20.395 2.6449 7.2711 3.1522 15.183 6.7207 22.149 1.4987 3.3326 3.4103 7.9904 7.4824 8.583 2.0523-0.27106 3.7883-2.9732 3.7022-4.3916 1.8651 3.187 4.8962 7.6452 9.167 6.6728 3.7887-1.8775 3.1174-7.1838 2.0889-10.568-0.97456-1.594-0.13528-0.6487 0.9502-0.25879 3.1528 1.0042 4.4628-2.8844 4.3014-5.3367 0.32263-5.4177-0.0797-10.939-1.8404-16.104 1.2588 1.6972 2.9963 5.3362 5.5947 4.0703 1.6337-3.2115 0.61478-7.2363 0.082-10.654 0.0234-1.1025-1.9987-3.0556 0.0449-2.373 4.2705-1.8896 3.9568-7.4248 3.2598-11.28-1.4957-9.9415-4.4976-19.653-6.3691-29.471-0.2626-0.35878-0.72891-0.53168-1.1631-0.46778zm-12.881 58.919c1.1038 1.7932-0.81805 2.1111-0.0381 0.0371l0.0117-0.13672 0.0264 0.0996z"/>
  </g>
 </g>
 <g id="layer7" transform="translate(0,100)">
  <path id="path3336" stroke-linejoin="round" d="m179.1 235.04c7.9519 11.957 25.085 25.038 42.249 31.716 11.317 4.4032 23.001 4.6095 30.821 4.8944l9.4463-0.13262c12.173-0.74222 12.418-1.2865 19.856-2.5254 22.563-3.7582 51.463-6.5084 65.512-39.078 4.8694-8.0092 2.3969-18.42-1.4796-29.167 5.0816-16.775 7.6249-30.802 6.7982-47.285" stroke="#f00" stroke-linecap="round" stroke-width="1px" fill="none"/>
 </g>
 <g id="layer1" transform="translate(0 -452.36)">
  <g id="g4431" stroke-linejoin="round" stroke="#f00" stroke-linecap="round" stroke-width="1px" fill="none">
   <path id="path3053" d="m94.665 695.7c-8.0893-8.0893 14.098-26.635 18.459-40.25-0.69612-19.504 9.2555-29.151 24.51-35.688 3.8133-1.6343 10.35-2.0162 13.385-5.0508 9.2642-9.2642 42.014-30.291 54.043-35.103 3.5325-1.413 11.802-7.9888 16.668-5.5558 5.5008 2.7504-1.3467 7.0357-2.1432 11.774 8.5638-4.326 16.011-7.9912 24.343-10.074 13.376-3.3439 23.984-8.3325 37.679-11.071 0.15658-0.0313 18.412-4.3736 23.295-3.3226 1.2143 0.26133 3.2384 1.8956 1.787 2.9608-3.4459 2.5291-14.873 6.223-21.205 9.5364-2.2546 1.18-3.863 2.3117-4.2346 3.3254-0.47202 1.2877 1.7783 2.1465 3.2143 1.4286 8.9311-4.4656 23.932-8.6591 34.821-3.2143 1.35 0.67501 9.59 3.6243 6.7857 6.4286-3.8964 3.8964-12.386-3.1222-14.554 2.5 5.9414 4.7904 34.879 9.4866 31.429 19.821-5.5518 7.7224-20.054-6.9277-23.929 0.26786 26.066 15.092 41.57 17.174 53.036 44.018 2.1582 10.103 13.14 31.689 2.5893 36.964-8.4658 4.2329-13.568-20.969-14.821-25.357"/>
   <path id="path3061" d="m106.43 679.86c-2.445 2.833-33.234 41.794-10 32.5 3.8529-1.5412 7.3646-9.1134 9.2857-10.714"/>
   <path id="path3063" d="m105.1 702.55c-0.60932 6.4952 0.92681 12.617-1.8903 17.312-0.0581 0.0968-22.669 26.319-10.714 23.929 5.4364-1.0873 6.9572-7.4381 12.5-9.2857"/>
   <path id="path3067" d="m104.39 734.97c-3.8231 2.6424-3.7159 37.687 4.5382 26.681 3.062-4.0827 1.0043-6.5064 3.5714-10.357"/>
   <path id="path3069" d="m112.27 751.81c-2.999 3.7726-2.3234 37.031 6.6594 28.048 2.6322-2.6322 2.3067-14.454 2.5433-16.111"/>
   <path id="path3083" d="m121.47 763.96c-0.33308 11.7 1.2687 26.141 11.112 31.062 1.122 0.56101 2.04-0.35081 2.2728-1.5152 0.52803-2.6401-1.7748-7.871-2.2728-10.859"/>
   <path id="path3093" d="m132.58 775.58c-3.6302 7.4083 10.165 32.893 17.678 25.064 1.3632-8.2934-9.0817-16.073-3.5355-25.317"/>
   <path id="path3101" d="m146.72 775.83c-0.62693 7.7391 16.296 49.715 26.011 36.113 0.41995-0.62933 0.46244-1.504-0.78919-3.2199-7.0627-10.303-10.57-21.106-13.1-32.388"/>
   <path id="path3113" d="m159.19 777.47c0.49803 2.8227 3.6147 8.0851 5.7137 11.49 2.4113 3.912 4.3663 7.7579 7.0711 11.364 5.3946 7.1928 9.5964 1.4899 9.5964-4.7982 0-4.4222-2.9398-8.3598-4.5457-12.374-3.3336-8.3339-7.1973-23.432-7.1973-31.63"/>
   <path id="path3115" d="m133.09 732.65c-1.2215 7.0868 7.2428 34.998 16.415 23.991"/>
   <path id="path3119" d="m133.34 706.13c2.5286 7.2627 1.4965 17.316 6.3134 23.739 7.484 9.9786 8.8967-5.1006 7.1973-11.049"/>
   <path id="path3123" d="m142.94 735.93c-1.9454 10.869 25.735 58.421 20.456 21.466"/>
   <path id="path3127" d="m152.28 722.29c-3.5089 4.5492 9.661 49.21 16.92 31.062 3.8534-9.6336-5.5867-20.394-1.0102-29.547"/>
   <path id="path3131" d="m139.65 698.3c3.4769 6.1025 1.3056 15.26 6.566 20.203 5.3138 4.993 7.5711-5.3907 6.1556-8.1128"/>
   <path id="path3133" d="m147.48 682.9c-0.13681 1.7508 0.8286 7.9272 0.72605 9.7543 1.4103 8.4618 0.90167 25.867 11.617 15.152"/>
   <path id="path3139" d="m160.11 688.96c-0.22201 4.8583-3.174 40.036 8.0353 34.746 1.4262-0.6731 2.7339-2.8871 3.1044-4.7396 0.6674-3.337-0.57609-6.392 0.003-9.8643"/>
   <path id="path3141" d="m170.72 678.61c-0.25593 1.3662 0.33657 2.9469 0 4.2932-2.2318 8.9274-1.1037 20.43 1.2627 29.042 2.357 8.5779 7.9029 5.5909 8.8388-2.0203 1.5509-15.244 3.3322-30.877 9.2853-42.784"/>
   <path id="path3147" d="m188.9 659.16c1.5888 3.8794 2.0664 31.093 7.8287 27.274 4.003-2.6527 5.1483-11.322 4.8661-18.807-0.24062-6.3818 0.90031-11.951 1.524-12.628"/>
   <path id="path3151" d="m202.03 642.24c-0.49646 4.5134 2.6141 31.311 7.3875 40.948 1.3183 2.6617 2.832 3.9303 4.2293 3.1591 4.3657-2.4098 4.475-37.738 4.5457-41.33"/>
   <path id="path3155" d="m217.94 661.94c-0.94178 4.9162 16.727 36.195 17.299 13.385-0.92723-7.6486-3.3501-13.4-4.9245-19.698-1.4932-5.9728 2.7965-14.031 2.0203-18.688"/>
   <path id="path3161" d="m232.53 638.35c-1.0163 11.367 19.537 70.277 32.636 57.178 1.4355-1.4355 1.1772-5.6434 0.50508-7.3236-5.5496-13.874-12.091-21.974-13.006-34.345 0.53855 2.3423 1.475 4.6014 2.0293 6.8185 0.65302 2.6121 7.0681 15.778 10.976 11.869 3.9688-3.9688-0.90646-18.215-1.0102-22.223 1.1937 2.2982 1.8609 4.2268 2.7779 6.0609 4.1396 8.2792 5.2008 21.718 17.425 21.718 3.2111 0 2.8981-6.2784 2.6453-8.048"/>
   <path id="path3169" d="m280.06 647.04c0.0194 3.4949 2.7682 9.5357 4.0815 15.04 2.5979 10.888 11.842 17.868 13.849 3.6479"/>
   <path id="path3185" d="m294.21 652.59c1.9407 5.8172 3.2821 17.488 8.5863 21.466 4.4438 3.3328 6.1302-3.2583 5.3033-6.566-0.69087-2.7634-2.0546-5.0038-2.5254-7.8287"/>
   <path id="path3187" d="m305.91 661.73c7.3875 7.8234 5.9581 18.375 7.468 22.42 0.13393 0.99333 0.83465 4.0252 4.0395 4.9044 9.2792-2.8419 6.4283-22.293 4.0631-29.388"/>
   <path id="path3195" d="m323.81 673.99c0.86741 3.6686 1.4614 8.4141 3.7294 11.438 4.6748 6.233 8.5863-3.1637 8.5863-7.0711 0-9.7636-5.0508-21.068-5.0508-28.032"/>
   <path id="path3197" d="m336.89 678.35c3.9165 3.2484 1.2839 10.214 4.0406 13.89 1.016 1.3547 2.2211 1.5152 3.7881 1.5152 10.675 0 1.5802-25.643 2.5254-31.315"/>
   <path id="path3199" d="m347.97 692.33c-1.0981 2.1293-0.91905 6.9124-0.29586 9.4052 0.34626 1.385 1.6567 4.3851 3.1197 4.3851 8.4389 0 8.0633-22.39 8.0633-29.029"/>
   <path id="path3201" d="m351.65 724.39c-1.5703 3.3878 11.284 25.862 15.288 17.856 3.5085-7.0171-5.2765-21.026-6.3134-28.284"/>
   <path id="path3203" d="m366.57 732.4c14.267 6.7767 1.2219-29.606-0.63769-36.116"/>
   <path id="path3206" d="m372.6 721.69c12.693-0.21421-0.57169-26.167-1.3647-31.718"/>
   <path id="path3212" d="m376.25 705.35c11.413-2.7182 1.2798-17.369 1.1174-22.137"/>
   <path id="path3216" d="m351.28 746.03c1.2224 6.0281 4.7612 10.982 6.2202 15.466 3.1076 9.5518 13.429 10.07 6.9118-12.688"/>
   <path id="path3220" d="m366.4 762.55c1.4244 3.8698 7.7854 17.306 12.584 11.548 0.3795-0.62504 0.93498-3.0403 0.86222-4.7728 0.8117-9.8466-3.0557-19.491-7.3542-28.088"/>
   <path id="path3228" d="m378.11 754.72c8.5098 10.54 6.726-4.7294 4.487-9.9536"/>
   <path id="path3242" d="m376.28 732.14c1.5191 4.0508-0.19977 5.2906 4.3365 10.339 1.3435 2.135 2.687 2.8322 4.0306 1.8724 7.5858-3.3301-4.0857-31.038-4.3264-42.011"/>
   <path id="path3246" d="m363.51 779.28c-2.9436 10.302-10.123 1.2027-11.513-5.188-0.78744-2.207-1.9945-3.4312-2.2614-5.0326"/>
   <path id="path3250" d="m374.35 775.23c3.7241 14.248-6.072 13.864-10.774 4.454-0.98781-1.977-1.7644-4.3408-2.2027-7.0266"/>
  </g>
 </g>
 <g id="layer11" transform="translate(0,100)">
  <path id="path4481" d="m318.57 143.24c-12.751 0.29094-25.388 6.0258-33.838 15.606-4.5266 5.1507-7.351 11.777-7.5772 18.658-0.39757 5.1004-1.303 10.371-0.17817 15.517 1.0527 6.4795 4.7698 12.544 10.437 15.967 5.4917 3.47 12.171 4.6702 18.587 4.2097 9.4131-0.30436 18.632-3.7707 26.272-9.2098 6.5634-4.7737 12.031-11.509 14.133-19.445 0.48353-6.8047 2.0158-13.777 1.0767-20.697-0.72285-3.7496-2.5549-7.2936-4.9102-10.276-3.504-4.0991-8.0113-7.4069-13.25-8.8704-3.4741-1.0667-7.1232-1.5127-10.752-1.4605zm-4.2798 16.922c4.8221 0.21234 9.3703 2.3622 13.367 4.9408 4.8848 3.5548 5.8761 10.376 4.6367 15.863-1.574 7.202-6.1305 14.343-13.211 17.116-3.87 1.4149-8.2886 0.99966-11.793-1.1845-6.1863-3.2498-10.445-9.5198-12.026-16.234-0.66837-4.3101-0.866-9.0978 1.6055-13.004 2.7081-4.5694 8.035-6.6708 13.103-7.1916 1.4286-0.20943 2.8729-0.34053 4.318-0.30559z" fill="#fa8de4"/>
  <path id="path4487" d="m313.82 158.17c-6.2228 0.21147-13.122 1.5628-17.282 6.6341-3.7258 4.3045-4.2895 10.394-3.2159 15.786 1.7569 9.1446 8.6255 17.487 17.745 19.953 6.3975 1.5758 12.928-1.9184 17.013-6.6975 5.395-6.2908 8.1772-15.391 5.6343-23.472-1.5686-5.2515-6.5335-8.4219-11.369-10.318-2.7171-1.0448-5.5919-1.8938-8.5261-1.8847zm2.5496 15.541c0.99086-0.15516 1.8202 0.27341 2.2102 1.1877 1.5728 2.0291 4.0639 3.2077 5.4508 5.3576 0.30089 2.1352 0.44706 4.3402-0.072 6.4126-0.86363 2.514-3.4715 3.9226-6.0506 3.7166-4.9726 0.40993-10.125-4.0593-9.2892-9.2339 0.51983-3.3967 2.7567-7.079 6.4851-7.3927 0.41991-0.0503 0.84328-0.0586 1.2656-0.0479z" fill="#f82771"/>
  <path id="path4489" d="m315.43 171.84c-5.2086 0.29936-9.0121 5.6074-8.5856 10.614-0.30982 4.3669 3.4175 7.9678 7.2618 9.3488 3.8104 1.1462 8.923 0.53806 10.985-3.3072 1.4374-2.5126 1.1645-5.6217 0.70582-8.3658-0.93965-2.9982-4.0967-4.3741-5.9568-6.7168-1.097-1.5592-2.5671-2.0579-4.4105-1.573z" fill="#2d98f0"/>
  <path id="path4493" d="m211.57 152.07c-11.022 0.0699-22.609 5.8642-27.012 16.391-3.361 6.8356-2.5552 14.717-2.208 22.073 0.25764 6.0424 3.3721 11.66 8.118 15.345 8.6412 6.8597 20.757 7.2681 31.039 4.4943 9.2885-2.4968 18.393-8.6994 21.32-18.272 1.7514-6.0531 1.4273-12.504 1.0247-18.723-1.1317-8.9092-8.9-15.428-16.827-18.574-4.8937-1.9377-10.197-2.8366-15.454-2.7344zm-1.605 21.788c6.5618-0.14057 13.212 4.0142 14.94 10.54 1.8518 6.1343 0.4588 14.147-5.6473 17.348-5.2281 2.8366-12.583 2.8239-16.832-1.7934-5.7981-5.7877-7.3728-16.429-1.5297-22.713 2.3533-2.3868 5.7738-3.4316 9.0688-3.3817z" fill="#fa8de4"/>
  <path id="path4495" d="m209.74 172.02c-6.0411-0.11715-11.959 3.9077-13.505 9.8528-2.719 8.9482 1.8428 20.508 11.325 23.099 7.7444 2.2276 17.461-2.1733 19.27-10.428 2.193-7.6828-0.98259-17.003-8.4724-20.504-2.6524-1.3558-5.6372-2.0683-8.6175-2.0201zm5.1709 14.478c2.7498 1.3698 4.4207 4.5647 4.9288 7.5216 0.44011 2.0729-0.42442 4.8787-2.9548 4.8661-3.6801 1.022-7.518-1.947-7.5098-5.7652-0.52212-3.5433 1.9491-6.5166 5.5357-6.6225z" fill="#db158c"/>
  <path id="path4497" d="m214.07 184.82c-5.1266 0.28-8.005 6.4621-6.0017 10.905 1.6323 4.807 8.4804 6.9761 12.275 3.4159 3.0097-4.1441 0.53718-10.027-2.9485-13.073-0.92761-0.77-2.1029-1.2854-3.3245-1.2472z" fill="#5846d7"/>
 </g>
 <g id="layer6" transform="translate(0,100)" fill="none">
  <path id="path3266" stroke-linejoin="round" d="m254.56 207.31c3.8076-8.924 12.656-8.0518 19.193-1.5152" stroke="#000" stroke-linecap="round" stroke-width="1px"/>
  <g stroke-opacity="0">
   <path id="path3276" d="m213.14 205.04c14.192-1.6898 16.043-14.849 12.203-23.34-2.3054-5.0984-7.4391-9.0314-15.36-9.2379-22.159 0.34618-16.071 34.867 3.1567 32.577z"/>
   <path id="path3280" d="m215.16 185.08c-11.052 0.41371-8.9854 17.404 2.2728 15.152 7.6223-1.5245 2.5826-13.765-2.2728-15.152z"/>
   <path id="path3282" d="m324.26 161.6c-6.2704-3.3382-10.684-3.3686-17.425-2.0203-20.944 4.1887-15.433 32.667 2.0203 39.648 20.083 8.0331 36.702-29.642 15.405-37.628z"/>
   <path id="path3288" d="m318.7 172.71c-3.4801-1.1549-7.6276 0.002-9.5964 3.283-9.7829 16.305 20.319 23.811 16.415 4.2932-0.57557-2.8778-5.0473-4.0337-6.8185-7.5761z"/>
  </g>
  <g stroke-linejoin="round" stroke="#f00" stroke-linecap="round" stroke-width="1px">
   <path id="path3304" d="m315.42 216.9c7.0484-2.0733 15.922-4.0683 18.94-11.112"/>
   <path id="path3308" d="m319.97 220.69c5.1404-1.4382 10.133-4.1428 12.879-7.5761"/>
   <path id="path3310" d="m326.28 223.22c-1.5645 0.21665 3.3538-1.8386 4.7982-3.283"/>
  </g>
  <g stroke-linejoin="round" stroke="#000" stroke-linecap="round" stroke-width="1px">
   <path id="path3330" d="m225.26 234.08c8.1285 6.1123 13.357 16.067 25.506 13.637 3.2582-0.65164 5.3431-3.283 9.0914-3.283 4.8082 0 7.9888 3.5586 13.132 2.2728 3.8812-0.97032 6.8981-6.0033 10.859-7.3236"/>
   <path id="path3272" d="m238.4 198.22c-13.766 18.354-56.273 18.049-54.927-11.617-4.7972-44.885 57.016-39.701 59.346-11.617 0.12627 6.8754 0.81914 16.249-4.4194 23.234z"/>
   <path id="path3300" d="m278.55 179.15c-1.3521-30.211 51.335-49.231 65.912-20.077 4.1277 8.2554 0.75761 16.944 0.63134 25.38-9.4894 33.15-75.032 41.978-66.544-5.3033z"/>
  </g>
  <path id="path3312" stroke-linejoin="round" d="m184.61 206.55c4.2893 4.1459 9.3145 5.3033 13.637 5.3033" stroke="#f00" stroke-linecap="round" stroke-width="1px"/>
  <path id="path3314" stroke-linejoin="round" d="m185.11 211.35c3.6793 1.819 6.995 3.9541 11.112 2.7779" stroke="#f00" stroke-linecap="round" stroke-width="1px"/>
 </g>
 <g id="layer12" transform="translate(0,100)">
  <g id="g7478" fill-rule="evenodd" transform="translate(.0000034429)" fill="#988bf1">
   <path id="path4520-2" d="m299.56 130.17c0.68122 3.2984 1.9215 5.5253 4.0297 6.0885 2.7267-0.96029 3.1483-3.7646 3.549-6.5857-2.3691 1.528-4.8536 2.0554-7.5788 0.49716z"/>
   <path id="path4520-70" d="m245.45 154.32c0.14654 2.9122-0.10255 5.5741 2.8244 6.401 3.002-0.72537 2.89-4.5217 3.549-7.2553-3.6373 2.9172-4.9276 1.6172-6.3734 0.8543z"/>
   <path id="path4520-0" d="m219.11 136.6c0.0562 4.3465 1.3843 6.8759 3.9404 7.651 3.0443-0.62837 3.319-3.7186 3.1919-7.166-2.3774 1.1283-4.7549 0.76409-7.1323-0.48499z"/>
   <path id="path4520-7" d="m196.08 229.15c-0.29876 3.5917 0.29204 6.4006 2.9583 7.3832 3.0435-0.55795 3.2988-3.9041 3.683-7.1214-2.3251 1.3042-4.5541 1.4076-6.6412-0.26177z"/>
  </g>
  <g id="g7497" stroke-linejoin="round" stroke-opacity=".66275" stroke="#3526ee" stroke-linecap="round" stroke-width="1px" fill="none">
   <path id="path3316" d="m196.22 228.77c-1.7386 9.9157 6.566 10.98 6.566 0.25254"/>
   <path id="path3320" d="m245.47 154.28c-1.1034 9.1699 6.3134 8.3564 6.3134-0.75761"/>
   <path id="path3322" d="m219.2 136.09c-1.4348 10.318 8.6794 11.763 7.0711 0.50507"/>
   <path id="path3328" d="m299.76 130.03c0.5439 10.19 8.2316 5.8512 7.3236-0.50508"/>
  </g>
 </g>
</svg>
