<?xml version="1.0" encoding="UTF-8"?>
<svg fill="#9e0673" xmlns="http://www.w3.org/2000/svg" xmlns:xlink="http://www.w3.org/1999/xlink" version="1.1" x="0px" y="0px" viewBox="0 0 100 100" enable-background="new 0 0 100 100" xml:space="preserve"><g><path d="M66.04,61.411c0.011,0.003,0.019,0.009,0.03,0.013c9.641,3.607,19.647,4.198,29.01,1.838   c1.568-3.278,2.595-6.885,2.937-10.717c1.004-11.181-4.011-21.511-12.364-27.8C84.718,39.152,77.364,52.255,66.04,61.411z"></path><path d="M60.091,58.746c1.137,0.588,2.286,1.15,3.463,1.661c11.781-9.071,19.347-22.48,19.854-37.201   c-2.168-1.355-4.521-2.453-7.019-3.25C76.747,34.347,70.664,48.322,60.091,58.746z"></path><path d="M57.577,57.356c0.126,0.073,0.253,0.147,0.382,0.221c10.606-10.198,16.661-24.054,16.09-38.27   c-1.428-0.335-2.894-0.581-4.396-0.715c-9.233-0.828-17.884,2.448-24.162,8.315C46.497,38.451,50.851,49.035,57.577,57.356z"></path><path d="M79.188,66.797c-4.659-0.416-9.333-1.483-13.93-3.204c-0.456-0.17-0.899-0.359-1.35-0.541   c-0.179,0.134-0.371,0.259-0.554,0.39c6.311,5.619,13.962,9.57,22.447,11.204c3.103-2.362,5.757-5.298,7.804-8.664   C88.896,66.955,84.053,67.233,79.188,66.797z"></path><path d="M57.65,61.005c-4.188,3.684-8.979,6.834-14.272,9.301c5.913-1.568,11.396-4.021,16.296-7.167   C58.979,62.448,58.306,61.734,57.65,61.005z"></path><path d="M61.403,64.783c-4.906,3.219-10.391,5.754-16.297,7.446c4.963,4.807,11.541,8.016,18.958,8.681   c6.952,0.624,13.578-1.081,19.108-4.466C74.957,74.456,67.554,70.383,61.403,64.783z"></path><path d="M41.801,68.476c5.331-2.415,10.151-5.539,14.334-9.221c-0.028-0.035-0.055-0.072-0.084-0.105   c-7.592-4.537-14.131-10.833-19.144-18.455c-0.603,2.003-1.014,4.096-1.208,6.262C34.982,54.953,37.345,62.515,41.801,68.476z"></path><path d="M52.078,53.669c-4.573-7.194-7.623-15.58-8.704-24.581c-2.278,2.583-4.144,5.553-5.476,8.816   C41.701,44.08,46.502,49.419,52.078,53.669z"></path></g><path d="M43.28,70.309c-7.229,2.227-17.238,3.114-24.753,1.114c0.449-0.517,0.85-1.066,1.193-1.657  c1.559-2.674,1.313-6.008-0.588-7.928c-1.606-1.621-3.943-1.805-6.25-0.49c-2.177,1.241-3.394,3.151-3.336,5.24  c0.06,2.198,1.523,4.223,3.913,5.416c0.167,0.084,0.339,0.167,0.511,0.246c-3.264,2.075-7.616,3.323-11.1,4.323l-1.014,0.292  l0.646,2.226l1.007-0.29c4.118-1.182,9.366-2.687,13.053-5.54c8.516,2.764,20.259,1.7,28.49-1.089  C44.438,71.576,43.845,70.956,43.28,70.309z M17.718,68.598c-0.433,0.743-0.988,1.416-1.64,2.033  c-0.548-0.215-1.078-0.446-1.584-0.7c-1.611-0.804-2.596-2.077-2.632-3.406c-0.034-1.224,0.736-2.348,2.167-3.162  c0.69-0.394,1.341-0.58,1.925-0.563c0.588,0.017,1.107,0.241,1.531,0.67C18.469,64.461,18.885,66.598,17.718,68.598z"></path></svg>