<svg xmlns="http://www.w3.org/2000/svg" width="640" height="360"><path fill="#d72678" d="M0 0h160v180H0z"/><path fill="#0dbf9e" d="M0 180h80v90H0z"/><path fill="#b51d31" d="M80 180h80v90H80z"/><path fill="#077bc5" d="M0 270h160v90H0z"/><path fill="#f7b521" d="M160 0h170v90H160zM160 180h170v180H160zM590 100h50v90h-50z"/><path fill="#0dbf9e" d="M160 90h90v90h-90z"/><path fill="#077bc5" d="M250 90h80v90h-80z"/><path fill="#0dbf9e" d="M330 0h80v220h-80zM330 280h80v80h-80z"/><path fill="#077bc5" d="M330 220h80v60h-80z"/><path fill="#d72678" d="M410 50h120v310H410z"/><path fill="#b51d31" d="M410 0h120v50H410z"/><path fill="#077bc5" d="M530 0h110v100H530z"/><path fill="#0dbf9e" d="M530 100h60v90h-60z"/><path fill="#b51d31" d="M530 190h110v170H530z"/></svg>