<?xml version="1.0" encoding="UTF-8" standalone="no"?>
<!-- Created with Inkscape (http://www.inkscape.org/) -->

<svg
   xmlns:osb="http://www.openswatchbook.org/uri/2009/osb"
   xmlns:dc="http://purl.org/dc/elements/1.1/"
   xmlns:cc="http://creativecommons.org/ns#"
   xmlns:rdf="http://www.w3.org/1999/02/22-rdf-syntax-ns#"
   xmlns:svg="http://www.w3.org/2000/svg"
   xmlns="http://www.w3.org/2000/svg"
   xmlns:xlink="http://www.w3.org/1999/xlink"
   xmlns:sodipodi="http://sodipodi.sourceforge.net/DTD/sodipodi-0.dtd"
   xmlns:inkscape="http://www.inkscape.org/namespaces/inkscape"
   sodipodi:docname="jenny-final.svg"
   inkscape:version="0.91 r13725"
   version="1.1"
   id="svg2"
   height="600"
   width="500">
  <sodipodi:namedview
     inkscape:window-maximized="1"
     inkscape:window-y="-8"
     inkscape:window-x="-8"
     inkscape:window-height="706"
     inkscape:window-width="1366"
     showgrid="false"
     inkscape:current-layer="layer10"
     inkscape:document-units="px"
     inkscape:cy="230.59903"
     inkscape:cx="300.8572"
     inkscape:zoom="1.4142136"
     inkscape:pageshadow="2"
     inkscape:pageopacity="0.0"
     borderopacity="1.0"
     bordercolor="#666666"
     pagecolor="#ffffff"
     id="base" />
  <defs
     id="defs4">
    <linearGradient
       id="linearGradient7517"
       osb:paint="solid">
      <stop
         style="stop-color:#5846d7;stop-opacity:1;"
         offset="0"
         id="stop7519" />
    </linearGradient>
    <linearGradient
       id="linearGradient7435"
       osb:paint="solid">
      <stop
         style="stop-color:#ff0000;stop-opacity:1;"
         offset="0"
         id="stop7437" />
    </linearGradient>
    <linearGradient
       inkscape:collect="always"
       xlink:href="#linearGradient7517"
       id="linearGradient7521"
       x1="146.842"
       y1="387.59158"
       x2="381.12204"
       y2="387.59158"
       gradientUnits="userSpaceOnUse" />
    <linearGradient
       inkscape:collect="always"
       xlink:href="#linearGradient7517"
       id="linearGradient7531"
       gradientUnits="userSpaceOnUse"
       x1="146.842"
       y1="387.59158"
       x2="381.12204"
       y2="387.59158" />
    <linearGradient
       inkscape:collect="always"
       xlink:href="#linearGradient7517"
       id="linearGradient7533"
       gradientUnits="userSpaceOnUse"
       x1="146.842"
       y1="387.59158"
       x2="381.12204"
       y2="387.59158" />
    <linearGradient
       inkscape:collect="always"
       xlink:href="#linearGradient7517"
       id="linearGradient7535"
       gradientUnits="userSpaceOnUse"
       x1="146.842"
       y1="387.59158"
       x2="381.12204"
       y2="387.59158" />
  </defs>
  <metadata
     id="metadata7">
    <rdf:RDF>
      <cc:Work
         rdf:about="">
        <dc:format>image/svg+xml</dc:format>
        <dc:type
           rdf:resource="http://purl.org/dc/dcmitype/StillImage" />
        <dc:title></dc:title>
        <cc:license
           rdf:resource="http://creativecommons.org/licenses/by/3.0/" />
      </cc:Work>
      <cc:License
         rdf:about="http://creativecommons.org/licenses/by/3.0/">
        <cc:permits
           rdf:resource="http://creativecommons.org/ns#Reproduction" />
        <cc:permits
           rdf:resource="http://creativecommons.org/ns#Distribution" />
        <cc:requires
           rdf:resource="http://creativecommons.org/ns#Notice" />
        <cc:requires
           rdf:resource="http://creativecommons.org/ns#Attribution" />
        <cc:permits
           rdf:resource="http://creativecommons.org/ns#DerivativeWorks" />
      </cc:License>
    </rdf:RDF>
  </metadata>
  <g
     style="display:inline"
     inkscape:label="neck color"
     id="layer13"
     inkscape:groupmode="layer"
     sodipodi:insensitive="true"
     transform="translate(0,100)">
    <path
       style="fill:#faaeda;fill-opacity:1;stroke:#ff0000;stroke-width:0.125;stroke-opacity:1"
       d="m 281.18166,268.6262 c -4.53905,0.72637 -9.061,1.6315 -13.64881,2.02871 -6.99701,0.62061 -14.17675,0.57224 -21.21661,0.29715 -4.84657,-0.22005 -9.69842,-0.7108 -14.49175,-1.64202 -1.04478,-0.11906 -1.29492,1.02902 -1.25977,1.84082 -0.25529,2.28044 -1.13949,4.29651 -1.68848,6.49414 0.0853,1.20103 1.24246,1.94032 1.9939,2.76074 4.341,3.97257 10.02683,5.88468 15.37374,8.07466 6.13836,2.40092 12.43381,4.89815 17.46705,9.27864 0.74948,0.71126 1.69666,0.0502 2.27518,-0.53103 5.51628,-4.64129 10.4376,-9.97415 14.61694,-15.84839 0.74322,-1.16684 1.78684,-2.18383 2.28174,-3.47998 -0.17512,-2.83262 -0.20763,-5.68606 -0.49121,-8.5061 -0.15908,-0.50776 -0.69532,-0.80949 -1.21192,-0.76734 z"
       id="path7433"
       inkscape:connector-curvature="0" />
  </g>
  <g
     style="display:inline"
     inkscape:label="sweater"
     id="layer16"
     inkscape:groupmode="layer"
     transform="translate(0,100)"
     sodipodi:insensitive="true">
    <g
       id="g6354"
       style="fill:url(#linearGradient7521);fill-opacity:1">
      <path
         style="fill:url(#linearGradient7531);fill-opacity:1;stroke:none;stroke-opacity:0"
         d="m 302.74426,265.17966 c -4.6078,0.55621 -9.3773,1.23045 -13.7305,2.67383 -7.2206,10.44009 -14.055,21.71092 -24.3652,29.41211 -2.3249,-0.87389 -4.1808,-3.22561 -6.6055,-4.20703 -8.88,-5.17823 -19.6911,-6.86993 -27.4473,-13.92578 -2.5382,-2.18407 -2.8751,-5.80726 -4.7363,-8.32032 -3.9696,0.71831 -7.5135,3.36706 -11.2597,4.91407 -17.4399,8.3395 -33.0659,19.86996 -48.98052,30.72265 -7.11366,4.91414 -14.68064,10.65798 -16.9668,19.47071 -1.85242,8.46753 0.51037,17.14418 -0.0254,25.68945 -0.86536,18.79513 -3.39796,37.97074 -0.2539,56.73047 3.71461,18.37522 4.13225,37.85219 12.41015,55.01562 2.4514,4.80572 5.21444,9.67167 9.4668,13.1211 -3.0521,-0.43528 -1.29026,4.28133 -1.9082,6.26562 -0.21632,6.77843 -2.23134,13.47632 -1.78516,20.25781 1.95013,2.00899 5.7475,0.67414 8.41211,1.36329 59.54851,3.54971 119.50431,9.3309 179.03321,2.37695 4.2323,-0.72005 8.7561,-0.79238 12.7578,-2.21094 -0.5554,-7.7164 -2.1806,-15.56423 -2.668,-23.29101 -0.8993,-0.93672 2.1142,-1.91212 2.6094,-3.33008 4.3584,-7.07032 3.4516,-15.89734 4.4649,-23.79102 0.6273,-8.19112 3.5025,-16.10968 4.1152,-24.35742 2.26,-21.14003 2.2276,-42.44053 5.459,-63.45703 1.8501,-12.69302 -3.2946,-25.22716 -9.6309,-35.94727 -5.041,-8.2981 -11.1513,-16.67494 -11.3183,-26.7539 -0.265,-7.55873 -6.7486,-12.53313 -12.5157,-16.32813 -13.9529,-8.79332 -29.4086,-15.0224 -44.1855,-22.08789 -0.1147,-0.009 -0.2307,-0.008 -0.3457,-0.006 z"
         id="path4796"
         inkscape:connector-curvature="0" />
      <path
         style="fill:url(#linearGradient7533);fill-opacity:1;stroke:none;stroke-opacity:0"
         d="m 287.84577,267.54766 c -1.93348,0.33583 -3.94792,0.48755 -5.812,1.05201 -1.01001,0.70615 -0.16533,2.10822 -0.31354,3.14106 0.20596,1.72618 -0.086,3.54997 0.43865,5.20613 1.12874,1.00049 1.97911,-0.57086 2.47328,-1.42711 1.4121,-2.19799 2.90816,-4.34717 4.24596,-6.59033 0.21137,-0.7219 -0.27673,-1.38936 -1.03235,-1.38176 z"
         id="path6339"
         inkscape:connector-curvature="0" />
      <path
         style="fill:url(#linearGradient7535);fill-opacity:1;stroke:none;stroke-opacity:0"
         d="m 227.00455,270.41579 c -1.34763,0.17682 -0.99937,1.71864 -0.64496,2.59261 0.55072,1.46499 0.92547,3.18241 2.10626,4.27285 1.24535,0.6039 1.73187,-0.94744 1.96737,-1.84913 0.24097,-1.20391 1.12983,-2.51417 0.54673,-3.72158 -0.96648,-0.99637 -2.52812,-1.00383 -3.81451,-1.29371 l -0.12982,-0.002 -0.0311,0.001 z"
         id="path6341"
         inkscape:connector-curvature="0" />
    </g>
  </g>
  <g
     style="display:inline"
     inkscape:label="right hand color"
     id="layer14"
     inkscape:groupmode="layer"
     transform="translate(0,100)"
     sodipodi:insensitive="true">
    <path
       inkscape:connector-curvature="0"
       id="path4850"
       d="m 230.99867,290.07239 c -3.29082,0.43773 -5.48652,3.41837 -7.21778,5.98047 -0.65398,1.55469 -0.15042,-0.21936 -0.15576,-0.86523 0.24352,-2.01836 -1.97598,-3.95842 -3.88721,-2.86036 -3.58204,2.01471 -5.63299,5.83146 -7.78907,9.17742 -1.98231,3.29752 -3.78915,7.03093 -5.32567,10.35188 -0.35439,-2.40126 -3.50646,-2.68649 -5.20117,-1.5039 -3.437,2.11684 -5.05012,6.08602 -6.88908,9.49924 -1.62257,3.30331 -3.01765,6.87115 -2.67205,10.62574 0.0636,3.90457 2.56468,7.2163 4.54436,10.40151 3.27436,5.02691 7.53233,9.73766 8.98063,15.70007 -0.17736,3.38457 -2.64499,6.10625 -3.8916,9.14258 -0.0417,1.66207 2.14067,1.88418 3.25744,2.57433 5.93717,2.45889 12.4452,3.39247 18.84752,3.25976 3.82203,-0.0622 7.67964,0.1327 11.47854,-0.30284 1.71849,-0.90685 1.22486,-3.2024 1.83642,-4.75977 0.45688,-2.18648 1.59208,-4.25555 3.61362,-5.3569 4.77488,-3.57182 8.96255,-8.88032 8.88394,-15.11429 0.21446,-3.93905 -1.02165,-7.71879 -1.47839,-11.58396 -0.77811,-7.9627 2.96406,-15.68021 2.28503,-23.73928 -0.28603,-2.08919 -1.84114,-4.75434 -4.25,-4.48926 -1.79235,0.46809 -2.92655,2.48165 -3.76416,3.75 0.65208,-4.54598 1.73423,-9.20995 0.98047,-13.80518 -0.53013,-2.61608 -3.6598,-4.75877 -6.12646,-3.12695 -1.53543,0.89942 -2.53805,2.56782 -3.19483,4.10254 0.41262,-2.28176 0.73789,-5.37109 -1.56933,-6.77734 -0.39733,-0.20636 -0.84928,-0.29617 -1.29541,-0.28028 z"
       style="fill:#faaeda;fill-opacity:1;stroke:none;stroke-opacity:0" />
    <path
       inkscape:connector-curvature="0"
       id="path4806"
       d="m 201.05167,360.15996 c -4.77155,0.11048 -6.89521,5.22112 -8.33958,9.01147 -2.73804,7.59496 -4.44459,15.50234 -6.6747,23.22542 0.34857,2.55166 3.62456,2.93316 5.47798,4.02406 7.65653,3.13129 15.75977,5.45724 24.02329,6.14039 7.13253,0.38024 14.41527,-0.13328 21.09001,-2.87241 1.81218,-0.6986 4.23977,-1.39501 4.00509,-3.83267 1.46593,-8.30278 3.98629,-16.76688 2.67099,-25.25331 -0.52882,-2.49105 -2.97965,-5.39098 -5.74662,-4.63901 -1.18502,0.82316 -0.95976,2.61406 -1.0579,3.90152 0.68671,0.90427 -1.16235,0.77565 -1.71874,1.30304 -6.62866,0.77388 -13.39097,0.56499 -20.01858,-0.16573 -4.2086,-0.94874 -8.79091,-1.54751 -12.37494,-4.1088 -0.57525,-0.59613 -2.02317,-1.10892 -0.72518,-1.68547 0.61155,-1.38164 2.43284,-3.56839 0.78652,-4.80957 -0.42966,-0.2153 -0.92526,-0.24654 -1.39764,-0.23893 z"
       style="display:inline;fill:#c83153;fill-opacity:1;stroke:none;stroke-opacity:0" />
  </g>
  <g
     style="display:inline"
     inkscape:label="body"
     id="layer2"
     inkscape:groupmode="layer"
     sodipodi:insensitive="true"
     transform="translate(0,100)">
    <path
       sodipodi:nodetypes="cc"
       inkscape:connector-curvature="0"
       id="path3820"
       d="m 226.21104,270.12717 c 1.03787,0.9103 3.69753,1.32125 4.48255,1.45209"
       style="fill:none;stroke:#000000;stroke-width:1px;stroke-linecap:round;stroke-linejoin:round;stroke-opacity:1" />
    <path
       sodipodi:nodetypes="cc"
       inkscape:connector-curvature="0"
       id="path3563"
       d="m 229.30552,277.48391 c 1.11337,-3.42932 1.80738,-4.80624 1.80738,-8.21057"
       style="fill:none;stroke:#ff0000;stroke-width:1px;stroke-linecap:round;stroke-linejoin:round;stroke-opacity:1" />
    <path
       sodipodi:nodetypes="cc"
       inkscape:connector-curvature="0"
       id="path3561"
       d="m 282.43687,277.9438 -0.46176,-9.07465"
       style="fill:none;stroke:#ff0000;stroke-width:1px;stroke-linecap:round;stroke-linejoin:round;stroke-opacity:1" />
    <path
       sodipodi:nodetypes="cccscccssccc"
       inkscape:connector-curvature="0"
       id="path3351"
       d="m 236.60714,399.46428 c -1.95395,11.72372 3.4424,32.04422 -0.71429,46.9643 -4.03732,21.72394 -4.73574,45.66888 -33.74999,45.89285 -11.4426,1.66016 -17.57942,-7.79773 -26.90404,-13.09531 -1.42491,-0.80953 -2.92426,-1.52191 -4.52454,-2.08326 -16.74284,-16.74285 -17.55668,-42.46975 -21.25,-65.17857 -6.48199,-24.56198 2.00654,-52.64267 -1.43015,-78.02877 -0.57533,-6.82228 2.50003,-16.6928 12.32301,-23.57838 13.45269,-9.42989 27.99345,-19.58178 41.78572,-27.85714 6.99227,-4.19536 16.43112,-8.44146 24.09182,-12.09504 2.13347,17.08404 25.3613,15.44202 38.22961,27.45218 11.76488,-9.24362 17.66982,-19.41958 24.8629,-30.2092"
       style="fill:none;stroke:#000000;stroke-width:1px;stroke-linecap:round;stroke-linejoin:round;stroke-opacity:1" />
    <path
       sodipodi:nodetypes="ccc"
       inkscape:connector-curvature="0"
       id="path3379"
       d="m 180.35714,451.42857 c 0.27929,-11.93858 -9.0098,-22.06162 0.89286,-32.5 1.89166,-9.15946 3.50745,-16.82072 5.76786,-24.73214"
       style="fill:none;stroke:#000000;stroke-width:1px;stroke-linecap:round;stroke-linejoin:round;stroke-opacity:1" />
    <path
       sodipodi:nodetypes="cc"
       inkscape:connector-curvature="0"
       id="path3385"
       d="m 171.42857,454.64286 c 1.41179,-7.70558 -0.0451,-20.1335 5.17858,-25.35715"
       style="fill:none;stroke:#000000;stroke-width:1px;stroke-linecap:round;stroke-linejoin:round;stroke-opacity:1" />
    <path
       sodipodi:nodetypes="cccc"
       inkscape:connector-curvature="0"
       id="path3395"
       d="m 236.77358,366.07143 c 12.26578,-1.75225 4.49585,22.33944 3.22642,31.78571 -17.51244,8.75622 -37.18868,3.69263 -54.28571,-4.28571 4.15243,-8.3621 6.14822,-39.77222 17.95724,-32.39159"
       style="fill:none;stroke:#000000;stroke-width:1px;stroke-linecap:round;stroke-linejoin:round;stroke-opacity:1" />
    <path
       sodipodi:nodetypes="csssc"
       inkscape:connector-curvature="0"
       id="path3401"
       d="m 201.47072,365.37684 c 0.83663,-2.59426 4.97287,-6.38818 4.24357,-9.30541 -2.22994,-8.91973 -11.1944,-15.13473 -13.57143,-24.64286 -1.16201,-4.64804 3.82308,-14.80594 7.34118,-19.13297 2.79361,-3.43597 8.40003,-3.08192 6.50445,1.88551"
       style="fill:none;stroke:#ff0000;stroke-width:1px;stroke-linecap:round;stroke-linejoin:round;stroke-opacity:1" />
    <path
       sodipodi:nodetypes="cssc"
       inkscape:connector-curvature="0"
       id="path3445"
       d="m 202.5,334.64286 c -1.37302,-3.53869 -0.10479,-10.3951 1.79132,-15.84321 4.96752,-14.27319 15.93453,-32.57274 18.92297,-24.51394 0.31252,0.84277 -0.68399,5.07981 -0.92199,6.0852"
       style="fill:none;stroke:#ff0000;stroke-width:1px;stroke-linecap:round;stroke-linejoin:round;stroke-opacity:1" />
    <path
       sodipodi:nodetypes="cssc"
       inkscape:connector-curvature="0"
       id="path3459"
       d="m 233.21429,299.64286 c 3.46685,-10.31261 9.51979,-7.42996 9.94994,-1.86115 0.37511,4.85627 -2.00925,14.87167 -3.1432,22.80564 -0.74953,5.24432 -0.31284,9.57923 -0.46111,10.91365"
       style="fill:none;stroke:#ff0000;stroke-width:1px;stroke-linecap:round;stroke-linejoin:round;stroke-opacity:1" />
    <path
       sodipodi:nodetypes="csscccc"
       inkscape:connector-curvature="0"
       id="path3469"
       d="m 236.22514,369.93902 c -0.0676,-3.73397 1.01727,-7.26946 2.86834,-8.28083 2.80083,-1.5303 4.966,-4.02417 6.55374,-6.02157 4.14013,-5.20835 4.35407,-11.43465 1.67421,-21.17233 -0.90098,-8.88634 6.9363,-25.50397 -0.65499,-28.0344 -1.2965,0.12181 -2.39313,0.86365 -2.38708,1.40428 -2.88603,2.88603 -3.13797,6.0046 -3.56507,10.02297"
       style="fill:none;stroke:#ff0000;stroke-width:1px;stroke-linecap:round;stroke-linejoin:round;stroke-opacity:1" />
    <path
       sodipodi:nodetypes="cc"
       inkscape:connector-curvature="0"
       id="path3397"
       d="m 198.92857,364.28571 c 10.28867,9.34507 34.20489,7.16996 39.64286,6.07143"
       style="fill:none;stroke:#000000;stroke-width:1px;stroke-linecap:round;stroke-linejoin:round;stroke-opacity:1" />
    <path
       sodipodi:nodetypes="cccccccc"
       inkscape:connector-curvature="0"
       id="path3531"
       d="m 307.12119,469.47326 c 2.08513,33.15598 44.53456,20.70214 58.5931,9.45531 5.53876,-6.20736 4.16844,-18.96349 5.55584,-29.4603 7.38103,-26.77183 3.70119,-47.70985 9.44416,-84.46827 0.53503,-8.21009 -0.36515,-14.42293 -3.75,-22.14286 -4.21341,-13.94335 -18.06005,-24.8482 -17.32143,-39.64285 l -0.71429,-3.57143 c -3.83089,-13.40811 -44.01456,-27.631 -56.78571,-34.82144"
       style="fill:none;stroke:#000000;stroke-width:1px;stroke-linecap:round;stroke-linejoin:round;stroke-opacity:1" />
    <path
       sodipodi:nodetypes="cccc"
       inkscape:connector-curvature="0"
       id="path3535"
       d="m 363.75,480.22321 c 0.26252,6.98079 2.05903,17.93997 3.03571,24.41964 -62.75857,10.10263 -134.27447,2.82317 -200,-1.07142 -0.98929,-6.5679 3.49301,-20.20798 1.60715,-28.75"
       style="fill:none;stroke:#000000;stroke-width:1px;stroke-linecap:round;stroke-linejoin:round;stroke-opacity:1" />
    <path
       sodipodi:nodetypes="cccc"
       inkscape:connector-curvature="0"
       id="path3796"
       d="m 218.06668,318.67762 c 0.18725,-7.50736 2.59223,-15.65093 6.45564,-23.26617 5.07834,-6.76251 9.22053,-6.25012 9.3075,-1.01607 -1.05727,10.86115 -4.52519,20.82272 -4.52519,31.47957"
       style="fill:none;stroke:#ff0000;stroke-width:1px;stroke-linecap:round;stroke-linejoin:round;stroke-opacity:1" />
  </g>
  <g
     style="display:inline"
     inkscape:label="left hand color"
     id="layer15"
     inkscape:groupmode="layer"
     transform="translate(0,100)"
     sodipodi:insensitive="true">
    <path
       inkscape:connector-curvature="0"
       id="path4854"
       d="m 350.13524,294.42835 c -2.45792,0.19603 -3.58628,2.85381 -4.5708,4.76855 -2.85575,6.99879 -2.44563,14.73954 -2.96072,22.14195 -0.29243,5.12483 -0.19839,10.3674 -1.64475,15.33901 -0.27116,-6.66492 -1.25451,-13.29801 -1.56738,-19.87939 -0.19872,-4.28986 -0.18808,-8.63703 0.53076,-12.91358 0.0213,-3.09885 -3.85182,-5.79598 -6.55176,-3.76025 -2.48343,1.74999 -2.43107,5.13738 -3.31543,7.76367 -2.49334,9.27927 -1.68783,18.97364 -2.14794,28.43701 -2.21904,-4.83141 -3.0416,-9.96054 -3.09369,-15.1732 -0.27937,-2.65128 0.28176,-5.53281 -0.8609,-8.01723 -0.54932,-1.33375 -2.28495,-1.92534 -3.33594,-0.80664 -2.65689,1.92949 -2.25875,5.55878 -2.64453,8.43604 -0.64271,9.8068 -0.49159,19.77894 2.03873,29.33638 1.69178,7.08223 4.63022,13.80285 8.27328,20.08745 -1.12261,1.62442 -0.88819,3.85681 -1.42871,5.71337 -2.6485,14.75628 -5.56298,29.45906 -9.08008,44.03565 -0.69052,1.19511 0.41163,2.45666 1.68799,2.30957 9.87982,0.49971 19.47307,-2.59895 28.71212,-5.72898 2.42273,-0.99751 5.11434,-1.67781 7.20243,-3.25051 1.1695,-12.18788 3.21083,-24.27398 4.625,-36.48291 5.52837,-3.71364 10.0001,-9.04799 12.29543,-15.33401 2.09687,-4.84517 3.19023,-10.02136 5.76804,-14.61424 2.12089,-3.2844 5.97418,-5.60741 6.73829,-9.65087 0.0418,-2.06856 -0.22727,-4.64428 -1.99268,-5.99268 -1.89939,-0.77884 -3.93263,0.49403 -5.7085,1.11768 -5.26353,2.19918 -8.70856,7.31382 -11.17822,12.09423 3.04009,-10.20916 4.50188,-20.89099 9.26807,-30.45556 1.37315,-2.92239 1.28522,-6.71472 -0.59815,-9.39649 -1.29246,-1.92557 -4.00351,-1.34687 -5.43213,0.0894 -4.70468,3.85246 -6.24148,10.04374 -8.51396,15.41108 -2.21747,5.62724 -4.11167,11.4202 -7.01094,16.74859 0.41701,-10.12027 3.19432,-20.05955 3.42188,-30.25049 -0.0241,-3.66597 0.10094,-8.16716 -3.07764,-10.67285 -1.12489,-0.77484 -2.45259,-1.44337 -3.84717,-1.44971 z"
       style="fill:#faaeda;fill-opacity:1;stroke:none;stroke-opacity:0" />
    <path
       inkscape:connector-curvature="0"
       id="path4879"
       d="m 355.84928,404.81502 c -0.89796,1.02578 -0.49337,2.58502 -0.79371,3.84966 -0.10743,1.3787 -0.39586,2.94737 -0.15302,4.20818 -8.10157,3.73402 -16.8107,6.36721 -25.56404,8.00637 -3.63906,0.67134 -7.39787,0.80537 -11.11194,0.3156 0.76168,-2.71552 1.39912,-5.49221 1.93729,-8.26431 -0.12193,-1.38239 -1.68658,-1.06277 -2.4949,-0.53206 -4.27892,1.90193 -8.56903,4.67034 -10.50697,9.12325 -1.50365,3.27181 -1.18183,7.02561 -0.65166,10.4845 1.08876,4.73682 -0.20992,9.51714 -1.03604,14.16854 -1.05821,5.08276 -2.2728,10.22587 -2.0944,15.46845 0.01,2.44816 0.31583,5.0181 1.42366,7.20568 1.49997,0.68634 3.29137,0.79407 4.93049,1.136 3.26845,0.35447 6.61258,0.20806 9.84955,-0.35607 4.8199,-0.9716 9.12932,-3.45838 13.67142,-5.14751 5.20934,-1.65805 10.79106,-1.9142 16.1906,-1.2509 2.4097,0.44476 5.02635,1.67839 7.41012,0.42605 3.70844,-1.89955 6.74143,-5.16367 8.42037,-8.97279 0.66675,-2.49528 0.40175,-5.1394 0.59994,-7.69663 0.12687,-8.11542 0.20156,-16.25197 -0.39881,-24.35099 -0.30135,-3.85515 -0.92405,-7.67766 -1.3664,-11.51265 0.16331,-1.60723 0.19193,-3.5157 -1.28958,-4.56684 -1.87447,-1.44615 -4.39995,-1.82577 -6.68586,-1.80683 l -0.17234,0.0393 -0.11377,0.026 z"
       style="fill:#c83153;fill-opacity:1;stroke:none;stroke-opacity:0" />
  </g>
  <g
     style="display:inline"
     inkscape:label="left hand"
     id="layer3"
     inkscape:groupmode="layer"
     sodipodi:insensitive="true"
     transform="translate(0,100)">
    <path
       sodipodi:nodetypes="cccc"
       inkscape:connector-curvature="0"
       id="path3485"
       d="m 328.92857,370.35714 c -10.37725,-16.43759 -12.7134,-36.27252 -9.8629,-55.50508 2.07457,-4.01246 4.84819,-3.89093 5.32651,1.34564 -0.3493,8.9444 0.53299,15.08122 3.82211,21.65944"
       style="display:inline;fill:none;stroke:#ff0000;stroke-width:1px;stroke-linecap:round;stroke-linejoin:round;stroke-opacity:1" />
    <path
       sodipodi:nodetypes="cccc"
       inkscape:connector-curvature="0"
       id="path3495"
       d="m 340.89286,338.03571 c 4.26192,-10.0441 -0.64698,-34.5866 7.58928,-42.67857 1.93175,-1.47562 3.24143,-0.15189 4.73215,0.35715 7.98501,4.32264 0,29.01227 0,41.78571"
       style="display:inline;fill:none;stroke:#ff0000;stroke-width:1px;stroke-linecap:round;stroke-linejoin:round;stroke-opacity:1" />
    <path
       sodipodi:nodetypes="ccccc"
       inkscape:connector-curvature="0"
       id="path3499"
       d="m 353.39997,337.98713 c 5.34771,-8.54972 9.79957,-27.81115 14.72503,-31.9157 5.623,-6.20445 8.84294,0.84208 7.23214,6.78571 -5.75698,11.02494 -6.28732,20.11197 -10,32.14286 -0.61349,2.34167 -1.92585,6.51185 -2.32143,6.87501"
       style="display:inline;fill:none;stroke:#ff0000;stroke-width:1px;stroke-linecap:round;stroke-linejoin:round;stroke-opacity:1" />
    <path
       sodipodi:nodetypes="cccssccc"
       inkscape:connector-curvature="0"
       id="path3517"
       d="m 319.91071,411.96428 c -11.19228,4.10207 -15.64064,10.30241 -12.49365,22.21497 0.27809,11.30039 -6.48741,23.53881 -2.41706,34.39218 12.50677,3.49618 20.33604,-1.12847 26.10732,-3.7336 4.22412,-1.90674 14.21316,-3.7528 21.80738,-1.1618 4.56773,1.55842 11.4339,-6.14277 12.26387,-9.92603 0.71568,-13.49728 0.88984,-28.86797 -1.60714,-42.67857 1.86985,-5.94056 -6.90909,-5.98214 -7.58929,-5.98214"
       style="display:inline;fill:none;stroke:#000000;stroke-width:1px;stroke-linecap:round;stroke-linejoin:round;stroke-opacity:1" />
    <path
       sodipodi:nodetypes="ccsccc"
       inkscape:connector-curvature="0"
       id="path3515"
       d="m 355.08929,413.125 c 0.75381,-11.29738 3.32292,-24.86759 4.55356,-36.51785 11.72967,-7.78781 12.45032,-16.66151 17.14286,-28.39286 2.06995,-5.17487 9.08208,-7.2536 7.5,-13.57143 -0.7083,-3.05365 -1.41661,-3.01496 -2.12491,-3.40555 -11.14907,1.30253 -16.72742,12.81329 -20.01794,24.11983"
       style="display:inline;fill:none;stroke:#ff0000;stroke-width:1px;stroke-linecap:round;stroke-linejoin:round;stroke-opacity:1" />
    <path
       sodipodi:nodetypes="cc"
       inkscape:connector-curvature="0"
       id="path3507"
       d="m 317.85715,421.16072 c 4.01814,-16.39347 7.62719,-34.42392 10.35714,-50.80358"
       style="display:inline;fill:none;stroke:#ff0000;stroke-width:1px;stroke-linecap:round;stroke-linejoin:round;stroke-opacity:1" />
    <path
       inkscape:connector-curvature="0"
       id="path3529"
       d="m 313.92857,419.64286 c 7.77909,7.65907 42.3507,-5.79552 44.28572,-8.21429"
       style="display:inline;fill:none;stroke:#000000;stroke-width:1px;stroke-linecap:round;stroke-linejoin:round;stroke-opacity:1" />
    <path
       sodipodi:nodetypes="cccccc"
       inkscape:connector-curvature="0"
       id="path3806"
       d="m 328.16882,337.79206 c 0,-1.19956 0.44643,-2.13125 0.42453,-3.59715 -0.9641,-10.41814 0.57991,-23.14324 2.83523,-29.9092 0.70821,-6.01553 7.40783,-6.00237 8.21429,-0.35714 -2.34881,9.36805 0.71428,22.7751 0.80356,30 0.0447,1.44891 -0.0158,3.4349 0.26786,4.28572"
       style="display:inline;fill:none;stroke:#ff0000;stroke-width:1px;stroke-linecap:round;stroke-linejoin:round;stroke-opacity:1" />
  </g>
  <g
     sodipodi:insensitive="true"
     style="display:inline"
     inkscape:label="head color"
     id="layer5"
     inkscape:groupmode="layer"
     transform="translate(0,100)">
    <path
       sodipodi:nodetypes="ccccccccccccccccccccccccccccccccccccccccccccccccccccccccccccccccccccccccccccc"
       inkscape:connector-curvature="0"
       id="path4756"
       d="m 231.62624,89.886475 c -2.01885,1.008657 -1.83986,3.696836 -2.40967,5.586426 -0.79318,3.375135 -0.76102,6.908289 0.34961,10.209469 1.56904,6.10063 3.97511,12.06629 4.18897,18.39161 -0.19312,1.9415 -0.15598,4.41833 -1.77442,5.74951 -2.73159,-0.95644 -4.42228,-3.62825 -6.12251,-5.82569 -2.46049,-3.41804 -4.20044,-7.28944 -6.02916,-11.04412 -1.27501,-1.5609 -3.86708,-0.29671 -3.71356,1.63055 -0.58414,5.89046 -0.73993,11.76842 -2.66113,17.44238 -0.19636,0.64221 -0.91378,1.16169 -1.32813,0.30371 -2.72813,-3.61771 -3.60849,-8.12695 -4.76367,-12.44873 -1.18407,-4.61069 -1.67969,-9.37451 -2.80762,-13.98779 -0.82644,-1.88105 -3.82683,-1.24645 -3.92383,0.76758 -0.89542,7.60791 0.60429,15.63712 -2.31396,22.9248 -0.62708,1.25668 -1.31026,2.89212 -2.69678,3.39014 -1.98719,-2.38731 -2.09209,-5.73528 -2.75032,-8.66423 -0.5878,-2.73467 -0.59928,-5.62605 -1.45651,-8.27103 -0.8666,-1.73964 -3.52447,-0.94097 -3.80246,0.85432 -5.32498,12.55525 -6.50767,26.2766 -8.14762,39.66806 -0.40706,2.43631 -0.68454,5.99274 -3.50178,6.7869 -1.78424,-0.55291 -1.94665,-3.52371 -4.18164,-3.21045 -2.46073,0.78157 -1.45907,3.71929 -1.896,5.6709 -0.0719,2.2209 -1.80124,3.66799 -2.96338,5.35156 -2.34614,4.61218 -1.13607,10.046 0.0586,14.81434 1.26702,4.40721 2.07257,8.9818 1.63276,13.58061 -0.092,7.11159 1.8737,14.05302 3.60466,20.89082 1.95712,6.81389 4.46571,12.56789 9.28893,17.98523 9.64529,11.35902 21.5817,20.33616 35.08007,26.54932 4.59169,2.04706 9.91407,4.18284 14.85254,5.01074 4.82559,1.30937 10.51966,1.34668 15.48389,1.77002 9.74295,0.41358 18.94183,0.10083 28.59691,-1.35372 8.85407,-1.63015 17.69445,-2.73333 26.45436,-4.85527 1.87126,-0.67885 5.71458,-1.56609 7.61493,-2.30068 12.35645,-3.48177 21.70292,-9.51987 29.67877,-19.78318 4.6315,-5.81726 7.2591,-11.92323 9.90894,-18.83996 1.84967,-7.39758 0.93353,-14.20262 -1.30809,-21.28064 -0.49406,-1.43743 -1.24802,-2.86676 -0.40602,-4.33235 3.36401,-11.74832 6.0913,-23.80114 6.22582,-36.07061 -0.0556,-3.0755 0.41163,-6.21765 -0.008,-9.24953 -0.33769,-1.3956 -1.8979,-1.19102 -2.9597,-1.4243 -2.61186,-2.85203 -1.92462,-7.02825 -2.03857,-10.56591 -0.10595,-1.8423 -2.11468,-2.24576 -3.57813,-1.75537 -1.48489,0.12619 -3.42538,-0.28026 -3.58691,-2.08692 -1.20243,-3.9581 -0.29793,-8.60355 -2.86328,-12.08057 -1.22842,-1.57679 -3.75131,-0.6307 -3.99219,1.24073 -0.5293,2.43522 -1.37988,5.1919 -3.57031,6.59717 -2.05652,0.10493 -2.92702,-2.26604 -3.73731,-3.77881 -0.85067,-1.65534 -0.65733,-4.559 -3.03467,-4.86524 -1.73103,-0.12456 -2.42421,1.68756 -2.34423,3.12061 -0.51931,2.81964 -1.78039,5.89162 -4.57667,7.11279 -2.83294,-1.21114 -2.78079,-4.80713 -3.3496,-7.37842 -0.69132,-4.89696 -1.15194,-10.07689 -3.71306,-14.40195 -1.32785,-1.57614 -3.83517,0.056 -3.4423,1.95291 -0.2574,1.84368 0.17054,4.28001 -1.36515,5.63801 -1.90152,0.42869 -3.16856,-1.69266 -4.12305,-3.03321 -1.03653,-1.4278 -1.38528,-4.12343 -3.60131,-3.85908 -2.16725,0.52644 -1.75994,3.32987 -3.11304,4.7419 -0.93993,1.83857 -3.28153,0.81169 -4.39619,-0.26738 -1.18533,-1.52836 -3.91167,-0.99151 -3.93854,1.08701 -0.31989,1.42722 0.0976,3.47955 -1.16869,4.49775 -3.82902,0.58863 -7.66228,-1.67546 -9.59326,-4.94824 -3.41664,-5.20795 -4.59806,-11.48203 -7.52002,-16.92383 -1.21927,-1.7971 -4.22715,-0.34058 -3.65235,1.72412 0.74286,4.06461 1.48674,8.15696 1.22569,12.31192 -0.0369,1.04999 -0.29774,2.74768 -1.48301,3.05136 -1.69061,0.0188 -2.5042,-1.96322 -3.60205,-2.95263 -1.38338,-1.25878 -1.77243,-3.98352 -3.92803,-4.13333 -1.87106,-0.12929 -2.57744,2.19124 -1.67695,3.57375 3.01196,7.01655 6.90543,13.70868 9.46289,20.86231 0.62546,2.26224 0.79144,5.73797 -1.98242,6.604 -3.44093,0.91921 -6.22375,-1.95047 -8.23731,-4.3247 -6.18749,-7.82634 -10.16711,-17.03105 -13.6582,-26.26172 -2.6794,-7.1598 -4.6394,-14.455251 -6.43164,-21.900393 -0.46733,-0.885473 -1.5397,-1.277068 -2.48389,-0.985352 z m -1.96582,179.599605 c -0.0266,-0.009 -0.0658,-0.1805 0,0 z"
       style="fill:#fac7e6;fill-opacity:1;stroke:none;stroke-opacity:0" />
  </g>
  <g
     style="display:inline"
     inkscape:label="hair color 2"
     id="layer10"
     inkscape:groupmode="layer"
     transform="translate(0,100)"
     sodipodi:insensitive="true">
    <g
       style="fill:#ff00ff;fill-opacity:1"
       id="g4818">
      <path
         style="fill:#ff00ff;fill-opacity:1;stroke:none;stroke-opacity:0"
         d="m 302.14439,8.7216927 c -21.50957,1.5901343 -41.70588,9.7934083 -62.25798,15.6685163 -6.84824,2.199151 -13.36498,5.274839 -19.78401,8.489687 0.76393,-3.412296 4.90865,-6.457327 3.21973,-10.126953 -3.01305,-3.537589 -8.04234,-0.763941 -11.41167,0.688486 -20.16805,9.758989 -39.6129,21.288289 -57.1274,35.304678 -3.40457,3.29252 -7.34914,6.106835 -12.12793,6.898435 -12.71322,3.29495 -25.12429,12.08705 -28.53027,25.35254 -1.87019,5.60057 0.0108,12.025768 -3.53637,17.112648 -5.2848,9.53478 -13.280039,17.49813 -17.395268,27.67349 -0.830318,2.40867 -0.800369,6.26268 1.451171,7.5332 -2.860985,4.99839 -6.822351,10.04426 -7.012695,16.01074 0.646321,3.43766 5.078314,2.20994 7.360352,1.4541 4.806676,-1.54861 6.98891,-6.54778 10.03613,-10.12793 -1.16588,5.0732 0.31612,10.49043 -1.54883,15.35059 -4.588007,7.64332 -11.825847,13.9263 -14.359371,22.67773 -0.69696,1.74715 0.532447,3.75345 2.541992,3.15235 5.206216,-0.78283 7.914969,-6.71876 12.163089,-8.70996 -2.80521,6.94414 -2.22698,14.78777 -1.36426,22.07617 0.52927,2.18423 0.88769,6.66113 4.02734,6.22363 1.90469,-0.93355 3.46323,-2.8851 4.0918,-4.7832 0.0119,6.99508 -0.58466,14.72018 3.13574,20.96094 1.10764,2.34187 4.09957,1.88581 5.33399,-0.0684 1.90732,-2.724 1.97504,-6.23431 2.23047,-9.42774 0.56442,8.80575 2.22443,19.25439 10.45019,24.25391 1.63778,1.34786 3.63286,-0.31231 3.22949,-2.21192 0.18042,-0.79873 -0.6383,-3.84005 -0.31347,-3.23632 2.45952,4.97551 5.64979,10.44812 10.97949,12.70117 2.31654,0.86572 5.45801,-0.66046 4.84765,-3.46289 -0.72436,-7.08093 -6.55367,-13.57381 -4.44921,-20.9043 0.70278,-2.56641 0.55183,1.40348 0.99121,2.16992 2.98658,11.44279 7.53675,22.94792 15.51464,31.8584 2.28461,2.87153 7.17242,4.50878 9.80655,1.1717 2.73622,-2.04602 -1.02195,-4.75118 -1.91609,-6.92778 -4.68552,-7.74085 -7.97712,-16.3891 -10.21565,-25.15701 3.82813,7.42033 7.77655,14.9633 13.16601,21.37793 2.04457,2.49165 6.19263,1.81694 7.23145,-1.26953 3.12737,-5.82838 -0.7563,-11.88524 -2.97478,-17.23883 -3.69692,-9.16057 -5.96792,-18.83024 -7.46272,-28.5766 -1.96915,-0.64621 -0.44611,-2.00576 -0.26953,-3.60156 1.64278,-8.95637 -4.18806,-17.59528 -2.09961,-26.51562 -0.91929,-1.16792 1.58562,-1.25361 1.93652,-2.43164 2.65188,-3.46799 1.53408,-8.18783 1.57227,-12.22461 0.75789,2.69784 1.95684,7.70788 5.78808,6.74218 3.85432,-1.86437 3.59477,-7.08158 4.36913,-10.69172 1.4831,-13.09859 3.20803,-26.40564 8.50978,-38.51335 1.11042,6.08243 1.01958,12.73742 4.08496,18.24902 1.83191,2.35108 4.58422,-0.35589 5.19629,-2.36035 3.20308,-6.56406 2.30386,-14.18464 3.02149,-21.25684 0.12894,-3.19508 0.22425,-6.39201 0.24023,-9.58984 1.47288,10.58741 2.61596,21.54582 7.19629,31.33008 0.69024,2.00122 3.62523,3.43799 4.87695,1.11132 3.02033,-6.37911 2.4866,-13.76949 3.16699,-20.64257 3.12318,6.77219 6.45951,14.16688 12.65625,18.68164 2.88316,1.68588 4.71933,-2.27586 4.77149,-4.64258 1.34911,-10.99993 -7.11604,-21.20647 -3.94238,-32.221683 0.4866,-2.117405 0.86351,-4.261375 1.11914,-6.418945 2.34344,17.118048 8.81316,33.553258 17.6143,48.346988 2.8613,3.67004 5.88406,8.43831 10.80074,9.3454 4.26163,0.0332 7.00188,-5.00769 5.18652,-8.75489 -3.67411,-10.89406 -10.57465,-20.58104 -12.65527,-32.01172 1.90188,5.58983 3.95328,11.73773 8.60644,15.65137 2.33523,2.15889 5.374,-0.59757 5.12012,-3.25976 0.57593,-5.77895 -0.73106,-11.50595 -1.84571,-17.138678 4.19706,7.358468 5.31208,16.423658 11.04102,22.869138 2.69492,2.23687 6.99446,4.31855 10.33008,2.42188 1.54827,-1.93717 1.52733,-5.2292 1.12402,-7.1084 1.53946,2.36928 5.43856,5.17576 7.81543,2.31152 1.28791,-1.7327 2.4078,-3.80808 2.45313,-6.01269 1.3345,3.36908 3.28228,8.15166 7.48144,8.41504 3.57854,-0.81212 3.14301,-5.59553 2.53418,-8.36817 0.0183,-0.74437 -1.48582,-4.17926 -0.74023,-2.97168 4.94505,6.48978 4.09239,15.10991 6.7334,22.44727 0.72118,2.31328 3.66431,3.96543 5.59472,1.92188 3.63539,-3.11319 4.42823,-8.18929 4.40332,-12.72364 0.98859,4.20834 1.57549,9.78549 5.79199,12.05371 3.68822,0.8871 5.5364,-3.74488 6.23633,-6.57129 0.28775,-0.99086 0.24465,-2.81174 0.33301,-3.40136 1.19866,2.15652 2.6507,4.20954 2.61133,6.81933 0.51553,3.43464 0.2369,9.16708 4.84765,9.73243 1.28815,0.2662 2.95828,-0.46127 3.76661,-0.95118 -1.01907,3.86599 -0.71044,8.48874 1.42089,11.9375 0.70606,1.3481 2.91596,1.13461 3.59668,0.96973 -1.01116,6.67736 -0.78694,13.54374 -0.75683,20.29395 0.93927,6.09272 4.89177,11.36295 9.00098,15.78222 1.443,2.01414 4.97296,3.07832 6.2832,0.37012 1.44067,-3.28788 0.61661,-7.07975 -0.22266,-10.42188 1.827,3.08843 6.88162,0.42297 6.28125,-2.84082 0.17797,-2.70094 -0.14005,-6.19088 -0.38867,-8.36718 1.79615,2.24722 4.83231,-0.9803 5.1875,-2.98145 1.07717,-4.26077 -0.78884,-9.31143 -1.53906,-12.89941 1.97354,0.88439 3.74379,-1.09612 4.45703,-2.75098 2.33495,-3.15796 0.17032,-7.42331 -0.61563,-10.7857 -0.98527,-2.47786 -1.72961,-6.15004 -3.18906,-7.63617 4.06963,-5.55841 1.66109,-12.91691 0.2002,-18.96583 -3.94724,-14.063003 -8.73952,-29.125728 -20.56153,-38.643548 -11.10204,-9.25107 -24.9859,-14.127605 -36.94824,-22.011721 1.2788,-2.335678 4.94983,-1.072589 7.08692,-0.513672 4.11423,0.91535 8.33564,3.529271 12.72949,2.893555 2.87212,-0.495471 5.00129,-3.690982 3.32129,-6.345703 -3.46415,-5.447098 -10.2629,-7.222818 -15.85976,-9.686948 -4.9843,-2.161478 -10.66069,-3.208889 -15.06505,-6.448794 1.91372,-2.786946 5.93865,-0.968122 8.65332,-1.100586 2.14328,0.435496 6.3124,0.407271 6.26953,-2.598633 -2.44726,-3.738725 -7.35299,-4.831785 -11.23262,-6.541477 -7.01131,-1.981927 -14.59718,-0.932866 -21.56077,0.79655 -4.13058,0.723077 -7.68523,3.799446 -11.90876,3.822075 -1.69758,-1.056121 0.91048,-2.834186 1.94239,-3.381835 7.22784,-4.239077 15.62309,-6.228112 22.71386,-10.651368 1.59073,-2.6879081 -3.00465,-3.5385591 -4.69531,-3.2890623 z M 159.67955,156.72267 c -0.98577,0.91018 0.0471,-2.11517 0,0 z m -6.77051,1.83496 c 1.2041,0.40298 -0.76976,0.8395 0,0 z m -5.95215,8.24316 c 1.63268,0.57392 0.1618,1.65349 -0.0957,-0.0215 l -0.0703,-0.10742 0.16601,0.1289 z m 2.78516,37.97754 c 0.45949,0.44341 -1.77072,0.57238 -0.65137,-0.31152 0.075,-1.62176 0.10048,-0.34526 0.65137,0.31152 z m 14.0957,0.27539 c 1.28683,0.50833 -0.85334,0.42161 0,0 z"
         id="path4814"
         inkscape:connector-curvature="0" />
      <path
         style="fill:#ff00ff;fill-opacity:1;stroke:none;stroke-opacity:0"
         d="m 379.48814,151.59083 c -2.01814,0.34603 -3.66909,1.96576 -2.68449,4.08234 0.3842,3.98255 2.36273,9.11319 -0.96785,12.34344 -2.51706,0.5946 -3.85898,2.23554 -3.12493,4.95313 -0.11323,2.46586 0.57007,7.03023 -2.95417,7.29004 -3.39067,-0.65567 -2.61248,2.87346 -2.41309,5.00976 0.20328,2.21465 -0.49071,6.88532 -3.69433,5.78321 -5.02192,-3.18164 -8.0569,-8.59632 -10.71778,-13.72364 -2.03191,-1.62544 -2.66674,1.88507 -2.71582,3.29688 -1.23785,6.88025 -3.39397,13.57081 -4.74902,20.39453 2.6449,7.27112 3.15218,15.1828 6.7207,22.14942 1.49869,3.33256 3.41031,7.99041 7.48242,8.583 2.05228,-0.27106 3.78829,-2.97323 3.70215,-4.3916 1.86507,3.187 4.89617,7.64515 9.16699,6.67285 3.78869,-1.87749 3.11745,-7.1838 2.08887,-10.56836 -0.97456,-1.59403 -0.13528,-0.6487 0.9502,-0.25879 3.15275,1.00423 4.46284,-2.8844 4.30136,-5.33668 0.32263,-5.4177 -0.0797,-10.93927 -1.84043,-16.10375 1.2588,1.69715 2.99627,5.33624 5.59473,4.07032 1.63366,-3.21146 0.61478,-7.23629 0.082,-10.6543 0.0234,-1.10246 -1.99874,-3.05561 0.0449,-2.37305 4.27054,-1.88956 3.95676,-7.4248 3.25977,-11.28027 -1.49567,-9.94148 -4.4976,-19.65273 -6.36914,-29.4707 -0.2626,-0.35878 -0.72891,-0.53168 -1.16309,-0.46778 z m -12.88086,58.91895 c 1.10375,1.79316 -0.81805,2.11111 -0.0381,0.0371 l 0.0117,-0.13672 0.0264,0.0996 z"
         id="path4816"
         inkscape:connector-curvature="0" />
    </g>
  </g>
  <g
     style="display:inline"
     inkscape:label="head"
     id="layer7"
     inkscape:groupmode="layer"
     sodipodi:insensitive="true"
     transform="translate(0,100)">
    <path
       sodipodi:nodetypes="csccsccc"
       inkscape:connector-curvature="0"
       id="path3336"
       d="m 179.10293,235.03628 c 7.95193,11.9569 25.0851,25.03815 42.24928,31.71621 11.31729,4.40321 23.00134,4.60951 30.8209,4.89439 l 9.44633,-0.13262 c 12.17261,-0.74222 12.41793,-1.28649 19.85598,-2.52538 22.56315,-3.75816 51.46321,-6.50841 65.51198,-39.07842 4.86945,-8.00924 2.39694,-18.4199 -1.47957,-29.16684 5.08164,-16.77543 7.62493,-30.80167 6.79819,-47.28459"
       style="display:inline;fill:none;stroke:#ff0000;stroke-width:1px;stroke-linecap:round;stroke-linejoin:round;stroke-opacity:1" />
  </g>
  <g
     style="display:inline"
     transform="translate(0,-452.36218)"
     id="layer1"
     inkscape:groupmode="layer"
     inkscape:label="hair"
     sodipodi:insensitive="true">
    <g
       style="stroke:#ff0000;stroke-opacity:1"
       id="g4431">
      <path
         style="display:inline;fill:none;stroke:#ff0000;stroke-width:1px;stroke-linecap:round;stroke-linejoin:round;stroke-opacity:1"
         d="m 94.664521,695.70274 c -8.089322,-8.08933 14.098019,-26.63512 18.458859,-40.25006 -0.69612,-19.50421 9.25553,-29.15074 24.5099,-35.68833 3.81333,-1.63428 10.34999,-2.01622 13.38453,-5.05076 9.26425,-9.26425 42.01435,-30.29128 54.04316,-35.1028 3.53248,-1.41299 11.80157,-7.98881 16.66751,-5.55584 5.50085,2.75042 -1.34674,7.03572 -2.14318,11.77432 8.56379,-4.32601 16.01112,-7.9912 24.34327,-10.07423 13.37565,-3.34391 23.98405,-8.33253 37.67857,-11.07143 0.15658,-0.0313 18.41172,-4.37361 23.29537,-3.32261 1.21433,0.26133 3.23837,1.89559 1.78703,2.9608 -3.44594,2.52913 -14.87349,6.22295 -21.2049,9.53642 -2.25465,1.17995 -3.86305,2.31167 -4.23464,3.32539 -0.47202,1.28771 1.77834,2.14654 3.21429,1.42857 8.93113,-4.46557 23.93177,-8.65911 34.82142,-3.21429 1.35003,0.67501 9.59,3.62429 6.78572,6.42858 -3.89641,3.8964 -12.38641,-3.1222 -14.55358,2.5 5.94143,4.79038 34.87882,9.48664 31.42858,19.82142 -5.55183,7.72237 -20.05414,-6.92772 -23.92858,0.26786 26.06637,15.09163 41.56967,17.17445 53.03573,44.01786 2.15822,10.10327 13.13952,31.68916 2.58928,36.96428 -8.46583,4.23292 -13.56763,-20.96883 -14.82143,-25.35714"
         id="path3053"
         inkscape:connector-curvature="0"
         sodipodi:nodetypes="ccsssscscsssssssccccsc" />
      <path
         style="display:inline;fill:none;stroke:#ff0000;stroke-width:1px;stroke-linecap:round;stroke-linejoin:round;stroke-opacity:1"
         d="m 106.42857,679.86218 c -2.44505,2.83305 -33.234207,41.79368 -9.999999,32.5 3.852929,-1.54117 7.364629,-9.11338 9.285719,-10.71429"
         id="path3061"
         inkscape:connector-curvature="0" />
      <path
         style="display:inline;fill:none;stroke:#ff0000;stroke-width:1px;stroke-linecap:round;stroke-linejoin:round;stroke-opacity:1"
         d="m 105.1046,702.54973 c -0.60932,6.49515 0.92681,12.61725 -1.89031,17.31245 -0.0581,0.0968 -22.668524,26.31942 -10.71429,23.92857 5.436369,-1.08727 6.957197,-7.43811 12.5,-9.28571"
         id="path3063"
         inkscape:connector-curvature="0"
         sodipodi:nodetypes="ccsc" />
      <path
         style="display:inline;fill:none;stroke:#ff0000;stroke-width:1px;stroke-linecap:round;stroke-linejoin:round;stroke-opacity:1"
         d="m 104.39032,734.96678 c -3.8231,2.64239 -3.71587,37.6866 4.53825,26.68111 3.06203,-4.08271 1.00427,-6.5064 3.57143,-10.35714"
         id="path3067"
         inkscape:connector-curvature="0"
         sodipodi:nodetypes="csc" />
      <path
         style="display:inline;fill:none;stroke:#ff0000;stroke-width:1px;stroke-linecap:round;stroke-linejoin:round;stroke-opacity:1"
         d="m 112.26913,751.81378 c -2.99905,3.77265 -2.32345,37.03129 6.65944,28.0484 2.63221,-2.63221 2.30666,-14.45437 2.54333,-16.11104"
         id="path3069"
         inkscape:connector-curvature="0"
         sodipodi:nodetypes="csc" />
      <path
         style="display:inline;fill:none;stroke:#ff0000;stroke-width:1px;stroke-linecap:round;stroke-linejoin:round;stroke-opacity:1"
         d="m 121.47084,763.96363 c -0.33308,11.69989 1.26869,26.1407 11.11168,31.06219 1.12203,0.56101 2.03996,-0.35081 2.27284,-1.51523 0.52803,-2.64011 -1.77482,-7.87104 -2.27284,-10.85914"
         id="path3083"
         inkscape:connector-curvature="0"
         sodipodi:nodetypes="cssc" />
      <path
         style="display:inline;fill:none;stroke:#ff0000;stroke-width:1px;stroke-linecap:round;stroke-linejoin:round;stroke-opacity:1"
         d="m 132.58252,775.58038 c -3.63025,7.40832 10.16512,32.89264 17.67767,25.0644 1.36321,-8.29336 -9.08173,-16.07328 -3.53553,-25.31694"
         id="path3093"
         inkscape:connector-curvature="0"
         sodipodi:nodetypes="ccc" />
      <path
         style="display:inline;fill:none;stroke:#ff0000;stroke-width:1px;stroke-linecap:round;stroke-linejoin:round;stroke-opacity:1"
         d="m 146.72466,775.83292 c -0.62693,7.73914 16.29597,49.71459 26.01143,36.11295 0.41995,-0.62933 0.46244,-1.504 -0.78919,-3.21986 -7.06269,-10.30343 -10.56974,-21.10648 -13.10041,-32.38801"
         id="path3101"
         inkscape:connector-curvature="0"
         sodipodi:nodetypes="cccc" />
      <path
         style="display:inline;fill:none;stroke:#ff0000;stroke-width:1px;stroke-linecap:round;stroke-linejoin:round;stroke-opacity:1"
         d="m 159.19373,777.47442 c 0.49803,2.82271 3.61467,8.08511 5.71367,11.49048 2.41128,3.91202 4.36631,7.75787 7.07107,11.36422 5.3946,7.1928 9.59645,1.48994 9.59645,-4.79822 0,-4.42217 -2.93985,-8.35978 -4.54569,-12.37437 -3.33355,-8.33388 -7.19734,-23.43236 -7.19734,-31.63041"
         id="path3113"
         inkscape:connector-curvature="0"
         sodipodi:nodetypes="cssssc" />
      <path
         style="display:inline;fill:none;stroke:#ff0000;stroke-width:1px;stroke-linecap:round;stroke-linejoin:round;stroke-opacity:1"
         d="m 133.0876,732.6489 c -1.22147,7.08675 7.24283,34.9977 16.41498,23.99112"
         id="path3115"
         inkscape:connector-curvature="0" />
      <path
         style="display:inline;fill:none;stroke:#ff0000;stroke-width:1px;stroke-linecap:round;stroke-linejoin:round;stroke-opacity:1"
         d="m 133.34014,706.1324 c 2.52865,7.26272 1.49653,17.31602 6.31345,23.73858 7.48397,9.97863 8.89674,-5.10064 7.19734,-11.04854"
         id="path3119"
         inkscape:connector-curvature="0"
         sodipodi:nodetypes="csc" />
      <path
         style="display:inline;fill:none;stroke:#ff0000;stroke-width:1px;stroke-linecap:round;stroke-linejoin:round;stroke-opacity:1"
         d="m 142.93659,735.9319 c -1.94544,10.86859 25.73497,58.4214 20.45558,21.46574"
         id="path3123"
         inkscape:connector-curvature="0" />
      <path
         style="display:inline;fill:none;stroke:#ff0000;stroke-width:1px;stroke-linecap:round;stroke-linejoin:round;stroke-opacity:1"
         d="m 152.2805,722.29484 c -3.50887,4.54925 9.66095,49.20994 16.92005,31.06219 3.85345,-9.63362 -5.5867,-20.39386 -1.01015,-29.54697"
         id="path3127"
         inkscape:connector-curvature="0" />
      <path
         style="display:inline;fill:none;stroke:#ff0000;stroke-width:1px;stroke-linecap:round;stroke-linejoin:round;stroke-opacity:1"
         d="m 139.65359,698.30371 c 3.47687,6.1025 1.30565,15.26028 6.56599,20.20305 5.3138,4.993 7.57111,-5.39066 6.15562,-8.11278"
         id="path3131"
         inkscape:connector-curvature="0"
         sodipodi:nodetypes="csc" />
      <path
         style="display:inline;fill:none;stroke:#ff0000;stroke-width:1px;stroke-linecap:round;stroke-linejoin:round;stroke-opacity:1"
         d="m 147.48227,682.89889 c -0.13681,1.75076 0.8286,7.92725 0.72605,9.75428 1.4103,8.46184 0.90167,25.86737 11.61675,15.15229"
         id="path3133"
         inkscape:connector-curvature="0"
         sodipodi:nodetypes="ccc" />
      <path
         style="display:inline;fill:none;stroke:#ff0000;stroke-width:1px;stroke-linecap:round;stroke-linejoin:round;stroke-opacity:1"
         d="m 160.10918,688.9598 c -0.22201,4.8583 -3.174,40.0357 8.03526,34.74566 1.42625,-0.6731 2.73393,-2.88709 3.10443,-4.73958 0.6674,-3.337 -0.57609,-6.39202 0.003,-9.8643"
         id="path3139"
         inkscape:connector-curvature="0"
         sodipodi:nodetypes="cssc" />
      <path
         style="display:inline;fill:none;stroke:#ff0000;stroke-width:1px;stroke-linecap:round;stroke-linejoin:round;stroke-opacity:1"
         d="m 170.71578,678.60574 c -0.25593,1.36624 0.33657,2.94688 0,4.29315 -2.23184,8.92736 -1.10371,20.42988 1.26269,29.04188 2.35702,8.57788 7.90289,5.59087 8.83883,-2.02031 1.55089,-15.24439 3.33216,-30.87731 9.28527,-42.78354"
         id="path3141"
         inkscape:connector-curvature="0"
         sodipodi:nodetypes="csscc" />
      <path
         style="display:inline;fill:none;stroke:#ff0000;stroke-width:1px;stroke-linecap:round;stroke-linejoin:round;stroke-opacity:1"
         d="m 188.89853,659.1603 c 1.58878,3.87941 2.06644,31.09257 7.82868,27.27412 4.00301,-2.65267 5.14826,-11.32238 4.86607,-18.80668 -0.24062,-6.3818 0.90031,-11.95128 1.52398,-12.62797"
         id="path3147"
         inkscape:connector-curvature="0"
         sodipodi:nodetypes="cssc" />
      <path
         style="display:inline;fill:none;stroke:#ff0000;stroke-width:1px;stroke-linecap:round;stroke-linejoin:round;stroke-opacity:1"
         d="m 202.03051,642.24025 c -0.49646,4.51343 2.61413,31.31082 7.38747,40.94844 1.31829,2.66168 2.83199,3.93034 4.22928,3.15907 4.36574,-2.40978 4.47504,-37.73774 4.54569,-41.32959"
         id="path3151"
         inkscape:connector-curvature="0"
         sodipodi:nodetypes="cssc" />
      <path
         style="display:inline;fill:none;stroke:#ff0000;stroke-width:1px;stroke-linecap:round;stroke-linejoin:round;stroke-opacity:1"
         d="m 217.94041,661.93822 c -0.94178,4.91623 16.72746,36.19513 17.29886,13.38452 -0.92723,-7.64865 -3.35012,-13.40049 -4.92449,-19.69797 -1.4932,-5.97281 2.79651,-14.03057 2.02031,-18.68782"
         id="path3155"
         inkscape:connector-curvature="0"
         sodipodi:nodetypes="ccsc" />
      <path
         style="display:inline;fill:none;stroke:#ff0000;stroke-width:1px;stroke-linecap:round;stroke-linejoin:round;stroke-opacity:1"
         d="m 232.52898,638.34758 c -1.01627,11.36662 19.53693,70.27735 32.63606,57.17821 1.4355,-1.4355 1.17717,-5.64337 0.50508,-7.3236 -5.5496,-13.87399 -12.09072,-21.97447 -13.00572,-34.34519 0.53855,2.34226 1.47501,4.60135 2.02929,6.81853 0.65302,2.6121 7.0681,15.77763 10.97643,11.86929 3.96883,-3.96883 -0.90646,-18.21452 -1.01016,-22.22335 1.19374,2.29817 1.86088,4.22681 2.77793,6.06091 4.13959,8.27919 5.20083,21.71828 17.42513,21.71828 3.21114,0 2.89809,-6.27841 2.6453,-8.04795"
         id="path3161"
         inkscape:connector-curvature="0"
         sodipodi:nodetypes="csscsscssc" />
      <path
         style="display:inline;fill:none;stroke:#ff0000;stroke-width:1px;stroke-linecap:round;stroke-linejoin:round;stroke-opacity:1"
         d="m 280.06479,647.03848 c 0.0194,3.49492 2.76817,9.53573 4.0815,15.0399 2.59788,10.88774 11.8422,17.86806 13.84871,3.64791"
         id="path3169"
         inkscape:connector-curvature="0"
         sodipodi:nodetypes="csc" />
      <path
         style="display:inline;fill:none;stroke:#ff0000;stroke-width:1px;stroke-linecap:round;stroke-linejoin:round;stroke-opacity:1"
         d="m 294.20693,652.59431 c 1.94073,5.81723 3.28208,17.48758 8.5863,21.46574 4.44375,3.33282 6.13023,-3.25826 5.3033,-6.56599 -0.69087,-2.76345 -2.05458,-5.00383 -2.52539,-7.82868"
         id="path3185"
         inkscape:connector-curvature="0" />
      <path
         style="display:inline;fill:none;stroke:#ff0000;stroke-width:1px;stroke-linecap:round;stroke-linejoin:round;stroke-opacity:1"
         d="m 305.91034,661.72901 c 7.38751,7.82335 5.95806,18.37508 7.46805,22.42047 0.13393,0.99333 0.83465,4.02517 4.03953,4.90437 9.27918,-2.84193 6.42829,-22.293 4.06313,-29.38847"
         id="path3187"
         inkscape:connector-curvature="0"
         sodipodi:nodetypes="cccc" />
      <path
         style="display:inline;fill:none;stroke:#ff0000;stroke-width:1px;stroke-linecap:round;stroke-linejoin:round;stroke-opacity:1"
         d="m 323.81254,673.98608 c 0.86741,3.66862 1.46135,8.41409 3.72942,11.43819 4.67478,6.23303 8.5863,-3.16368 8.5863,-7.07107 0,-9.76358 -5.05076,-21.06847 -5.05076,-28.03173"
         id="path3195"
         inkscape:connector-curvature="0"
         sodipodi:nodetypes="cssc" />
      <path
         style="display:inline;fill:none;stroke:#ff0000;stroke-width:1px;stroke-linecap:round;stroke-linejoin:round;stroke-opacity:1"
         d="m 336.88587,678.3532 c 3.91648,3.24835 1.28386,10.21393 4.04061,13.8896 1.01604,1.35471 2.22108,1.51523 3.78808,1.51523 10.67465,0 1.58017,-25.64346 2.52538,-31.31473"
         id="path3197"
         inkscape:connector-curvature="0" />
      <path
         style="display:inline;fill:none;stroke:#ff0000;stroke-width:1px;stroke-linecap:round;stroke-linejoin:round;stroke-opacity:1"
         d="m 347.96954,692.32945 c -1.09808,2.12929 -0.91905,6.91244 -0.29586,9.40519 0.34626,1.38503 1.65668,4.38506 3.11973,4.38506 8.43887,0 8.06328,-22.39035 8.06328,-29.02919"
         id="path3199"
         inkscape:connector-curvature="0"
         sodipodi:nodetypes="cssc" />
      <path
         style="display:inline;fill:none;stroke:#ff0000;stroke-width:1px;stroke-linecap:round;stroke-linejoin:round;stroke-opacity:1"
         d="m 351.65038,724.3891 c -1.57027,3.38778 11.28447,25.86244 15.28753,17.85625 3.50851,-7.01707 -5.27649,-21.02557 -6.31345,-28.28427"
         id="path3201"
         inkscape:connector-curvature="0"
         sodipodi:nodetypes="csc" />
      <path
         style="display:inline;fill:none;stroke:#ff0000;stroke-width:1px;stroke-linecap:round;stroke-linejoin:round;stroke-opacity:1"
         d="m 366.56545,732.39899 c 14.2666,6.77674 1.22192,-29.606 -0.63769,-36.11558"
         id="path3203"
         inkscape:connector-curvature="0"
         sodipodi:nodetypes="cc" />
      <path
         style="display:inline;fill:none;stroke:#ff0000;stroke-width:1px;stroke-linecap:round;stroke-linejoin:round;stroke-opacity:1"
         d="m 372.59573,721.68778 c 12.69282,-0.21421 -0.57169,-26.16698 -1.36467,-31.71783"
         id="path3206"
         inkscape:connector-curvature="0"
         sodipodi:nodetypes="cc" />
      <path
         style="display:inline;fill:none;stroke:#ff0000;stroke-width:1px;stroke-linecap:round;stroke-linejoin:round;stroke-opacity:1"
         d="m 376.24856,705.34677 c 11.4127,-2.71819 1.27984,-17.36882 1.11738,-22.1367"
         id="path3212"
         inkscape:connector-curvature="0"
         sodipodi:nodetypes="cc" />
      <path
         style="display:inline;fill:none;stroke:#ff0000;stroke-width:1px;stroke-linecap:round;stroke-linejoin:round;stroke-opacity:1"
         d="m 351.28055,746.03342 c 1.22238,6.02807 4.76124,10.9819 6.22023,15.46633 3.10763,9.55181 13.42943,10.07026 6.91175,-12.68841"
         id="path3216"
         inkscape:connector-curvature="0"
         sodipodi:nodetypes="csc" />
      <path
         style="display:inline;fill:none;stroke:#ff0000;stroke-width:1px;stroke-linecap:round;stroke-linejoin:round;stroke-opacity:1"
         d="m 366.4022,762.54775 c 1.42443,3.86977 7.78535,17.3059 12.58357,11.54804 0.3795,-0.62504 0.93498,-3.04028 0.86222,-4.77285 0.8117,-9.84661 -3.05574,-19.49074 -7.35424,-28.08774"
         id="path3220"
         inkscape:connector-curvature="0"
         sodipodi:nodetypes="cccc" />
      <path
         style="display:inline;fill:none;stroke:#ff0000;stroke-width:1px;stroke-linecap:round;stroke-linejoin:round;stroke-opacity:1"
         d="m 378.10824,754.72432 c 8.50983,10.53975 6.72599,-4.72937 4.48704,-9.95359"
         id="path3228"
         inkscape:connector-curvature="0"
         sodipodi:nodetypes="cc" />
      <path
         style="display:inline;fill:none;stroke:#ff0000;stroke-width:1px;stroke-linecap:round;stroke-linejoin:round;stroke-opacity:1"
         d="m 376.28182,732.14382 c 1.51908,4.0508 -0.19977,5.2906 4.33648,10.33875 1.34352,2.13502 2.68703,2.83224 4.03055,1.87237 7.58582,-3.33009 -4.08568,-31.03798 -4.32642,-42.01062"
         id="path3242"
         inkscape:connector-curvature="0"
         sodipodi:nodetypes="cccc" />
      <path
         style="display:inline;fill:none;stroke:#ff0000;stroke-width:1px;stroke-linecap:round;stroke-linejoin:round;stroke-opacity:1"
         d="m 363.50698,779.27916 c -2.94355,10.30242 -10.12327,1.20274 -11.51342,-5.18795 -0.78744,-2.20702 -1.99452,-3.43119 -2.26142,-5.03261"
         id="path3246"
         inkscape:connector-curvature="0"
         sodipodi:nodetypes="ccc" />
      <path
         style="display:inline;fill:none;stroke:#ff0000;stroke-width:1px;stroke-linecap:round;stroke-linejoin:round;stroke-opacity:1"
         d="m 374.35081,775.22586 c 3.72413,14.24831 -6.07197,13.86412 -10.77366,4.45398 -0.98781,-1.97705 -1.76441,-4.34083 -2.20274,-7.02662"
         id="path3250"
         inkscape:connector-curvature="0"
         sodipodi:nodetypes="csc" />
    </g>
  </g>
  <g
     sodipodi:insensitive="true"
     style="display:inline"
     inkscape:label="features color"
     id="layer11"
     inkscape:groupmode="layer"
     transform="translate(0,100)">
    <path
       inkscape:connector-curvature="0"
       id="path4481"
       d="m 318.56524,143.23589 c -12.75072,0.29094 -25.38822,6.02584 -33.83817,15.60642 -4.52657,5.15068 -7.35105,11.77696 -7.57718,18.65827 -0.39757,5.10036 -1.30302,10.37116 -0.17817,15.51698 1.05268,6.47951 4.76985,12.54437 10.43658,15.96749 5.49173,3.46996 12.17099,4.67022 18.58739,4.20966 9.41312,-0.30436 18.63186,-3.7707 26.27214,-9.2098 6.56336,-4.77371 12.03112,-11.50943 14.13332,-19.44522 0.48353,-6.80469 2.01578,-13.77706 1.07674,-20.69728 -0.72285,-3.74965 -2.55493,-7.29365 -4.91019,-10.27564 -3.50398,-4.09911 -8.01134,-7.40694 -13.25036,-8.8704 -3.47414,-1.06672 -7.12324,-1.51274 -10.7521,-1.46048 z m -4.27984,16.92203 c 4.82211,0.21234 9.37028,2.3622 13.36677,4.94077 4.88479,3.55475 5.87613,10.37615 4.6367,15.86316 -1.57399,7.20203 -6.13054,14.34292 -13.21067,17.11576 -3.86995,1.41487 -8.28857,0.99966 -11.79252,-1.18446 -6.1863,-3.2498 -10.44536,-9.51979 -12.02646,-16.23377 -0.66837,-4.3101 -0.866,-9.0978 1.60549,-13.00423 2.70807,-4.56939 8.03498,-6.67083 13.10274,-7.19164 1.4286,-0.20943 2.87294,-0.34053 4.31795,-0.30559 z"
       style="fill:#fa8de4;fill-opacity:1;stroke:none;stroke-opacity:1" />
    <path
       inkscape:connector-curvature="0"
       id="path4487"
       d="m 313.82225,158.16869 c -6.22279,0.21147 -13.12199,1.56285 -17.2816,6.63406 -3.72584,4.30449 -4.28947,10.39439 -3.21591,15.7856 1.75694,9.14456 8.62549,17.48664 17.74524,19.95298 6.39747,1.57575 12.92845,-1.91841 17.01273,-6.69746 5.39499,-6.29082 8.17715,-15.39113 5.63432,-23.47246 -1.56859,-5.25147 -6.53346,-8.42191 -11.36866,-10.31806 -2.71713,-1.04482 -5.59193,-1.89379 -8.52612,-1.88466 z m 2.54955,15.54145 c 0.99086,-0.15516 1.82021,0.27341 2.21021,1.18772 1.57275,2.02914 4.06388,3.20771 5.45078,5.35756 0.30089,2.13518 0.44706,4.34024 -0.072,6.41259 -0.86363,2.51395 -3.47147,3.92259 -6.05056,3.71655 -4.97256,0.40993 -10.12544,-4.05927 -9.28916,-9.23391 0.51983,-3.39673 2.75671,-7.07898 6.4851,-7.39266 0.41991,-0.0503 0.84328,-0.0586 1.26565,-0.0479 z"
       style="fill:#f82771;fill-opacity:1;stroke:none;stroke-opacity:1" />
    <path
       inkscape:connector-curvature="0"
       id="path4489"
       d="m 315.42725,171.83584 c -5.20861,0.29936 -9.01212,5.60741 -8.58564,10.61399 -0.30982,4.36691 3.41751,7.96775 7.26179,9.34885 3.81042,1.14622 8.92304,0.53806 10.98541,-3.30717 1.43742,-2.51265 1.16449,-5.62171 0.70582,-8.36581 -0.93965,-2.9982 -4.09666,-4.37414 -5.95684,-6.71683 -1.09699,-1.55918 -2.5671,-2.05793 -4.41054,-1.57303 z"
       style="fill:#2d98f0;fill-opacity:1;stroke:none;stroke-opacity:1" />
    <path
       inkscape:connector-curvature="0"
       id="path4493"
       d="m 211.56639,152.0725 c -11.02173,0.0699 -22.60911,5.86421 -27.01213,16.39118 -3.36096,6.83557 -2.55518,14.71653 -2.20802,22.07282 0.25764,6.04241 3.37213,11.6597 8.11803,15.34529 8.64119,6.85968 20.75724,7.2681 31.03934,4.49428 9.28846,-2.49677 18.39309,-8.69935 21.31975,-18.27218 1.75137,-6.05309 1.42729,-12.50391 1.02469,-18.7228 -1.13172,-8.90919 -8.90001,-15.42808 -16.8272,-18.57414 -4.89374,-1.93773 -10.19712,-2.83664 -15.45446,-2.73445 z m -1.60505,21.7885 c 6.56181,-0.14057 13.21219,4.01417 14.94001,10.5399 1.85181,6.13427 0.4588,14.1474 -5.64732,17.34794 -5.22809,2.83655 -12.58316,2.82392 -16.83176,-1.79339 -5.7981,-5.78769 -7.37279,-16.42869 -1.52971,-22.71275 2.35333,-2.38677 5.7738,-3.4316 9.06878,-3.3817 z"
       style="fill:#fa8de4;fill-opacity:1;stroke:none;stroke-opacity:1" />
    <path
       inkscape:connector-curvature="0"
       id="path4495"
       d="m 209.73533,172.0153 c -6.04111,-0.11715 -11.95862,3.90772 -13.50516,9.85281 -2.71895,8.94825 1.84281,20.5083 11.32464,23.0992 7.74444,2.22756 17.4608,-2.17327 19.27036,-10.4283 2.19295,-7.68277 -0.98259,-17.0027 -8.47237,-20.50362 -2.65237,-1.35577 -5.63717,-2.06834 -8.61747,-2.02009 z m 5.1709,14.47823 c 2.74985,1.36982 4.42072,4.56473 4.92885,7.52163 0.44011,2.07289 -0.42442,4.87867 -2.9548,4.86607 -3.6801,1.02198 -7.51796,-1.94702 -7.50976,-5.76521 -0.52212,-3.54332 1.94912,-6.51659 5.53571,-6.62249 z"
       style="fill:#db158c;fill-opacity:1;stroke:none;stroke-opacity:1" />
    <path
       inkscape:connector-curvature="0"
       id="path4497"
       d="m 214.07197,184.82291 c -5.12664,0.28 -8.00497,6.46207 -6.00168,10.90472 1.63229,4.80698 8.48037,6.97613 12.27469,3.41588 3.00969,-4.14413 0.53718,-10.02746 -2.94852,-13.07339 -0.92761,-0.77 -2.10291,-1.28537 -3.32449,-1.24721 z"
       style="fill:#5846d7;fill-opacity:1;stroke:none;stroke-opacity:1" />
  </g>
  <g
     style="display:inline"
     inkscape:label="features"
     id="layer6"
     inkscape:groupmode="layer"
     sodipodi:insensitive="true"
     transform="translate(0,100)">
    <path
       inkscape:connector-curvature="0"
       id="path3266"
       d="m 254.55844,207.3083 c 3.80755,-8.92404 12.6563,-8.05183 19.1929,-1.51523"
       style="display:inline;fill:none;stroke:#000000;stroke-width:1px;stroke-linecap:round;stroke-linejoin:round;stroke-opacity:1" />
    <path
       sodipodi:nodetypes="sscs"
       inkscape:connector-curvature="0"
       id="path3276"
       d="m 213.14219,205.03546 c 14.19246,-1.6898 16.04263,-14.84894 12.20337,-23.33955 -2.30538,-5.09839 -7.43906,-9.03137 -15.3601,-9.23787 -22.15906,0.34618 -16.07127,34.86676 3.15673,32.57742 z"
       style="display:inline;fill:none;stroke:#ff0000;stroke-width:1px;stroke-linecap:round;stroke-linejoin:round;stroke-opacity:0" />
    <path
       inkscape:connector-curvature="0"
       id="path3280"
       d="m 215.16249,185.08494 c -11.05157,0.41371 -8.98538,17.40394 2.27285,15.15229 7.62229,-1.52446 2.5826,-13.76501 -2.27285,-15.15229 z"
       style="display:inline;fill:none;stroke:#ff0000;stroke-width:1px;stroke-linecap:round;stroke-linejoin:round;stroke-opacity:0" />
    <path
       inkscape:connector-curvature="0"
       id="path3282"
       d="m 324.25897,161.5989 c -6.27041,-3.33818 -10.6839,-3.36855 -17.42513,-2.02031 -20.94355,4.18871 -15.43311,32.66713 2.0203,39.64849 20.08271,8.03308 36.70212,-29.6417 15.40483,-37.62818 z"
       style="display:inline;fill:none;stroke:#ff0000;stroke-width:1px;stroke-linecap:round;stroke-linejoin:round;stroke-opacity:0" />
    <path
       inkscape:connector-curvature="0"
       id="path3288"
       d="m 318.70313,172.71058 c -3.48009,-1.15494 -7.62764,0.002 -9.59645,3.28299 -9.78291,16.30485 20.31859,23.81121 16.41498,4.29315 -0.57557,-2.87785 -5.0473,-4.03368 -6.81853,-7.57614 z"
       style="display:inline;fill:none;stroke:#ff0000;stroke-width:1px;stroke-linecap:round;stroke-linejoin:round;stroke-opacity:0" />
    <path
       inkscape:connector-curvature="0"
       id="path3304"
       d="m 315.42013,216.90475 c 7.04836,-2.07332 15.92177,-4.0683 18.94036,-11.11168"
       style="display:inline;fill:none;stroke:#ff0000;stroke-width:1px;stroke-linecap:round;stroke-linejoin:round;stroke-opacity:1" />
    <path
       inkscape:connector-curvature="0"
       id="path3308"
       d="m 319.96582,220.69282 c 5.14035,-1.43816 10.13276,-4.14279 12.87944,-7.57614"
       style="display:inline;fill:none;stroke:#ff0000;stroke-width:1px;stroke-linecap:round;stroke-linejoin:round;stroke-opacity:1" />
    <path
       inkscape:connector-curvature="0"
       id="path3310"
       d="m 326.27927,223.2182 c -1.56447,0.21665 3.35384,-1.8386 4.79823,-3.28299"
       style="display:inline;fill:none;stroke:#ff0000;stroke-width:1px;stroke-linecap:round;stroke-linejoin:round;stroke-opacity:1" />
    <path
       inkscape:connector-curvature="0"
       id="path3330"
       d="m 225.26402,234.07734 c 8.1285,6.11227 13.35726,16.06688 25.50635,13.63706 3.25821,-0.65164 5.34309,-3.28299 9.09137,-3.28299 4.80825,0 7.98881,3.55863 13.13199,2.27284 3.88125,-0.97032 6.89814,-6.00328 10.85914,-7.32361"
       style="display:inline;fill:none;stroke:#000000;stroke-width:1px;stroke-linecap:round;stroke-linejoin:round;stroke-opacity:1" />
    <path
       sodipodi:nodetypes="sccs"
       inkscape:connector-curvature="0"
       id="path3272"
       d="m 238.396,198.21693 c -13.7656,18.35414 -56.27255,18.0489 -54.92705,-11.61676 -4.79723,-44.88519 57.01643,-39.701 59.34647,-11.61676 0.12627,6.87541 0.81914,16.24878 -4.41942,23.23352 z"
       style="display:inline;fill:none;stroke:#000000;stroke-width:1px;stroke-linecap:round;stroke-linejoin:round;stroke-opacity:1" />
    <path
       sodipodi:nodetypes="cscc"
       inkscape:connector-curvature="0"
       id="path3300"
       d="m 278.54956,179.15029 c -1.35213,-30.2108 51.33523,-49.23124 65.91246,-20.07677 4.12772,8.25545 0.75761,16.94384 0.63134,25.38008 -9.4894,33.14976 -75.03229,41.97807 -66.5438,-5.30331 z"
       style="display:inline;fill:none;stroke:#000000;stroke-width:1px;stroke-linecap:round;stroke-linejoin:round;stroke-opacity:1" />
    <path
       inkscape:connector-curvature="0"
       id="path3312"
       d="m 184.60538,206.55069 c 4.28928,4.14593 9.31446,5.3033 13.63706,5.3033"
       style="display:inline;fill:none;stroke:#ff0000;stroke-width:1px;stroke-linecap:round;stroke-linejoin:round;stroke-opacity:1" />
    <path
       inkscape:connector-curvature="0"
       id="path3314"
       d="m 185.11045,211.34891 c 3.67933,1.81898 6.99495,3.95413 11.11168,2.77792"
       style="display:inline;fill:none;stroke:#ff0000;stroke-width:1px;stroke-linecap:round;stroke-linejoin:round;stroke-opacity:1" />
  </g>
  <g
     style="display:inline"
     inkscape:label="sweat"
     id="layer12"
     inkscape:groupmode="layer"
     sodipodi:insensitive="true"
     transform="translate(0,100)">
    <g
       transform="translate(3.4428602e-6,0)"
       style="display:inline"
       id="g7478">
      <path
         style="display:inline;fill:#988bf1;fill-opacity:1;fill-rule:evenodd;stroke:none;stroke-width:1px;stroke-linecap:butt;stroke-linejoin:miter;stroke-opacity:1"
         d="m 299.55884,130.17307 c 0.68122,3.29837 1.92147,5.52526 4.02971,6.08851 2.72668,-0.96029 3.1483,-3.76462 3.54904,-6.58567 -2.36907,1.52799 -4.85358,2.05545 -7.57875,0.49716 z"
         id="path4520-2"
         inkscape:connector-curvature="0"
         sodipodi:nodetypes="cccc" />
      <path
         style="display:inline;fill:#988bf1;fill-opacity:1;fill-rule:evenodd;stroke:none;stroke-width:1px;stroke-linecap:butt;stroke-linejoin:miter;stroke-opacity:1"
         d="m 245.4517,154.32486 c 0.14654,2.91215 -0.10255,5.57414 2.82435,6.40101 3.002,-0.72537 2.88999,-4.52169 3.54904,-7.25531 -3.63726,2.91717 -4.92765,1.61719 -6.37339,0.8543 z"
         id="path4520-70"
         inkscape:connector-curvature="0"
         sodipodi:nodetypes="cccc" />
      <path
         style="display:inline;fill:#988bf1;fill-opacity:1;fill-rule:evenodd;stroke:none;stroke-width:1px;stroke-linecap:butt;stroke-linejoin:miter;stroke-opacity:1"
         d="m 219.11241,136.60165 c 0.0562,4.34652 1.38429,6.8759 3.94042,7.65101 3.04431,-0.62837 3.31904,-3.71858 3.1919,-7.16602 -2.37744,1.12826 -4.75488,0.76409 -7.13232,-0.48499 z"
         id="path4520-0"
         inkscape:connector-curvature="0"
         sodipodi:nodetypes="cccc" />
      <path
         style="display:inline;fill:#988bf1;fill-opacity:1;fill-rule:evenodd;stroke:none;stroke-width:1px;stroke-linecap:butt;stroke-linejoin:miter;stroke-opacity:1"
         d="m 196.0767,229.14628 c -0.29876,3.59172 0.29204,6.40063 2.95827,7.38315 3.0435,-0.55795 3.29883,-3.90407 3.68297,-7.12138 -2.32507,1.30425 -4.55406,1.40763 -6.64124,-0.26177 z"
         id="path4520-7"
         inkscape:connector-curvature="0"
         sodipodi:nodetypes="cccc" />
    </g>
    <g
       id="g7497"
       style="stroke:#3526ee;stroke-opacity:0.6627451">
      <path
         style="display:inline;fill:none;stroke:#3526ee;stroke-width:1px;stroke-linecap:round;stroke-linejoin:round;stroke-opacity:0.6627451"
         d="m 196.22213,228.77404 c -1.73864,9.91572 6.56599,10.97992 6.56599,0.25254"
         id="path3316"
         inkscape:connector-curvature="0" />
      <path
         style="display:inline;fill:none;stroke:#3526ee;stroke-width:1px;stroke-linecap:round;stroke-linejoin:round;stroke-opacity:0.6627451"
         d="m 245.46707,154.27529 c -1.10342,9.16991 6.31345,8.35637 6.31345,-0.75761"
         id="path3320"
         inkscape:connector-curvature="0" />
      <path
         style="display:inline;fill:none;stroke:#3526ee;stroke-width:1px;stroke-linecap:round;stroke-linejoin:round;stroke-opacity:0.6627451"
         d="m 219.2031,136.09255 c -1.43476,10.3185 8.67936,11.76308 7.07107,0.50507"
         id="path3322"
         inkscape:connector-curvature="0" />
      <path
         style="display:inline;fill:none;stroke:#3526ee;stroke-width:1px;stroke-linecap:round;stroke-linejoin:round;stroke-opacity:0.6627451"
         d="m 299.76277,130.03163 c 0.5439,10.18964 8.23164,5.85117 7.3236,-0.50508"
         id="path3328"
         inkscape:connector-curvature="0" />
    </g>
  </g>
</svg>
