<svg xmlns="http://www.w3.org/2000/svg" overflow="visible" viewBox="0 0 123.24 347.881">
    <path d="M25.58 266.53c-.214-.135-.432-.262-.644-.4-.298 2.33-.016 2.19.643.4z"/>
    <path d="M79.647 306.05l4.286-32.587c21.734-3.592 39.307-10.894 39.307-10.894-29.92-81.21-31.344-141.73-31.344-141.73s-4.393 2.037-10.91 3.012c.906-4.5 2.707-9.722 6.28-13.543 7.45-7.982 32.408-6.594 18.454-40.99l3.105-.34c2.23-.187 3.83-2.706 3.567-5.628-.257-2.878-2.233-5.066-4.433-4.928l-.002-.008-.052.005h-.016c-.008 0-.015.005-.022.006l-3.345.367c.037-9.66-.99-26.745-8.013-36.184 19.788-5.895 16.017 13.47 16.017 13.47l4.298 2.108c6.47-34.73-52.32-40.83-77.758-37.32C13.635 4.38 13.442 27.864 13.442 27.864-.708 31.373.012 97.305.012 97.305s15.585 4.916 31.176 4.212a30.146 30.146 0 0 0 5.978-.855c4.2 2.885 9.67 4.917 16.772 4.917 2.35 0 4.694 5.525 4.682 15.51a36.604 36.604 0 0 1-6.612-3.845s-35.364 43.737-31.06 93.522c0 0-.382 4.294 6.453 5.927v7.92s-1.545 2.77-2.784 3.634c-.48-.2-.994-.852-1.52-2.228 0-5.992-2.582-9.285-7.575-3.785a2.483 2.483 0 0 0-.835.972c-3.68 4.538-.567 12.874 6.656 17.55 2.858 1.94 6.46 3.24 10.706 3.4-2.604 9.66-5.21 18.98-6.46 22.368 7.31 4.606 15.82 7.12 24.717 8.21l-.862 54.755s-3.122 9.374 6.355 7.634c0 0 15.52 15.8 40.86 9.1v-6.534c-8.675-7.6-29.61-8.366-35.23-15.41l6.28-49.022.53-.03-.566 36.033s-3.124 9.376 6.352 7.636c0 0 15.523 15.8 40.864 9.1v-6.532c-8.68-7.59-29.61-8.35-35.233-15.4z"/>
</svg>
