<svg xmlns="http://www.w3.org/2000/svg" width="195" height="300" viewBox="-17715 -52250 50687 78127" id="svg2">
    <style>
        path{fill:#5f0c50!important}
    </style>
    <clipPath id="state_clip_path"/>
    <path d="M-11986 5593l298-11 311 5 1204 26 399 409 72 86 251 257 148 146 77 81 92 106 62 60 66 71 635 665 93 86 82 85 66 76 174 176 77 76 67 66 77 75 11 132v20l6 273 21 157-12 799-4 303 1 167-5 162-4 298-4 167-22 819-4 303-10 162 1 162-4 161-5 167-4 152-10 161-9 167-14 455-475 2-168-5-787 3v26l-163-5-138 1-194-5-123-5-265-4-26-45-82-30-61-5-97 20-67-80-36-76-41-106-26-25-56-30-41-40-26-117-31-30-118-55-56-56-31-70-41-35-46-31-26-15-15-25-26-25-5-81v-111l-6-76 10-71 46-81 15-91-5-25-31-76-57-65-66-61-67-60v-121l-36-101-46-41-31-55-103-45-270 46-97 15-26 5-91 31-46 20h-16l-102-35v-161l9-334-6-162 9-303 4-319 3-637 347 9 50-1871-329-849 3-511 5-167z" id="Ada" fill="#b9b9b9" stroke="#fff" stroke-width="80" stroke-linejoin="round"/>
    <path d="M-13014-10690l102 7 1083 27 834 18 534 14 96 5 11 45 51 61 30 56 21 51 36 116 20 66 16 51 15 40 52 173 41 147 41 127 5 35-56 56 21 102 41 162 5 25 92 30 26 107v15l10 41-46 41-56 5-45 35-31 31-5 36-5 30-5 20-5 31-5 35h112l158 5 1002 22 6 258 5 76 87 61 81-10 76-1 16 10 61 46 76 40 1 41-41 61-56 30-15 66-14 163-168 107-30 97-41 91 42 147 15 106 62 41 20 66-20 86-10 31-25 66-31 76-20 66-35 20-15 10-51 1-46-21-51-20-51 87v30l1 91v46l-5 162-65 97-112 107-46 46 1 127-71 122 6 142-25 182-30 340-15 71-20 51-25 198 16 71 51 20 51 71 92 91 41 35-10 106-30 107 5 61 159 162v152l-20 81-10 137-5 15-5 41-81 182-25 66 31 56 11 182-5 97-15 66-71 162 1 107 51 136 10 66 1 76 10 81 26 96 5 76 52 107 5 126-4 122 20 96-219 47-61-21-122-111-67 6-30 55-20 66-41 72-20 71-35 131-30 61-51 21-56-20-56 5-66 41-82 25-81 36-41 61-66 56-96-5-143 1-158-5h-153l-158-4-122-5-168-96-791-458 16-1344-468-3-102-5h-51l41-61 20-36 35-71-15-91-31-55-15-36-57-81-97-121-15-102-1-233 14-593 22-1050-732-13-535-14h-71l5-91-158-5-5 91-488-9-135-17 19-49 20-54 3-8 28-30 43-56 33-36 7-8 10-9 16-14 11-7 30-26 45-64 5-6 16-22 19-32 5-8 28-76 23-62 16-49 11-41 10-25 5-11 23-53 7-16 25-79 6-10 23-81 9-46 4-24 2-41-1-9-2-6-24-62-26-78-32-57-6-9-23-77 18-32 32-26 45-38 39-32 5-4 7-7 21-40 1-54-3-5-30-19-8-2-31 8-27 45-31 52-31 25-24-13-4-2-15-29 15-59 18-59 34-62 9-30 15-59 1-6-3-65-4-118 3-29 2-15 15-45 60-54 25-21 5-3 17-11 32-25 22-21 32-32 4-3 20-20 30-29 20-19 17-16 10-11 28-29 39-46 5-7 23-42 19-33 7-12 16-25 26-39 9-12 30-52-3-13 11-35-2-12-3-30-7-27-1-8 2-61 23-41 3-5 58-71 18-15 21-15 37-17 50-35 6-4 45-62 3-4 35-60 4-7 12-36 14-39 3-5 19-28 6-11 24-25 42-45 33-83 5-20 15-70 5-61 1-30 3-20 9-46 3-10 26-79 7-22 50-133 6-24 11-54 6-30 16-68 9-43 15-67 24-111 34-140 18-56 6-22 29-104 12-14z" id="Adams" fill="#b9b9b9" stroke="#fff" stroke-width="80" stroke-linejoin="round"/>
    <path d="M18533 14939l40-192 65-122-6-111 56-26 71-21 77-11 56-25 40-31 46-36 20-56 30-51 25-40 41-36 92-31 41 35 66-51 122-1 72-1 3626-116v-21l1026-36 100 252 6 86-5 56-10 30-30 15-36 26-86 16-87 47-40 61-20 55-20 41-20 71-30 66-56 26-61 21-66 10-56 41-20 36-25 81-20 41 11 126-14 142-39 152 16 70 21 55 16 91 12 182 125 307 1 71-4 70-36 31-91 92-20 81 1 111 32 60 21 106 1 66-5 71 27 80 11 86 103 95 57 80 10 61 11 95 22 86 57 91 113 59 81-87 167-209 235-12 173-2 133-1 174-2 15 15 11 35 36 55 32 61 47 140-14 97-36 71 92-1 26-1 20 490 169-7 102-6 6 162 12 156 10 470 6 161 2 162 148-7 13 288 7 166 138-1 15 485 13 328-138 1 13 323 8 323 62 1145-670 2-92 1-1-156-7-172-532 16-598 16-16-5-36-25-15-20-57-14-36-10-30 5-41-4-57-20-16-65-10-56-37-90-62-75-41-55-21-36-26-35-52-115-37-91-153 7-256 7-66 6-46 1-5 70-65 178-10 40-45 26-41 66-10 15-31 5-61-4-108-90-77 26-76 16-42-55-5-50-16-96 9-81 51-66 40-71 41-46 20-36 9-65 25-61 61-41 10-61 15-81-12-126 9-116-5-76-11-95-32-116-6-71-41-75-47-45-41 10-30 91-98 40-107 23-27-17-20-39 2-29 13-36-1-94-71 3h-1l-91 3-1-83-42 5-3-79-80 1-2-80h-31l-3-4-9-154-292 8-19-603 32 1-1-126 200-2 5-42 39 2-12-187-23-2-18-393 87 3-8-254-316 11-8-320-159 1-14-236-158 7-11-408-324 16-23-644-161 2-34-1237v-90l-46-43 5-50-74-51-26-70-116-61 1-49 18-6-52-153-72-68-33 26-36-7-14-44-57-13-41-91-120 4-69 107-130 33-61 79-186 131-1-1-221 50-62-30-129 75-17 125-203 109-15 85-43 21-92-86-9-57 33-57 65-127 22-18 4-48-42-43-86-27z" id="Bannock" fill="#b9b9b9" stroke="#fff" stroke-width="80" stroke-linejoin="round"/>
    <path d="M32652 19292l34 740 10 91 5 141 73 1473 9 182 37 731 22 454 15 334 19 453 51 988 4 97 1 11-3235 139-91 4-490 3-19-223-31-94 34-55-8-53-40-54-9-92-6-55-11-46-26-95-133-24-98-44-82-35-98-39-56-25-21-35-57-29-20 5-10 10-46 6-11-5h-25l-26-45-27-91 51-76 19-91 10-111 9-101-21-66-36-35-41-19-42-40-62-116-1-50 4-121-41-44-79-73-19-135 18-77 75-136 1-99 4-16-11-91 19-101 87-36 75-117 138-57-2-4 91-59 9-36-139-35-67-67-12-69 34-8-27-127 33-50-71-135v-35l86-31 49-51 48 1 7-10-58-45 164-173-50-51-8-72-67-48-57 12-80-134 23-25-34-66-8-73-123 42-5-95 5-23-11-48-22-13-13-48 32-46 23-104 79-9 51-51-35-83 12-101-101-198-50-199-67-154-39-137-27-42-47-18-31-37-17-46-9-26 7-10 20-51 5-40-73-70-11-116-6-14 3-34-39-63-11-60 8-25-4-22 51-63 91-20-2-76 84-37 16-44 939-45 225-2 434-5 384-15 60 31 124-2-6 155 50 53 140 62 64-1 67-1 46 5 46 35 51 9 41 22 11-17 15-41 34-86 26-36 40-71 52-111 27-28 54-174 45 7-5 119 26 20-6 49 53 66 34-6-2 57 71 27-35 250 1 3-5 66-9 81-9 41-35 277-59 49-27 13-6 30 9 49 26 29 14 33 5 5 16 45 36 55 67 10 36-1 30-10 46-1 36-15 46-6 92-4 112 49 86-12 10 11 64-15 12-146 22-13 16 25 112 8 143 54 153-108 173-22 46-11 51-16 41-51 15-40-16-40 4-46 102-32z" id="Bear_Lake" fill="#b9b9b9" stroke="#fff" stroke-width="80" stroke-linejoin="round"/>
    <path d="M-9837-34463l-5 169 5 164-4 153-5 143-5 164 1 163-10 87-5 77 6 168-5 327-4 164-5 158 1 327-5 174-4 158-5 332-4 163-5 307-28 944-182-4h-151l-177-4h-193l-298 1v-179l-304-9-177-10-647-18-157-5h-157l-435-9-157-4-329-15 1 56-314-9-162-5-5-61v-51l-66-31-51-15-35-15-46-36-111-102-51-71-65-87-16-10-151-51-51-15-76-10-45 82-61 56-30 26-15 10-26-5-25-25-30-41-26-72-76-91-25-31 66-112 25-57 20-51-5-25-15-21-51-66-10-15-25-15-36-26-56-20-106-31-91-10-111 26h-87l34-1447 28-1199 144 10 960 23 657 19 5-168 313 9 5-61 232 10v158l480 4 319 9 4-317 323 5v-159h197l293 9 248 4 66 5 237 5 308 4 142 5 181 4 152 5z" id="Benewah" fill="#b9b9b9" stroke="#fff" stroke-width="80" stroke-linejoin="round"/>
    <path d="M18775 7480l423-19v-36l989-44 33 839 7 157 33 809 1 136 2 167 1 157 470-15 306-13 326-18 347-19 454-10 312-13 490-15 183-12 475-10 7 162 479-20 20 495 827-29 153-7 807-23 28 768 12 172 949-51 955-36 55 965h-35l76 1920-654 33-158 7-82 6h-72l-178 8-613 21-179 7-173 7-317 4-169 1-291 9-935 19-1026 36v21l-3626 116-72 1-122 1-66 51-41-35-92 31-41 36-25 40-30 51-20 56-46 36-40 31-56 25-77 11-71 21-56 26 6 111-65 122-40 192-20 26-56 46-19 116-4 101-56 96-66 47-25 60-20 31 11 86-30 71-35 66-41 30-56 31-40 61-35 91-5 41h-56l-174 7-51 6h-46l-1287 57 3-844-1-151-7-814-6-166-12-824-52-1930 480-15-18-905 112-1-28-884 450-9 510-10-34-961 475-4-6-45 490-15-17-809z" id="Bingham" fill="#b9b9b9" stroke="#fff" stroke-width="80" stroke-linejoin="round"/>
    <path d="M408 4226l91-56 56-31 66-15 46-56 30-76 9-9 23-75 129-91 95-68 89-37 157-81 478 3 5 725 455-11 602 7 143 80 52 60 46 5 25 5 61 30 36 35 26 25 21 30 10 16 31 20 41 35 40-1 41 26 47 45 41 50 92 96 16 86 11 70 5 66 46 76 77 35 67 25 142-16 97 4 66-36 30-61 21-55 9-82-36-70v-76l40-5 31-71-42-81 56-41 66-5 92-77 123 106 107-1 107-6 87 30 92 20 51 9 51-5 153 50 159 64 46 20 30 36 77-11 15-36 30-45 46-36 71 5 82-1 56-26 102 35 76-21 67 25 36 51-5 40-10 36 1 65-5 66 15 46 26 75-4 157 72 76 47 75 76 20 16 61 189 105 36 30 41 30 62 15 66 30 36 55 52 25 45 5 67 9 51 51 36 65 51 5 21 20 56 15 41-16 46 45 31 46 31 45-10 31 10 35-4 45 51 71 51 40 36 30 77 35 71 10 77-16 46 10 41 10 71 9 87-36 25-10 25-66 35-71-5-117 71-35 66-51 20-46 10-26 35-106 31 30 31 81 10 15 16 45 25 31 46 30 21 45 57 70 41 71 37 227 73 116 31 45 36 46 20 35 26-15 51 30 36 40 31 76 41 60 72 45 41 40 103 50 36 60 31 56-10 106 82 65h26l30-15 46 9 102-5 103 44 5 51 16 40 26 51 41 30 97 95 6 86 26 71 97 14 62 71 41 65 21 91 32 172 72-6 124 28 50-1 17-48 38 6 33-39 111-17 33-131 153-31 25 6 97 22 111 27 56 88-11 26 20 98 22 18 8 27-12 53 27 30-4 141 17 18 5 36 6 55 42 22 27 19 42 35 22 51 11 34 11 26-25 96-12 64 31 26 41-8 76 44 70-22 33-30 45 10 210 93-9 118 127 120-64 58-217 65-42 45 13 935 1736-32 46-1 429-13 17 935 2874-90 52 1930-981 29-158 11-786 27 40 1864 6 91-5 61 38 904 31-1 33 945 485-4 28 984-316 8-169 1 4 470 158-1-51 40-76 21-36 11-61 46-46 40-51 21-41-106-36-30-51 11-82 16-41-25-36-20-56-10-82 31-72-75-57-60-46-55-52-50-51-66-88-110-113-110-62-30-97-4-112 31-123 62-168-4-210 27-117 46-1-106 14-162-2-328-16-777-1-162-9-485 311-7 174 3-6-166-16-798-2-172-67-2743-822 16-174 2-158 1h-56l-61 6-700 10-158 7-307 7h-46l-474 4h-26l-153 6-797 6-189 1-613-5-204-4-163 1-792 6-168-4-1420 19-357 8-1-76-6-106-2-399-164 1v-71l-2-329 3-267-46-96-27-96-91 11-98-55-117 10-56 11-87 41-61-5-67-50-148 26-81-9-62-15-193 37 17-461h56l4-187-5-30-36-20 5-76-82-5-46-45-11-126-1-157-26-61 30-40 46-31h46l40-76 71-76 36-41 55-127 15-66 10-5v-20l-5-30-36-56-5-5-52-101-107 6-82-30-61 16-62-30-123-136-77-106-113-161 20-66 25-71 30-40-42-126-26-66-117-19-102-71-36 26-31-10-46-40-61-50-47-81-72-91-51-20-147 118 29-269 25-30 5-5 45-132-15-50 20-36 35-36 21-55-6-51v-81l-16-106-113-40-62-90v-122l81-66-1-71-56-86 35-96 5-71 5-25 40-36 71-127-41-35-21-5-66 6-67-91 41-71-16-76-67-121 9-126-5-41-26-35-15-51-31-25-26-60-57-81h-30l-15 16-5 40-20 51-51-5-57-15-46-5-40 6-51 40-91 133-66 15-36-45-41-66-87-30-82 26-51 11-96 61-61 20-57-14-56 5-35 30-72-19-5-61 15-56 40-40v-117l-87-35-67-25-71 16-87-20-51-86-128-19-87-55-77-25-66-50-118-126-46 20-25 5-128-24-77-55 137-77-41-142-82-70-16-45-26-122-46-111 30-66 66-66 40-61 36-35z" id="Blaine" fill="#b9b9b9" stroke="#fff" stroke-width="80" stroke-linejoin="round"/>
    <path d="M-9540 1800l459 18 301 15v-61l-11-112 10-96 40-106 31-137 15-86 4-102 10-81 15-66 5-121 392 9 153-1 3970 65 179-1 45-61 41 5 61-10 51 10 61 9 46-10 46 5 71-16 56-17 66-43 73-30-5-66 97-73 61-48 69-5 32 28 35 63 46-10-9-44 13-10 56-51 20-36 5-56 5-55 45-87 81-86 97-21 40-56 20-66 26-50 30-6 26 5 9-96-91-35-11-46 25-76-56-55 45-46 51-5 113 14 55-56 143 66 72 40 41 25 2 3 2 25 15 60 34 68 54 24 60 88 145 36 44 35 19 138 27 51 18-7 17-30-6-24-13-18-2-23 7-25 12-20 17-24 12-10 30 28 89-21 62 32 13 107-4 5 11 51 20 35 21 20 31 15 30 10 51-25 46-46 40-87 61 76-4 106 46-15 20 25 16 36-10 142-5 65 6 31 36 50 31 61-51 76-51 10-41 26 32 106 25 61 31 71-35 91 36 40 41 35 26 21 35 20 26 40 26 10h20l10-5 46-31 61 10 46 50-5 51 21 25 10 31 72 25 15 60 29-14 58-16h34l43-11 16-5 9-1 31 6 40 55 36 35 72 81 25-20 26-41 97 55 86-16 119 238-137 147-122 47 26 60 51 56-5 30 77 25v56l21 30 20-5 56 15 46 14 118 45-10 97-10 5-10 20-5 36-15 15-5 15-138-40-20 31-26 50-71 31 11 56-10 40-31 31-56 46-20 91 16 76 37 121 36 66 56 60 66 35 77-20 107-41 92 70 51 30-10 101-25 112 47 60 76 30 41 15-15 51-5 40-20 16-51 35-56 61 6 76-15 86-61 11-82-10-30-20H96l-107-9-82-45-51-61-31 31-35 76-66 46-46 46-76-5-36-30 56-117-41-25-67 26-45 25-46-40-6-41 41-45 46-6-6-45-25-61-51 6-51 61-66-10-57-71-66-35-77-40-113-197 20-96 19-147-51-96-11-71 10-101-16-91-46-106-37-81-41-60-5-26-15-20-16-30-77-76-40 1-31-10-36-10-97-35-97-40-97 20 113 71 77 80 67 111 10 61-35 36-46 66-30 81-5 81-30 76-30 56-41 86-50 132-116 147-26 31-30 30-71 127-30 91-66 92-20 81-4 86v71l5 5-46 51-45 10-41 66-35 31-77 41-76 15-97 31-56 31-86 25-67-15-61-19-133-15-86 56-71 16-133 31-137 76-36 21-76 25-61 6-51 20h-26l-40 26-31 30-102 1-117 10-86 71-56 82-31 25-4 127-36 66-61 30-61 36 1 35 36 66-15 71-10 111v96l-4 92-46 91-40 61-77 41-66 5-71-10-57-10-81 6-36 5-91 117-81 147-121 248-5 76 16 106h46l51 30-77 51-71 56-45 137-41 51-122 76-61 31-45 40-56 51-61 76-41 41-30 40-31 51v10l-66 26-117-25-26 41-20 35-46 26-35-10-92 116-20-5h-10l-62-45-153 21-76 51-66 71-20 91-41 56-132 71-36 51-35 51-56 10-51 5-51 26-66 46-41 45-36 26-25 25-20-5-72-25-36-35-56-20-71 25-36 26-92 10-66-40-11-20-41-71-51-25h-15l-61 21-10 25-25 91 5 46-133 25-61 11-20 30-77-75-67-66-77-76-174-176-66-76-82-85-93-86-635-665-66-71-62-60-92-106-77-81-148-146-251-257-72-86-399-409 81 5 5-167 27-800 5-167 23-804-1-147-1-456-2-344 5-142-6-167 8-643 163 5 179 9z" id="Boise" fill="#b9b9b9" stroke="#fff" stroke-width="80" stroke-linejoin="round"/>
    <path d="M-14774-50503l871 14 940 23-67 3843 639 14 126-1 61 5 135 5 484 4 161 5 312 9 156 5 156-1 161 5 241 9 237 5 181-1h151l156 4h156l151-1 171 5 156-1 322 4 1112 12-16 2009-3 328-8 853-8 693-4 333-2 324-1 81-2 251-3 284-6 713v17l-36-20-30-36-61-123-71-56-192-250-20-67-31-66-86-41-60-5-60 67-91-5-111 11-116-97-56-36-96-45-50-87-81-113-71-71-56-36h-60l-156 52-111 82-50 42-35 31-41 61-20 46-40 31-70 47-76 128-15 31-32 1429-1331-32 4-215 10-384-1-72 10-440v-16l-479-14-177-4-328 1 6 158-686-19-292-4-197-5-151-4-157-5-302-10-1114-23-170-5 20-762 72-2159 4-127 106-3742 1-25 36-883 6-149 73-1757z" id="Bonner" fill="#b9b9b9" stroke="#fff" stroke-width="80" stroke-linejoin="round"/>
    <path d="M20187 7381l357-14 77 4 388-14 137-1 179-2 775-33 964-20 975-25 943-35 980-46 948-36 317-19 193-7 271-8 193-12 6 55 1342-56 1295-50 73 110 36 45 1 36 16 81 6 96 52 100 21 56 16 30 22 166 37 91 56 50 52 15 81-27 107-31 128 23 111-41 94 135 61 20 88 49 265 22 92-36 108 74-15 41-5 45 37 51 84 72 8 7 102 2067 15 355 39 929 15 309 13 288 2 35 32 637 17 353 19 354-174 13-276 8-1108 38v-15l-843 45-132 7 5-10-82 1-255 13-230 13-358 14-194 12-71 1-225 7-510 21-76-1920h35l-55-965-955 36-949 51-12-172-28-768-807 23-153 7-827 29-20-495-479 20-7-162-475 10-183 12-490 15-312 13-454 10-347 19-326 18-306 13-470 15-1-157-2-167-1-136-33-809-7-157z" id="Bonneville" fill="#b9b9b9" stroke="#fff" stroke-width="80" stroke-linejoin="round"/>
    <path d="M-14702-52210l3355 64 1100 17 1688 30h161l864 17-17 1255 3 240-14 1035-4 339-2 144-7 637-4 313-4 365-22 1217-1112-12-322-4-156 1-171-5-151 1h-156l-156-4h-151l-181 1-237-5-241-9-161-5-156 1-156-5-312-9-161-5-484-4-135-5-61-5-126 1-639-14 67-3843-940-23-871-14 46-1066z" id="Boundary" fill="#b9b9b9" stroke="#fff" stroke-width="80" stroke-linejoin="round"/>
    <path d="M16227 766l27 815 4 400 5 1139 11 193-2 344 265-2 526-5 469-20 1147-20 68 1932-30 1 58 1937-14 142 17 809-490 15 6 45-475 4 34 961-510 10-450 9 28 884-112 1 18 905-480 15-2874 90-17-935-429 13-46 1-1736 32-13-935 42-45 217-65 64-58-127-120 9-118-210-93-45-10-33 30-70 22-76-44-41 8-31-26 12-64 25-96-11-26-11-34-22-51-42-35-27-19-42-22-6-55-5-36-17-18 4-141-27-30 12-53-8-27-22-18-20-98 11-26-56-88-111-27-97-22-25-6-153 31-33 131-111 17-33 39-38-6-17 48-50 1-124-28 40-51 40-86-6-81 56-71 61-97 15-51 45-30 20-31 5-50 15-46v-10l25-21 41-35 87 29 41 5 107-51 50-51 66-51 56-66 50-51 56-62 51-66 30-20 51-16 15-15 26-10 25-16 36-5 20-36h56l71-31 36-36 71-76 30-10 97-16 76-21 56-26 87-46 55-51 61-46 66-77 25-35 76-36 31-16 51-15 76-31 41-41 60-56 41-41 71-41 20-15 87-16 45-122 45-56 76-51 71-66v-56l46-41 20-10 15-51 19-91 4-142-5-76 81-61 61-21 97-31 122 34 21 21 25 9 46 5 128 65 25-86-21-41-25-45-11-25-25-15-26-25-21-31-11-80-26-51-46-85-93-101-77-60-199-44-133-85-21-55-26-81 60-158 49-167 40-152-16-35-21-71-10-25-16-66 10-25 5-46 20-20v-31l10-20v-30l5-26 20-41 10-45 4-51-15-65-21-36-26-50-21-51v-30l-5-30-97-622 148-1 199-7-7-167-17-805-1-167-17-815 332-13 158-2 315-12 163-2 128-6 346-3 377-8 928-18 153-1z" id="Butte" fill="#b9b9b9" stroke="#fff" stroke-width="80" stroke-linejoin="round"/>
    <path d="M5234 12431l-72-5-102 1-812 10-153 1-593 4-204 1-174-4-469 8-154 1-173 1-169 1-801 9-159-4-536 3-112 1-133 1H254l-183 1-440 3-158 1-2-314 5-166-2-1300-1-156 20 5-1-162 6-794-1-172 3-1471 66 9 97 45h56l77-51 50-51 46-40 35-87-10-65-16-81v-96l4-101 20-76-26-86-15-61 45-76 36-31 71-81 45-46 30-61v-55l-5-66-42-146-143-116-52-81-11-91 15-192 20-46v-40l50-132 4-106-20-76 106-218 51-16 76-86 4-61 5-76 25-76 41-51 40-55 77 55 128 24 25-5 46-20 118 126 66 50 77 25 87 55 128 19 51 86 87 20 71-16 67 25 87 35v117l-40 40-15 56 5 61 72 19 35-30 56-5 57 14 61-20 96-61 51-11 82-26 87 30 41 66 36 45 66-15 91-133 51-40 40-6 46 5 57 15 51 5 20-51 5-40 15-16h30l57 81 26 60 31 25 15 51 26 35 5 41-9 126 67 121 16 76-41 71 67 91 66-6 21 5 41 35-71 127-40 36-5 25-5 71-35 96 56 86 1 71-81 66v122l62 90 113 40 16 106v81l6 51-21 55-35 36-20 36 15 50-45 132-5 5-25 30-29 269 147-118 51 20 72 91 47 81 61 50 46 40 31 10 36-26 102 71 117 19 26 66 42 126-30 40-25 71-20 66 113 161 77 106 123 136 62 30 61-16 82 30 107-6 52 101 5 5 36 56 5 30v20l-10 5-15 66-55 127-36 41-71 76-40 76h-46l-46 31-30 40 26 61 1 157 11 126 46 45 82 5-5 76 36 20 5 30-4 187h-56l-17 461 193-37 62 15 81 9 148-26 67 50 61 5 87-41 56-11 117-10 98 55 91-11 27 96 46 96-3 267 2 329v71l164-1 2 399 6 106z" id="Camas" fill="#b9b9b9" stroke="#fff" stroke-width="80" stroke-linejoin="round"/>
    <path d="M-13595 5561l1609 32-17 476-5 167-3 511 329 849-50 1871-347-9-3 637-4 319-9 303 6 162-9 334v161l-46-85-72-41-46-20-97-5-71 1-77-36-36-20-56-45-56-66-16-30-41-50-26-76-46-96-15-66-31-80-36-66-87-91-31-45-21-31-56-40-36-25-56-25-82-40-76-61-149-217-67-65-61-56-62-71-20-35-62-65-82-96-61-116-62-66-41-51-35-15-62-30-51-45-61-66-36-101-21-116 4-263 31-66-36-91-103-156-41-147-52-146-41-61-148-131-133-81-163-15-56 5-62-4-46-31-92-55-81-81-72-91-67-70-76-46-46-45-67-46-67-146 5-36-10-50-5-31 5-20-15-45-41-56-82-30-82 10-107-20-181-80 28-1078 8-314v-15l2-10 23-69 5-13 19-55 4-13-35-33-54-47 24-88 64-57 34 30 52-3 21-24-7-37-3-47-19-27-54-35-7-39 87-39 97-17 65 12 55-32 10-38-1-76 2-53 250-1-30 513 326 14v153l165 7-11 155 326 11-4 162 483 13 1-81 324 5 6-77z" id="Canyon" fill="#b9b9b9" stroke="#fff" stroke-width="80" stroke-linejoin="round"/>
    <path d="M24139 13959l935-19 291-9 169-1 317-4 173-7 179-7 613-21 178-8h72l82-6 158-7 654-33 510-21 225-7 71-1 194-12 358-14 230-13 255-13 82-1-5 10 132-7 843-45v15l1108-38 276-8 174-13 1 20 45 1020 42 880 3 64 12 259 15 322 21 597 12 328 24 601 18 439 51 1091-5 2-36 13-102 32-4 46 16 40-15 40-41 51-51 16-46 11-173 22-153 108-143-54-112-8-16-25-22 13-12 146-64 15-10-11-86 12-112-49-92 4-46 6-36 15-46 1-30 10-36 1-67-10-36-55-16-45-5-5-14-33-26-29-9-49 6-30 27-13 59-49 35-277 9-41 9-81 5-66-1-3 35-250-71-27 2-57-34 6-53-66 6-49-26-20 5-119-45-7-54 174-27 28-52 111-40 71-26 36-34 86-15 41-11 17-41-22-51-9-46-35-46-5-67 1-64 1-140-62-50-53 6-155-124 2-60-31-384 15-434 5-225 2-939 45-16 44-84 37 2 76-91 20-51 63 4 22-8 25 11 60 39 63-3 34 6 14 11 116 73 70-5 40-20 51-7 10 9 26 17 46 31 37 47 18 27 42 39 137 67 154 50 199 101 198-12 101 35 83-51 51-79 9-23 104-918 31-8-170-255 10 1 166-491 10-158 7-159 2-337 19-13-328-15-485-138 1-7-166-13-288-148 7-2-162-6-161-10-470-12-156-6-162-102 6-169 7-20-490-26 1-92 1 36-71 14-97-47-140-32-61-36-55-11-35-15-15-174 2-133 1-173 2-235 12-167 209-81 87-113-59-57-91-22-86-11-95-10-61-57-80-103-95-11-86-27-80 5-71-1-66-21-106-32-60-1-111 20-81 91-92 36-31 4-70-1-71-125-307-12-182-16-91-21-55-16-70 39-152 14-142-11-126 20-41 25-81 20-36 56-41 66-10 61-21 56-26 30-66 20-71 20-41 20-55 40-61 87-47 86-16 36-26 30-15 10-30 5-56-6-86z" id="Caribou" fill="#b9b9b9" stroke="#fff" stroke-width="80" stroke-linejoin="round"/>
    <path d="M12693 18247l117-46 210-27 168 4 123-62 112-31 97 4 62 30 113 110 88 110 51 66 52 50 46 55 57 60 72 75 82-31 56 10 36 20 41 25 82-16 51-11 36 30 41 106 51-21 46-40 61-46 36-11 76-21 51-40 41-6 56-26 56 5 98 29 76 30 1 106 13 323 1232-21 158-6 26 646 7 162 11 166 7 167 37 797 12 959 16 646 1 166 7 147 14 474 2 328 14 489 12 162 1 156 6 166 2 147 16 782-481 19-158 6-594 24-27-1h-34l-159 4-2048 59-203 7-114 3-40 1-337 11-471 14-262 3-86 5-98 4-307 11-373 13-174 6-92 1-77 3-169 7-567 21-164 9h-5l-149-5h-25l-302-3-154-1h-194l-164-3-154-2-195-3-220-2h-7l-64-1-914 3-553 2-164 1-298 1-24-3744h-31l-6-156-1-162-6-161-6-167-7-318 1784-7-21-969h46l9-152 444-53v-71l102 30 66-56 82-26 56 5 41-1h56l36 20 87-6 5-5h21l20-5 21-5 30-16 26-10 178-72 87-46 76-41 77-6 97 20 170 125 138 9 71-46 71-56 82-61 71-51 56-26 56 5 103 54 67 136 42 76 72 75 97 40 97 4 92-6 184-6 133-62 112-71 86-97 36-26 15-80 45-97 55-147 35-91 56-81 71-96 66-82 25-35 20-41 25-61 36-30 10-15 10-26v-20l5-20 4-76 40-121 66-72 112-61 77-31 76-41 71-16 102-56 179-42 143 55z" id="Cassia" fill="#b9b9b9" stroke="#fff" stroke-width="80" stroke-linejoin="round"/>
    <path d="M27050-3103l38 679 12 167 38 628 7 172-520 21-336 14-224 13-163 6-153 7 16 481 1 127 7 162 2 157-169 7-188 12-117 7 8 319 9 324 7 167-4 122-36 5 14 324 6 132-168 2-127 6-143 7 9 369 2 147-173 12-311 14-489 15 6 152 22 643 12 172h-36l-132 7-632 16-184 2-158 7-158 2-306 8-331 3-178 12-158 2-627 16-20 5-138 2-291 8-229 7-290 13-954 24h-5l-163 7-290 13 6 141 2 183 1 157 5 486-1147 20-469 20-526 5-265 2 2-344-11-193-5-1139-4-400-27-815 107-1 153 4 178-7v30l301-7 683-17-33-1960-92-4-51-76-6-9-17-25-23-18-5-4-32-44 3-27 2-14 19-26 8-23 9-26 13-22 4-11 4-19 2-30 4-37 15-28 48-49 24-24 47-30 13-9 7-3 32-31 11-11 16-25 21-44 26-45 7-18 35-56 18-26 32-44 29-21 16-12 35-13 8-4 5 1 25-13 31-16 45-10 41 5 22 3 8-3 15-6 29-21 7-5 19-28 24-37 9-14 5-6 74-49 6-5 33-10 46-2 7 2 29 9 41 13 16 5 26 10 26 8 30 9 16 6 10 8 14 11 32 30 17 1 11 3 58 19 6 4 31 22 32 23h4l31-3 45-9 26-7 50-20 56-8h50l21 14 17 27 18 16 3 4 5 2 7 1 34-13 40-15 5-2 45-15 14-3 22-4 5-1 20 6 25 12 17 11 30 20 20 10 19 11 7 1 34 6 25 2 7-1 25 4 31 9 4-2 36-17 41-17 8-3 33-18 7-4 44 2 7 1 8-1h11l20 3 33 21 23 15 4 3 32 18 36 16 10 2 26 8 27 8 8 5 18 10 26 48 3 5 17 30 5 4 10 10 11 9 19 13 25-5 19-19 10-9 6-3 32-27 38-34 11-10 33-20 33-19 6-4 35-10 20-4 26-5 30 6 26 13 3 6 12 19 7 32 2 10 7 3 21 21 10 9 21 4h25l5 1 41 20 20 10 16 20 17 33 10 15 22 24 30 12 35-1 19-1 26-6 45-7 5-2 26-9 30 5 29 12 21 17 42 36 40 10 31-4 3-5 28-43 48-77 4-7 4-8 12-27 3-9 20-69 12-38 5-21 4-27 10-45 4-14 11-42 6-28 9-30 2-20 3-35v-51l-4-66-7-51-10-46-2-10 3-59v-13l9-41 11-48 2-7 24-36 47-24 8-3 32-11 8-3 56 8 20 3 107-13 32-27-11-115 79-89 105-37 8-54 24-19 138 33 32-15 26-7 55-14 62 5 60 11 32 23 25 19 5 6 15 26 4 8 12 30 5 35 3 11 10 34 4 13 6 15 10 20 25 11 21 9 31 13 31 10 4 1 15 5 80 19 22 5 34 8h39l56-34 13-8 36-17h4l117 29 5 1 12 3 49 12 12-2 35-6 16-2 33-2 12 3 55 45 38 31 29 19 10 6 22 16 21 11 35 11 41 2 5-1 29-12 7-4 32-38 12-15 10-12 44-16 19-9 15-7 10-4 91-33 41-13 23-1h33l10 1 23 6 42 27 43 29 16 11 31 15 6 3 14 4 17 5 28-4 13-33-40-40-24-25-24-24-14-15 7-17 16-19 5-4 38-5 11-1 15 2 26 13 21 7 10-1 36-1h25l10 2 10 7 23 21 22 13 9 4 33 12 69-4 27-2 39-8 48-16 7-3 27-23 23-23 22-20 27-26 29-17 19-11 12-7 9-6 12-15 32-59 7-4 40-7 8-1 28 3 42 1 67 1h8l22-2 75-9 27-4 33-6 40-20 9-8 21-21 33-28 48 18 14 6 4-1 12-4 10-6 26-16 19-12 4-1 25-5 12 14 1 7 5 29 8 25 14 40 3 5 19 34 4 4 21 25 8 8 26 36 17 23 4 5 8 14 14 27 17 40 18 40 16 28 30 30 34 26 16 16 17 16 14 19 22 37 12 19 5 4 32 26 17-2 31-3 5-1 34-33 8-15 13-62 25-40 34-8 23-5 15-3 23 4 28 5 28-3 30-12 45-26 19-14 5-4 25 9 16 6 12 2h9l9-1 12-1 8-25 15-15 11-13 14-17 5-5 34-31 12-10 30-15 51-25 55-13 10-2 77-20 4-1 46-27 4-2 20-32 3-5 10-33 2-6 26-36 32-22 6-4h28l53-9 46-4 45-6 63 33 36 19 57 7 32-3h35l26-4 4-1 35 14 28 6 10 1 6 1 14 2 41-5 35 4z" id="Clark" fill="#b9b9b9" stroke="#fff" stroke-width="80" stroke-linejoin="round"/>
    <path d="M-9950-29115l1432 20h156l790 17 627 18 481 4 162 4 162 5 162-1 167-1 156 5 339 3 911 12 1635 2 966-5 966-4 481-3 152-1 681-1 4 8 6 16 37 36 20 10 30 14 32 15 40 24 36 20 71 57v36l-13 21-13 18-6 9-8 13-8 20-7 16-5 36-10 20-5 26 1 56 10 42 4 15 14 69-3 20-31 50-10 9-9 9-53 46-20 28-3 29 11 15 4 8 8 9 45 23 10 1 40 19 33 28 9 31 2 13-13 56-9 31-9 41 1 6 13 49 8 12 19 27 10 9 50 30 15 4 25 11 36 18 16 14 20 15 5 9 14 29 2 28-14 37-2 52 6 29 21 15 23-4 4-4 11-14 4-3 3-16 5-11 12-28 25-14 7-4 35-8 36-4 27-2 14 4 33 9 22 13 14 28 27 58 17 22 19 24 23 13 28 15 5 4 26 25 25 24 24 28 17 19 25 29 30 20h17l20-1 26 2 25 2 24 2 5 4 6 3 27 19 11 7 14 10 16-1 31-2 20-1 15-1h7l36 37 7 10 12 16 26 35 60 47 17 14 25 38 2 9 7 26 12 59-3 47-2 19-19 77-27 49-6 10-4 6-64 88-32 81-1 10-5 47 2 9 16 30 22 6 26 8h9l15 1 31-5 19 9 16 8-5 30 2 28 2 25 20 18 33 3 4 1 25-13 15-8 4-4 33-46 21-29 15-19 18-23 10-10 38-39 12-4 31-12 7-3 30-4 10-1 8-1 33-2 7-1 36-6 30-33 16-18 1-7 8-35 1-5 2-14 8-24 9-35 2-6 12-25 9-15 44-24 32 4 37 6 68-12 15-2 31-5 7 2 13 3 78 42 38 34 4 5 32 44 20 24 25 28 62 71 22 25 12 14 22 39 6 20 6 66 2 23 1 28-1 7-2 28-1 23-4 11-12 30-11 15-19 27-17 7-18 6-32 16-12 10-4 4-7 28 5 30 5 31v65l4 15 17 12 12 7 31 24 1 7 44 26 74 25 28 61-11 118 5 13 19 18h7l24 1h7l13 1 57 1-86 23-177 42-157 36-162 32-2529 585-3810 886-972 213-30 133-40 137-9 97-76 51-10 51-5 31v41l-76 77-45 35-25 31-20 56-51 87-35 77-76-15-61 41-9 51-112 36-96 112-20 26-5 30 5 56-24 102-10 36 5 56v92l-5 20-15 5-51 36 16 61-40 41-61 143 16 96-5 31-71 51 21 77-46-5-15 10-20 5h-21l-15 26-10 66-25 36-45 10-102 26-40-46-21-10-40 67-31-16-20-25-30-41-77 1-61-46-30-15-51-20-40 5-51-15-36-25-131-5-87-66-66-20-116 11-153-35h-25l-35 10-61 11-56-5-107-36-46-86-91-45-163-127-81-86-107-229-117-122-173-60-40 15-76 10-76-30-71-5-36 41-20 21-76 15-35-15-16-15-35-61-51-66-76-20-31-10-15-6-101-30-11-51-30-152-31-61-87-133-212-4-158 1h-162l-324-4-5-102-31-91-26-61-35-67-97-127-46-45-86-10-25-51-51-71-76-41 15-334-162-8-113 35-289-4-85 104 29-739h-36l13-825 998 12 8-622 5-153 5-158-1-168v-164l5-168 4-331 4-174v-163l9-311v-163l-1-159 5-168v-158l-1-158z" id="Clearwater" fill="#b9b9b9" stroke="#fff" stroke-width="80" stroke-linejoin="round"/>
    <path d="M-2164-221l20-51h25l46-10 5-31-5-61 25-30 51-46 66-56 45-102 71-66 40-45-5-122 35-66 15-76 40-46 46-96 20-92-16-96-21-91-5-20-5-21 20-76 15-15 40-41-25-30-61-20 4-40 71-67-20-71-32-141-40-35-42-147-31-20-5-10-15-26 5-61-87 26-86 1h-87l-11-66v-35l-71-20-26-61 25-91-36-86-31-71-16-142-11-106 51-112 35-71 40-76 36-66 46-21 71 25 61 20 15-30 20-46 15-46 56-5 72-21 61 20 25 15 15-25 5-31-20-40 15-56 76 15h36l77 60 75-137 117-92 56-41 50-76 5-91 45-92 25-81 10-96 20-51 4-97 21-60 15-26 10-15 25-41-5-51-21-30-20-25-21-61 20-25 31-36 30-46 66-81 116-107 71-41 66-46 76-51 25-46 36 15 26 5 35 30 52 91 51 35 76 35 82 25 66 61-9 111 31 31 10-31 30-56 10-45 51-6 6 157 20 97 21 55 5 26 36-31 50-61 61-66 117 14 67 35 71 61 21-11 35-20 46-41 55-56 56-41 81-31 20-56 31-20 5-61-6-51 36-30 61-11 25-20 41-36 65-66 71-66 71-57 61-25 46-6 35-10 31-25 15-21 20-46 40-56 61-56 66-20 41-31 30-36 67 91 51 71-50 132-30 76-25 61-10 81-20 77-25 81 1 61 36 81 36 86 36 45 46 86 5 5 51 10 51-11 61 91 77 86 72 55 72 86 46 96 41 101 1 132 31 46 10 5 87 24h46l50-36 51-10 51-5 61-1 92-16 61-30 86-11 92 50 92 15 107 90 41 25 26 31 51 50 103 192 16 61-20 46-20 35-20 71 5 61 36 30 56 30 92 50 72 106 46 15 46-10 66-21 45-36 51-35 35-87 41-61 60-76 56 30 16 45 77 56 51 35 51 15 51-21 45-26 25-45 36-87 35-41 15-10 56-10 46-31 20-41-6-40-5-36-10-10 5-45 20-51 30-51 35-56 10-51 30-25 66-36 61-16 66-15 16-36 30-46 40-56 122-56v-26l-46-30-1-66 41-71-6-81 35-61 20-102-51-25-61-20-31-15-36 16-30-25-36-51-16-106 126-214 91-1 66 5 97 15-5-71 15-36 50-56 5-56-11-91 51-92 60-76 56-82 66-35 60-16 46-87 29-116 51-41 51-26 66-26 15-20 46-6 20 20 41-45 45-102 50-87 117-61 90-113 97-51 77 86 97 45 10 66-4 106v31l16 55-20 36v30l41 66-5 51-15 35 1 46-15 36 5 55-56 36-19 188 26 61-40 96-60 97-35 97 41 91 41 14 66-25 56-6 41 15 40 10 66-31h8l81 57 75-14 152 136 69-119 40 30 203-163-7-41 91 1 170 290 111 200-5 137 14 11 31 81 21 51 62 152 10 20 5 25 21 25 10 26 16 25 15 20 31 66 56 25 77 45 53 222 81 40 97 50 41 20 21 31 57 116 215 216 82 55 26 112 41 40 67 50 71 45 72 40 36 25 21 36 15 20 31 50 31 15 25 20 82 45 97 70 57 81 31 30 82 86 25 25 36 30 47 91 31 45 153 121 87 35 31-1 56 10 51-5 51 4 76-5 56 9 87-10 107 34 56 15 72 25 117 4 87 85 103 101 81 20 154 44 107 4 30 20 26 15 112-6 163 19 200 166 87 9 91 15 102-16 143 24 45-76 71-72 25-41 5-50 25-31 55-76 67-16 30-5 41-6 67 66 31 70 41 81-9 101 61 25 31 46 62 70 66 55 28 258 123 141 41 20 57 40 46 40 41 61 67 91 32 131 10 71 67 50 26 66 42 116 10 55 6 26 10 71 21 30 42 75v102l-14 137-25 66 73 141 82 85 5 41-315 12-158 2-332 13 17 815 1 167 17 805 7 167-199 7-148 1 97 622 5 30v30l21 51 26 50 21 36 15 65-4 51-10 45-20 41-5 26v30l-10 20v31l-20 20-5 46-10 25 16 66 10 25 21 71 16 35-40 152-49 167-60 158 26 81 21 55 133 85 199 44 77 60 93 101 46 85 26 51 11 80 21 31 26 25 25 15 11 25 25 45 21 41-25 86-128-65-46-5-25-9-21-21-122-34-97 31-61 21-81 61 5 76-4 142-19 91-15 51-20 10-46 41v56l-71 66-76 51-45 56-45 122-87 16-20 15-71 41-41 41-60 56-41 41-76 31-51 15-31 16-76 36-25 35-66 77-61 46-55 51-87 46-56 26-76 21-97 16-30 10-71 76-36 36-71 31h-56l-20 36-36 5-25 16-26 10-15 15-51 16-30 20-51 66-56 62-50 51-56 66-66 51-50 51-107 51-41-5-87-29-41 35-25 21v10l-15 46-5 50-20 31-45 30-15 51-61 97-56 71 6 81-40 86-40 51-72 6-32-172-21-91-41-65-62-71-97-14-26-71-6-86-97-95-41-30-26-51-16-40-5-51-103-44-102 5-46-9-30 15h-26l-82-65 10-106-31-56-36-60-103-50-41-40-72-45-41-60-31-76-36-40-51-30-26 15-20-35-36-46-31-45-73-116-37-227-41-71-57-70-21-45-46-30-25-31-16-45-10-15-31-81-31-30-35 106-10 26-20 46-66 51-71 35 5 117-35 71-25 66-25 10-87 36-71-9-41-10-46-10-77 16-71-10-77-35-36-30-51-40-51-71 4-45-10-35 10-31-31-45-31-46-46-45-41 16-56-15-21-20-51-5-36-65-51-51-67-9-45-5-52-25-36-55-66-30-62-15-41-30-36-30-189-105-16-61-76-20-47-75-72-76 4-157-26-75-15-46 5-66-1-65 10-36 5-40-36-51-67-25-76 21-102-35-56 26-82 1-71-5-46 36-30 45-15 36-77 11-30-36-46-20-159-64-153-50-51 5-51-9-92-20-87-30-107 6-107 1-123-106-92 77-66 5-56 41 42 81-31 71-40 5v76l36 70-9 82-21 55-30 61-66 36-97-4-142 16-67-25-77-35-46-76-5-66-11-70-16-86-92-96-41-50-47-45-41-26-40 1-41-35-31-20-10-16-21-30-26-25-36-35-61-30-25-5-46-5-52-60-143-80-602-7-455 11-5-725-478-3-157 81-89 37-95 68-129 91-23 75-9 9-30 76-46 56-66 15-56 31-91 56-62-55-46-51 15-86-6-76 56-61 51-35 20-16 5-40 15-51-41-15-76-30-47-60 25-112 10-101-51-30-92-70-107 41-77 20-66-35-56-60-36-66-37-121-16-76 20-91 56-46 31-31 10-40-11-56 71-31 26-50 20-31 138 40 5-15 15-15 5-36 10-20 10-5 10-97-118-45-46-14-56-15-20 5-21-30v-56l-77-25 5-30-51-56-26-60 122-47 137-147-119-238-86 16-97-55-26 41-25 20-72-81-36-35-40-55-31-6-9 1-16 5-43 11h-34l-58 16-29 14-15-60-72-25-10-31-21-25 5-51-46-50-61-10-46 31-10 5h-20l-26-10-26-40-35-20-26-21-41-35-36-40 35-91-31-71-25-61-32-106 41-26 51-10 51-76-31-61-36-50-6-31 5-65 10-142-16-36-20-25-46 15 4-106-61-76-40 87-46 46-51 25-30-10-31-15-21-20-20-35-11-51 4-5-13-107-62-32-89 21-30-28-12 10-17 24-12 20-7 25 2 23 13 18 6 24-17 30-18 7-27-51-19-138-44-35-145-36-60-88-54-24-34-68-15-60-2-25z" id="Custer" fill="#b9b9b9" stroke="#fff" stroke-width="80" stroke-linejoin="round"/>
    <path d="M408 4226l-35 92-36 35-40 61-66 66-30 66 46 111 26 122 16 45 82 70 41 142-137 77-40 55-41 51-25 76-5 76-4 61-76 86-51 16-106 218 20 76-4 106-50 132v40l-20 46-15 192 11 91 52 81 143 116 42 146 5 66v55l-30 61-45 46-71 81-36 31-45 76 15 61 26 86-20 76-4 101v96l16 81 10 65-35 87-46 40-50 51-77 51h-56l-97-45-66-9-3 1471 1 172-6 794 1 162-20-5 1 156 2 1300-5 166 2 314-6 788 6 172-6 788-4 162 2 338 2 480-4 152 1 202 149 70 20 5 31 5 122-47 72 46-5 25 3 485 11 171 2 298-8 490-4 132-527 2-158 1-803-1-153 1-802 9-159 1-787-12-1-161 2-758h112l-1-167-3-748-123 36-128 11h-81l-118-9-92-50-72-30-82-20-102-30-76 16-92 35-72 6-92-5-107 1-67-25-77-76-61-55-62-45-107-30-102 36-107 81-112 41-67 20-102 11-158-15h-31l-158-4-123 1-128-5-87-35-30-20-82-30-31-50-6-61 31-51 5-55-26-56-77-25-92 6-76 20-61 46-41-15-123-40-82-96-16-40-61-30-61 10-56 61-36-5-87 21-21-30-56-61-21-101-82-80-61 10-76 91-92 36-56 56-26 45-20 46-5 55 1 66 31 66 25 30v30l6 25 10 51-15 50-41-4-72-5-66-15-97 5-72-15-92-14-67-86-107-161-52-106-46-56-92-4-97 5-62-10-35-15-72-60-46-56-36-50-52-60-35-26-36-20-72-30-41 11-82-5-51-46 5-50 66-71v-45l-21-41-41-15-56 5h-15l-56-9-87-41-87-25-62-50-92-85-16-66v-71l26-30 25-51 51-35 10-26 5-30-31-45-97-86-113-10-81 16-67-25-71-46-108-75-10-71 265 4 123 5 194 5 138-1 163 5v-26l787-3 168 5 475-2 14-455 9-167 10-161 4-152 5-167 4-161-1-162 10-162 4-303 22-819 4-167 4-298 5-162-1-167 4-303 12-799-21-157-6-273v-20l-11-132 20-30 61-11 133-25-5-46 25-91 10-25 61-21h15l51 25 41 71 11 20 66 40 92-10 36-26 71-25 56 20 36 35 72 25 20 5 25-25 36-26 41-45 66-46 51-26 51-5 56-10 35-51 36-51 132-71 41-56 20-91 66-71 76-51 153-21 62 45h10l20 5 92-116 35 10 46-26 20-35 26-41 117 25 66-26v-10l31-51 30-40 41-41 61-76 56-51 45-40 61-31 122-76 41-51 45-137 71-56 77-51-51-30h-46l-16-106 5-76 121-248 81-147 91-117 36-5 81-6 57 10 71 10 66-5 77-41 40-61 46-91 4-92v-96l10-111 15-71-36-66-1-35 61-36 61-30 36-66 4-127 31-25 56-82 86-71 117-10 102-1 31-30 40-26h26l51-20 61-6 76-25 36-21 137-76 133-31 71-16 86-56 133 15 61 19 67 15 86-25 56-31 97-31 76-15 77-41 35-31 41-66 45-10 46-51-5-5v-71l4-86 20-81 66-92 30-91 71-127 30-30 26-31 116-147 50-132 41-86 30-56 30-76 5-81 30-81 46-66 35-36-10-61-67-111-77-80-113-71 97-20 97 40 97 35 36 10 31 10 40-1 77 76 16 30 15 20 5 26 41 60 37 81 46 106 16 91-10 101 11 71 51 96-19 147-20 96 113 197 77 40 66 35 57 71 66 10 51-61 51-6 25 61 6 45-46 6-41 45 6 41 46 40 45-25 67-26 41 25-56 117 36 30 76 5 46-46 66-46 35-76 31-31 51 61 82 45 107 9h31l30 20 82 10 61-11 46 51z" id="Elmore" fill="#b9b9b9" stroke="#fff" stroke-width="80" stroke-linejoin="round"/>
    <path d="M28174 20585l-32 46 13 48 22 13 11 48-5 23 5 95 123-42 8 73 34 66-23 25 80 134 57-12 67 48 8 72 50 51-164 173 58 45-7 10-48-1-49 51-86 31v35l71 135-33 50 27 127-34 8 12 69 67 67 139 35-9 36-91 59 2 4-138 57-75 117-87 36-19 101 11 91-4 16-1 99-75 136-18 77 19 135 79 73 41 44-4 121 1 50 62 116 42 40 41 19 36 35 21 66-9 101-10 111-19 91-51 76 27 91 26 45h25l11 5 46-6 10-10 20-5 57 29 21 35 56 25 98 39 82 35 98 44 133 24 26 95 11 46 6 55 9 92 40 54 8 53-34 55 31 94 19 223-44 4-56 1-532 6h-9l-1140 68-1862 105-1228 56-113 3-24-433-42-676-16-651-1-146 153-7 164-7-28-812-82-24-41-35-42-55-11-91-16-65-56-30-57-15-61-44-57-71-21-55 598-16 532-16 7 172 1 156 92-1 670-2-62-1145-8-323-13-323 138-1 337-19 159-2 158-7 491-10-1-166 255-10 8 170z" id="Franklin" fill="#b9b9b9" stroke="#fff" stroke-width="80" stroke-linejoin="round"/>
    <path d="M28036-4910l33-27 10-8 75-31 10-5 50-19 25-10 68-35 46-26 20-8 9-4 26-5 9 2 8 2 14 6 4 3 17 16 30 28 4 5 23 25 8 8 26 11 5-1 46-9 25-27 7-8 29-37 4-5 18-46 12-30v-45l1-22-1-24 1-35 2-72 2-7 7-19 4-25 15-27 37-25 31-7 14-3 37-1 33 49 28 42 27 44 3 5 66 109 8 13 33 6 36 7 6-3 38-16 9-4 45-25 12-2 35 10 14 8 23 17 18 17 2 6 17 36 1 6 6 35 3 17 29 32 6 5 6 4 14 9 21 13 29 25 12 10 31 25 55 46 3 3 12 35 11 33 16 46 48 42 22 20 13 12 7 10 7 13 9 17 17 32 50 50 3 4 21 33 5 20 4 14-16 27-33 48-12 28-10 19 3 49 6 8 21 26 5 3 51 2 44-24 20-8 30-10 21 19 13 33 21 6 14 5 31 10 9 5 29 21 52 70 39 52 42 45 40 40-8 17-16 14-7 2-22 3-35 5-8 3-19 7-8 4-39 18-13 22-4 19 7 18 37 32 6 14 12 31 15 48 5 14 11 132 5 14 15 51 23 22 9 5 45 14 18-2h4l51-12 29 1 27 1 29 3 80 41 18 7 42 35 17 30 6 13 8 18 8 20 3 18 5 16 9 38 25 48 16 15 27 5 25 5 35 3h11l48 28 2 6 11 16 17 24 23 35 23 3 9 2h21l11 1 14 7 16 4 17 10 10 21 2 7 5 22-15 62-3 12 1 45 16 88 5 9 21 41 5 9 25 44 5 9 26 30 6 5 37 29 5 3 39 33 69 21 69 20 58 12 86 16 114 38 5 1 100 19 9 1 131 2614 9 165 50 1019 16 276 47 860 26 491 2 33-81 22-71 21-51 51-71 26-40 11-26 25-40 11-41 16-56 21-20 10-106 87-71 21-5 6-31 10-14 61-107-4-96 88-76 61-81 72-35 31-46-15-41-20-31-35-11-60-61 41-36-20-123-64-35 20-21 31-55 11-20 36-36 20-31-15-76 32-45 41-31 31-50 56-66 51-56 1h-25l-26 6-46-5-102-24-41-76-11-30-16-35-46-35-86 36-16-65-26-35-51 21-61 46-25 30-20 31-60 92-92 26-60 26-81 72-76 42-15 15-26-5-41-15-25 11-112 1-92-19-57-15-133-109-98-14-116 87-76 16-71 21-86 97-70 97-102 6 12 228-1101 48-1-162-1132 58-3-319-480 5-168 7-479 31-7-162-18-334-174 7-311 13-958 30-10-491-7-157-3-324 184-2 632-16 132-7h36l-12-172-22-643-6-152 489-15 311-14 173-12-2-147-9-369 143-7 127-6 168-2-6-132-14-324 36-5 4-122-7-167-9-324-8-319 117-7 188-12 169-7-2-157-7-162-1-127-16-481 153-7 163-6 224-13 336-14 520-21-7-172-38-628-12-167-38-679 7-4 18-10 25-14 16-12 68-61 6-6 25-18 6-6 57-14 10-3 40-2 16 3 22 5 19 11 33 20 18 10 19 7 32 13 30-6 26-5 18-10 46 3 11 5 20 10 33 13 19 8 20 14 49 34 8 8 23 27 12 19 13 18 25 37 7 4 21 11 21 5 33-13 26-25 24-22 5-2 30-10 16-6 19-6 31-2 15 3 11-3 26 5 51 8 46 7 7 1 26-6 18-22-12-34-5-16-1-9-8-40-2-14-11-20-5-5-6-5-13 1h-8l-23 5-12 2-18 5-65-37-33-19-14-9-11-3-31-4-20 4-20 3-45-9-7-8-7-17 8-15 12-24 12-22-3-25-1-14-2-7-23-22-31-30-28-27-27-46-20-52-7-16-12-57-6-81-4-37 13-78 18-24 49-50 12-13 29-44 13-38-12-24-22-24-26-37-24-25-6-27 11-28 17-4 13-1h29l48 8 31 5 25 5 22-16 17-34 19-26 31-54 23-47 21-44 14-29 14-38-4-32-7-46-9-29-3-9-15-29-24-34-39-41-16-35-3-8-16-72-3-15-4-34 8-11z" id="Fremont" fill="#b9b9b9" stroke="#fff" stroke-width="80" stroke-linejoin="round"/>
    <path d="M-10183-1460l66-56 41-61 81-36 82-25 66-41 56-5 56 20 51-21 30-61 35-131 20-71 41-72 20-66 30-55 67-6 122 111 61 21 219-47h56l-27 978-17 968-484-9-6 962-9 497-14 466-147-5-179-9-163-5-8 643 6 167-5 142 2 344 1 456 1 147-23 804-5 167-27 800-5 167-81-5-1204-26-311-5-298 11-1609-32 8-348 14-324v-167l5-157 7-961 474 14 153 4h179l153-1 158 5 4-137v-152l158 5 153 5-1-167 10-157 5-167-1-142 174 10 158 4 316-1 48-972 305 9h169l275 9 14-339 5-76 5-86-1-76 66-87 21-91-11-66-10-81-6-71-20-70 40-92 15-142-6-121-15-117 4-106 36-66-26-96v-127l30-61 30-71 36-91 15-86-41-86 10-61 51-20 4-61 26-81-6-96 21-31 10-51 30-131 70-193z" id="Gem" fill="#b9b9b9" stroke="#fff" stroke-width="80" stroke-linejoin="round"/>
    <path d="M3502 12442v1586l1 162 1 177-3 318 2 319 11 171-8 329-1 808-184 1-3 323-6 591 18 1318-108-25-46-20-36-20-77-24-71-40-67 10-76 16-57-5-82-25-107-50-51 6-56 5-47-25-81-4-62-20-92-35-102 41-107 61-82 6-112-10-67 21-66-55-47-66-31-106 4-106 5-106-31-60-62-25-71-20-41-50-21-96 40-91 20-61v-70l-78-96-46-20-77-35-76-14-88-50-30-15-128-45-72 5-87 31-71-35-37-141 15-91 25-91 30-66-21-81 15-65 77-77 61-35 40-31 26-61 30-45 20-76-5-51-1-45-16-96-92-90-5-20-11-76-71-5-52-25-10-76-41-40-108-130-42-76-56-30-41-5-87 21-133-55-92 16-97-10-61 36-66 41-26-20-72-46-122 47-31-5-20-5-149-70-1-202 4-152-2-480-2-338 4-162 6-788-6-172 6-788 158-1 440-3 183-1h164l133-1 112-1 536-3 159 4 801-9 169-1 173-1 154-1 469-8 174 4z" id="Gooding" fill="#b9b9b9" stroke="#fff" stroke-width="80" stroke-linejoin="round"/>
    <path d="M5264-26024l26 13 4 5 40 61 10 32 2 7 8 48 1 53v36l2 33-1 8-11 89-2 8-11 49 1 17 3 18 4 13 2 18-2 22v11l-15 35-12 25-9 13-17 34-4 4-20 23-6 18-1 6-8 7-7 9-14 21-13 20-2 24 11 25 18 24 4 5 8 18 5 17 11 41-3 36-16 49-16 33-17 34-21 40-24 83v91l5 22 2 10 6 28-9 48-17 56 3 9 16 59 2 9 8 29 11 39-16 39-5 5-19 22-54 36-27 8-18 9-51 10h-41l-18-1h-44l-24 1-31-3-9 3-62 23-30 56v76l1 51 17 50 6 45 2 5 13 34 4 9 35 56 17 10 29 16 14 12 15 18 9 18 5 9 3 18-8 38-6 27-11 47 7 25 4 16 24 17 21 15 10 10 4 6 6 10 11 23-10 24-7 8-15 12-19 15-7 11-4 12-22 58-4 8v21l-4 30-6 41-3 9-24 42-4 8-12 14-14 15-5 4-23 24-72 74-82 83-7 7-10 15-14 70 1 13 1 14 13 36 20 57 21 52 2 49 2 73-4 137v87l-10 30-34 97-16 38-39 90-35 71 5 100 1 12 16 37 15 35-4 55-8 32-16 23-28 39-11 10-52 26-18 4-23 5-50 11-22 7-8 4-19 11-23 16-11 12-3 8-4 17-24 93 3 23 7 32 36 66 27 21 22 18 3 3 28 34 20 26 2 7 8 30 2 15 6 25 7 72 1 27-8 65 1 18 17 62 1 6 11 49 6 28 8 28 3 37-1 14-3 57-5 102-5 34v7l-5 42-16 28-26 14-31 4-30 3-4 3-25 15-35 16-14 11-31-3-27-1-9-2-32-13-20-8-21-2-51-4h-5l-35-4-31-4-9 3-14 4-11 6-20 11-25 20-6 26-7 29-5 25-6 10-8 10-13 18-16 21-12 54-2 12 22 59 23 63-1 24-3 62 10 33 2 9 35 17 30 27 10 1 32 5 46 7 46-5 44 5 38 21 37 21 26 31 12 14 11 30 19 28 19 44 42 86v27l-3 28-2 19-10 33-13 30-3 4-20 17-21 18-18 44 24 47 3 15 4 18-7 25-10 11-20 18-5 2-50 25-13 11-6 5-33 30-29 26-19 16-9 12-39 70-21 38-11 29-17 30-3 6 4 36 14 14 21 6 12 2 9 1 52-9 89 17 24 22 3 4 11 16 16 38 5 13 1 28-9 21-43 35-5 4-18 14-24 32-10 29-1 7-3 22-1 9 2 15 3 8 37 55 16 17 12 5 15 8 4-1 21-2 15-4 15-7 21-7 34-12 21 6 15-1 4 3 26 15 7 5 12 11 43 41 34 6 14 3 28 5 30 8 41 19 22 15 20 15 48 37 20 21 46 97 7 26 13 45-8 46-6 13-10 17-25 33-67 50-40 35-53 57 1 19 7 38 30 29 35 32 28 39 16 24 15 50 11 40 10 21 7 14 21 25 20 28 11 9 30 22 40 70 28 45 17 12 28 20 2 30 2 25-15 31-29 35-26 33-4 5-18 34-26 49-16 44-14 31-9 51-1 36-3 7-20 24-6 2-32-17-31-17-24-20-32-27-30-15-47-23-34 5-31 8-43 26-28 18-52 28-64 36-10 6-25 14-6 3-24 11-22 5-8 1-31-12-32-13-21-9-10-4-8 1-6-1-25 7-31 14-29 24-17 13-20 19-15 13-9 12-12 94-4 26-38 68-9 10-11 10-17 16-16 14-7 13-13 21-10 25-21 49-33 53-33 48-3 14-22 91-36 39-13 9-29 20-15 21-52 78-9 13-12 36-4 15 4 22 21 33 17 26 37 10 21 5 19 6 26 6 8 6 7 6 14 18-9 71-6 39 4 28 16 34 3 4 28 38 8 5 15 15 28 27 22 21 6 12 17 32 3 6 17 7 37 24 35 12 23 3 12 6 39 20 38 41 11 16 3 6 25 64 13 46 8 74-5 11-19 39-8 8-25 27-34 38-11 41 4 15 43 20 26 76-2 12-6 46-15 63-22 53-10 13-29 39-27 15-13 6-42 18-40 16-38 8-34 27-18 16-11 10-19 19-7 5-19 9-16 10-39 6-17 2-23 3-22 5-6 5-16 19 3 12 26 102 5 11 30 43 21 27 6 6 37 36 17 15 14 16 20 21 4 4 3 17 5 29-8 10-15 19-17 21-24 33-10 13-31 42-21 56 2 118-11 43-1 6-12 55-24 41-21 17-4 8-8 38-110 163-66 41-41 36-70 92-86 31-92 21-80 127-65 138-46 97-40 96-24 87 15 81-55 51-62-45-40-35-56-30-27-122-86-25-81-10-122 31-41 16-41-25-66-25-76-61-184-192-81 31-76 26-25 137 11 132-10 112 52 112 6 101-31 87-4 81 31 51 51 4 71 5 66 30 26 76 10 26 15 20 16 35 36 46 46 71 87 101 36 10 86-1 61 5 31 96 5 51 11 20 76 30 41 112 92 45 56 25-14 147 51 61 41 60 41 61 117 86 57 71 61 40 62 121 76 45 72 41 50-31 21 20-56 61-9 71-56 36-61 41-60 46-71 72-81 87-61 86-35 11-35 117-101 66-30 61-51 112 6 102-55 137-30 26-1063-4-3788-10-554-3-727-6-463 2-961 4-1912-18-137-4-468-3-20-31 51-61 35-96-46-56h-41l-25 5-31 56-10 26-55 56-36 25-55 71-66 107-46 36-46 5h-66l-40 26-30 71-26 61-40 36-82 5-55 21-56 66-46 15-91 6-82-20-76-56-56 16-45 147-51 71-15 81-5 77-60 106v82l-1002-22-158-5h-112l5-35 5-31 5-20 5-30 5-36 31-31 45-35 56-5 46-41-10-41v-15l-26-107-92-30-5-25-41-162-21-102 56-56-5-35-41-127-41-147-52-173-15-40-16-51-20-66-36-116-21-51-30-56-51-61-11-45-96-5-534-14-834-18-1083-27-102-7 14-7 29-39 12-13 7-9 11-19 19-50 6-61 4-76v-16l-18-126-3-35 2-12 8-81 11-40 14-45 32-57 28-49 44-83 35-61 11-19 23-40 26-43 42-64 15-22 53-84 14-23 28-61 36-71 34-61 15-27 43-54 5-8 30-24 11-8 32-31 38-36 30-64 15-63 2-74 1-43 3-11 22-77 58-80 44-44 22-17 56-48 19-16 7-4 36-42 7-8 10-16 17-34-1-25-1-31v-6l-9-41-9-45 2-41 5-76 2-19 1-21 3-35 1-11 1-50 4-14 6-16 5-8 14-17 5-5 49-34 8-11 15-37 14-33 4-10 29-38 24-35 14-52 1-6 19-71 13-38 13-40 2-5 7-21 8-33 3-16 2-6 17-18 13-5 8-1 18-2 27-10 9-3 13-6 20-33 3-4 24-31 10-16 9-10 24-28 23-15 12-8 25-12 30-18 20-13 6-5 9-21 3-9 6-13-4-30-3-29 6-25 2-8 16-21 17-16 9-11 35-44 3-4 27-64 29-54 2-5v-56l-2-6-12-42-10-30-11-17-7-10-30-45-10-40-3-6-12-16-25-9-21-25-11-38-6-43-16-57-4-7-113-116-85-108-38-79-41-12-56-110-35-63-9-100-8-122-2-60 25-189-91-193-71-34-36-35-95-109-81-70-67-61-149-23-103-16-50-25-127 40-63 8-51-16-146-169-49-140-39-104-42-47-79-42-73-12-46-4-70 1-53 29-108 74-57 4-39-34-41-30-35-32-53-22-30-57-2-64 4-58-17-73 9-101 10 34 28-18 24-17-1-3 48-21 33-10 28-5 25-24 21-20 40-13 44-21 33-32 28-37 1-26 60-106 26-34 21-42 8-27 3-67-18-9-28-27-2-12-5-25-2-12-25-30-19-12-26-21-22-28-6-30-10-56-22-46-12-77 3-52 14-82 2-22 20-61 20-33 18-38 10-30 45-37 52-10 37-13 11-41 9-39 24-40 32-38 31-37 48-38 58-30 18-32 209 27 71 66 121-44 38-84-9-42 3-7-45-241 83-69 110-28 134 35 204 77 193 250 91 40 6 52 98-19 52-107-33-111 9-15-1-4 92-178 11-295 18-728v-25l43 16 90 125 108 7 58-33 4-50-9-69-5-175 65-138 31-77 25-61 30-40 66-214 86-52 162-46 46 56 61 56 71 45 81 5 117 35 61 36 76-21 40-10 76 20 86 10 77 107 61 50 66 21 55-36 102-36 45 30 72 46 81-11 81 26 46 40 71 41 71-11 76 36 56 40 15 5 46 5 40-15 20-92 25-138 15-61 81-61 56-72 65-107 96-87 86-46 117 20 102 46h20l66 15 76 4 25 6 31-11 35-5 76-10 51-16 51-5 70-16 31-5 5-5 40-31 71-46 61-36-46-76-61-25-76-25-31-51-36-122-30-20-188-46-96-60-26-46-71-102-81-76-41-40-46-36-26-112-45-71-36-86-11-77-25-45-20-46-41-143-56-76-26-35-15-56-46-128-26-35-25-20-10-21 101 30 15 6 31 10 76 20 51 66 35 61 16 15 35 15 76-15 20-21 36-41 71 5 76 30 76-10 40-15 173 60 117 122 107 229 81 86 163 127 91 45 46 86 107 36 56 5 61-11 35-10h25l153 35 116-11 66 20 87 66 131 5 36 25 51 15 40-5 51 20 30 15 61 46 77-1 30 41 20 25 31 16 40-67 21 10 40 46 102-26 45-10 25-36 10-66 15-26h21l20-5 15-10 46 5-21-77 71-51 5-31-16-96 61-143 40-41-16-61 51-36 15-5 5-20v-92l-5-56 10-36 24-102-5-56 5-30 20-26 96-112 112-36 9-51 61-41 76 15 35-77 51-87 20-56 25-31 45-35 76-77v-41l5-31 10-51 76-51 9-97 40-137 30-133 972-213 3810-886 2529-585 162-32 157-36 177-42 86-23 19 7 20 7 6-1 15-2 6-3 5-2 8-7 36-17 30-16 42-21 37-10 59-6 26-7 14-3 16-8 24-10 6-4 29-27 36-34 8 2 48 13 13 31 7 20 21 35 18 11 18 7h30l28-4 28-1 20-1h8l7-3 38-10h8l35 35 14 8 46 32 23 7 39 14 31 14h4l36-4 40 2 6-2 25-21 41-52 1-6 13-53 10-43 25-29 24-26 11-12 51-31 65-28 50-8 41 8 53-4 27-22 26-15 11-6 48-7 27-6 33-6 59-9 10-9 31-13 55-13 40 3 20 6 7 3 56 19 18 8 29 15 48 22 8 4 11 5z" id="path35" fill="#b9b9b9" stroke="#fff" stroke-width="80" stroke-linejoin="round"/>
    <path d="M22961 2514l3 324 7 157 10 491 958-30 311-13 174-7 18 334 7 162 8 318 14 314 1 157 22 162 10 465 21 516 71-1 122-36 66-47 86-81 51 24 36 40 72 15 66 29 32 61 20 20 46-16 72 20 46 9 36 56 16 30 26 65 87 90 113 35 154 89 82-1 46 40 98 70 30 20 47 80 36 50 26 15 36 61 42 50 31 35 51 4 92 35 46-16 61 20 57 45 51 35 46 34 56-15 77 9 143-2 505-15 18 313-193 7-317 19-948 36-980 46-943 35-975 25-964 20-775 33-179 2-137 1-388 14-77-4-357 14-989 44v36l-423 19-58-1937 30-1-68-1932-5-486-1-157-2-183-6-141 290-13 163-7h5l954-24 290-13 229-7 291-8 138-2 20-5 627-16 158-2 178-12 331-3 306-8 158-2z" id="Jefferson" fill="#b9b9b9" stroke="#fff" stroke-width="80" stroke-linejoin="round"/>
    <path d="M8918 17220l14 490 8 480 2 181 8 490 2 318 10 596-26 10-30 16-21 5-20 5h-21l-5 5-87 6-36-20h-56l-41 1-56-5-82 26-66 56-102-30-41 11-107 21-26 5-36-5-56-20-66 6-123 51-86 51-107 51-56 36-62 16-51-5-51 15-30 31-20 66-102 26-93-35-77-55-82-50-77-90-6-61-21-76v-20l-46-45-52-40-164-69-117-35-62-55-62-35-77-30-87-14-158-25-67 26-51-20-97-65-52-20-41-20-66 11-51-5-36-45-62-60-108-80-41-15-46-35-72-30-107-24-82 5-72 36-61-15-133-29-77 30-71-24-36-15-92 16-57-35-46-30-61-46-185-89-113-136-128-29-93-40h-112l-72 1-107-45-46 5-46-4-57-10-66-50-72-40-18-1318 6-591 3-323 184-1 593 6h62l424 2 450 2 102-5 153-1 56-1-3 309 169 9 6 151 2402-31 5 85 7 223 1 151 327 3 317 3 153-1z" id="Jerome" fill="#b9b9b9" stroke="#fff" stroke-width="80" stroke-linejoin="round"/>
    <path d="M-15094-40840l170 5 1114 23 302 10 157 5 151 4 197 5 292 4 686 19-6-158 328-1 177 4 479 14v16l-10 440 1 72-10 384-4 215 1331 32-47 3372-24 788-4 168-5 164-4 327-5 148-5 154-4 163-162-4-152-5-181-4-142-5-308-4-237-5-66-5-248-4-293-9h-197v159l-323-5-4 317-319-9-480-4v-158l-232-10-5 61-313-9-5 168-657-19-960-23-144-10 42-1723 33-1302z" id="Kootenai" fill="#b9b9b9" stroke="#fff" stroke-width="80" stroke-linejoin="round"/>
    <path d="M-9923-30121l1 179-5 168 1 164-10 326-14 169v153l1 158v158l-5 168 1 159v163l-9 311v163l-4 174-4 331-5 168v164l1 168-5 158-5 153-8 622-998-12-699-24h-101l-86-4h-127l-81-5-35-20h-76l-15 15-71 21-15 31-51 46-40 51-35 46-76 20-86 62-36 35-45 51-46 62-20-5-91 81-35 72-25 97-41 143-60 117-411-9-2076-31 77-3513 60-2716 6-271h87l111-26 91 10 106 31 56 20 36 26 25 15 10 15 51 66 15 21 5 25-20 51-25 57-66 112 25 31 76 91 26 72 30 41 25 25 26 5 15-10 30-26 61-56 45-82 76 10 51 15 151 51 16 10 65 87 51 71 111 102 46 36 35 15 51 15 66 31v51l5 61 162 5 314 9-1-56 329 15 157 4 435 9h157l157 5 647 18 177 10 304 9v179l298-1h193l177 4h151z" id="Latah" fill="#b9b9b9" stroke="#fff" stroke-width="80" stroke-linejoin="round"/>
    <path d="M3569-13803l26 18 32 17h39l4-3 35-25 39-33 24-19 7-6 58-32 30-21 5 1 51 15 14 9 22 18 20 41 18 49 36 25 45 2 34-7 12-3 28-17 17-9 17-18 7-2 41-9 45-16 4-1 35-11 12-3 19 6 26 13 4 3 17 13-5 46-4 35-14 38 7 18 12 30 21 8 6 3 15 1 16 10 28 20 9 7 23 20 19 19 16 20 25 35 22 24 8 12 23 40 9 34 2 12 3 34 1 6 16 60 28 29 37 25 11 1 30 1 26 6 10 4 41 14 46 20 46 17 12 6 34 15 39 19 16 10 47 32 5 5 30 33 57 142 6 17 25 62 43 30 8 7 19 21 29 48 6 6 27 24 7 1 38 8 43-27 4-6 21-37 30-31 5-5 34-13 6-3 34-6 35-7 23-23 69-73 22-10 13-5 12-4 23-4 12-1 33 2 36-10 38-23 8-17 22-45 25-40 17-75 5-22 1-18 11-49 16-28 22-43 18-35 15-37 2-6 11-25 3-6 4-38-6-48-2-38-3-53-3-40 1-10 12-19 4-6 23-12 8-3 45-5 64 11 131 78 64 38 22 14 43-11 25-11 15-28 8-14 15-29 10-16 23-34 37-21 22-5 9-4 40-9 12-3 29-10 35-7 10-3 21-6 25-11 25-9 8-2 13-3 14-3 35-1 40-23 23-42 19-35-1-37-1-19 1-31v-10l12-35 23-25 10-12 29-22 7-5 27-12 11-5 13-4 11-4 50-3 40-3 5-1 31-13 38-30 8-7 17-33 29-44 6-51 1-9 14-98 25-26 5-5 15-31 22-43 5-10 11-18 33-53 6-10 41-33 9-7 20-8 44-33 14-6 49-57 5-6 63-49 55-18 8-2 7-2 36-20 16-22 6-11 7-22 5-42-3-6-14-36-10-19-11-21-26-50-20-37-3-38 7-9 16-19 28-23 22-18 4-19-2-26-1-7-9-18-3-21 10-26 12-12 9-4 25-5h10l21-2 29-3 18-9 17-16 7-3 29-44 58-22h8l16 1 20 6 37 13 4 7 29 58 4 14 3 16 5 20 5 28 21 21 5 1 12 1 18-4 36-10 4-1 24-17 32-18 9-6 24-17 8-6 26-10 57 15 5 39-1 14v37l2 36 4 18 7 30 11 46 5 9 27 46 18 26 14 18 11 13 16 16 15 14 22 20 14 9 15 15 15 10 18 17 14 13 36 32 13 12 11 16 16 24-2 28-7 26-17 63-12 37-7 19-14 16-11 12-11 13-2 7-5 19 10 27 4 7 19 26 27 9 31 10 19 2h12l21 2 33 2 37-21 13-8 27-11 34-17 26-8 14-4h5l5-1 11-1h6l60 18 60 72 7 8 30 36 62-3h4l31-6 25-6 35 12 21 7 17 18 34 37 25 32 12 17 9 12 27 52 20 39 14 36 13 34-1 20-8 16-17 19-23 34-16 10-7 4-18 10-18 11-7 9-13 19-9 13 5 83v23l-35 102-4 11-5 15-21 60-3 6-26 61-6 57-8 64-22 51-5 12-8 20 24 18 39-28 43-16 53-9 8-1 77-4h16l66-8 40-7h9l30 1 27 4 4 1 38 18 14 28 12 32 1 6 7 45 6 45 4 39 4 11 13 44 23 55 6 22 12 27 14 43 4 19-8 40-1 8-4 8-13 20-21 33-20 18-37 31-6 10-5 9-8 54-4 25-9 12-14 18-12 15-2 8v50l3 4 16 25 30 46v35l1 72 4 8 12 18 45 24 28 11 5 2 24 48-12 23-5 4-22 13-37 21-39 41-4 4 3 82 6 7 30 22 30 4 16 1h5l8-2h12l46 12 4 3 22 18 23 20 31 26 12 9 25 20 25 23 10 14 19 26v15l-1 31-3 31-1 18 4 16 5 25 3 20v6l-3 32-7 12-13 21-1 9-4 31 13 21 6 16 3 6 14 32 4 29-14 36 1 28-10 26-11 29-9 21-9 71 3 45 2 32 14 32 24 54 5 9 34 42 17 8 47 30 49 31 7 31 17 80 5 7 35 33 34 32 38 36 53 49 27 24 37 49 8 14 3 11 14 43-19 21h-57l-3 5-17 26 6 28 13 51 2 6 21 51 5 6 66 73 23 11 51 13 53 33 47 56 29 37 18 55 15 46 13 31 74 121 51 48 60 50 32 27 64 53 18 18 21 20 27 26 24 24 28 27 28 29 8 13 20 30 2 7 9 56-5 14-12 30-2 14-10 57-2 10 8 49 5 9 14 25 31 35 4 3 45 32 6 4 41 26 31 16 4 6 21 32-26 51-14 25-3 8-12 39 15 56 13 12 29 33 48 30 23 15 9 8 21 20 7 6 19 19 28 17 24 5 12-2 29-3 20-13 40-24 16-10 4-1 41-9 56 12 10 3 63 30 17 25-15 37-13 15-23 29-6 7-13 19-20 30-13 21-6 10-9 16-3 11 3 54 51 37 6 1 40 14 93 32 4 1 43 23 20 22 4 12 10 24-10 35v30l2 16 24 14 16 9 20 11h5l71-1 61-4 7 1 28 8 37 10 28 51 2 27-11 24-21 54-3 4-7 39 1 14 1 6 17 23 11 8 15 13 22 19 6 10 5 83 1 6 2 40 13 27 18 39 21 46 18 44-10 50-19 23-21 21-9 34-1 52-11 56 3 61 5 44 4 26 11 92 2 35 1 20-5 34-4 6-16 28-51 36-47 16-23 2-39 4-27-1-24 3-96 13-22 3-30 26-10 20-7 27 9 42 8 39 11 50 16 55 29 45 18 13 30 22 21 14 4 6 23 34 9 12 16 56-12 48-11 23-1 6-8 32 7 14 6 6 23 19 16 15 20 17 26 25 3 3 11 31 12 28 15 34 6 18 31 96 5 8 43 45 53 54 23 18 26 17 5 3 21 11 25 6 21 11 14 6 11 9 10 20-1 6-1 36-1 31-1 26 11 15 5 1 32 6 36-1 35-2h8l54 8 43 7 44-1 30-3 30 18 18 12 9 10 34 37 12 13 13 11 12 8 48 38 15 11 21 16 32 24 13 13 9 10 35 39 2 6 22 75 5 39-3 13-17 16-8 9-21 24-5 23 4 24 9 24 3 4 16 20 6 4 35 15 65 7 52-16 8-2 41-29 7-5 29-24 163-108 19-12 78-57 8-10 25-33 14-19 6-3 31-15 24-8 19-6 38-11 17-5 21-11 23-11 17-7 54-18 4 2 58 57 15 14 10 5 51 11 61 12 15 6 47 20 25 10 43 20 75 35 41 50 51 61 43 48 11 11 41 29 24 18 8 2 66 16 27 5 145 54 43 21 21 35-1 28-36 79-2 36 23 40 36 38 29 22 3 4 44 57 6 16 14 44 10 29 19 11 20 12 24 14 40 23 4 4 13 26 10 32 9 40v12l3 44 2 50-1 22-1 35-1 72 42 32 10 5 35 19 41 22 17 9 16 20 4 25 5 34 37 33 4 3 20 19 27 26 4 4v29l-6 27-9 35 11 31 11 39 2 10 13 48 26 98 34 39 42 49 20 42 5 29-2 11-8 48-25 36-16 14-5 5-9 6-29 20-28 20-31 21-9 10-14 19-59 77-16 14-16 41 3 12 7 20 27 33 39 26 37 27 22 21 5 5 29 22-6 70 16 31 4 7 12 11 8 7 16 15 16 14 20 11 12 6 21 11 13 10 45 33 43 35 5 35-13 14-53 57-12 82-2 10 54 57 9 6 37 23 23 15 23 18 35 24 91 52 41 22 2 5 5 18-2 22-20 44-22 51-8 58-8 20-33 49-19 21-3 73-1 12 2 5 11 28 17 40 65 102 8 14 15 21 8 43 2 35 2 52 4 36 11 34 17 25 11 19 5 6 19 22 5 4 36 25 32 22 18 17 9 8 12 15 13 16 6 10 29 43 23 33 55 44 13 9 28 15 13 7 27 6 25 6 40 14 5 9 5 13 5 7 22 31 13 12 12 11 32 15 26 8 30 13h5l52-1 4 1 21 10 35 16 53 68 11 9 13 11 33 8 21 12 19-6 9-3 7-4 29-19 35-24 10-6 5-2 20 13 19 40 1 7 5 34 8 50 3 18 4 17 17 49 8 15 21 43 8 9 108 117 25 24 34 33 45 38 25 1 16 2 36-18 13-13 21-19 11-12 18-18 29-24 28-14 11-5 7-5 18-20 19-21 18-57 10-41 6-47-1-10-1-35-5-59-11-31-30-62-19-40 92 4 33 1960-683 17-301 7v-30l-178 7-153-4-107 1-504 10-153 1-928 18-377 8-346 3-128 6-163 2-5-41-82-85-73-141 25-66 14-137V242l-42-75-21-30-10-71-6-26-10-55-42-116-26-66-67-50-10-71-32-131-67-91-41-61-46-40-57-40-41-20-123-141-28-258-66-55-62-70-31-46-61-25 9-101-41-81-31-70-67-66-41 6-30 5-67 16-55 76-25 31-5 50-25 41-71 72-45 76-143-24-102 16-91-15-87-9-200-166-163-19-112 6-26-15-30-20-107-4-154-44-81-20-103-101-87-85-117-4-72-25-56-15-107-34-87 10-56-9-76 5-51-4-51 5-56-10-31 1-87-35-153-121-31-45-47-91-36-30-25-25-82-86-31-30-57-81-97-70-82-45-25-20-31-15-31-50-15-20-21-36-36-25-72-40-71-45-67-50-41-40-26-112-82-55-215-216-57-116-21-31-41-20-97-50-81-40-53-222-77-45-56-25-31-66-15-20-16-25-10-26-21-25-5-25-10-20-62-152-21-51-31-81-14-11 5-137-111-200-170-290-91-1 7 41-203 163-40-30-69 119-152-136-75 14-81-57h-8l-66 31-40-10-41-15-56 6-66 25-41-14-41-91 35-97 60-97 40-96-26-61 19-188 56-36-5-55 15-36-1-46 15-35 5-51-41-66v-30l20-36-16-55v-31l4-106-10-66-97-45-77-86-97 51-90 113-117 61-50 87-45 102-41 45-20-20-46 6-15 20-66 26-51 26-51 41-29 116-46 87-60 16-66 35-56 82-60 76-51 92 11 91-5 56-50 56-15 36 5 71-97-15-66-5-91 1-126 214 16 106 36 51 30 25 36-16 31 15 61 20 51 25-20 102-35 61 6 81-41 71 1 66 46 30v26l-122 56-40 56-30 46-16 36-66 15-61 16-66 36-30 25-10 51-35 56-30 51-20 51-5 45 10 10 5 36 6 40-20 41-46 31-56 10-15 10-35 41-36 87-25 45-45 26-51 21-51-15-51-35-77-56-16-45-56-30-60 76-41 61-35 87-51 35-45 36-66 21-46 10-46-15-72-106-92-50-56-30-36-30-5-61 20-71 20-35 20-46-16-61-103-192-51-50-26-31-41-25-107-90-92-15-92-50-86 11-61 30-92 16-61 1-51 5-51 10-50 36h-46l-87-24-10-5-31-46-1-132-41-101-46-96-72-86-72-55-77-86-61-91-51 11-51-10-5-5-46-86-36-45-36-86-36-81-1-61 25-81 20-77 10-81 25-61 30-76 50-132-51-71-67-91 30-51 24-42 22-34 30-46 15-56 10-15 25-36 36-50 35-26 51-5 25 15 21-5 15-11 25-15-5-15-31-76 76-31-36-86-21-86 31-51 91 25 30-56 5-31 61 10 62-5 9-51 51-66-52-81 36-41 10-20-41-46-10-40 10-10 10-26 10-41-11-35-56-45 15-31 97-41-1-61-20-40-32-91-40-46-16-20 5-20 15-46 5-56-11-117-5-50 20-41 25-71v-10l4-71-5-41 20-15 20-21 21-25-21-66-11-66-10-101 20-71 4-72v-71l-11-101-5-41-11-40-5-51 5-66 14-61 46-76 5-25-67-31-35-30 15-56 4-81 5-25 60-117-61-91v-16l5-30-11-142-26-86 55-62 15-50 5-5v-26l-1-172 55-77 56-5 66-16 41-66 30-26 55-137-6-102 51-112 30-61 101-66 35-117 35-11 61-86 81-87 71-72 60-46 61-41 56-36 9-71 56-61-21-20-50 31-72-41-76-45-62-121-61-40-57-71-117-86-41-61-41-60-51-61 14-147-56-25-92-45-41-112-76-30-11-20-5-51-31-96-61-5-86 1-36-10-87-101-46-71-36-46-16-35-15-20-10-26-26-76-66-30-71-5-51-4-31-51 4-81 31-87-6-101-52-112 10-112-11-132 25-137 76-26 81-31 184 192 76 61 66 25 41 25 41-16 122-31 81 10 86 25 27 122 56 30 40 35 62 45 55-51-15-81 24-87 40-96 46-97 65-138 80-127 92-21 86-31 70-92 41-36 66-41z" id="Lemhi" fill="#b9b9b9" stroke="#fff" stroke-width="80" stroke-linejoin="round"/>
    <path d="M-8869-22915l10 21 25 20 26 35 46 128 15 56 26 35 56 76 41 143 20 46 25 45 11 77 36 86 45 71 26 112 46 36 41 40 81 76 71 102 26 46 96 60 188 46 30 20 36 122 31 51 76 25 61 25 46 76-61 36-71 46-40 31-5 5-31 5-70 16-51 5-51 16-76 10-35 5-31 11-25-6-76-4-66-15h-20l-102-46-117-20-86 46-96 87-65 107-56 72-81 61-15 61-25 138-20 92-40 15-46-5-15-5-56-40-76-36-71 11-71-41-46-40-81-26-81 11-72-46-45-30-102 36-55 36-66-21-61-50-77-107-86-10-76-20-40 10-76 21-61-36-117-35-81-5-71-45-61-56-46-56-162 46-86 52-66 214-30 40-25 61-31 77-65 138 5 175 9 69-4 50-58 33-108-7-90-125-43-16v25l-18 728-11 295-92 178 1 4-9 15 33 111-52 107-98 19-6-52-91-40-193-250-204-77-134-35-110 28-83 69 45 241-3 7 9 42-38 84-121 44-71-66-209-27-18 32-6-12 37-2668 70 5 51-56 51-51v-41l-36-81-15-87-21-30-30-102-11-92-51-91-25-61-41-107v-66l-36-117 609 3 329 4h152l157 5 147 4 178 5 192 4 10-40-25-82 40-97 41-35 65-16 71-10 81 20 142 30 61 20 46-5 81-21 76 36 86 30 56 10 41-10 71-26 20-66-6-92-10-61 10-56 35-46 15-51v-71l-25-112-31-87v-71l5-66-1-46-60-51-51-46-107-116-66-97-31-122v-41l-5-56 25-31 15 5 76-10 51-5 76-6 66 5 76 41 51 71 25 51 86 10 46 45 97 127 35 67 26 61 31 91 5 102 324 4h162l158-1 212 4 87 133 31 61 30 152z" id="Lewis" fill="#b9b9b9" stroke="#fff" stroke-width="80" stroke-linejoin="round"/>
    <path d="M3502 12442l593-4 153-1 812-10 102-1 72 5 357-8 1420-19 168 4 792-6 163-1 204 4 613 5 189-1 797-6 153-6h26l474-4 13 324 1 161 12 177 20 622 6 161 6 804 11 161-9 783 1 167-4 162 1 161 1 177-352 8 22 944-624 10-296 2-481 3-189-3-153 1-317-3-327-3-1-151-7-223-5-85-2402 31-6-151-169-9 3-309-56 1-153 1-102 5-450-2-424-2h-62l-593-6 1-808 8-329-11-171-2-319 3-318-1-177-1-162z" id="Lincoln" fill="#b9b9b9" stroke="#fff" stroke-width="80" stroke-linejoin="round"/>
    <path d="M29078 3748l71 1427 9 329 74 1608-1342 56-6-55-193 12-271 8-18-313-505 15-143 2-77-9-56 15-46-34-51-35-57-45-61-20-46 16-92-35-51-4-31-35-42-50-36-61-26-15-36-50-47-80-30-20-98-70-46-40-82 1-154-89-113-35-87-90-26-65-16-30-36-56-46-9-72-20-46 16-20-20-32-61-66-29-72-15-36-40-51-24-86 81-66 47-122 36-71 1-21-516-10-465-22-162-1-157-14-314-8-318 479-31 168-7 480-5 3 319 1132-58 1 162 1101-48-12-228 102-6 70-97 86-97 71-21 76-16 116-87 98 14 133 109 57 15 92 19 112-1 25-11 41 15 26 5 15-15 76-42z" id="Madison" fill="#b9b9b9" stroke="#fff" stroke-width="80" stroke-linejoin="round"/>
    <path d="M10590 12393h46l307-7 158-7 700-10 61-6h56l158-1 174-2 822-16 67 2743 2 172 16 798 6 166-174-3-311 7 9 485 1 162 16 777 2 328-14 162 1 106-36 16-143-55-179 42-102 56-71 16-76 41-77 31-112 61-66 72-40 121-4 76-5 20v20l-10 26-10 15-36 30-25 61-20 41-25 35-66 82-71 96-56 81-35 91-55 147-45 97-15 80-36 26-86 97-112 71-133 62-184 6-92 6-97-4-97-40-72-75-42-76-67-136-103-54-56-5-56 26-71 51-82 61-71 56-71 46-138-9-170-125-97-20-77 6-76 41-87 46-178 72-10-596-2-318-8-490-2-181-8-480-14-490 481-3 296-2 624-10-22-944 352-8-1-177-1-161 4-162-1-167 9-783-11-161-6-804-6-161-20-622-12-177-1-161z" id="Minidoka" fill="#b9b9b9" stroke="#fff" stroke-width="80" stroke-linejoin="round"/>
    <path d="M-10990-25756l-13 825h36l-29 739 85-104 289 4 113-35 162 8-15 334-66-5-76 6-51 5-76 10-15-5-25 31 5 56v41l31 122 66 97 107 116 51 46 60 51 1 46-5 66v71l31 87 25 112v71l-15 51-35 46-10 56 10 61 6 92-20 66-71 26-41 10-56-10-86-30-76-36-81 21-46 5-61-20-142-30-81-20-71 10-65 16-41 35-40 97 25 82-10 40-192-4-178-5-147-4-157-5h-152l-329-4-609-3 36 117v66l41 107 25 61 51 91 11 92 30 102 21 30 15 87 36 81v41l-51 51-51 56-70-5-37 2668 6 12-58 30-48 38-31 37-32 38-24 40-9 39-11 41-37 13-52 10-45 37-10 30-18 38-20 33-20 61-2 22-14 82-3 52 12 77 22 46 10 56 6 30 22 28 26 21 19 12 25 30 2 12 5 25 2 12 28 27 18 9-3 67-8 27-21 42-26 34-60 106-1 26-28 37-33 32-44 21-40 13-21 20-25 24-28 5-33 10-48 21 1 3-24 17-28 18-10-34-57-48-52-35-30-58-24-59-55-47-155-104-115-131-96-160-18-98-24-123 1-63-11-88-18-60-27-39-28-14-48-16-16-48-15-80 25-68-144-145-16-78-3-8-13-39-18-50-7-46-12-52-13-31-3-8-16-28-3-8-12-33-7-56 1-8-1-25 1-43-17-34-15-31-4-9-17-20-28-33-15-66-1-10-3-40-5-25-8-36-5-15-8-17-3-7-26-38-14-18-37-33-11-9-33-21-14-6-21-2-56-6-13-11-13-9-4-6-5-11-14-32-3-11-8-24 10-42 2-6 11-27 3-3 22-18 31-19 41-7 6-2 20-4 10-3 15-5 7-5 33-58 4-14 8-46 3-9 32-83 35-82 21-30 33-44 4-5 18-38 14-26 2-5 4-55-1-27v-9l16-51 6-12 9-20 33-51 7-10 17-23 1-7 5-40-1-33-21-20-24-16-22-7-46-41-4-6-27-39-30-72-30-33-46-48-51-56-9-26-4-25v-11l15-90 8-47 16-38 6-31 7-74 1-7-5-74-1-7-17-103-9-31-25-56-5-13-21-37-7-12-32-36-12-14-36-46-25-24-26-45-2-6 1-27 1-12 12-45 11-42 2-35-12-45-29-44-27-37-35-23-57-43-25-34-42-48-24-45-10-51v-61l-19-61-37-46-35-25-49-23-74-23-40-25-26-41-23-69 4-61 29-54 40-75 36-42 24-36 42-104 30-110 30-132v-97l-6-41-33-37 28-1277 2076 31 411 9 60-117 41-143 25-97 35-72 91-81 20 5 46-62 45-51 36-35 86-62 76-20 35-46 40-51 51-46 15-31 71-21 15-15h76l35 20 81 5h127l86 4h101z" id="Nez_Perce" fill="#b9b9b9" stroke="#fff" stroke-width="80" stroke-linejoin="round"/>
    <path d="M16638 21930l757-17 333-13 460-9 312-13 36-5-1-26 164-6 153-7 159-1 159-7 158-6 169-2-6-136-7-166-5-647 951-34 168-6 174-2-3-318-6-172-18-318 1-142 646-21 292-8 9 154 3 4h31l2 80 80-1 3 79 42-5 1 83 91-3h1l71-3 1 94-13 36-2 29 20 39 27 17 107-23 98-40 30-91 41-10 47 45 41 75 6 71 32 116 11 95 5 76-9 116 12 126-15 81-10 61-61 41-25 61-9 65-20 36-41 46-40 71-51 66-9 81 16 96 5 50 42 55 76-16 77-26 108 90 61 4 31-5 10-15 41-66 45-26 10-40 65-178 5-70 46-1 66-6 256-7 153-7 37 91 52 115 26 35 21 36 41 55 62 75 37 90 10 56 16 65 57 20 41 4 30-5 36 10 57 14 15 20 36 25 16 5 21 55 57 71 61 44 57 15 56 30 16 65 11 91 42 55 41 35 82 24 28 812-164 7-153 7 1 146 16 651 42 676 24 433-131 4-155 6-102 4-68-37-65 1-143 8-11 1-87 1-271 8-419 18-200 7-127 5-82 3-733 29-535 19-501 16-130 5-793 27-819 28-128 4-767 25-681 17-84 2-64 3-307 13-16-782-2-147-6-166-1-156-12-162-14-489-2-328-14-474-7-147-1-166z" id="Oneida" fill="#b9b9b9" stroke="#fff" stroke-width="80" stroke-linejoin="round"/>
    <path d="M-12098 11374l102 35h16l46-20 91-31 26-5 97-15 270-46 103 45 31 55 46 41 36 101v121l67 60 66 61 57 65 31 76 5 25-15 91-46 81-10 71 6 76v111l5 81 26 25 15 25 26 15 46 31 41 35 31 70 56 56 118 55 31 30 26 117 41 40 56 30 26 25 41 106 36 76 67 80 97-20 61 5 82 30 26 45 10 71 108 75 71 46 67 25 81-16 113 10 97 86 31 45-5 30-10 26-51 35-25 51-26 30v71l16 66 92 85 62 50 87 25 87 41 56 9h15l56-5 41 15 21 41v45l-66 71-5 50 51 46 82 5 41-11 72 30 36 20 35 26 52 60 36 50 46 56 72 60 35 15 62 10 97-5 92 4 46 56 52 106 107 161 67 86 92 14 72 15 97-5 66 15 72 5 41 4 15-50-10-51-6-25v-30l-25-30-31-66-1-66 5-55 20-46 26-45 56-56 92-36 76-91 61-10 82 80 21 101 56 61 21 30 87-21 36 5 56-61 61-10 61 30 16 40 82 96 123 40 41 15 61-46 76-20 92-6 77 25 26 56-5 55-31 51 6 61 31 50 82 30 30 20 87 35 128 5 123-1 158 4h31l158 15 102-11 67-20 112-41 107-81 102-36 107 30 62 45 61 55 77 76 67 25 107-1 92 5 72-6 92-35 76-16 102 30 82 20 72 30 92 50 118 9h81l128-11 123-36 3 748 1 167h-112l-2 758 1 161 787 12 159-1 802-9 153-1 803 1 158-1 527-2 9 1620-10 167 7 313 1 157 18 3235-10 156 6 167 2 323 1 156-2 646-4 161 1 162-8 323-3 489-4 156-4 167 1 197-753 4-759 8-44 3-74-1-890-11-287-3-163-2-139-2-366-4-130-1-164-1-1336-11-926-9-1187-14-111-1-509-6-69-1-304-8-947-27-116-3-155-2-1631-23h-22l-142-2-349-6-1545-40-51 1-706-18-2522-67-98-3v-7l11-495 2-96 2-70 21-808 4-161 39-1489 14-515 5-227 7-368 4-167 4-197 3-137 3-95 22-757 16-678 20-707 10-554 6-248 14-611 22-596 3-199 2-166 2-115 7-313 12-485 8-323 18-700 1-83 3-84 8-323 11-491 3-128 8-190 3-119 21-847 5-162 88-3661 34-1301 181 80 107 20 82-10 82 30 41 56 15 45-5 20 5 31 10 50-5 36 67 146 67 46 46 45 76 46 67 70 72 91 81 81 92 55 46 31 62 4 56-5 163 15 133 81 148 131 41 61 52 146 41 147 103 156 36 91-31 66-4 263 21 116 36 101 61 66 51 45 62 30 35 15 41 51 62 66 61 116 82 96 62 65 20 35 62 71 61 56 67 65 149 217 76 61 82 40 56 25 36 25 56 40 21 31 31 45 87 91 36 66 31 80 15 66 46 96 26 76 41 50 16 30 56 66 56 45 36 20 77 36 71-1 97 5 46 20 72 41z" id="Owyhee" fill="#b9b9b9" stroke="#fff" stroke-width="80" stroke-linejoin="round"/>
    <path d="M-11420 1755l-48 972-316 1-158-4-174-10 1 142-5 167-10 157 1 167-153-5-158-5v152l-4 137-158-5-153 1h-179l-153-4-474-14-7 961-5 157v167l-14 324-8 348-320-5-6 77-324-5-1 81-483-13 4-162-326-11 11-155-165-7v-153l-326-14 30-513-250 1 13-41 12-40 18-55 8-27 21-54 11-18 29-38 11-15 17-17 20-24 7-8 15-39 6-40v-37l2-40-2-27-11-15-17-25-8-8-15-27-15-29 9-40 35-62 5-5 16-29 3-33v-6l-8-16-5-8-18-10-8-6-31-11-35-11-25-30-1-20 10-20 26-21 29-19 27-17 29-16 11-6 25-20 6-5 21-27 21-28 18-23 15-19 10-4 36-12 5-2 19-6 8-5 10-15 11-34-8-19-11-26-18-42-6-40-3-16 3-5 9-17 13-17 9-11 21-16 20-50-2-54-1-37-6-41-13-36-16-46-45-39-24-22-21-19-42-27-40-27-28-19-30-29-3-7-12-36-7-20-6-107-2-31v-61l-6-45 3-19 8-57 21-25 5-6 35-15 16-6 37-15 44-14 46-13 18-5 47-18 25-10 22-12 44-36 6-5 20-20 35-41 5-6 17-45 7-20 10-33 11-51 2-11 4-24 3-20 4-26 5-24 5-17 14-37 3-14 2-12 5-10 21-28 8-10 26-36 10-12 7-11 35-83h8l477 14 311 9 356 10 964 22 168 5 311 9 316 10 163 4z" id="Payette" fill="#b9b9b9" stroke="#fff" stroke-width="80" stroke-linejoin="round"/>
    <path d="M18533 14939l28 61 86 27 42 43-4 48-22 18-65 127-33 57 9 57 92 86 43-21 15-85 203-109 17-125 129-75 62 30 221-50 1 1 186-131 61-79 130-33 69-107 120-4 41 91 57 13 14 44 36 7 33-26 72 68 52 153-18 6-1 49 116 61 26 70 74 51-5 50 46 43v90l34 1237 161-2 23 644 324-16 11 408 158-7 14 236 159-1 8 320 316-11 8 254-87-3 18 393 23 2 12 187-39-2-5 42-200 2 1 126-32-1 19 603-646 21-1 142 18 318 6 172 3 318-174 2-168 6-951 34 5 647 7 166 6 136-169 2-158 6-159 7-159 1-153 7-164 6 1 26-36 5-312 13-460 9-333 13-757 17-12-959-37-797-7-167-11-166-7-162-26-646-158 6-1232 21-13-323-1-106-76-30-98-29-56-5-56 26-41 6-158 1-4-470 169-1 316-8-28-984-485 4-33-945-31 1-38-904 5-61-6-91-40-1864 786-27 158-11 981-29 12 824 6 166 7 814 1 151-3 844 1287-57h46l51-6 174-7h56l5-41 35-91 40-61 56-31 41-30 35-66 30-71-11-86 20-31 25-60 66-47 56-96 4-101 19-116 56-46z" id="Power" fill="#b9b9b9" stroke="#fff" stroke-width="80" stroke-linejoin="round"/>
    <path d="M-7658-40651l15 18 11 10 16 10 66 27 43 6 32 21 7 5 5 8 27 42 45 72 18 55 5 12 26 62 22 51 5 15 16 37 25 60 25 33 31 42 22 29 15 16 11 6 29 17 9 6 73 73 2 7 8 29 21 85 1 6 30 31 60 61 54 50 36 63 45 79 35 61 11 17 37 60 38 61 37 27 38 38 5 8 9 20 14 28 19-2 14-8 15-9 30-23 6-4 45-7 29 28 4 3 8 21 12 29 18 44 40 33 32 27 75 63 26 50 13 61 1 6v45l1 72-2 32 3 87-3 80 12 46 19 43 4 6 34 60 2 7 13 49 4 27 7 40 10 56 7 20 7 26 30 18 31-15 5-2 31-27 32-7 49-9h15l51 12 91 84 10 16 17 35-3 42-4 41-8 21 1 14 5 51 12 35 3 4 26 41 27 33 31 18h5l30-1h16l24-1 25-1h6l13 11 12 9 71 34 7 5 74 58 31 40 25 31 10 41v88l-1 19-6 42-10 55-4 19-15 58-3 8-21 54-11 38-5 25v19l3 25 7 74 9 23 22 50 43 34 27 20 68 34 61 46 30 43 2 10 4 28 6 41v61l-1 26v26l4 34 4 16 8 17 7 18 9 13 4 22 9 36-3 33-23 11-18 6-11 6-25 14-24 25-9 28-9 26-2 7-28 11-25 9-18 5-6 4-24 18-11 17-21 36-16 16-31 11-6 3-22 14-23 18-6 7-54 58-39 42-7 10-15 24-3 4-11 46v7l2 39 28 45 15 6 36 14 51 21 18 9 18 10 43 24 34 3 17 1h4l56-5h41l35 20 6 27-16 24-20 31-29 34-3 9-4 40 5 12 18 45 7 20 14 19 25 33 15 14 9 13 14 21 12 15 15 42 1 10 2 25 4 40 5 25 4 5 19 23 17 2h19l6 1 15-5 45-13 35-15 6-2 14 15 20 36 22 44 5 5 15 14 10 3 9 1 25 1h31l45-7 35-5 11 12 4 31-1 7-34 90-8 22-6 14-17 23-15 16-5 3-45 23-50 20-19 7-26 4-30 5-66-18-36-9-15-4-55 1h-5l-96 16-105 29-11 6-70 38-21 15-15 9-54 39-42 28-40 30-15 20-25 33-20 70 16 25 5 3 25 9 15 1 14 1 41-9 35-7 36-11 13-3 22-3 14-2 27-4 35 41 13 22 18 29 14 10 8-1 36-3 5-1 35-6 35 17 29 11 22 12 58 33 17 21 13 20 8 11 7 4 51 30 31 17 40 23 35 39 24 51 6 42 2 15 2 14 3 17 25 13 6 3 8-2 25-4 91-14 65 13 28 7 23 9 22 11 31 13 35 15 10 7 42 34 15 9 49 58 21 25 6 9 30 42 21 36 14 26 22 11 6 2 25 15 26 15 36 16 13 7 40 44 3 11 26 85 7 21 30 78 5 15 50 100 7 11 43 84 7 14 29 54 13 20 30 38 43 54 40 43 51 36 8 3 39 12 41 13 32 11 19 6 11-1h40l10-1h41l14-1 11 4 26 15 14 9 7 6 26 24 18 15 19 4 36 6 39-8 26-5 10-7 48-22 9-1 12-1 15 2 21 4 26 47 3 6 17 30 16 30 25 29 7 4 25 15 5 1 25 3 31 2 5 1 45-13 25-7 13-4 23-3 9-2 45 7 17 2 15 10 24 11 22 10 45 19 33 4 30 1 18 1 17-1 35-9 3-1 17 2 36 6 43 9 8 2 31 9 7 2 44 22 12 29-6 22-4 8-15 31-5 11-6 17 8 32 6 17 18 49 7 8 59 74 6 3 63 39 6 7 27 24 3 6 24 40 10 48-1 17 3 33-1 12-8 16-3 28-18 32-24 42-6 10-6 14-2 43 9 26 22 35 48 24 12 5 23 5 51 11 61 14 7 1 65 38 4 5 17 22 12 30 1 8 1 27 1 51 2 18 4 17 9 20 15 23 32 32 66 40 23 5 30 5 31 6 15 3 6 4 20 16 31 25 21 17 12 9 22 16 23 13 7 5 36 24 25 17 12 7 19 17 27 24 7 7 18 22 33 43 2 5 18 34 33 65 17 31 5 8 49 85 7 10 26 10 35 13 20 3 5 1 31 4 26 4 56 18 4 7 7 9 3 9 4 13-12 34-2 7-6 39-7 21 9 54 6 23 8 14 14 27 28 55 11 15 42 65 58 64 19 23 11 13 43 48 4 3 65 51 6 2 17 7 30 12 8 3 29 10 34 17 12 24 12 25 5 51 13 42 4 8 37 42 15 21 8 86v41l8 47 7 39 2 4 13 43 2 44 2 41 22 45 36 41 27 30 14 18 4 10 5 35-2 25 8 43 1 9 24 8 25-1 37-2 14-1 52-21 41-25 12-3 29-7 4-1 31 3 31 14 23 16 74 66 8 12 46 67 10 26 15 43 14 30 13 20 4 6 18 19 9 7 14 15 21 22 17 17 24 21 8 4 21 9 22 6 28 47-681 1-152 1-481 3-966 4-966 5-1635-2-911-12-339-3-156-5-167 1-162 1-162-5-162-4-481-4-627-18-790-17h-156l-1432-20 14-169 10-326-1-164 5-168-1-179 28-944 5-307 4-163 5-332 4-158 5-174-1-327 5-158 4-164 5-327-6-168 5-77 10-87-1-163 5-164 5-143 4-153-5-164 5-169 4-163 5-154 5-148 4-327 5-164 4-168 24-788 47-3372 32-1429 15-31 76-128 70-47 40-31 20-46 41-61 35-31 50-42 111-82 156-52h60l56 36 71 71 81 113 50 87 96 45 56 36 116 97 111-11 91 5 60-67 60 5 86 41 31 66 20 67 192 250 71 56 61 123 30 36z" id="Shoshone" fill="#b9b9b9" stroke="#fff" stroke-width="80" stroke-linejoin="round"/>
    <path d="M31878 2950l59 1149 88 1716 42 859 44 895 10 157 3 56 23 490 4 63-84-72-37-51 5-45 15-41-108-74-92 36-265-22-88-49-61-20-94-135-111 41-128-23-107 31-81 27-52-15-56-50-37-91-22-166-16-30-21-56-52-100-6-96-16-81-1-36-36-45-73-110-1295 50-74-1608-9-329-71-1427 60-26 92-26 60-92 20-31 25-30 61-46 51-21 26 35 16 65 86-36 46 35 16 35 11 30 41 76 102 24 46 5 26-6h25l56-1 66-51 50-56 31-31 45-41 76-32 31 15 36-20 20-36 55-11 21-31 35-20 123 64 36 20 61-41 11 60 31 35 41 20 46 15 35-31 81-72 76-61 96-88 107 4 14-61 31-10 5-6 71-21 106-87 20-10 56-21 41-16 40-11 26-25 40-11 71-26 51-51 71-21z" id="Teton" fill="#b9b9b9" stroke="#fff" stroke-width="80" stroke-linejoin="round"/>
    <path d="M-143 17227l4-132 8-490-2-298-11-171-3-485 5-25 26 20 66-41 61-36 97 10 92-16 133 55 87-21 41 5 56 30 42 76 108 130 41 40 10 76 52 25 71 5 11 76 5 20 92 90 16 96 1 45 5 51-20 76-30 45-26 61-40 31-61 35-77 77-15 65 21 81-30 66-25 91-15 91 37 141 71 35 87-31 72-5 128 45 30 15 88 50 76 14 77 35 46 20 78 96v70l-20 61-40 91 21 96 41 50 71 20 62 25 31 60-5 106-4 106 31 106 47 66 66 55 67-21 112 10 82-6 107-61 102-41 92 35 62 20 81 4 47 25 56-5 51-6 107 50 82 25 57 5 76-16 67-10 71 40 77 24 36 20 46 20 108 25 72 40 66 50 57 10 46 4 46-5 107 45 72-1h112l93 40 128 29 113 136 185 89 61 46 46 30 57 35 92-16 36 15 71 24 77-30 133 29 61 15 72-36 82-5 107 24 72 30 46 35 41 15 108 80 62 60 36 45 51 5 66-11 41 20 52 20 97 65 51 20 67-26 158 25 87 14 77 30 62 35 62 55 117 35 164 69 52 40 46 45v20l21 76 6 61 77 90 82 50 77 55 93 35 102-26 20-66 30-31 51-15 51 5 62-16 56-36 107-51 86-51 123-51 66-6 56 20 36 5 26-5 107-21 41-11v71l-444 53-9 152h-46l21 969-1784 7 7 318 6 167 6 161 1 162 6 156h31l24 3744-30-1-465 9-333 1-164 1-1131 2-492-2h-10l-149-4-164-5-142-6-179-4-307-7-370-8-464-8-169-2-179-2h-27l-122 5-149 5-21 1-153 8-143 5-328 15-144 2-439 7-1-197 4-167 4-156 3-489 8-323-1-162 4-161 2-646-1-156-2-323-6-167 10-156-18-3235-1-157-7-313 10-167z" id="Twin_Falls" fill="#b9b9b9" stroke="#fff" stroke-width="80" stroke-linejoin="round"/>
    <path d="M-8818-8822v-82l60-106 5-77 15-81 51-71 45-147 56-16 76 56 82 20 91-6 46-15 56-66 55-21 82-5 40-36 26-61 30-71 40-26h66l46-5 46-36 66-107 55-71 36-25 55-56 10-26 31-56 25-5h41l46 56-35 96-51 61 20 31 468 3 137 4 1912 18 961-4 463-2 727 6 554 3 3788 10 1063 4-41 66-66 16-56 5-55 77 1 172v26l-5 5-15 50-55 62 26 86 11 142-5 30v16l61 91-60 117-5 25-4 81-15 56 35 30 67 31-5 25-46 76-14 61-5 66 5 51 11 40 5 41 11 101v71l-4 72-20 71 10 101 11 66 21 66-21 25-20 21-20 15 5 41-4 71v10l-25 71-20 41 5 50 11 117-5 56-15 46-5 20 16 20 40 46 32 91 20 40 1 61-97 41-15 31 56 45 11 35-10 41-10 26-10 10 10 40 41 46-10 20-36 41 52 81-51 66-9 51-62 5-61-10-5 31-30 56-91-25-31 51 21 86 36 86-76 31 31 76 5 15-25 15-15 11-21 5-25-15-51 5-35 26-36 50-25 36-10 15-15 56-30 46-22 34-24 42-30 51-30 36-41 31-66 20-61 56-40 56-20 46-15 21-31 25-35 10-46 6-61 25-71 57-71 66-65 66-41 36-25 20-61 11-36 30 6 51-5 61-31 20-20 56-81 31-56 41-55 56-46 41-35 20-21 11-71-61-67-35-117-14-61 66-50 61-36 31-5-26-21-55-20-97-6-157-51 6-10 45-30 56-10 31-31-31 9-111-66-61-82-25-76-35-51-35-52-91-35-30-26-5-36-15-25 46-76 51-66 46-71 41-116 107-66 81-30 46-31 36-20 25 21 61 20 25 21 30 5 51-25 41-10 15-15 26-21 60-4 97-20 51-10 96-25 81-45 92-5 91-50 76-56 41-117 92-75 137-77-60h-36l-76-15-15 56 20 40-5 31-15 25-25-15-61-20-72 21-56 5-15 46-20 46-15 30-61-20-71-25-46 21-36 66-40 76-35 71-51 112 11 106 16 142 31 71 36 86-25 91 26 61 71 20v35l11 66h87l86-1 87-26-5 61 15 26 5 10 31 20 42 147 40 35 32 141 20 71-71 67-4 40 61 20 25 30-40 41-15 15-20 76 5 21 5 20 21 91 16 96-20 92-46 96-40 46-15 76-35 66 5 122-40 45-71 66-45 102-66 56-51 46-25 30 5 61-5 31-46 10h-25l-20 51-41-25-72-40-143-66-55 56-113-14-51 5-45 46 56 55-25 76 11 46 91 35-9 96-26-5-30 6-26 50-20 66-40 56-97 21-81 86-45 87-5 55-5 56-20 36-56 51-13 10 9 44-46 10-35-63-32-28-69 5-61 48-97 73 5 66-73 30-66 43-56 17-71 16-46-5-46 10-61-9-51-10-61 10-41-5-45 61-179 1-3970-65-153 1-392-9-5 121-15 66-10 81-4 102-15 86-31 137-40 106-10 96 11 112v61l-301-15-459-18 14-466 9-497 6-962 484 9 17-968 27-978h-56l-20-96 4-122-5-126-52-107-5-76-26-96-10-81-1-76-10-66-51-136-1-107 71-162 15-66 5-97-11-182-31-56 25-66 81-182 5-41 5-15 10-137 20-81v-152l-159-162-5-61 30-107 10-106-41-35-92-91-51-71-51-20-16-71 25-198 20-51 15-71 30-340 25-182-6-142 71-122-1-127 46-46 112-107 65-97 5-162v-46l-1-91v-30l51-87 51 20 46 21 51-1 15-10 35-20 20-66 31-76 25-66 10-31 20-86-20-66-62-41-15-106-42-147 41-91 30-97 168-107 14-163 15-66 56-30 41-61-1-41-76-40-61-46-16-10-76 1-81 10-87-61-5-76z" id="Valley" fill="#b9b9b9" stroke="#fff" stroke-width="80" stroke-linejoin="round"/>
    <path d="M-14795-5972l135 17 488 9 5-91 158 5-5 91h71l535 14 732 13-22 1050-14 593 1 233 15 102 97 121 57 81 15 36 31 55 15 91-35 71-20 36-41 61h51l102 5 468 3-16 1344 791 458 168 96 122 5 158 4h153l158 5 143-1 96 5-91 203-70 193-30 131-10 51-21 31 6 96-26 81-4 61-51 20-10 61 41 86-15 86-36 91-30 71-30 61v127l26 96-36 66-4 106 15 117 6 121-15 142-40 92 20 70 6 71 10 81 11 66-21 91-66 87 1 76-5 86-5 76-14 339-275-9h-169l-305-9-500-9-163-4-316-10-311-9-168-5-964-22-356-10-311-9-477-14 17-46 3-41 1-19-4-61-34-51-7-8-35-37-112-81-42-26-16-10-35-22-28-18-48-25-27-4-44-6-53 3-44 2-31-13-15-6-4-2-4-6-24-58-6-36-7-45-2-25 1-10 5-42 4-95 1-6 5-24 4-19-4-62-14-49-4-4-26-29-28-31-48-22-14-7-12-1-24-1-66-3-55-2h-6l-55-11-52-11-19-4-42-5-41 11-4 2-13 10-12 11-32 49-15 51-10 14-23 32-29 4-4 1-30-25-57-51-25-17-53-37-11-8-37-50-14-19-15-23-24-74-30-86-16-50-53-41-14-11-68-44-19-6-12-3-13-3-22-2-7 3-46 22-39 53-17 42-5 8-46 68-27 42-10 6-24 13-10 2-16 1h-35l-41-23-53-14-54-13-11-3-67-32-86-79-8-10-48-62-12-38-9-25-37-54-58-55-11-27-16-43v-31l3-7 6-12 23-27 9-9 42-26 37-35 11-12 45-65 14-22 25-43 7-16 11-33 3-10 8-44-7-46-15-53-2-5-38-62-37-59-4-6-49-47-23-22-24-24-49-43-18-16-46-45-8-16-62-125-5-10-7-37 3-9 21-67 2-5 20-34 9-14 19-26 49-47 24-32 5-6 26-44 28-77 15-56 4-4 4-5v-25l-2-34 1-52 1-35v-46l2-45v-11l-8-86-4-10-8-19-18-45-3-6-11-44-4-11-13-42-4-46-1-20 20-51 30-25 41-4 15-3 31-13 24-9 23-13 10-7 22-27 9-11 18-41 14-30 17-40 15-53 8-25 38-64 24-21 12-9 35-18 10-5 31-5 10-2 41-8 5-1 29-11 23-11 9-6 30-41 4-5 18-24 9-15 2-8 15-55 21-80 10-47 2-8-1-12-4-55-2-15-4-26-1-10 20-69 7-6 10-7 11-7 41-32 5-4 30-27 23-29 5-8 25-71 7-22 6-61 10-61 1-22 2-23-2-41v-13l7-43 3-16 11-27 23-55 23-33 12-18 17-19 24-28 14-17 11-13 14-28 33-79 14-64v-118l15-34 21-35 6-6 50-41 25-40 18-39 1-31 1-42 5-45 20-42 5-10 31-41 12-17 18-29 35-48 20-27 3-45 1-11 9-75 6-55 1-12 6-20 12-20 3-7 20-10 32-23 23-34 12-27 7-17 10-22 4-7 17-12 44-31 9-7 44-29 12-7 30-11 73-26 9-3 52-9 57-8 41-5 7-2 39-21 37-21 12-8 56-56 19-20 18-15 30-26 7-7 11-4 88-31 15-6 85-29 14-5 42-21 5-3 29-42 1-15 10-27-2-8 3-36v-46l-1-9 17-44 14-42 9-7 21-31 33-38 33-39 6-5 40-53 6-9 30-51 25-48 29-44z" id="Washington" fill="#b9b9b9" stroke="#fff" stroke-width="80" stroke-linejoin="round"/>
</svg>
