<?xml version="1.0" encoding="UTF-8" standalone="no"?>
<!-- Created with Inkscape (http://www.inkscape.org/) -->

<svg
   xmlns:dc="http://purl.org/dc/elements/1.1/"
   xmlns:cc="http://creativecommons.org/ns#"
   xmlns:rdf="http://www.w3.org/1999/02/22-rdf-syntax-ns#"
   xmlns:svg="http://www.w3.org/2000/svg"
   xmlns="http://www.w3.org/2000/svg"
   xmlns:xlink="http://www.w3.org/1999/xlink"
   xmlns:sodipodi="http://sodipodi.sourceforge.net/DTD/sodipodi-0.dtd"
   xmlns:inkscape="http://www.inkscape.org/namespaces/inkscape"
   width="500"
   height="500"
   id="svg2"
   version="1.1"
   inkscape:version="0.48.5 r10040"
   sodipodi:docname="people.svg">
  <defs
     id="defs4">
    <linearGradient
       id="linearGradient3777">
      <stop
         style="stop-color:#000000;stop-opacity:0.37254903;"
         offset="0"
         id="stop3779" />
      <stop
         style="stop-color:#000000;stop-opacity:1;"
         offset="1"
         id="stop3781" />
    </linearGradient>
    <linearGradient
       id="linearGradient4332">
      <stop
         style="stop-color:#0a0a0a;stop-opacity:1;"
         offset="0"
         id="stop4334" />
      <stop
         style="stop-color:#000000;stop-opacity:1;"
         offset="1"
         id="stop4336" />
    </linearGradient>
    <linearGradient
       id="linearGradient3852">
      <stop
         style="stop-color:#a00000;stop-opacity:1;"
         offset="0"
         id="stop3854" />
      <stop
         style="stop-color:#a00000;stop-opacity:0;"
         offset="1"
         id="stop3856" />
    </linearGradient>
    <linearGradient
       inkscape:collect="always"
       id="linearGradient3810">
      <stop
         style="stop-color:#000000;stop-opacity:1;"
         offset="0"
         id="stop3812" />
      <stop
         style="stop-color:#000000;stop-opacity:0;"
         offset="1"
         id="stop3814" />
    </linearGradient>
    <linearGradient
       inkscape:collect="always"
       xlink:href="#linearGradient3810"
       id="linearGradient3816"
       x1="156.07364"
       y1="454.03806"
       x2="326.77927"
       y2="454.03806"
       gradientUnits="userSpaceOnUse" />
    <linearGradient
       inkscape:collect="always"
       xlink:href="#linearGradient4332"
       id="linearGradient4338"
       x1="240.36455"
       y1="1044.7883"
       x2="242.39798"
       y2="881.14368"
       gradientUnits="userSpaceOnUse" />
    <radialGradient
       inkscape:collect="always"
       xlink:href="#linearGradient3777"
       id="radialGradient3783"
       cx="189.50243"
       cy="137.8479"
       fx="189.50243"
       fy="137.8479"
       r="38.385796"
       gradientTransform="matrix(1,0,0,0.96052633,0,3.4880056)"
       gradientUnits="userSpaceOnUse" />
    <radialGradient
       inkscape:collect="always"
       xlink:href="#linearGradient3777"
       id="radialGradient3791"
       cx="307.1611"
       cy="143.54532"
       fx="307.1611"
       fy="143.54532"
       r="37.880722"
       gradientTransform="matrix(1,0,0,0.87333332,0,12.056308)"
       gradientUnits="userSpaceOnUse" />
  </defs>
  <sodipodi:namedview
     id="base"
     pagecolor="#ffffff"
     bordercolor="#666666"
     borderopacity="1.0"
     inkscape:pageopacity="0.0"
     inkscape:pageshadow="2"
     inkscape:zoom="1.4"
     inkscape:cx="291.74032"
     inkscape:cy="261.9051"
     inkscape:document-units="px"
     inkscape:current-layer="layer4"
     showgrid="false"
     borderlayer="true"
     inkscape:window-width="1366"
     inkscape:window-height="706"
     inkscape:window-x="-8"
     inkscape:window-y="-8"
     inkscape:window-maximized="1"
     inkscape:showpageshadow="false" />
  <metadata
     id="metadata7">
    <rdf:RDF>
      <cc:Work
         rdf:about="">
        <dc:format>image/svg+xml</dc:format>
        <dc:type
           rdf:resource="http://purl.org/dc/dcmitype/StillImage" />
        <dc:title />
      </cc:Work>
    </rdf:RDF>
  </metadata>
  <g
     inkscape:groupmode="layer"
     id="layer3"
     inkscape:label="left">
    <path
       sodipodi:type="arc"
       style="fill:url(#radialGradient3783);fill-opacity:1;stroke:none"
       id="path3830"
       sodipodi:cx="178.29193"
       sodipodi:cy="88.362839"
       sodipodi:rx="38.385796"
       sodipodi:ry="36.870567"
       d="m 216.67773,88.362839 a 38.385796,36.870567 0 1 1 -76.77159,0 38.385796,36.870567 0 1 1 76.77159,0 z"
       transform="matrix(1,0,-0.09589041,1.0273973,-23.790817,12.670473)" />
    <path
       style="fill:#000000;fill-opacity:1;stroke:none"
       d="m 99.560944,144.36539 c -18.39127,11.62416 -9.09137,71.0474 -13.63706,106.5711 l -44.95179,276.27672 128.794456,-1.51523 c -11.78511,-93.43911 -35.84901,-161.31051 -35.86042,-272.23611 -2.80018,-26.71184 16.36582,-72.94917 24.74874,-109.60155 4.08198,-14.37787 -3.70132,-30.29731 -59.093926,0.50507 z"
       id="path3832"
       inkscape:connector-curvature="0"
       sodipodi:nodetypes="ccccccc" />
  </g>
  <g
     inkscape:groupmode="layer"
     id="layer4"
     inkscape:label="right">
    <path
       sodipodi:type="arc"
       style="fill:url(#radialGradient3791);fill-opacity:1;stroke:none"
       id="path3867"
       sodipodi:cx="325.26913"
       sodipodi:cy="95.181366"
       sodipodi:rx="37.880722"
       sodipodi:ry="33.082497"
       d="m 363.14986,95.181366 a 37.880722,33.082497 0 1 1 -75.76145,0 37.880722,33.082497 0 1 1 75.76145,0 z"
       transform="matrix(0.96946565,-0.12,0,1,40.089947,51.154125)" />
    <path
       style="fill:#000000;fill-opacity:1;stroke:none"
       d="m 376.28182,138.36538 c -11.9923,-1.76552 -31.1198,-19.28596 -35.86042,-0.50507 3.63685,51.02413 7.36858,102.11151 7.07107,150.51273 -4.28797,86.97627 -13.04793,157.55528 -21.2132,230.31478 l 157.15922,1.51523 -81.39778,-154.55335 c -18.07312,-30.02498 -28.48018,-84.3238 -18.68782,-130.81475 18.65942,-64.41948 14.62622,-71.79668 12.62691,-79.80205 -1.63192,-5.1226 -3.06708,-15.7086 -19.69798,-16.66752 z"
       id="path3869"
       inkscape:connector-curvature="0"
       sodipodi:nodetypes="ccccccccc" />
    <path
       style="fill:#000000;fill-opacity:1;stroke:none"
       d="m 380.47788,125.8158 c -2.81073,11.61621 -0.73874,15.42008 1.07143,19.64286 L 362.2636,135.8158 z"
       id="path3877"
       inkscape:connector-curvature="0"
       sodipodi:nodetypes="cccc" />
  </g>
  <g
     inkscape:label="bystander"
     inkscape:groupmode="layer"
     id="layer1"
     transform="translate(0,-552.36218)"
     style="display:inline"
     sodipodi:insensitive="true">
    <path
       style="fill:url(#linearGradient4338);fill-opacity:1"
       d="m 242.40625,818.01843 c -37.93665,0 -68.6875,30.97191 -68.6875,69.1875 0,33.85876 24.14214,62.01494 56.03125,68 0.2058,32.55864 -30.16008,-9.98484 -49.96875,7.25 -19.1717,17.1611 -11.02756,70.44957 -19.21875,101.03127 l 169.71875,2 c -8.41794,-33.6718 -7.92756,-67.2794 -20.21875,-95.43752 -12.26783,-23.17963 -52.07463,17.17517 -61.15625,-13.96875 34.87681,-3.30991 62.1875,-32.87586 62.1875,-68.875 0,-38.21559 -30.75085,-69.1875 -68.6875,-69.1875 z"
       id="path3014"
       inkscape:connector-curvature="0" />
  </g>
</svg>
