<svg id="svg4136" xmlns:rdf="http://www.w3.org/1999/02/22-rdf-syntax-ns#" xmlns="http://www.w3.org/2000/svg" height="161.95" viewBox="0 0 1108.6249 161.95151" width="1108.6" version="1.1" xmlns:cc="http://creativecommons.org/ns#" xmlns:xlink="http://www.w3.org/1999/xlink" xmlns:dc="http://purl.org/dc/elements/1.1/">
 <g id="layer1" transform="translate(-2327.3 -909.68)">
  <g id="g39448" fill="#fff">
   <path id="path39444" d="m2747.7 909.68-2.4023 2.2988 2.4023-2.2988z"/>
   <path id="path39442" d="m2749.3 910.86c-1.6943-0.15519-2.8424 1.7623-1.041 7.9902 9.5016 0.15749 4.2757-7.694 1.041-7.9902z"/>
   <path id="path39440" d="m2738.1 913.75 2.2637 0.0625-2.2637-0.0625z"/>
   <path id="path39438" d="m3074.9 915.64c-1.9387-0.13383-3.5832 1.5039-3.0469 6.7773 12.998 2.3881 7.3119-6.4829 3.0469-6.7773z"/>
   <path id="path39436" d="m2704.2 916.54c3.3322 0.0805 15.306 8.2652 0.8477 3.4043-2.1088-2.5574-1.9584-3.4311-0.8477-3.4043z"/>
   <path id="path39434" d="m3054 919.16-3.3184 0.9707 3.3184-0.9707z"/>
   <path id="path39432" d="m2697.9 920.89 3.0684 3.2793-3.0684-3.2793z"/>
   <path id="path39430" d="m3065.6 921.38c4.4089-0.0305 7.95 1.4784 6.1328 6.0723-29.73 1.5099-15.832-6.0052-6.1328-6.0723z"/>
   <path id="path39428" d="m3122.4 924.9 3.2324 0.0918-3.2324-0.0918z"/>
   <path id="path39426" d="m2806.2 925.62c5.8657-0.26199 13.31 22.398-3.4922 4.623 0.8681-3.2803 2.1386-4.5626 3.4922-4.623z"/>
   <path id="path39424" d="m3099.8 926c5.7853-0.52606 35.712 14.419 9.1309 9.8223-9.9614-7.0416-11.395-9.6164-9.1309-9.8223z"/>
   <path id="path39422" d="m2753.4 937.12c8.572 0.10351 22.717 6.7318 2.8965 11.604-12.018-8.6905-8.7616-11.674-2.8965-11.604z"/>
   <path id="path39420" d="m2733.2 943.39-1.3418 0.35742 1.3418-0.35742z"/>
   <path id="path39418" d="m2842.5 944.71c15.389-0.0489 39.881 0.5278 75.83 1.7891 15.222 4.2754 181.93 11.347 100.86 44.344-77.417-27.37-259.79-45.869-176.69-46.133z"/>
   <path id="path39416" d="m3099.5 948.79-2.5723 5.1758 2.5723-5.1758z"/>
   <path id="path39414" d="m3123.2 954.79c5.6135-0.68992 16.823 16.36-1.8907 11.344-1.6446-8.0881-0.3059-11.074 1.8907-11.344z"/>
   <path id="path39412" d="m2943.5 956.65 2.2578 0.23047-2.2578-0.23047z"/>
   <path id="path39410" d="m2786.8 960.92c3.3901-0.27982 7.8184 11.164-2.4609 5.2637 0.316-3.7752 1.3309-5.1704 2.4609-5.2637z"/>
   <path id="path39408" d="m2929.1 961.64 4.3281 0.0234-4.3281-0.0234z"/>
   <path id="path39406" d="m2932.3 964.15 2.2578 0.23047-2.2578-0.23047z"/>
   <path id="path39404" d="m2723.2 965.46c4.4067-0.18812 9.6619 9.0573-3.4629 10.533-0.9215-7.7489 1.1546-10.435 3.4629-10.533z"/>
   <path id="path39402" d="m2933.4 967.47-2.8008 0.0273 2.8008-0.0273z"/>
   <path id="path39400" d="m3128.2 968.62c3.3827 0.18211 9.0274 4.2423 0.01 5.3379-3.2545-4.1594-2.0394-5.4472-0.01-5.3379z"/>
   <path id="path39398" d="m3135.5 969.73 4.1621 0.0469-4.1621-0.0469z"/>
   <path id="path39396" d="m2810.8 970.94-0.061 3.0488 0.061-3.0488z"/>
   <path id="path39394" d="m3069.6 973.65c5.8686-0.29722 15.67 18.961-0.8261 24.785-4.521-18.297-2.466-24.618 0.8261-24.785z"/>
   <path id="path39392" d="m2957.8 974.13 3.6895 0.084-3.6895-0.084z"/>
   <path id="path39390" d="m3080.8 974.87-2.0234 3.2559 2.0234-3.2559z"/>
   <path id="path39388" d="m3192.7 979.44c9.466-0.073 18.145 4.0202 18.578 16.363-37.734 4.0895-46.171-1.3809-42.371-7.0703-4.4322-4.3826 4.1221-8.286 8.7832-6.0996 4.4278-1.8636 9.8333-3.1534 15.01-3.1934z"/>
   <path id="path39386" d="m3177.7 982.64c-4.0814 1.7178-7.3295 3.9229-8.7832 6.0996 1.5256 1.5085 4.5686 3.0703 9.8711 4.459 2.9363-6.1536 1.5464-9.3229-1.0879-10.559z"/>
   <path id="path39384" d="m2874.8 981.65 2.2578 0.23047-2.2578-0.23047z"/>
   <path id="path39382" d="m3104.6 983c38.075 0.49416 99.058 53.119-0.6075 78.248-37.812-58.806-23.008-78.554 0.6075-78.248z"/>
   <path id="path39380" d="m3178.4 983.52-0.2305 2.2578 0.2305-2.2578z"/>
   <path id="path39378" d="m2882.3 984.15 2.2578 0.23047-2.2578-0.23047z"/>
   <path id="path39376" d="m2879.9 984.74-6.7617 1.5273 6.7617-1.5273z"/>
   <path id="path39374" d="m2803.7 984.81 7.5117 4.0723-7.5117-4.0723z"/>
   <path id="path39372" d="m3006.8 985.59-2.0938 0.50195 2.0938-0.50195z"/>
   <path id="path39370" d="m3397.7 987.88c6.4662 0.0982 28.268 24.733 0.2422 8.6797-2.7644-6.4396-2.2216-8.7098-0.2422-8.6797z"/>
   <path id="path39368" d="m3389.2 988.82c0.82 0.33967 1.0532 9.7952-0.7929 2.4277 0.2891-1.9038 0.5634-2.5228 0.7929-2.4277z"/>
   <path id="path39366" d="m3368.4 989.35c2.425 0.11777 12.332 3.3368 3.7676 2.4395-4.427-1.906-4.8699-2.493-3.7676-2.4395z"/>
   <path id="path39364" d="m3046.5 990.63-1.5 0.62l1.5176-0.61523z"/>
   <path id="path39362" d="m2939.8 991.21-1.7227 0.0449 1.7227-0.0449z"/>
   <path id="path39360" d="m3408.1 993.75 4.9141 0.83398-4.9141-0.83398z"/>
   <path id="path39358" d="m3381.5 993.82 5.4102 2.8613-5.4102-2.8613z"/>
   <path id="path39356" d="m3033.5 994.15 2.2578 0.23047-2.2578-0.23047z"/>
   <path id="path39354" d="m2849.1 994.17-6.7403 1.7695 6.7403-1.7695z"/>
   <path id="path39352" d="m3174.7 996.39c3.8508-0.34788 16.273 17.564-0.8281 3.7715-0.4925-2.6393-0.061-3.6912 0.8281-3.7715z"/>
   <path id="path39350" d="m2837.3 996.65 2.2578 0.23047-2.2578-0.23047z"/>
   <path id="path39348" d="m2799 996.78c3.3416-0.40544 10.764 9.8844-1.1153 4.9316-0.659-3.4723 0-4.7965 1.1153-4.9316z"/>
   <path id="path39346" d="m2898.8 998.02 0.8867 0.77149-0.8867-0.77149z"/>
   <path id="path39344" d="m2824.9 998.97-7.4375 0.54297 7.4375-0.54297z"/>
   <path id="path39342" d="m3231 999.15 2.2578 0.23047-2.2578-0.23047z"/>
   <path id="path39340" d="m2829.1 999.87 0.8965 1.5196-0.8965-1.5196z"/>
   <path id="path39338" d="m2381.5 1000.5c5.6493-0.2571 5.7626 12.712-7.2148 5.8887 2.8335-4.2476 5.3317-5.8029 7.2148-5.8887z"/>
   <path id="path39336" d="m2706.8 1001.4c1.0697-0.3997-10.888 24.21-29.252 55.121 19.708-39.37 28.42-54.81 29.252-55.121z"/>
   <path id="path39334" d="m3230.9 1001.7 3.0488 0.06-3.0488-0.06z"/>
   <path id="path39332" d="m3224.9 1001.9c1.0534-0.1088 1.8897 0.6961 2.0332 3.1386-12.33 9.2917-5.7952-2.7501-2.0332-3.1386z"/>
   <path id="path39330" d="m2933.8 1003 0.8867 0.7715-0.8867-0.7715z"/>
   <path id="path39328" d="m3207.9 1003.5-2.6699 1.4239 2.6699-1.4239z"/>
   <path id="path39326" d="m2868.4 1003.5-0.2305 2.2578 0.2305-2.2578z"/>
   <path id="path39324" d="m2830.5 1004.1c13.561-0.23 38.249 6.9238 44.928 13.832 27.716-6.5914 64.84 0.08 20.816 38.303-10.611-2.3741-18.976-4.8379-25.461-7.3262 6.397 6.3278 11.808 26.167-7.4707 8.791 0.055-1.4948 0.1654-2.7965 0.3183-3.9394-0.2976-2.4146 0.7952-6.3029 1.877-5.6621 0.3673-0.441 0.7661-0.7305 1.1894-0.8789-14.072-6.2222-16.844-12.497-13.367-17.793-2.5478 0.2248-5.3044 0.4192-8.3359 0.5723-30.074-19.092-27.098-25.685-14.494-25.898z"/>
   <path id="path39322" d="m2853.3 1029.4c22.656-1.9989 26.746-6.6859 22.098-11.494-10.027 2.3845-18.821 6.5029-22.098 11.494z"/>
   <path id="path39320" d="m2866.7 1047.2c1.2747 0.5636 2.6215 1.1275 4.086 1.6894-1.3973-1.3821-2.8416-2.1257-4.086-1.6894z"/>
   <path id="path39318" d="m3231.6 1004.1 3.6895 0.082-3.6895-0.082z"/>
   <path id="path39316" d="m2830 1005.4-2.1504 1.3203 2.1504-1.3203z"/>
   <path id="path39314" d="m3239.6 1006.5 9.1601 0.455-9.1601-0.455z"/>
   <path id="path39312" d="m3220.9 1006.7 3.0488 0.06-3.0488-0.06z"/>
   <path id="path39310" d="m2880.2 1007.2-0.248 1.3984 0.248-1.3984z"/>
   <path id="path39308" d="m3214.3 1008-1.8008 0.1094 1.8008-0.1094z"/>
   <path id="path39306" d="m2856.2 1008.6-3.2207 0.5781 3.2207-0.5781z"/>
   <path id="path39304" d="m3226.2 1008.8 3.709 0.6972-3.709-0.6972z"/>
   <path id="path39302" d="m2794.7 1009.2 3.0488 0.06-3.0488-0.06z"/>
   <path id="path39300" d="m3221.5 1009.7-3.7168 3.3613 3.7168-3.3613z"/>
   <path id="path39298" d="m2870.9 1010.5-2.2949 0.07 2.2949-0.07z"/>
   <path id="path39296" d="m3209.2 1011.3-4.2129 0.7031 4.2129-0.7031z"/>
   <path id="path39294" d="m2896.2 1011.5 10.262 0.2754-10.262-0.2754z"/>
   <path id="path39292" d="m2964.8 1012.5-1.7227 0.045 1.7227-0.045z"/>
   <path id="path39290" d="m2936.4 1012.5h0.8203-0.8203z"/>
   <path id="path39288" d="m2933.8 1013 0.8867 0.7735-0.8867-0.7735z"/>
   <path id="path39286" d="m3210.2 1013.6c3.2869-0.1 13.474 4.6207 1.0781 3-2.5929-2.1843-2.3643-2.9609-1.0781-3z"/>
   <path id="path39284" d="m2967.8 1014.1 3.6895 0.084-3.6895-0.084z"/>
   <path id="path39282" d="m3200.7 1014.5-3.2207 5.4219 3.2207-5.4219z"/>
   <path id="path39280" d="m2981.2 1016.2 2.4434 0.7168-2.4434-0.7168z"/>
   <path id="path39278" d="m2977.3 1016.6 2.2578 0.2305-2.2578-0.2305z"/>
   <path id="path39276" d="m2990.3 1018.6-0.8809 1.4687 0.8809-1.4687z"/>
   <path id="path39274" d="m2894.2 1019.6c-5.7397-0.1035-7.5823 18.217 8.3125 13.133-2.7716-9.7611-5.8891-13.089-8.3125-13.133z"/>
   <path id="path39272" d="m3190.7 1019.9-35.67 17.869 35.67-17.869z"/>
   <path id="path39270" d="m2855.6 1020.1-2.457 0.7246 2.457-0.7246z"/>
   <path id="path39268" d="m2913.8 1020.5 0.8867 0.7715-0.8867-0.7715z"/>
   <path id="path39266" d="m2787.2 1021.7 3.0488 0.06-3.0488-0.06z"/>
   <path id="path39264" d="m3174.1 1021.7-2.2852 0.7148 2.2852-0.7148z"/>
   <path id="path39262" d="m2344.3 1023.1-2.0938 0.5019 2.0938-0.5019z"/>
   <path id="path39260" d="m3101.5 1024.8c-2.5057 0.3747-8.0206 11.451 0 8.4492 1.6583-6.5788 1.1409-8.6196 0-8.4492z"/>
   <path id="path39258" d="m3088.4 1024.8-0.2305 2.2578 0.2305-2.2578z"/>
   <path id="path39256" d="m2843.3 1024.9 2.9863 0.8379-2.9863-0.8379z"/>
   <path id="path39254" d="m2794.6 1025.7 1.8535 0.7597-1.8535-0.7597z"/>
   <path id="path39252" d="m3018.5 1026.6c3.4801-0.138 4.465 2.2939-2.3789 9.9531-25.007 3.0951-5.2774-9.6495 2.3789-9.9531z"/>
   <path id="path39250" d="m2328.1 1027.1c4.291-0.2716 24.426 2.5812 8.8145 2.8437-9.4413-1.9513-10.765-2.7202-8.8145-2.8437z"/>
   <path id="path39248" d="m2855.2 1028.1 4.4317 0.2461-4.4317-0.2461z"/>
   <path id="path39246" d="m2790.6 1028.8 1.9101 0.8203-1.9101-0.8203z"/>
   <path id="path39244" d="m2788.6 1029.3-1.1 0.7l1.0938-0.6816z"/>
   <path id="path39242" d="m2799.7 1030.5-3.4863 0.1 3.4863-0.1z"/>
   <path id="path39240" d="m2795.2 1031.8c0.3289-0.1488 0.7166 2.3922 1.0957 9.8477-2.609 19.811-2.1702-9.3615-1.0957-9.8477z"/>
   <path id="path39238" d="m2783.8 1033 0.8867 0.7715-0.8867-0.7715z"/>
   <path id="path39236" d="m2856.1 1033.6 3.5469 3.3809-3.5469-3.3809z"/>
   <path id="path39234" d="m2934 1034.4 0.7852 0.5977-0.7852-0.5977z"/>
   <path id="path39232" d="m3137.8 1036.3c-1.0416 0.02-1.7823 0.8149-1.8242 2.8828 16.508 11.489 6.338-2.9714 1.8242-2.8828z"/>
   <path id="path39230" d="m3093.4 1037.3-0.2305 2.2578 0.2305-2.2578z"/>
   <path id="path39228" d="m3203 1038-2.5156 0.1426 2.5156-0.1426z"/>
   <path id="path39226" d="m3413.1 1038.8 3.0898 0.6406-3.0898-0.6406z"/>
   <path id="path39224" d="m3215.3 1039.1 3.6895 0.082-3.6895-0.082z"/>
   <path id="path39222" d="m3204.7 1039.2 3.0488 0.061-3.0488-0.061z"/>
   <path id="path39220" d="m3177.2 1040.4 4.9571 0.01-4.9571-0.01z"/>
   <path id="path39218" d="m3168.4 1040.5-2.2949 0.07 2.2949-0.07z"/>
   <path id="path39216" d="m3009.7 1041.7 3.0488 0.061-3.0488-0.061z"/>
   <path id="path39214" d="m3096.3 1042.9 5.1113 6.0273-5.1113-6.0273z"/>
   <path id="path39212" d="m2821.3 1043 0.8867 0.7715-0.8867-0.7715z"/>
   <path id="path39210" d="m3189.4 1044.1 1.4297 0.3047-1.4297-0.3047z"/>
   <path id="path39208" d="m3086.1 1044.3-4.8007 0.748 4.8007-0.748z"/>
   <path id="path39206" d="m3176.2 1044.9c17.744 0.1647 49.219 5.5543 34.08 8.6484l-7.5312 8.2812c-47.173-13.154-42.206-17.075-26.549-16.93z"/>
   <path id="path39204" d="m3171.6 1045.4h3.6875-3.6875z"/>
   <path id="path39202" d="m2788.4 1045.5-2.2949 0.07 2.2949-0.07z"/>
   <path id="path39200" d="m3435.9 1045.5-2.2949 0.072 2.2949-0.072z"/>
   <path id="path39198" d="m2790.9 1046-0.2305 2.2578 0.2305-2.2578z"/>
   <path id="path39196" d="m2828.8 1046.5 10.262 0.2754-10.262-0.2754z"/>
   <path id="path39194" d="m3225 1046.8-3.709 0.6972 3.709-0.6972z"/>
   <path id="path39192" d="m3061.3 1046.8 0.8867 0.7715-0.8867-0.7715z"/>
   <path id="path39190" d="m2782.4 1047c11.343 0.037 26.226 11.469-3.0371 20.387-10.828-15.103-4.7239-20.412 3.0371-20.387z"/>
   <path id="path39188" d="m3143.9 1047.3c2.2906-0.1131 10.061 7.4408 1.1563 4.7285-2.1092-3.4673-2.0526-4.6843-1.1563-4.7285z"/>
   <path id="path39186" d="m3409.3 1048h3.8144-3.8144z"/>
   <path id="path39184" d="m3273 1049-2.9805 4.1465 2.9805-4.1465z"/>
   <path id="path39182" d="m2825.3 1049.1 3.6895 0.082-3.6895-0.082z"/>
   <path id="path39180" d="m3210.9 1050.5-2.2949 0.07 2.2949-0.07z"/>
   <path id="path39178" d="m2401.9 1052.5 1.9101 0.8222-1.9101-0.8222z"/>
   <path id="path39176" d="m3198.2 1052.7 3.0078 0.5019-3.0078-0.5019z"/>
   <path id="path39174" d="m2823.4 1053.7 1.1933 0.1621-1.1933-0.1621z"/>
   <path id="path39172" d="m2791.2 1054.4-1.5176 0.016 1.5176-0.016z"/>
   <path id="path39170" d="m2892.3 1056.6 2.2578 0.2305-2.2578-0.2305z"/>
   <path id="path39168" d="m3200.5 1057.3 1.2911 1.5156-1.2911-1.5156z"/>
   <path id="path39166" d="m2987.9 1057.4-2.2637 0.062 2.2637-0.062z"/>
   <path id="path39164" d="m3133.8 1058.1h3.6758-3.6758z"/>
   <path id="path39162" d="m2898 1059.3-2.0938 0.5019 2.0938-0.5019z"/>
   <path id="path39160" d="m3273.1 1060 1.7227 0.045-1.7227-0.045z"/>
   <path id="path39158" d="m2818.8 1060.5 0.8867 0.7715-0.8867-0.7715z"/>
   <path id="path39156" d="m2770.2 1061.2 1.7227 0.045-1.7227-0.045z"/>
   <path id="path39154" d="m2899.8 1061.6 2.2578 0.2305-2.2578-0.2305z"/>
   <path id="path39152" d="m2352.6 1061.8 0.8867 0.7735-0.8867-0.7735z"/>
   <path id="path39150" d="m2689.3 1062.9-5.3672 6.832 5.3672-6.832z"/>
   <path id="path39148" d="m3200.6 1063.8c1.0752-0.3181 0.2096 9.0397-1.3867 3.0918 0.6318-2.1546 1.0857-3.0027 1.3867-3.0918z"/>
   <path id="path39146" d="m3284.8 1064.1 2.2578 0.2305-2.2578-0.2305z"/>
   <path id="path39144" d="m3036.9 1065.3-1.2891 2.2285 1.2891-2.2285z"/>
   <path id="path39142" d="m2438.5 1065.5c2.7359-0.1409 8.3842 10.423-1.2148 3.2598-0.089-2.3423 0.4488-3.2203 1.2148-3.2598z"/>
   <path id="path39140" d="m3213.1 1066.2 3.9316 0.9239-3.9316-0.9239z"/>
   <path id="path39138" d="m2560.3 1066.6 3.6895 0.084-3.6895-0.084z"/>
   <path id="path39136" d="m3353.8 1068 0.8867 0.7735-0.8867-0.7735z"/>
   <path id="path39134" d="m2542.3 1069.1 2.2578 0.2305-2.2578-0.2305z"/>
   <path id="path39132" d="m2778.5 1070.4 2.2578 0.2305-2.2578-0.2305z"/>
   <path id="path39127" d="m3312.2 1071.6 5.5918 0.014-5.5918-0.014z"/>
  </g>
 </g>
</svg>
