<?xml version="1.0" encoding="UTF-8" standalone="no"?><svg xmlns="http://www.w3.org/2000/svg" viewBox="0 0 150.97594 117.07144" height="117.071" width="150.976"><path d="M75.79 15.534l-.224-.31.224.31zM2.72 74.344c.155-.04.33.078.233.23-.063-.044-.59-.135-.232-.23m85.718-28.95c-.02.073-.358.486-.025.323.142-.07.198-.272.025-.324M79.586 74.59c.154-.04.328.078.23.23-.063-.043-.588-.135-.23-.23M33.908 56.96c-.2.08-.633.09-.52.33.2-.08.635-.088.52-.33m30.43-37.725c-.36.093.165.186.23.23.096-.153-.078-.272-.23-.23m-9.304 67.77c-.172-.053-.12-.256.024-.326.335-.162-.004.25-.024.325m45.974 8.933c.155-.04.328.077.232.23-.064-.043-.59-.136-.232-.23M76.832 21.55c-.358.094.168.187.23.23.098-.15-.076-.27-.23-.23m8.613 35.355c-.074-.02-.486-.36-.325-.027.07.144.273.198.325.027m9.792-37.417c-.052.173-.254.12-.325-.023-.16-.334.25.004.325.023M3.697 78.882c.16-.06.246.173.086.232-.16.06-.247-.172-.086-.232M28.56 89.757c.162-.06.247.17.087.23s-.246-.17-.086-.23m47.723 3.16c-.16.058-.076.288.085.23.16-.06.075-.29-.085-.23M59.25 86.458c.16-.06.247.172.087.23-.162.06-.248-.17-.086-.23M95.064 44.8c-.172-.006-.25.164-.23.28.03.148.253.235.415.223l-.185-.502zM3.888 75.3c-.05.11-.52.358-.522.227-.006-.27.098-.428.273-.336.042.025.183.078.248.11m42.097 7.285c-.068.187-.254.132-.43-.078-.098-.117.35-.14.527-.212.047.09-.063.192-.097.29M80.477 26.79c-.132-.003-.226.234-.22.31.254.08.792-.304.22-.31m34.282 11.646c.032-.266-.363-.247-.39-.044-.03.266.362.247.39.044M29.966 90.02c-.067.187-.252.13-.43-.077-.097-.118.352-.14.53-.212.047.09-.065.19-.1.29m63.566-18.732c.225.037.074.47-.197.37-.575-.214.15-.378.197-.37m-57.6 19.624l-.28.105c.02.225.116.74.454.363l-.173-.468zm30.353-16.875l.173.467c-.337.38-.434-.136-.455-.363l.28-.103zm36.997-30.046c-.124.08-.38.19-.382.138-.02-.37.375-.568.57-.492-.046.088-.14.325-.187.355M66.036 90.086l.174.468c-.337.378-.434-.137-.455-.364l.28-.105zm42.162-49.04c-.124.08-.38.188-.383.136-.02-.37.375-.568.57-.49-.047.085-.138.323-.187.355m26.563-17.718c.06.173.336.515.06.546-.157.018-.418-.027-.37-.23.033-.15.158-.31.31-.316M98.48 3.92c.057.17.333.514.057.546-.158.016-.418-.027-.37-.232.035-.15.16-.307.313-.315m-27.37 100.426c.058.173.334.517.056.546-.156.018-.417-.026-.37-.23.035-.15.16-.31.313-.316M45.42 38.773c.045-.205-.215-.25-.373-.232-.276.032 0 .376.06.548.152-.008.277-.165.312-.315M68.407 83.58c.186.07.133.26.01.325-.13.067-.344-.032-.376-.172-.032-.136.08-.303.255-.21.022.013.09.047.11.057m-8.33 22.608c.185.07.132.26.008.325-.126.067-.343-.032-.373-.172-.033-.135.078-.303.253-.21a1.2 1.2 0 0 0 .113.058m-5.684-88.004c-.154.008-.278.166-.312.315-.047.204.212.247.37.23.277-.03 0-.373-.058-.546M83.45 63.36c-.096-.057-.207-.07-.443-.066-.16.003.092.44.196.47.156.042.712-.13.247-.404M63.34 79.815c-.035-.143-.25-.576-.244-.71a.598.598 0 0 1 .227-.432c.166.378.072.772.017 1.142m25.998-43.012c.024-.11-.027-.246-.156-.23-.15.016-.534.163-.273.38.108.09.4-.018.428-.15M60.3 22.205c.097-.228.285-.44.215-.617-.055-.137-.233-.17-.346-.02-.186.233.025.58.13.637m70.572 5.76l.175.47c-.17.056-.512.335-.55.06a.487.487 0 0 1 .375-.53m-34.343 51.2l-.497.183-.183-.496.496-.184.183.496zM67.066 89.808c-.105.158-.287.117-.32.008-.07-.22-.016-.578.23-.675.098.213.24.443.09.666M34.193 73.382c-.012.308-.433.27-.675.383-.018-.278.263-.55.504-.617.128-.037.177.102.17.233m10.388-6.24c.192-.19.032-.43-.057-.622-.148.002-.296.165-.298.32-.004.15.132.522.355.302m34.305 29.74c-.105.158-.287.118-.32.01-.07-.22-.016-.58.23-.675.098.212.24.44.09.665m-27.163-32.89c.153-.217.394-.457.497-.708-.422.14-.718.454-.9.823.08.096.332-.016.402-.114m37.232-11.868l-.496.183.183.495.497-.184-.183-.495zm-54.02-10.023l-.495.184.182.495.496-.183-.183-.495zm6.97 20.617c-.018-.248-.44-.203-.654-.025l.166.45c.205-.06.516-.1.488-.426M41.32 99.61c-.02.31-.544.442-.556.356-.055-.447.217-.678.52-.69.056.088.04.217.035.334M63.995 19.22c.184-.197.03-.43-.04-.58-.28 0-.675.172-.333.498.088.085.25.22.373.082M41.88 47.733c-.136-.143-.4-.22-.578-.102l.223.605c.297.003.68-.16.355-.502M87.73 36.77c-.11-.234-.403-.15-.556.046-.192.243.342.34.566.358.327.023.034-.31-.01-.405m16.426 1.884c.137-.026.312.417-.068.354-.232-.04-.5.06-.697-.12-.18-.165.077-.218.177-.235.1-.016.392.034.59 0M37.354 64.857c-.03.01-.13.05-.127.047-.218.24-.55.437-.53.76l.84-.31-.183-.497zm-27.883-5.6c-.037.15-.365.257-.458.158-.108-.114-.236-.32-.126-.4.14-.098.324-.23.433-.117.06.058.17.282.152.358M46.708 80.46c.043-.068.137-.285.132-.368-.014-.286-.558-.282-.578-.048-.01.1.05 1.036.446.416M66.466 8.647l.305.824-.483.18c-.297-.314-.003-.66.14-.988-.008.02.022-.008.04-.015m17.438 89.64l.308.832-.45.166c-.252-.294-.348-.88.142-.998M68.227 111.98c-.047.186-.222.296-.392.326-.318.052-.387-.348-.318-.55.215-.014.454-.01.67-.137.07.112.07.24.04.36M30.41 64.32c.028-.012.072-.19.077-.24.02-.252-.29-.492-.42-.37-.23.213-.26.485-.034.738.062.07.242-.055.377-.127M5.205 77.14c-.038.396-.49.29-.723.232-.83-.202.28-.416.493-.445.045-.007.248.023.23.214m17.787-6.2c.352.163.076.417-.165.393-.22-.024-.454-.11-.583-.252-.095-.102-.21-.34-.12-.417.278.204.594.153.868.278M4.42 72.244c-.2.164-.518.195-.736.004a1.11 1.11 0 0 1 .684-.62c.09.2.256.444.05.616m12.81-.406c.044-.066.21-.248.247-.29-.063-.127-.053-.572-.275-.334-.256.275-.722.537-.636.958.248-.1.516-.118.663-.333M88.622 31.51c-.12.112-.507.38-.505.127.005-.448.42-.765.805-.904.15.294-.084.575-.3.778m-31.834 72.893c.185.07.13.292-.01.317-.45.083-.712-.465-1.12-.65.02-.134.11-.308.276-.194.273.19.53.406.854.527m-6.114-82.49c.136-.248.378-.52.145-.774-.168-.183-.395-.11-.546.01-.234.182-.03.477.084.644.07.1.25.236.316.118m70.86 23.41c-.236.225-.27-.254-.235-.297.23-.276.25-.964.723-.77.188.077.03.424-.1.617-.066.1-.302.365-.39.45M87.43 40.4c.152-.21.04-.495-.132-.62-.21-.15-.494-.038-.62.132-.15.21-.037.494.133.62.21.15.495.037.62-.133M50.268 20.154a3.03 3.03 0 0 0-.45-.442c-.136-.093-.333-.132-.466-.028.11.27.157.58.442.892.125.136.392.192.627-.006-.022-.062-.102-.34-.152-.415m-8.06 17.91c-.204-.18-.55-.47-.838-.22-.19.162-.124.418.047.554.158.123.467.054.72.07.393.022.176-.312.072-.403m-.36 67.3c.054.103.164.44.205.55l-.805.298c-.065-.244-.365-.525-.137-.808.13-.16.42-.29.612-.12.023.02.114.057.126.08m7.098-7.446c-.084.317-.546.475-.835.317-.174-.095-.18-.317-.25-.483.277-.14.52-.412.772-.48.144-.04.36.064.352.254-.005.078-.02.315-.04.392m-9.778 7.83c-.185.238-.617.413-.878.116-.17-.194-.082-.485.088-.614.223-.168.56-.254.774-.003.12.14.132.35.015.5M140.564 35.64c-.07.172-.45.36-.614.093-.047-.077-.156-.353-.14-.42.048-.215.114-.443.275-.604.274-.273.496-.016.505.27.004.14.023.542-.025.66m-95.33-6.26c-.23.274-.7.174-.95.038-.152-.086-.242-.39-.015-.492.243-.108.55-.383.838-.174.175.127.306.42.128.63M63.34 79.814c.162.694.42 1.38.312 1.757-.194.67-.645.054-.576-.166.156-.51.095-1.095.264-1.59M32.663 53.183c.18-.235 0-.51-.127-.66-.158-.182-.478-.38-.743-.155-.35.3-.017.753.25.944.204.15.493.033.62-.13M83.09 36.96c.028-.032.21-.4.215-.523.005-.12-.127-.507-.19-.578-.097-.11-.267-.22-.41-.097-.24.202-.27.533-.215.83.04.22.146.895.6.368M25.967 86.178c-.025.29-.34.253-.456.31-.3-.515-.432-1.098-.165-1.468.075-.1.473-.25.437.08-.034.34.22.684.185 1.077M75.79 15.534c-.042.398-.546.806-.288 1.097.2.233.487.204.53.048.127-.425.652-.734.504-1.273-.27.147-.52.223-.746.13m-38.816 55.93c.035-.12.168-.252.06-.393-.234-.312-.552-.606-.97-.647-.09-.01-.49.122-.532.174-.154.195-.473.61-.082.668.395.057.6-.65.957-.43.184.113.23.375.21.588-.026.32.302.24.357.04m37.72 22.01c-.31.397-.554-.53-.76-.95-.085-.175-.113-.647.24-1.04.255.32.483 1.17.658 1.606.01.03-.015.23-.137.385m15.422-43.484a.6.6 0 0 0 .1-.194c-.023-.222-.123-.49-.333-.402-.452.19-.933.445-1.228.883-.087.127-.128.324-.018.463.558-.177 1.02-.484 1.48-.75m36.304-20.855c-.16.17-.503.398-.778.2-.263-.19-.604-.652-.238-.938.282-.217.716-.16.893.057.146.18.334.456.122.68m-21.435 54.115c-.264.243-.566.034-.853-.212-.2-.17.102-.54.282-.732.184-.198.554-.276.74 0 .114.165.307.443.102.66a6.553 6.553 0 0 1-.27.284M4.97 80.317c-.33.294-.843.4-1.263.562-.083-.182-.233-.414-.06-.626.288-.355.762-.722 1.122-.567.272.117.402.45.2.63m40.863-7.53c.22-.293.293-.793.244-1.214-.5.13-.877.443-1.29.675l.374 1.004c.228-.124.513-.253.673-.466m32.49 44.285c-.486-1.106-.75-2.25-.548-3.1.24.22.395.643.43.945.08.684.328 1.376.118 2.156m37.872-78.473c.098-.04.216-.43.204-.528-.08-.655-.857-.823-1.383-.667-.248.072-.023.454.108.54.34.228.67.82 1.07.654M41.84 98.773c-.21.217-.35-.163-.364-.328-.035-.484.215-1.168.678-1.217.336-.033.725.514.46.782-.088.088-.408.132-.465.192-.088.087-.216.476-.31.57m.662-48.913c.006-.227-.05-.557-.228-.58-.374-.048-.58.36-.962.413.052.14.167.608.267.72.138.152.39.233.603.266.1.014.437-.163.547-.204-.045-.12-.232-.486-.228-.617M86.23 80.205c-.1.194-.302.054-.35-.05-.203-.463-.733-.725-.924-1.223.608-.088 1.204 0 1.64.275.083.053.166.445.214.573-.282.033-.472.215-.58.426m-44.08 16.46c-.178.366-.5.052-.632.017-.24-.064-.425-.035-.635-.137.067-.466-.216-.986.156-1.37.125-.13.457-.244.463-.114.022.56.287 1.148.648 1.604m5.506-80.303c.12.207.253.403.323.67-.457-.094-.813-.622-1.085-1.133-.364-.68-.824-1.317-1.085-2.23l.502-.186c.316 1.142.84 2.006 1.344 2.88m20.5 76.148c-.01.156-.28.21-.365.18a5.763 5.763 0 0 1-1.878-1.1c-.19-.166.324-.125.493-.166.59-.14 1.305.236 1.626.73.04.06.13.272.125.356M43.617 73.965c.07-.245.1-.508.225-.75-.234-.3-.356-.715-.645-.942-.3-.232-.65.084-.948.176.028.26.245.425.435.594.278.25.128.698.346 1.03.173.266.54.073.587-.11m-8.333-7.193c.048-.014.082-.127.102-.15.23-.267-.06-.546-.132-.798-.17.063-.816.198-.946.35-.356.42-.833.84-1.498 1.107l.188.507c.508-.46 1.48-.748 2.286-1.016m9.57 3.312c-.24-.174-.562-.415-.6-.856-.348.15-.69.278-1.094.262-.27-.01.195.445-.08.668-.21.17-.453.468-.12.78.35-.243.89-.63 1.44-.475.17.05.407-.083.455-.378M21.037 74.85c-.694.404-1.458.266-2.227.012.4-.48 1.23-.81 1.764-.6.225.09 1.064-.393 1.316-.486l.183.496c-.207.114-.83.458-1.036.578M87.04 25.428c.243.577-.54.593-.883.665-.14.028-.4-.115-.495-.245a1.583 1.583 0 0 1-.253-1.31c.045-.195.244-.36.34-.302.475.285 1.04.587 1.29 1.192m11.353 66.38c.196.26-.215.22-.385.305-.837-.967-1.745-2-2.557-3.14.333-.32.815-.12.986.117l1.957 2.718zm-11.788-52.62c.145-.145.365-.31.33-.608-.034-.29-.466-.535-.474-.932-.004-.2-.106-.47-.363-.375-.473.175-.872.63-.986 1.085-.106.432.397.43.645.648.202.176.54.488.85.18m33.617 2.302c.08.51-.82.667-1.22.778-1.445.404-2.91 1.112-4.22 1.17-.303.014-.657-.228-.51-.734.847.484 2.42.088 3.28-.446l2.67-.768zm-13.094-5.18c.58.58-.44.6-.633.603-1.35.025-2.646-.026-4.472-.264l4.834-.697c.193-.028.386.18.27.358M3.27 78.584c-.064.247-.465.287-.73.19-.168-.06-.665-.29-.698-.28-.606.154-1.186-.218-1.796.188-.15-.296.07-.855.584-.85.503.005 1.397.206 2.343-.27.154-.076.33-.226.547-.218.133.006.252.32.14.44-.208.23-.32.514-.39.8m41.556 28.688c-.41.365-.764-.013-1.06-.144-.29-.125-.38-.52-.43-.826-.018-.115.204-.637.31-.674.583-.205 1.162-.192 1.63.043.23.593-.063 1.255-.45 1.602m-5.092-3.127c-.038.075-.538.2-.78.29.174-.6.245-1.308.198-1.893-.028-.36.27-.74.49-.913.226-.18.586-.45.895-.138.28.285-.296.688.09 1.088-.18.568-.61.992-.893 1.565m26.95-25.724c-.213.31-.52-.763-.74-1.18-.488-.924-.073-1.76.28-2.417.154-.29.213.18.256.328.074.247-.006.626.213.855.142.15.402.27.4.542-.01.646.02 1.256-.408 1.874m4.695-4.89c.13-.167.432-.89.457-1.13.016-.158-.2-.66-.277-.816a.8.8 0 0 0-1.028-.377c-.305.132-.61.48-.587.857.03.51.295.996.668 1.35.18.172.532.418.767.117m5.95 21.178c-.18.494-.277-.558-.378-.636-.173-.136-.822-.178-.91-.29-.175-.212-.436-1.03-.435-1.313 0-.162.168-.43-.062-.632-.254-.222-.15-.652.025-1.047 1.04.33 1.952 2.067 1.808 3.345-.008.08.038.335-.05.573M14.46 62.442c-.482.253-1.02-.036-1.355-.42-.213-.246-.383-.577-.386-.875-.002-.266.177-.625.347-.735.725-.467 1.533-.19 1.84.373.216.392.084.842-.038 1.223-.03.095-.316.386-.41.434m25.247-24.75c.113-.404-.344-.704-.65-.825-.864-.337-1.696-.875-2.713-.885-.308-.003-.584.26-.252.454.8.472 1.534 1.082 2.177 1.58.423.328 1.298.18 1.438-.324m61.732-26.67c-.243.14-.407.416-.68.532l-.425-2.02c.54-.293.935-.79 1.377-1.037.155-.09.535.136.663.29.127.155.357.762.35.947-.006.188-.293.782-.44.906-.222.187-.574.227-.845.383m14.7 20.244c-.53.142-1.23-.168-1.46-.685-.136-.307-.32-.77.013-1.025.355-.27 1.015-.232.96-.834.132-.05.398-.158.414-.154.73.09 1.388.872 1.068 1.64-.074.18-.372.333-.6.183-.324-.21-.356.196-.173.34-.06.144-.156.518-.22.534M102.224 91.69c-.376.3-.766-.14-1.135-.228-.17-.04-.394.013-.482-.118-.198-.3-.476-.766-.426-.948.14-.505.458-.936.91-1.13.445-.192 1.05.083 1.4.42.136.13.355.855.352 1.057-.002.41-.314.702-.62.947m25.024-68.067c-.277.13-.77.156-1.047.457-.302-.134-.648-.193-.752-.327-.642-.82-.162-1.643.45-2.232.086-.083.528-.13.92-.12.2.006.476.102.594.262.16.216.417 1.018.44 1.293.026.304-.298.524-.604.668m-42.544 45.66c0-.07-.087-.282-.136-.32-.137-.107-.658-.292-.79-.405-.062-.054-.126-.357-.134-.363-.783-.55-1.54-1-2.372-1.28-.164-.058-.412-.154-.545.034-.2.282-.037.71.11 1.237.075.272.576.62 1 .818.69.318 1.427.57 2.16.668.275.037.7-.054.707-.39m-6.826 35.688c-.064.218-.597.255-.994.416-.12-2.452-.585-5.023-1.28-7.668-.042-.156.038-.556.045-.665.22.07.41.206.457.47.136.733.496 1.404.51 2.134.006.34.373.85.523 1.333.367 1.19.55 2.29.757 3.406.016.086.042.37-.02.575M95.48 88.2c-.166.366-.485-.014-.61-.16-1.233-1.444-2.448-2.84-3.69-4.295-.445-.52-.966-1.035-1.656-1.01-.62-.513-1.125-1.2-1.56-1.935-.056-.098.062-.388.303-.268.303.15.43.758.593 1.1.065-.026.465-.255.542-.202l1.605 1.068c.072.047.12.573.253.683l2.21 1.862c.347.308.368.92.702 1.226.262.238.532.484.704.827.187.37.318.807.603 1.106m-32.31 12.41c-.206.286-.712.085-.798-.146l-.642-1.774c-.113-.514.147-1.252.787-1.392.948-.204 1.796.043 2.205.97.13.295.482.83.152.976a4.343 4.343 0 0 0-1.704 1.365m34.3-95.8c-.324.308-.835.648-1.285.24-.245-.22-.527-.794-.72-1.233-.026-.673.56-1.133 1.11-.924.063-.154.263-.454.244-.592-.073-.513-.48-1.166-.023-1.41.403-.218.343-1.07 1.01-.855.543.178.865.82.76 1.277-.15.67-.63 1.29-1.54 1.608.11.53.484.923.602 1.342.053.193-.067.455-.16.547M80.3 81.35c-.285.218-.67.388-1.07.27-.13-.036-.27-.104-.185-.28l1.258-2.713c.252-.788-.44-1.468-.886-1.924.087-.292.204-.954.31-1.057.103-.1.47-.34.502-.014.052.506-.48.992-.2 1.25.355.324.832.682 1.145.466.495-.342.074-.785-.03-1.102a.392.392 0 0 1 .486.004c.49.366.94.842 1.35 1.374-.087.69-.903.776-1.52.74-.22.7-.55 1.237-.853 1.78-.158.284.03.945-.308 1.207m-10.988.284c-1.076.397-1.96.108-2.614-.487-.39-.353-.178-1.063-.022-1.413.535-1.2 2.236-1.255 3.15-.7.068.042.433.894.37 1.09-.187.576-.512 1.058-.884 1.51m-35.68-15.682l1.602-1.07c.41-.564 1.512-1.093 2.27-1.038.164.01.597-.317.686-.435.19-.26.436-.656.13-.977-.098.036-.437.224-.557.206-.154-.024-.636-.472-.717-.45-1.22.346-2.324.828-3.148 1.432-.867.634-1.702 1.373-1.972 2.307-.07.24-.156.536-.09.77.65-.24 1.284-.403 1.795-.748m23.295 36.5c-.598.187-1.094.624-1.708.595-.605-.032-1.597-.565-1.367-1.53.67-.58 1.4-1.455 2.346-1.868.452-.198.743-.747 1.36-.538.127.043.504.196.57.283.12.162.293.793.387 1.046l-1.59 2.012zM39.86 91.942c-.11.377-.578-.004-.84-.127-.204-.095-.33-.35-.498-.315-.814.157-.983 1.05-1.154 1.556-.46-.48-.862.087-1.098-.13-.294-.268-.633-.556-.838-.456-.565.27-1.164.177-1.73.135-.397-.03-.55-.62-.727-.963-.198-.38-.586-.143-.79-.115-.396.05-.81.103-1.063-.226-.255-.33.075-.865-.008-1.28-.03-.135-.336-.377-.352-.478-.054-.35.025-.726-.03-1.052-.352-.1-.61-.586-.843-.406-.482.375-1.082.605-1.55.32-.24-.147-.29-.578-.43-.93.772-.14 1.57-.027 2.1.305.22.135.5-.187.635-.43.174-.32.46-.573.735-.76.122-.082.575-.29.714-.237.608.24 1.025.863 1.703 1.294.127.08.278.395.338.654.098.426.244.836.472 1.206-.333.343.03.658-.067 1.06.587 0 1.248-.36 1.794-.538.35-.112.54.25.565.48.784-.127 1.5.11 2.355.25.295.05.285-.637.56-.856.298-.237.57-.516.654-.85.16.02.24.097.21.334-.113.875-.57 1.696-.82 2.555m21.233-71.17a62.088 62.088 0 0 0-.137-8.21c-.034-.38-.31-.698-.6-.975-.286-.27-.758-.375-1.123-.616a.947.947 0 0 0-1.157.108c-.197.186-.38.52-.43.82a6.63 6.63 0 0 0-.036 1.912c.023.203.277.43.255.566-.19 1.156-.228 2.426-.527 3.46-.08.267.258 1.063.42 1.254.093.11.755.158.85.266.156.18.258.99.416 1.123.22.186.484.38.74.47.093.034.41-.167.51-.154.164.018.267.272.402.302.19.04.406-.132.417-.33m4.143 70.375c.048.085-.048.195-.395.09-.622-.188-1.6.12-2.128.164-1.007-.208-1.638-.872-1.728-1.734-.028-.273-.35-.517-.58-.55-.22-.033-.413.227-.445.425-.048.287.29.454.298.66.01.368.077.717.04.742-.803.555-1.234 1.033-1.553 1.657-.07.138-.89.418-1.058.364-.642-.206-1.33-.398-1.994-.394-.11-.298-.272-1.054-.447-1.207-.22-.194-.808-.437-.612-.77l1.248-2.043c.806-.487 1.708-.738 2.613-.875.376-.057.657.27.833.58l.693-.256c-.305-.32-.048-.71.162-1 .025-.034.32-.16.4-.148.17.026.656.312.8.315.188.007.406-.07.464-.235.277.428.69.855.592 1.356-.067.345-.208.922.266 1.183.3.166.636-.19.895.144.255.333.37.88.73.937.42.066.743.302.906.596m85.652-58.295c-.204.222-.622.497-.903.417l-3.497-.996c-1.683.213-2.963-.097-4.42.046-1.167.115-2.535.904-3.727.878-1.23-.026-2.607.533-4.05.742-2.68.388-5.657 1.37-8.217 1.35-.526-.004-1.104.03-1.722.366.027.27.21.53.567.52.212-.007.517-.337.786-.1.187.16.445.538.205.79-.404.43-1.1.34-1.733.62-.166.073-.668-.22-.988-.102l-2.65.98c-.608.058-1.294.147-2.023.38-.06-.212-.096-.49-.365-.518-.42-.04-.512.42-.543.806-.03.396.78.345 1.004.78-.368.224-.668.505-1.068.562-.506.07-.413-.92-.913-.817-1.103.227-2.223-.254-3.103-.826-.22-.143-.126-.447.08-.578.234-.15.585-.228.824-.65.1-.176-.098-.778-.45-.918-.143-.056-.51-.052-.435-.413.087-.427-.654-.313-.784-.724.236-.108.468-.26.673-.083.2.174.398.5.577.475.54-.084 1.11-.122 1.66-.368.758.304 1.713.355 2.67-.02.46-.18 1.085 0 1.57-.184.043-.305.377-.386.664-.463 1.393-.37 2.45-1.332 3.065-2.13 1.327-.2 2.628-.668 3.83-1.137.344-.136 1.013-.318 1.284-.295.92.08 1.735.192 2.41.257.864.587 1.777.55 2.71.544 1.264-.004 2.58-.212 4.026-.628 1.654-.09 3.39-.27 4.336.26 1.834-.232 3.364-.463 4.805-.606.68-.068.99.602 1.264.965.93.19 1.77.024 2.463.043.112.294.332.55.12.775m-76.98 55.828c-.1.123-.033.363-.148.452-1.27-3.16-1.49-5.816-1.434-8.386-.294-.63-.28-1.285-.614-1.77-.1-.645-.294-1.306-.095-1.988.06-.206-.317-.512-.677-.528-.23-.01-.713.4-.884-.01-.293-.698-.167-1.406-.468-2.255-.01-.022.158-.34.14-.472-.038-.273-.292-.598-.137-.93.14-.3.272-.82-.025-.94-.453-.18-.87-.655-.992-1.327-.415-.272-.972-.172-1.594.174-.168.092-.377.635-.852.594-.575-.05-.56-.75-.983-.77-.174-.01-.477.134-.525.194-.136.17-.293.394-.284.594.012.233.51.994.423 1.142l-1.273 2.194c.05 1.178-.23 2.06-.405 2.926-.06.306-.373-.038-.486-.09-.6-.267-1.225-.254-2.042-.402-.404.775-1.226 1.486-1.828 2.327-.05.07-.43.347-.395.025.063-.577.182-1.19.133-1.798-.275-.075-.477-.238-.507-.505-.04-.364.03-.744-.13-1.14-.844.556-1.274 1.33-1.68 2.09-.146.268-.792 1.09-1.29 1.296-.383.158-.826.6-1.046.978-.082.143-.707.17-.772.315-.335.743-.23 1.765-.33 2.635-.81.194-1.693.512-2.47.62l-.183-.494c.34-.175.66-.418 1.02-.564.303-.127.74-.002 1.03-.254.332-.287-.006-.893-.358-1.457-.13-.207-.815 0-.877-.37-.086-.505.18-1.258-.28-1.98-.622-.35-1.36.04-2 .49-.168.118-.654.552-.735.73L47.1 81.66c-.166.358-.715-.288-1.258-.196-.21-.257-.598-1.06-.934-.755-.47.43-.788 1.216-.92 1.865-1.042.723-.985 1.75-1.237 2.784-.243 1-.557 2.08-1.586 2.692-.266.157-.34-.078-.34-.267l.602-.223c-.42-.992-.017-1.743.158-2.48.28-.45.23-1.083.116-1.657.182-.067.536-.166.543-.2.148-.7.664-1.184.913-1.8.138-.343.508-.587.9-.647.048-.236.13-.473.046-.66-.14-.313-.438-.485-.76-.584.188-.76.406-1.51.49-2.265.015-.122-.145-.392-.18-.486-.38.05-.58.4-.966.47.08-.174.365-.643.378-.82.018-.232-.434-.33-.567-.123-.434.676-.883 1.326-1.504 1.93-.244.236-.822.48-.645.97.093.26-.267.51-.496.397-.42-.207.172-.642.005-1.036-.152.057-.482.218-.592.22-.1 0-.412-.186-.545-.167-.272.038-.593.284-.98.1-.202-.098-.742-.117-.68-.493.033-.21.116-.45.264-.598.073-.075.43-.128.482-.188.778-.88 1.798-1.635 2.44-2.55l-.76-1.458c.118-.114.53-.428.55-.53.07-.342-.296-.428-.497-.577.095-.373.442-.51.738-.656-.1-.264-.43-.44-.38-.58.197-.544-.455-.337-.602-.336-1.05 0-1.574.798-1.86 1.464-.46.48-.55 1.232-1.193 1.68-.113.08-.27.08-.407.303-.404.656-.78 1.308-1.015 2.024-.676.435-.963 1.12-1.37 1.56-.362.39-.884.173-1.266.037.1-.503.83-.38.812-.652-.038-.54.41-.996.544-1.3.258-.593.917-1.077 1.277-1.444.19-.988.692-1.597.875-2.264.068-.24-.114-.44-.328-.47-.427-.05-.492.666-.81.344-.345-.352.524-.27.39-.948-.025-.13-.05-.547-.387-.6-.26-.045-.56.04-.69 0l-2.978-.94c-.408-.137-.793.656-1.144.7-.853.103-1.643.192-2.52.675-1.202.66-2.045 1.65-2.748 2.522-.4-.115-.79-.19-.703-.576.056-.242.21-.514.227-.83.675.01 1.134-.458 1.55-.813.704-.594 1.373-1.267 2.313-1.832.106-.063.516.468.666.317.608-.61 1.495-1.07 2.097-1.726.204-.224-.03-.704-.115-.63-.573.52-1.12 1.023-1.888 1.314-.148-.378.136-.818.416-1.002.21-.137.42-.48.16-.73-.18-.17-.395-.36-.355-.652.03-.2.485-.54.33-.616-.51-.25-1.07-.38-1.492-.773-.01.185.018.473-.16.56-1.057.514-2.08 1.033-3.298 1.44l-2 1.528c-.168.117-.24.55-.61.555l.258.697c-.56.256-1.155.012-1.622.068-.29.603-.626 1.176-1.272 1.534-.072.042-.442-.01-.533.043-.352.204-.92.478-.97.77-.1.542-.392 1.12-.677 1.625-.055.095.313.463-.065.453-.12-.004-.45-.15-.436.18.003.09-.044.39-.004.454.143.217.33.424.545.567.437-.27.93-.176 1.383-.4.016.13-.076.34-.202.412a13.42 13.42 0 0 0-1.812 1.246c-.224.185-1.244.346-1.338.534-.326.645-1.107 1.27-2.018 1.272l-4.01 2.445c-.354.215-.554-.352-.406-.528.23-.276.69-.74.337-1.146-.178-.207-.417-.036-.617.044-.763.304-1.21.896-1.79 1.282-.16.107-.397.204-.56-.024a1.583 1.583 0 0 1-.127-.407c-.057-.67.747-.612.996-.727 1.47-.673 2.928-1.6 4.37-1.894.335-.067.812-.87 1.024-1.006.203-.13.913-.358.847-.31.903-.666 1.194-1.37 1.257-2.165.034-.42-.42-.45-.81-.61-.058-.024-.448.04-.406-.298.043-.338.773-.194.74-.67-.012-.14-.187-.41-.17-.487.153-.7.83-1.15 1.776-1.26.214-.024.5.018.666-.18.736-.885 1.655-1.87 1.882-2.88.096-.423.555-.95 1.02-1.157.517-.23 1.012-.45 1.5-.764.484-.058 1.064-.125 1.68-.573.967-.145 1.693-.956 1.647-1.756.74-.566 1.666-.92 2.246-1.453.27-.578.122-1.24.213-1.878.985-.713 1.86-1.395 2.587-2.213.07-.078.172-.392.17-.42-.19-1.93-.53-3.875-1.303-5.876-.044-1.166.716-2.565 2.213-2.446a5.85 5.85 0 0 0 1.557-1.23c.38-.425.69-.885.8-1.334.194-.782.88-1.365 1.218-1.98-.214-.66-.296-1.23-.433-1.738-.025-.096-.45-.2-.5-.28-.124-.194-.285-.908-.408-1.1-.053-.082-.373-.215-.36-.197-.56-.72-.418-1.62.206-1.915.338-.16.64-.418.997-.54.386-.136.862.29 1.09-.013.248-.335.62-.604.673-.94.024-.152-.18-.55-.245-.595-.247-.183-.6-.512-.87-.23-.18.19-.625.888-.864 1.01-.402.205-.96.21-1.466.13-.27-.045-.306-.32-.38-.58.587-.13 1.38.048 1.884-.496.443-.476.764-1.04.987-1.613.072-.184.15-.592.283-.878a5.002 5.002 0 0 1 1.55.138c.635.16 1.258.49 1.732.886.412-.24.77.038 1.077.148 1.384.487 2.61 1.228 3.947 1.83.476.215.964-.047 1.274-.29.757.345 1.423-.304 1.578-.68.447-.058.834.027 1.067-.16.157-.127.354-.79.52-.926.238-.2.734-.166.86-.525.074-.21-.034-.52-.4-.548-.214.325-.75.538-1.23.523-.04.223-.058.77-.153.867-.206.207-1.083.61-1.34.648-.185.03-.57-.09-.47-.525.126-.55.276-1.53-.453-2.3.237-.62.84-.952 1.697-1.12.71.224 1.34.844 2.168 1.328.52-.364-.21-1.515-.38-2.052.18-.066.667-.18.735-.27.314-.413.382-.993.148-1.62-.34-.92-.122-1.69.033-2.337.07-.286-.506-1.117-.425-1.23.46-.634.338-1.49.547-2.203.082-.28.87-.208.882-.464.04-.883.41-1.613.238-2.428-.055-.254-.462-.967-.467-1.212-.003-.183.326-.744.442-1.013.904-.09 1.797.126 2.55.49.677.328.08-.608.054-.827-.068-.57.174-1.136.737-1.487.406.568.383 1.552.82 1.923.232.195.442-.16.398-.277l-.585-1.58c-.05-.134-.37-.142-.51-.336.463-.336.323-.96.184-1.467-.315-.045-.044-.168.192-.233.5.892 1.56 1.45 2.7.716.067-.045.258-.17.475-.15.205.02.33.37.62.356.19-.01.486-.134.45-.743-.066-1.203-.278-2.89.1-4.313.09-.344.35-.704.738-.73.492-.035 1.005-.323 1.415-.235.513.11 1.066.435 1.195 1.07.027.135.425.372.56.187.16-.224.33-.426.61-.457.072.192.224.9.398 1.074.235.234.736.094 1.142.39.327-.31.68-.875 1.31-1.074.26-.082.237-.74.713-.84.15-.03.258-.275.557-.34.077.946-.436 1.682-.587 2.544-.053.3-.665.93-.458 1.208.392.524.7 1.348 1.046 2.128.14.315.047.738.254 1.032.274.387.777.06 1.207.05.338-.668.383-1.486.488-2.26.23-.026.412.03.506.153.108.142.21.812.34.922.29.24.69.414 1.08.44.22.016.375-.306.636-.405.388.39-.25.764.03 1.007.288.252.56.304.82.286.248-.02.322-.333.35-.55.02-.127-.177-.635-.278-.752-.096-.11-.574-.28-.638-.355-.21-.25-.293-.604-.027-.802.228-.17.643-.282.794.04.248.52.975.965 1.622.78.01-.46.578-1.013 1.01-.622.352-.215.87-.04 1.03-.306.34-.573.478-1.157.718-1.694.146-.327.594-.124.49-.054 1.02-.673 2.23-1.04 2.312-1.87.282-.694.466-1.448.502-2.2.027-.526.335-1.053.708-1.447.173-.18.242.3.25.335.23.935-.276 1.603-.337 2.324-.158 1.844-.892 3.526-1.724 5.095-.138.26-.296.522-.25.89.058.44-.162.905-.192 1.382-.17.063-.685.195-.746.276-.462.608-.716 1.312-1.1 1.876-.116.17.086.787.3.83.633.122 1.18.3 1.628-.008l.25.674c.367-.118.753-.41 1.184-.273.056.5.58.854 1.105.83.464-.02.393-.698.93-.625.13.018.33.054.307.24-.055.44-.45.948-.204 1.238.542.643 1.24.887 1.933 1.16.54-.22 1.118-.576 1.646-.36.09.856-.524 1.502-.973 2-.143.155-.332.63-.33.77 0 .165.366.686.325.88l-.95 4.527c-.077.352.392 1.06.474 1.282l.832-.31c.032.432-.436.558-.75.62-.03.225-.152.43.032.698.717-.212 1.568-.117 2.048.365-.532.262-.27.92.048 1.33.06.08.293.245.495.235.23-.012.898-.315 1.066-.416.24-.143.113-.375.065-.55-.12-.444-.624-.534-1.025-.595.747-.19 1.17-.63 1.305-1.108.075-.26.275.326.322.383.44.53.492 1.116.576 1.59.56.055.457.904.69.938 2.71.394 5.544.734 8.974-.322.975.54 2.164.757 3.404.937-2.608.3-5.095.04-7.85.542-.358-.46-.98-.32-1.33-.384-.628-.114-1.136.12-1.692.267-.265.07-.074.61.11.674.457.157.958.34 1.39.78.132.134-.117.806-.56.866-1.253.163-2.66.726-3.75.77 0 .006.177.343.163.443-.033.213-.132.44-.298.602-.247.24-.702.332-.766.618-.095.423.372.658.624.547.967-.434 1.92-.878 3.145-1.28.137-.044.433.13.654-.026.515-.363 1.218-.334 1.81-.5.388-.108.93-.11 1.244.124.107.08.178.48.222.598-.958.283-1.895.5-2.83.62-.074.275-.237.475-.505.506-.41.05-.828-.09-1.205-.025-.118.02-.364.335-.442.34-.736.057-1.48.075-2.14.015.006.405.308.558.618.655-.222.196-.308.59-.472.65l-1.547.574.194.522c.238-.198.483-.12.705.066.285.24.057.627.307.84.126.107.397-.01.524-.208-.33-.31-.316-.77.31-1.077.215-.108.873.432 1.298.248A15.195 15.195 0 0 1 93.54 43.8c.205-.028.482-.424.76-.38.54.087 1.158.025 1.816-.168.85-.248 1.745-.672 2.447-.698a.563.563 0 0 1 .46.212c-.305.113-1.193.382-1.464.542-.216.125-.35.442-.554.474-.296.046-.744.057-.736.37.003.152.028.37.2.405.273.053.64-.032.752.193.146.29-.252.47-.43.578-.578.345-.087.678.044 1.082-.29.104-.554.01-.81-.01.074-.167.208-.327.185-.518-.322-.057-.683-.444-.777-.29-.423.686-1.114.745-1.713.987-.42.17-1.08.063-1.215.33-.293.59-.734.997-.907 1.55-.07.222.084.863.496.79l1.86-.48c.126-.033.343.092.457.26l-4.12 1.796c-.085.765-.668 1.21-.904 1.89-.725.187-1.096 1.03-.99 1.688.055.34.362.414.552.433.214.022.372.166.382.358-.29.146-.83-.035-.914.16-.232.55-.343 1.133-.696 1.614-.16.223-.355.524-.696.533-.33.01-.846-.087-1.055.305-.255.472-.904.528-1.235 1.128.71.655 1.376 1.5 1.464 2.853-.256.418-.095 1.225.797 1.85.12.087.625.267 1.03.68.114.12.362.894.395 1.142a9.198 9.198 0 0 1-.043 2.744c.276 1.01.666 1.94 1.128 2.5-.32.167-.79.02-.833.22-.118.55-.426 1.03-.403 1.653.01.314.41.706.176 1.045-.13.19-.52.273-.472.626.027.203.28.39.283.636.005.283-.292.32-.548.392-.27-1.058-.334-2.02-.446-2.866.41-.783.21-1.588.4-2.498.044-.21-.397-.535-.834-.74-.45.342-.6 1.066-.926 1.628-.6-.163-1.343.2-2.05.074-.43-.075-.667-.478-.994-.486-.486-.01-.666.58-1.02.72-.205.08-.923.013-1.138-.11-.405-.227-.936-.498-1.654-.403-.368.802-.376 1.948.186 3.18-.73-.365-1.26-.947-1.66-1.48-.456-.612-.992-1.175-1.356-2.08-.12-.306-.948-.096-1.464-.25-.157-.046-1.018.246-1.106.454-.305.713-.313 1.652-.92 2.27.042.114.185.385.172.465-.032.2-.397.77-.395.96.004.232.37.92.39 1.125.035.368-.123.717-.154 1.037-.042.423.155.913.316 1.245.14.29.485.29.69.12.176-.147.184-.465.426-.545.05.135.137.5.214.576.104.106.656.257.696.366l.665 1.793c.05.137-.65.92-.86 1.158-.032.038-.345.1-.397.177-.248.37-.615.828-.656 1.18-.135 1.18-.092 2.416.56 3.918.333-.116.334-.585.54-.787.146-.145.79-.362.948-.328.638.136 1.127.732 1.266 1.715.034.237-.2.87-.477.927-.81.173-1.608-.038-2.267-.503.02.613-.235 1.06-.5 1.392" fill="#f0f" fill-opacity=".51"/></svg>